<svg id="Layer_1" data-name="Layer 1" xmlns="http://www.w3.org/2000/svg" viewBox="0 0 280 200"><defs><style>.cls-1{fill:#d1d3d4;}.cls-2{fill:#c52736;}.cls-3{fill:#7c0013;}.cls-4{fill:#fac844;}.cls-5{fill:#d8ac44;}.cls-6{fill:#ee3b3f;}.cls-7{fill:#107a43;}.cls-8{fill:#faa248;}.cls-9{fill:#faec44;}.cls-10{fill:#808285;}.cls-11{fill:#ff6d00;}.cls-12{fill:#6d6e71;}</style></defs><title>z2</title><path class="cls-1" d="M161.6,97.61l-3.5-25.19H162l-15.9-14.81L130.16,72.42H134L130.62,97l-1.24,8.88a47.68,47.68,0,0,0,33.37,0Z"/><path class="cls-1" d="M145.22,7.21a49.17,49.17,0,0,0-25.08,91.47l4.45,2.65V70.44h-1.45l22.08-20.28,22.09,20.28h-1.45v30.89l4.45-2.65A49.17,49.17,0,0,0,145.22,7.21Zm26.53,83.37V76.34h10.68L145.22,42.16,108,76.34H118.7V90.58a43.28,43.28,0,1,1,53.05,0Z"/><path class="cls-2" d="M147.47,7.21a49.17,49.17,0,0,0-25.09,91.47l4.45,2.65V70.44h-1.44l22.08-20.28,22.08,20.28H168.1v30.89l4.46-2.65A49.18,49.18,0,0,0,147.47,7.21ZM174,90.58V76.34h10.68L147.47,42.16,110.26,76.34h10.68V90.58a43.28,43.28,0,1,1,53.06,0Z"/><path class="cls-3" d="M119.37,93c-3-1.3-4-1.54-6-4.83s-5.12-5.66-6.73-8.49-2.22-6.77-3.66-10.09-3.62-4.25-2.7-7.64a70,70,0,0,0,2-12.07c.1-2.64.19-6.08,1.63-9s1.3-5.62,3.48-8.91,2.88-.33,5.1-4.41,5.43-4.88,8.12-8,7.71-5.11,12-6.87,2-.51,6-.7,6-1.14,8.08-.46,4.45-.7,7.29,1.55-13-1.17-23.58,7.57-16.2,12.79-19.07,18.21-3.53,15.64-2.46,25.71,2.32,15.37,6.82,19.73S124.48,95.18,119.37,93Z"/><path class="cls-3" d="M173.18,73.36c-.89.31-1.28,1.19-1.39,3.06s-1.3,3.7-1.53,5.71-.34,4.08,0,4.93-.74,3.85-.21,6,1.85,3.2,3.92-2.09,1.22-9.8,2-12.68S174,73.07,173.18,73.36Z"/><path class="cls-3" d="M175.71,71.11c-.92-1-3.25-1.28-6.66-5s-5.59-4.26-7.91-7.12-6.75-3.76-8.33-7.17-5-3.9-5.77-6.51-2.07-4.56,0-4.93,16.21,16.26,16.21,16.26,7.62,5.57,7.81,5.69,6.75,5.3,7,5.42,6.45,6.26,4.44,6.44S178.11,73.67,175.71,71.11Z"/><path class="cls-4" d="M120,92.23c-1.89-1.85-4.8-1.85-5.18-3.92s-3.17-3.45-3.89-4.83-4.24-5.34-5.15-8.51-.4-3.38-1.38-5.17-3.17-6.22-2.57-8.85-.44-3.42.41-5.68,1.69-7,1.44-8.69-.38-2.39,1.88-5.56,1-6.62,3.36-8.53,3.08-1.63,4.86-4.77,5.93-5.21,8-7.41a15.75,15.75,0,0,1,7.32-4.23c1.66-.22,2.54-1.85,3.6-2.2s6.56-.59,7.69-1.1a9.22,9.22,0,0,1,4.9-.4c1.28.37,3.76-.22,4.33-.32a17.16,17.16,0,0,1,7.21,1.19c3.83,1.39,4.9,1.67,6.87,1.86s2.2.4,3.9,1.5,5,3.74,8.44,5.21,3.76,4.64,5.46,6.34a34.58,34.58,0,0,1,5.86,8c1.29,2.73,1.07,3.54,1.79,5.65s2.76,7.57,2.76,10.34-.06,6.1.38,7.64-.91,8.31-1.79,9.6-.41,2.88-2.85,6.08-1.86,6.19-4.21,7.38-3.89,6.21-5.74,7.25-4.8,5.83-5.93,4,.69-3.48.69-5.3-2.35-3-1.29-5.46-.06-2.54,1-4.74.15-4.74,1-5.4,4.49.85,5.12-.19.15-1-2-2.82-4-1.91-4.8-3.58-5-3.26-6-5-1.32-2.76-2.73-3.79S155.77,54,155.05,52a11.24,11.24,0,0,0-3.83-5c-1.54-1.07-3.55-2.07-3.75-3s-3.81,5.67-7,6.59-3.61,3.23-4.93,4.8-6.25,4.51-7.47,6.4-1.22,1.44-3.23,3.06-4.36,6.48-6.65,6.76-5.62,2.7-4.87,3.42,2.39-1.48,4.8-.32,2.77-.62,4.3.13.66,3,.35,5.18-.94,5.8-.44,8.44S123.35,95.53,120,92.23Z"/><path class="cls-5" d="M118.26,35.85c-.62-.53-4.34-1-4.34-1l-3.72,3.54V44l2.22,1.41,5-2.74s3.8-3.45,3.54-4A19.76,19.76,0,0,0,118.26,35.85Z"/><polygon class="cls-5" points="128.18 23.11 125.87 21.78 123.22 21.78 120.3 24.17 120.93 27.44 123.22 28.86 126.32 28.86 128.71 26.38 128.18 23.11"/><polygon class="cls-5" points="129.94 37.54 128.71 40.81 129.24 45.86 132.78 47.01 136.76 46.48 137.65 40.81 133.84 38.33 129.94 37.54"/><polygon class="cls-5" points="157.48 19.12 155.62 22.4 159.6 26.12 164.2 26.12 166.33 24.43 166.33 21.34 160.84 19.12 157.48 19.12"/><polygon class="cls-5" points="175.62 36.65 172.79 35.5 171.2 35.5 168.19 40.15 171.2 42.67 174.74 44.35 176.33 40.15 175.62 36.65"/><polygon class="cls-5" points="109.05 53.82 106.04 58.07 108.17 62.94 111.53 61.61 114.36 60.99 117.02 56.13 113.39 53.12 109.05 53.82"/><polygon class="cls-5" points="182.97 54.27 180.32 52.67 177.04 53.12 174.92 55.77 177.04 60.11 181.38 60.64 183.86 57.54 182.97 54.27"/><path class="cls-6" d="M118.82,35.85c-.62-.53-4.34-1-4.34-1l-3.71,3.54V44L113,45.41l5-2.74s3.8-3.45,3.54-4A19.76,19.76,0,0,0,118.82,35.85Z"/><polygon class="cls-6" points="128.74 23.11 126.44 21.78 123.78 21.78 120.86 24.17 121.49 27.44 123.78 28.86 126.88 28.86 129.27 26.38 128.74 23.11"/><polygon class="cls-6" points="130.51 37.54 129.27 40.81 129.8 45.86 133.34 47.01 137.32 46.48 138.21 40.81 134.4 38.33 130.51 37.54"/><polygon class="cls-2" points="82.63 98.03 80.34 98.26 77.54 100.03 77.89 102.44 79.36 104.62 82.94 103.5 83.29 100.55 82.63 98.03"/><polygon class="cls-2" points="96.27 84.03 94.48 82.6 91.23 81.92 89.81 83.9 89.34 86.48 92.69 88.17 95 86.29 96.27 84.03"/><polygon class="cls-2" points="71.79 71.52 70 70.09 66.75 69.42 65.32 71.39 64.86 73.98 68.21 75.66 70.51 73.79 71.79 71.52"/><polygon class="cls-2" points="209 99.6 209.31 97.33 208.22 94.19 205.8 93.98 203.34 94.91 203.61 98.65 206.41 99.67 209 99.6"/><polygon class="cls-2" points="203.94 78.94 203.05 76.82 200.53 74.66 198.33 75.7 196.68 77.74 198.8 80.84 201.72 80.31 203.94 78.94"/><polygon class="cls-2" points="217.21 47.42 214.96 46.97 211.76 47.85 211.4 50.25 212.16 52.77 215.91 52.74 217.11 50.02 217.21 47.42"/><polygon class="cls-2" points="214.71 71.29 214.21 70.1 212.79 68.88 211.55 69.47 210.62 70.62 211.81 72.36 213.46 72.06 214.71 71.29"/><polygon class="cls-6" points="158.04 19.12 156.18 22.4 160.16 26.12 164.77 26.12 166.89 24.43 166.89 21.34 161.4 19.12 158.04 19.12"/><polygon class="cls-6" points="176.19 36.65 173.35 35.5 171.76 35.5 168.75 40.15 171.76 42.67 175.3 44.35 176.89 40.15 176.19 36.65"/><polygon class="cls-6" points="109.61 53.82 106.61 58.07 108.73 62.94 112.09 61.61 114.93 60.99 117.58 56.13 113.95 53.12 109.61 53.82"/><polygon class="cls-6" points="183.53 54.27 180.88 52.67 177.6 53.12 175.48 55.77 177.6 60.11 181.94 60.64 184.42 57.54 183.53 54.27"/><polygon class="cls-7" points="159.04 38.93 158.57 37.99 158 37.48 157.43 37.17 157.32 37.04 157.34 37.44 157.45 37.87 157.72 38.01 158.09 38.5 158.31 39.38 157.67 38.95 157.4 38.59 157.18 37.72 157.2 37.33 157.3 37.01 156.8 36.44 156.43 38.09 156.98 39.08 158.19 39.73 158.66 39.99 159.04 38.93"/><polygon class="cls-7" points="112.52 68.18 111.9 66.95 111.14 66.26 110.39 65.85 110.25 65.69 110.27 66.21 110.41 66.78 110.77 66.97 111.26 67.61 111.55 68.78 110.7 68.21 110.35 67.74 110.06 66.59 110.08 66.06 110.21 65.65 109.55 64.89 109.06 67.08 109.8 68.38 111.39 69.24 112.02 69.59 112.52 68.18"/><polygon class="cls-7" points="170.96 30.16 172.45 30.29 173.52 29.97 174.34 29.51 174.57 29.47 174.07 29.19 173.46 29 173.08 29.22 172.2 29.31 170.95 28.92 171.97 28.45 172.6 28.39 173.84 28.78 174.31 29.1 174.62 29.46 175.71 29.28 173.96 27.57 172.33 27.52 170.61 28.5 169.93 28.89 170.96 30.16"/><polygon class="cls-7" points="139.27 30.57 137.96 29.66 136.81 29.38 135.81 29.38 135.58 29.29 135.89 29.81 136.35 30.31 136.82 30.31 137.68 30.69 138.63 31.72 137.44 31.61 136.82 31.32 135.89 30.31 135.62 29.76 135.52 29.27 134.42 28.86 135.14 31.37 136.61 32.28 138.72 32.28 139.55 32.28 139.27 30.57"/><polygon class="cls-7" points="124.74 53.8 124.83 51.53 124.29 49.95 123.53 48.76 123.45 48.41 123.07 49.18 122.83 50.11 123.18 50.67 123.38 51.98 122.88 53.9 122.11 52.4 121.98 51.44 122.47 49.56 122.92 48.82 123.44 48.33 123.09 46.71 120.64 49.47 120.67 51.92 122.28 54.43 122.91 55.43 124.74 53.8"/><polygon class="cls-7" points="170.64 52.41 169.48 50.46 168.16 49.43 166.88 48.84 166.63 48.59 166.72 49.44 167.03 50.36 167.63 50.64 168.51 51.63 169.13 53.51 167.67 52.67 167.04 51.94 166.43 50.09 166.4 49.23 166.57 48.53 165.39 47.36 164.84 51.01 166.2 53.05 168.92 54.28 169.99 54.77 170.64 52.41"/><polygon class="cls-7" points="148.8 19.1 148.22 17.61 147.42 16.73 146.59 16.18 146.44 15.98 146.41 16.58 146.52 17.25 146.91 17.52 147.41 18.31 147.63 19.69 146.7 18.94 146.34 18.36 146.13 17 146.21 16.39 146.41 15.93 145.72 14.97 144.92 17.46 145.63 19.04 147.39 20.21 148.08 20.67 148.8 19.1"/><path class="cls-8" d="M121.05,91c-.31-2.42.5-4.28-.06-6s-2.6.31-6.2-3-5.4-9.41-6.76-12.52-4.27-4.42-3.84-7.15-.63-4.62.61-8.17a48.51,48.51,0,0,0,2.67-12.55c.43-5.21,3.77-5.52,5-8.56s3.7-5.09,5.06-6.51,5.52-5.75,8.81-7.53S134.14,18,136.25,16s4.28-1.18,6.7-1.68-2.49-1.35-8.53.82S127,17,120.86,22.27,110.76,32.82,109.08,34s-2.07,7-2.79,8-1.83.95-1.93,4.08-.15,5.12-1,7.22-1.57,3.51-.5,5.34-1.88,1.91.15,6.92,3.14,4.53,3.19,5.94a15,15,0,0,0,3.61,9c3.05,3.38,4.81,4,6.06,6.54s6.94,6.78,5.26,3.89"/><path class="cls-9" d="M173,91c.31-2.42-.5-4.28.06-6s2.61.31,6.21-3,5.39-9.41,6.76-12.52,4.26-4.42,3.83-7.15.63-4.62-.61-8.17a48.13,48.13,0,0,1-2.66-12.55c-.44-5.21-3.77-5.52-5-8.56s-3.71-5.09-5.07-6.51-5.52-5.75-8.81-7.53S159.89,18,157.78,16s-4.28-1.18-6.7-1.68,2.49-1.35,8.53.82S167,17,173.18,22.27,183.27,32.82,185,34s2.07,7,2.8,8,1.83.95,1.93,4.08.15,5.12.95,7.22,1.58,3.51.5,5.34,1.88,1.91-.15,6.92-3.13,4.53-3.18,5.94a15,15,0,0,1-3.61,9c-3.06,3.38-4.81,4-6.07,6.54s-6.94,6.78-5.26,3.89"/><path class="cls-10" d="M147.2,37.13a.47.47,0,1,1-.94,0,.47.47,0,1,1,.94,0Z"/><circle class="cls-10" cx="164.84" cy="32.75" r="0.47"/><path class="cls-10" d="M161.53,47a.47.47,0,1,1-.47-.47A.47.47,0,0,1,161.53,47Z"/><path class="cls-10" d="M183.36,44.94a.47.47,0,1,1-.47-.47A.47.47,0,0,1,183.36,44.94Z"/><path class="cls-10" d="M175.48,49.15a.47.47,0,0,1-.47.47.47.47,0,1,1,0-.94A.47.47,0,0,1,175.48,49.15Z"/><path class="cls-10" d="M172.82,60.17a.47.47,0,1,1-.47-.47A.47.47,0,0,1,172.82,60.17Z"/><path class="cls-10" d="M184.3,67.52a.47.47,0,1,1-.47-.47A.47.47,0,0,1,184.3,67.52Z"/><path class="cls-10" d="M177.84,80.53a.48.48,0,0,1-.48.47.47.47,0,0,1,0-.94A.48.48,0,0,1,177.84,80.53Z"/><path class="cls-10" d="M153.22,27.44a.47.47,0,1,1-.47-.47A.47.47,0,0,1,153.22,27.44Z"/><path class="cls-10" d="M139.15,25.49a.47.47,0,0,1-.94,0,.47.47,0,1,1,.94,0Z"/><path class="cls-10" d="M123.89,36a.47.47,0,1,1-.47-.47A.47.47,0,0,1,123.89,36Z"/><path class="cls-10" d="M120.47,31.26a.48.48,0,0,1-.48.47.47.47,0,0,1,0-.94A.48.48,0,0,1,120.47,31.26Z"/><path class="cls-10" d="M134.68,20a.47.47,0,1,1-.47-.47A.47.47,0,0,1,134.68,20Z"/><path class="cls-10" d="M126,44.94a.47.47,0,1,1-.47-.47A.47.47,0,0,1,126,44.94Z"/><path class="cls-10" d="M112.09,49.81a.47.47,0,1,1-.47-.47A.47.47,0,0,1,112.09,49.81Z"/><path class="cls-10" d="M118.29,63.67a.47.47,0,0,1-.94,0,.47.47,0,1,1,.94,0Z"/><path class="cls-2" d="M158.92,99.45c-3.69,4.65-5.21-.68-10.75,1.3s-7.64-2.27-11.32-2.83c-2.61-.4-4-.34-4.83-.91l-1.24,8.88a47.68,47.68,0,0,0,33.37,0L163,97.61C162,97.51,160.65,97.28,158.92,99.45Z"/><path class="cls-4" d="M163.38,72.42,147.47,57.61,131.56,72.42h3.88L132,97c.83.57,2.22.51,4.83.91,3.68.56,5.78,4.81,11.32,2.83s7.06,3.35,10.75-1.3c1.73-2.17,3.06-1.94,4.08-1.84l-3.5-25.19Z"/><path class="cls-3" d="M163,97.61c-1-.1-2.35-.33-4.08,1.84-3.69,4.65-5.21-.68-10.75,1.3s-7.64-2.27-11.32-2.83c-2.61-.4-4-.34-4.83-.91l-.34,2.4c2,.55,4-.18,5.68.77,2.08,1.16,4.45,3.36,12.56,2.26s7,2,9.44-1.11c1.74-2.19,2.79-1.82,3.78-2.76Z"/><path class="cls-8" d="M147.47,59.7c-1.17.65-2.71,3.7-5.24,5.33s-6.23,4.29-6.61,5.15.08,1.07,1.28,1.07-1.37,1.25-.73,4.16-1.24,6.1-1.2,9.57-1.84,7-1.33,9.14,1.08,2.66,4.64,2.41,2.16,3.26,5.3,3.21,2.43-2.66,0-4.67-5.35,2-6.42-1.64,1.16-6.22.73-8.53-1.11-4.55,0-6.7.22-5.19,2-7.42,2.92-4.59,4.38-5.88S147.47,59.7,147.47,59.7Z"/><path class="cls-9" d="M147.86,59.7c1.17.65,2.71,3.7,5.24,5.33s6.23,4.29,6.61,5.15-.08,1.07-1.28,1.07,1.37,1.25.73,4.16,1.24,6.1,1.2,9.57,1.84,7,1.33,9.14-1.08,2.66-4.64,2.41-2.16,3.26-5.3,3.21-2.43-2.66,0-4.67,5.35,2,6.42-1.64-1.16-6.22-.73-8.53,1.11-4.55,0-6.7-.22-5.19-2-7.42-2.92-4.59-4.38-5.88S147.86,59.7,147.86,59.7Z"/><polygon class="cls-5" points="153.69 88.61 152.06 85.97 148.95 84.86 145.84 86.24 145.74 91.07 149.35 93.54 152.97 91.92 153.69 88.61"/><polygon class="cls-6" points="154.19 88.87 152.56 86.23 149.45 85.12 146.34 86.5 146.24 91.33 149.84 93.8 153.47 92.18 154.19 88.87"/><polygon class="cls-5" points="144.31 76.48 142.74 75.77 140.96 76.22 139.96 77.83 141.41 80.09 143.84 80.1 145.01 78.23 144.31 76.48"/><polygon class="cls-6" points="144.62 76.44 143.05 75.73 141.27 76.19 140.27 77.79 141.72 80.05 144.15 80.07 145.32 78.19 144.62 76.44"/><polygon class="cls-7" points="156.42 81.7 155.26 79.75 153.94 78.72 152.66 78.13 152.41 77.88 152.51 78.73 152.81 79.65 153.41 79.92 154.29 80.92 154.91 82.8 153.45 81.96 152.82 81.23 152.21 79.38 152.19 78.51 152.35 77.82 151.17 76.65 150.63 80.3 151.99 82.34 154.7 83.57 155.78 84.06 156.42 81.7"/><polygon class="cls-7" points="147.52 72.03 147.86 71.02 147.82 70.22 147.63 69.58 147.64 69.41 147.37 69.71 147.13 70.1 147.22 70.4 147.14 71.03 146.66 71.83 146.5 71.05 146.57 70.6 147.04 69.8 147.35 69.52 147.65 69.37 147.7 68.58 146.22 69.52 145.91 70.64 146.31 72 146.47 72.54 147.52 72.03"/><polygon class="cls-7" points="141.37 88.09 140.43 88.62 139.92 89.23 139.63 89.84 139.51 89.95 139.92 89.92 140.35 89.78 140.49 89.5 140.97 89.09 141.87 88.82 141.46 89.5 141.11 89.8 140.22 90.06 139.81 90.07 139.48 89.98 138.91 90.53 140.64 90.83 141.62 90.2 142.24 88.93 142.48 88.42 141.37 88.09"/><path class="cls-11" d="M147.6,7.74l-1.21,0a48.66,48.66,0,0,1,47.15,43.31h0a32.19,32.19,0,0,1,.25,3.47c0,.62,0,1.24,0,1.87a48.44,48.44,0,0,1-4.79,21.07,54,54,0,0,1-19.14,22.19A48.67,48.67,0,0,0,147.6,7.74Z"/><path class="cls-2" d="M76.29,136.77a16.56,16.56,0,0,1,1.25-3.32,17,17,0,0,1,2-3.15,12.09,12.09,0,0,1,.14-4.6,17,17,0,0,1,1.61-4.41,23.51,23.51,0,0,1,3.52-4.74,27.24,27.24,0,0,1,4.56-3.86,30.34,30.34,0,0,1,5.29-2.86,33.35,33.35,0,0,1,5.65-1.8,27.22,27.22,0,0,1,6.27-.49,19.54,19.54,0,0,1,6.24,1.2A14.71,14.71,0,0,1,118,112a11.44,11.44,0,0,1,3.1,5.65,10.78,10.78,0,0,1,.28,3,14.12,14.12,0,0,1-.51,3,13.63,13.63,0,0,1-3,5.26,20.08,20.08,0,0,1-5.06,3.93,16.25,16.25,0,0,1-6,2,11.28,11.28,0,0,1-3,0,8.75,8.75,0,0,1-2.72-.86c-.59,2.1-1.28,4.2-2.07,6.32a33.5,33.5,0,0,1-3,6.1,20.2,20.2,0,0,1-2.6,3.28A14.45,14.45,0,0,1,90,152.35a11,11,0,0,1-4.1,1.25,8.23,8.23,0,0,1-4.4-.8,7.86,7.86,0,0,1-3.43-2.8,12.11,12.11,0,0,1-1.83-4.13,18.53,18.53,0,0,1-.5-4.67A19,19,0,0,1,76.29,136.77Zm33.41-22.66A11.42,11.42,0,0,0,107,117a23.73,23.73,0,0,0-1.82,3.51,39.46,39.46,0,0,0-1.48,4.33c-.4,1.47-.83,2.94-1.28,4.42-.11.54-.24,1.07-.38,1.59s-.28,1-.44,1.55a4.74,4.74,0,0,0,1.55.47,10.08,10.08,0,0,0,6.23-1.11,8.34,8.34,0,0,0,3.28-3.23,12.45,12.45,0,0,0,1.52-4.4,18.13,18.13,0,0,0,.11-4.65A13.93,13.93,0,0,0,113,115a8.28,8.28,0,0,0-3.12-3.39,9.89,9.89,0,0,0-4.35-1.56,20.48,20.48,0,0,0-4.63,0,20.79,20.79,0,0,0-8.06,2.69,19.28,19.28,0,0,0-6.25,5.72,16.5,16.5,0,0,0-2.85,8.22,9.24,9.24,0,0,1,4.34-1.11,7.61,7.61,0,0,1,1.9.18,5.8,5.8,0,0,1,1.73.69l.51.37a.88.88,0,0,1,.41.5c0,.24-.08.33-.35.27a3.86,3.86,0,0,0-1.06,0,14.11,14.11,0,0,0-3.76.9,13.29,13.29,0,0,0-3.43,1.93,11.82,11.82,0,0,0,1.53,3.76,9.23,9.23,0,0,0,3,2.92c.17.09.22.18.13.28a1,1,0,0,1-.38.24,4.51,4.51,0,0,1-.52.17l-.31.08a5.06,5.06,0,0,1-1.6,0,5.83,5.83,0,0,1-1.48-.42A6.06,6.06,0,0,1,82.32,136a9.55,9.55,0,0,1-1.6-2.06,16.92,16.92,0,0,0-2.55,6.28,12,12,0,0,0,.58,6.67,6.83,6.83,0,0,0,2.43,3.14,5,5,0,0,0,3.86.8,5.4,5.4,0,0,0,3.6-2,13.13,13.13,0,0,0,2.13-3.65,43,43,0,0,0,1.55-4.61c.43-1.57.82-3.16,1.17-4.76s.7-3.19,1.07-4.78.82-3.14,1.33-4.66c.44-1.28,1-2.6,1.54-4a22.15,22.15,0,0,1,2.12-3.89,15.91,15.91,0,0,1,2.86-3.19,9.13,9.13,0,0,1,3.82-1.91,8.39,8.39,0,0,1,1.68-.2,4.7,4.7,0,0,1,1.7.27.35.35,0,0,1,.22.26A.33.33,0,0,1,109.7,114.11Z"/><path class="cls-2" d="M134.56,132.61a1.09,1.09,0,0,1,.37-.7.75.75,0,0,1,.55-.14.64.64,0,0,1,.45.35,1.16,1.16,0,0,1,.06.8,18.37,18.37,0,0,1-3.34,7.75,8.81,8.81,0,0,1-5.62,3.61,5.67,5.67,0,0,1-2.79-.16,3.57,3.57,0,0,1-1.94-1.56,7,7,0,0,1-.91-3.07,18.16,18.16,0,0,1,.28-4.65l1.83-10.46a6,6,0,0,1,1.64-3.09,5.42,5.42,0,0,1,3.09-1.58l3.11-.5c-.51,2.81-1,5.44-1.39,7.87-.2,1-.39,2.08-.56,3.13s-.35,2-.52,3l-.45,2.48c-.12.72-.21,1.27-.28,1.64a6.24,6.24,0,0,0-.07,3.11,1,1,0,0,0,1.17.75,3,3,0,0,0,1.17-.58,7.23,7.23,0,0,0,1.47-1.53,13,13,0,0,0,1.48-2.61A19.72,19.72,0,0,0,134.56,132.61Zm-2.32-16.85a4.11,4.11,0,0,1-2.43,1.77,3,3,0,0,1-2.61-.49,3.5,3.5,0,0,1-1.36-2.49,4.39,4.39,0,0,1,.73-3,4.06,4.06,0,0,1,2.42-1.77,3,3,0,0,1,2.61.48,3.54,3.54,0,0,1,1.36,2.5A4.38,4.38,0,0,1,132.24,115.76Z"/><path class="cls-2" d="M145.06,130.51a6.7,6.7,0,0,1,4.27,1.88,8.23,8.23,0,0,1,2.31,5,15.43,15.43,0,0,0,3.05-3.86,17.42,17.42,0,0,0,1.76-4.43,1,1,0,0,1,.4-.7.77.77,0,0,1,.55-.15.66.66,0,0,1,.42.36,1.15,1.15,0,0,1,.07.8,19.48,19.48,0,0,1-.71,2.52,20.38,20.38,0,0,1-1.2,2.69,15.82,15.82,0,0,1-1.78,2.63,15.58,15.58,0,0,1-2.39,2.34q0,.9-.15,1.95a20,20,0,0,1-.34,2.16,16.57,16.57,0,0,1-4.07,7.75,12.53,12.53,0,0,1-7.23,3.68,6.78,6.78,0,0,1-5.13-.84,5.53,5.53,0,0,1-2.34-3.51,7.62,7.62,0,0,1,.65-4.62A9.45,9.45,0,0,1,137,142a21,21,0,0,1,6-3,21.59,21.59,0,0,1,2.85-.64,17.19,17.19,0,0,0-.1-2.18,8.58,8.58,0,0,0-.58-2.28,5.1,5.1,0,0,0-1.19-1.8,2.62,2.62,0,0,0-1.89-.72,3.35,3.35,0,0,0-1.45.32,8.36,8.36,0,0,0-1.48.93L139,131.3a25.77,25.77,0,0,0,3.43-4.19,14.66,14.66,0,0,0,1.7-3.49,4.17,4.17,0,0,0,.11-2.52,1.84,1.84,0,0,0-1.34-1.26,2.78,2.78,0,0,0-2.54.71,8.48,8.48,0,0,0-2.15,2.75,14.32,14.32,0,0,0-.71,2.13c-.21.81-.41,1.66-.59,2.53s-.35,1.75-.49,2.64-.27,1.66-.41,2.32a2.4,2.4,0,0,1-.46,1.06c-.19.22-.37.3-.56.25a.64.64,0,0,1-.41-.51,2.29,2.29,0,0,1,0-1.11c.13-.67.27-1.46.4-2.39s.31-1.86.51-2.82.44-1.88.67-2.78a9.78,9.78,0,0,1,.88-2.28,9.24,9.24,0,0,1,2.86-3.52,8.14,8.14,0,0,1,3.49-1.52,7.18,7.18,0,0,1,3.42.26,5.4,5.4,0,0,1,2.64,1.84,5.5,5.5,0,0,1,1.07,3.17,8,8,0,0,1-1.27,4.27,7.6,7.6,0,0,1-2.29,2.47C146.05,129.89,145.42,130.29,145.06,130.51Zm-5.31,23a3.58,3.58,0,0,0,2.23-1.35,10.85,10.85,0,0,0,1.63-3,25.28,25.28,0,0,0,1.17-4.16c.32-1.55.62-3.2.9-4.93a7.46,7.46,0,0,0-3.49,1.49,11.4,11.4,0,0,0-2.52,2.72,11.9,11.9,0,0,0-1.5,3.22,11.11,11.11,0,0,0-.48,3.05,4.31,4.31,0,0,0,.54,2.24A1.41,1.41,0,0,0,139.75,153.51Z"/><path class="cls-2" d="M167,127a6.72,6.72,0,0,1,4.28,1.88,8.23,8.23,0,0,1,2.3,5,15.47,15.47,0,0,0,3.06-3.86,17.42,17.42,0,0,0,1.76-4.43,1.05,1.05,0,0,1,.4-.7.76.76,0,0,1,.55-.15.71.71,0,0,1,.42.36,1.16,1.16,0,0,1,.06.8,16.74,16.74,0,0,1-.71,2.52,20.38,20.38,0,0,1-1.2,2.69,16,16,0,0,1-1.77,2.63,15.64,15.64,0,0,1-2.4,2.34c0,.6-.07,1.25-.14,1.95a20.14,20.14,0,0,1-.35,2.16,16.55,16.55,0,0,1-4.06,7.75,12.53,12.53,0,0,1-7.24,3.68,6.79,6.79,0,0,1-5.13-.84,5.55,5.55,0,0,1-2.33-3.51,7.51,7.51,0,0,1,.65-4.61,9.36,9.36,0,0,1,3.82-4.17,21,21,0,0,1,6-3,20.88,20.88,0,0,1,2.85-.64,17.35,17.35,0,0,0-.11-2.18,8.22,8.22,0,0,0-.58-2.28,5.22,5.22,0,0,0-1.18-1.8,2.62,2.62,0,0,0-1.89-.72,3.39,3.39,0,0,0-1.46.32,8.36,8.36,0,0,0-1.48.93l-.21-1.35a26.31,26.31,0,0,0,3.43-4.19,14.87,14.87,0,0,0,1.7-3.49,4.25,4.25,0,0,0,.11-2.52,1.87,1.87,0,0,0-1.35-1.26,2.76,2.76,0,0,0-2.53.71,8.34,8.34,0,0,0-2.15,2.75,13.21,13.21,0,0,0-.72,2.13c-.21.82-.41,1.66-.59,2.53s-.34,1.75-.48,2.64-.28,1.66-.41,2.32a2.63,2.63,0,0,1-.46,1.07.57.57,0,0,1-.57.24c-.19-.05-.32-.22-.41-.51a2.42,2.42,0,0,1,0-1.11c.14-.67.27-1.46.41-2.39s.3-1.86.51-2.82.43-1.88.67-2.78a10.26,10.26,0,0,1,.87-2.28,9.35,9.35,0,0,1,2.87-3.52,8,8,0,0,1,3.49-1.52,7,7,0,0,1,3.41.27,5.32,5.32,0,0,1,2.64,1.83,5.51,5.51,0,0,1,1.08,3.17,8,8,0,0,1-1.28,4.27,7.38,7.38,0,0,1-2.28,2.47Q167.51,126.69,167,127Zm-5.3,23a3.56,3.56,0,0,0,2.22-1.35,10.86,10.86,0,0,0,1.64-3,27.42,27.42,0,0,0,1.17-4.16c.31-1.55.61-3.2.9-4.93a7.5,7.5,0,0,0-3.5,1.49,11.57,11.57,0,0,0-2.51,2.72,11.94,11.94,0,0,0-1.51,3.22,10.71,10.71,0,0,0-.47,3.06,4.21,4.21,0,0,0,.53,2.23A1.42,1.42,0,0,0,161.65,150Z"/><path class="cls-2" d="M205.23,121.34a1,1,0,0,1,.4-.69.77.77,0,0,1,.55-.15.71.71,0,0,1,.45.35,1.08,1.08,0,0,1,.1.8,18.37,18.37,0,0,1-3.37,7.76,8.9,8.9,0,0,1-5.6,3.6,5.1,5.1,0,0,1-3.63-.54,4.72,4.72,0,0,1-1.9-3.22,17.8,17.8,0,0,1-2.73,3.63,7.15,7.15,0,0,1-4.12,2.1,5,5,0,0,1-4.31-1.12,8,8,0,0,1-2.37-4.14,15.14,15.14,0,0,1-.21-5.83,17.21,17.21,0,0,1,2.14-6.21,17.41,17.41,0,0,1,4.73-5.27,16.8,16.8,0,0,1,7.62-3,12,12,0,0,1,5.09.06,7.07,7.07,0,0,1,3.32,2.15c-.41,2.47-.79,4.7-1.16,6.69-.14.86-.29,1.72-.43,2.56s-.29,1.62-.41,2.33-.25,1.31-.35,1.83-.15.86-.16,1a6.28,6.28,0,0,0-.08,3.11c.23.58.61.84,1.11.75a3.15,3.15,0,0,0,1.21-.58,6.77,6.77,0,0,0,1.47-1.53,15.31,15.31,0,0,0,1.45-2.61A19.32,19.32,0,0,0,205.23,121.34Zm-10.72-9.48a1.77,1.77,0,0,0-1.92-.72,4.83,4.83,0,0,0-3,2,16.34,16.34,0,0,0-2.27,4.06,27.7,27.7,0,0,0-1.45,5.08,28.46,28.46,0,0,0-.51,4.92,11.75,11.75,0,0,0,.46,3.63c.31.94.82,1.35,1.52,1.23a2.61,2.61,0,0,0,1.32-.63,5.7,5.7,0,0,0,1.11-1.32,13.71,13.71,0,0,0,.95-1.8c.29-.67.54-1.35.76-2a47.94,47.94,0,0,0,1.37-5.34Z"/><path class="cls-12" d="M129.74,149.41c-.9,1-1.76,2-2.57,3.06a27.27,27.27,0,0,0-2.2,3.32,38.24,38.24,0,0,0-2,4.22,37,37,0,0,0-1.4,4.4c-.37,1.51-.68,3-.9,4.59a38.37,38.37,0,0,0-.4,4.68c0,.87,0,1.77.07,2.69a25.11,25.11,0,0,0,.33,2.73,12.78,12.78,0,0,0,.77,2.63,11.44,11.44,0,0,0,1.37,2.4,2.81,2.81,0,0,0,.53.57,2.22,2.22,0,0,1,.47.58c.19.27.2.43,0,.51a1.18,1.18,0,0,1-.64.1,4,4,0,0,1-.83-.11,2.43,2.43,0,0,1-.6-.18,7.48,7.48,0,0,1-3.34-2.27,14.47,14.47,0,0,1-2.21-3.44,22.86,22.86,0,0,1-1.35-4.32,9.24,9.24,0,0,0-1.83-1.92,17.5,17.5,0,0,0-2.26-1.52,23.37,23.37,0,0,0-2.79-1.36l-.73,2.9q-.81,3.2-1.92,6.31a30.1,30.1,0,0,1-2.85,5.91,21.67,21.67,0,0,1-1.74,2.44,14.36,14.36,0,0,1-2.12,2.08A12.77,12.77,0,0,1,96.16,192a8.8,8.8,0,0,1-2.91.76,8.08,8.08,0,0,1-4.06-.47,7.48,7.48,0,0,1-2.93-2.13,10.48,10.48,0,0,1-1.86-3.27,15.34,15.34,0,0,1-.87-3.93,19.39,19.39,0,0,1,0-4.1,14.93,14.93,0,0,1,.91-3.75,14,14,0,0,1,1.59-3,13.39,13.39,0,0,1,2.37-2.61A23.22,23.22,0,0,1,88,166.6a18.35,18.35,0,0,1,.88-7.81,9.84,9.84,0,0,1,2.9-4.26,11,11,0,0,1,5.12-2.48,17.27,17.27,0,0,1,5.65-.11c1,.13,2.11.32,3.2.56a10.85,10.85,0,0,0,3.37.2c.71-.51,1.44-1,2.16-1.46a4.71,4.71,0,0,1,2.57-.71,1,1,0,0,1,1,.51c.19.36.08.77-.32,1.23a3.18,3.18,0,0,1-.89.77c-.32.18-.64.35-1,.51-.14.28-.27.55-.39.83s-.24.56-.38.87q-.52,1.45-.9,2.88c-.25,1-.5,1.91-.74,2.9-.31,1.29-.6,2.57-.89,3.85s-.58,2.59-.88,3.91a30.51,30.51,0,0,1,5.13,3.06l1,.82a25.51,25.51,0,0,1,.29-5.72,28.36,28.36,0,0,1,1.48-5.48,34.85,34.85,0,0,1,2-4.28,20.26,20.26,0,0,1,2.86-4,16.61,16.61,0,0,1,3.69-3,9.91,9.91,0,0,1,4.53-1.4.28.28,0,0,1,.35.18A.39.39,0,0,1,129.74,149.41ZM100,178.65c.38-1.51.72-3,1-4.55s.63-3.06,1-4.6a21.41,21.41,0,0,0-5.1.32A15.28,15.28,0,0,0,92,171.58a5.42,5.42,0,0,0,3,1.18,8.91,8.91,0,0,0,3.4-.41c.14,0,.21,0,.21.13a1.24,1.24,0,0,1-.07.39,5.66,5.66,0,0,1-.32.71,3.62,3.62,0,0,1-1.83,1.55,4.84,4.84,0,0,1-2.59.22,5.85,5.85,0,0,1-2.4-1A5.07,5.07,0,0,1,90.1,173a16.82,16.82,0,0,0-1.75,2A13.27,13.27,0,0,0,87,177.29a13.41,13.41,0,0,0-1,3.11,14.35,14.35,0,0,0-.27,3.64,10.12,10.12,0,0,0,.8,3.45A5.22,5.22,0,0,0,88.77,190a4.83,4.83,0,0,0,4,.48,6.8,6.8,0,0,0,3.38-2.26,14.25,14.25,0,0,0,2.42-4.56Q99.36,181.11,100,178.65Zm6.09-21.76a17.6,17.6,0,0,1,1.24-2.11c-1.52.24-3.07.42-4.64.52a17.16,17.16,0,0,0-4.72,1,13.27,13.27,0,0,0-3.85,2.2,12.18,12.18,0,0,0-2.85,3.35A10.08,10.08,0,0,0,90,164.93a7.26,7.26,0,0,0,0,3.31,12,12,0,0,1,6.1-2,26.45,26.45,0,0,1,6.5.49c.41-1.71.9-3.38,1.46-5A34.64,34.64,0,0,1,106.1,156.89Z"/><path class="cls-12" d="M138.83,160.9a7.86,7.86,0,0,1,5.51,1.22,7.21,7.21,0,0,1,2.71,4,12.2,12.2,0,0,1,.17,5.48,16.54,16.54,0,0,1-2.13,5.67,15.62,15.62,0,0,1-4.21,4.57,11.53,11.53,0,0,1-6.06,2.19,7.45,7.45,0,0,1-5.44-1.21,7.64,7.64,0,0,1-2.71-4,12,12,0,0,1-.19-5.48,16.56,16.56,0,0,1,2.1-5.66,15.38,15.38,0,0,1,4.18-4.57A11.59,11.59,0,0,1,138.83,160.9Zm-2,21.17a4,4,0,0,0,2.35-2,13.43,13.43,0,0,0,1.4-3.88,23.79,23.79,0,0,0,.48-4.71,19.72,19.72,0,0,0-.45-4.52,8,8,0,0,0-1.41-3.21,2.2,2.2,0,0,0-2.38-.85,3.72,3.72,0,0,0-2.35,2,13,13,0,0,0-1.4,3.91,24.26,24.26,0,0,0-.47,4.74A19,19,0,0,0,133,178a8.35,8.35,0,0,0,1.41,3.22A2.16,2.16,0,0,0,136.8,182.07Z"/><path class="cls-12" d="M173.18,168.19a1,1,0,0,1,.33-.62.69.69,0,0,1,.5-.14.61.61,0,0,1,.41.32,1.08,1.08,0,0,1,.06.73,16.68,16.68,0,0,1-3,7,8,8,0,0,1-5.1,3.27,4.64,4.64,0,0,1-3.27-.49,4.06,4.06,0,0,1-1.73-2.81,9.63,9.63,0,0,1-1.94,3.4,5.08,5.08,0,0,1-2.91,1.47,4.53,4.53,0,0,1-5.13-2.4q-1.62-3-.78-9a30.71,30.71,0,0,1,.75-3.7,15,15,0,0,1,1.32-3.35,9.23,9.23,0,0,1,2-2.53,5.53,5.53,0,0,1,2.79-1.29l1.6-.26q-1.12,3.57-1.92,7.29a68,68,0,0,0-1.13,6.79,23,23,0,0,0-.11,5c.15,1.27.54,1.85,1.18,1.75a2.24,2.24,0,0,0,1.38-.91,8.77,8.77,0,0,0,1.19-2,24.88,24.88,0,0,0,1-2.54,24.19,24.19,0,0,0,.75-2.65.8.8,0,0,1,.05-.34l1.66-9.49a5.43,5.43,0,0,1,1.49-2.8,4.91,4.91,0,0,1,2.8-1.43l2.82-.45q-.7,3.82-1.27,7.13c-.17.94-.34,1.89-.5,2.84s-.31,1.85-.47,2.7-.29,1.59-.41,2.24-.19,1.15-.25,1.49a5.71,5.71,0,0,0-.07,2.82.92.92,0,0,0,1.06.68,2.85,2.85,0,0,0,1.07-.52,6.62,6.62,0,0,0,1.33-1.39,12.19,12.19,0,0,0,1.34-2.37A18.15,18.15,0,0,0,173.18,168.19Z"/><path class="cls-12" d="M186.18,155.26a1.46,1.46,0,0,1,.38,1.17,1.61,1.61,0,0,1-.51.95,1.2,1.2,0,0,1-1.93-.32,2.24,2.24,0,0,0-2.43-1.19,2.55,2.55,0,0,0-1.56,1,2.4,2.4,0,0,0-.52,2,3.67,3.67,0,0,0,1.1,2.12l1.91,1.92a12.26,12.26,0,0,1,1.87,2.44,7.5,7.5,0,0,1,.93,3.65,6.85,6.85,0,0,1-.67,3.45,8,8,0,0,1-1.85,2.32,11.53,11.53,0,0,0,3.09-1.72,13.32,13.32,0,0,0,2.3-2.33,13.82,13.82,0,0,0,1.6-2.66,17.82,17.82,0,0,0,1-2.69.93.93,0,0,1,.36-.63.68.68,0,0,1,.5-.14.57.57,0,0,1,.38.33,1,1,0,0,1,.06.72A14.73,14.73,0,0,1,191,169a15.43,15.43,0,0,1-2.28,3.5,14.73,14.73,0,0,1-3.46,3,12.33,12.33,0,0,1-4.69,1.7,18.56,18.56,0,0,1-2.66.26,12,12,0,0,1-2.07-.11l-.53.09a6.61,6.61,0,0,1-2.88-.06,3.41,3.41,0,0,1-1.65-1,2.36,2.36,0,0,1-.58-1.41,2.32,2.32,0,0,1,.28-1.33,1.41,1.41,0,0,1,.92-.72,1.71,1.71,0,0,1,1.4.43c.42.3.85.65,1.32,1a5.51,5.51,0,0,0,2,1,6,6,0,0,0,2.11-1.84,7.18,7.18,0,0,0,1.25-3.12,3.32,3.32,0,0,0-.23-1.9,7.4,7.4,0,0,0-1-1.64,20.62,20.62,0,0,0-1.43-1.58,10.11,10.11,0,0,1-1.35-1.66c-.16.86-.3,1.71-.44,2.55s-.3,1.6-.48,2.29a2.09,2.09,0,0,1-.45,1c-.19.19-.36.27-.51.22s-.27-.2-.35-.47a2.29,2.29,0,0,1,0-1q.88-4.73,1.33-8.07a5.48,5.48,0,0,1,2.36-3.87,11.78,11.78,0,0,1,5.31-2.1,5.29,5.29,0,0,1,2.42.09A3.47,3.47,0,0,1,186.18,155.26Z"/><path class="cls-12" d="M202.75,150.33a7.32,7.32,0,0,1,4.28.32,3.73,3.73,0,0,1,2.05,2.21,5.54,5.54,0,0,1-.1,3.33,10.75,10.75,0,0,1-2.08,3.71,16.62,16.62,0,0,1-4,3.36,18.41,18.41,0,0,1-5.73,2.27,12,12,0,0,0,.84,2.34,5.76,5.76,0,0,0,1.36,1.83,5.2,5.2,0,0,0,1.92,1.08,5.29,5.29,0,0,0,2.47.12,7.5,7.5,0,0,0,2.4-.84,10,10,0,0,0,2.37-1.8,15,15,0,0,0,2.08-2.7,15.34,15.34,0,0,0,1.55-3.64,1.14,1.14,0,0,1,.39-.63.65.65,0,0,1,.49-.14.5.5,0,0,1,.38.33,1.15,1.15,0,0,1,0,.73,16.21,16.21,0,0,1-1.6,4,14.73,14.73,0,0,1-2.6,3.37,14.07,14.07,0,0,1-3.45,2.46,13.77,13.77,0,0,1-4.1,1.32,10.22,10.22,0,0,1-6.39-.67,7.8,7.8,0,0,1-3.61-3.68,10.86,10.86,0,0,1-.94-5.37,14.62,14.62,0,0,1,1.59-5.76,15,15,0,0,1,4-4.9A13.1,13.1,0,0,1,202.75,150.33Zm-.49,1.71a4.36,4.36,0,0,0-2.53,1.42,9.29,9.29,0,0,0-1.78,2.9,16.1,16.1,0,0,0-.95,3.75,14.68,14.68,0,0,0,0,4,8,8,0,0,0,3.13-1.6,12.2,12.2,0,0,0,2.36-2.53,12.5,12.5,0,0,0,1.48-2.85,8.14,8.14,0,0,0,.53-2.68,2.88,2.88,0,0,0-.55-1.88A1.64,1.64,0,0,0,202.26,152Z"/><path class="cls-2" d="M212.83,116.1c-.9-.44-1.52-1.23-.9-2.27s2-1.36,3-1.64c6.71-1.89,14.32-1.81,21.24-2,.71,0,5.06.07,3.47,1.65-1.21,1.21-2.73,1.26-4.31,1.22a51.16,51.16,0,0,0-13.72,1.49c-2.25.55-4.7,1.92-7,2A4.08,4.08,0,0,1,212.83,116.1Z"/><path class="cls-2" d="M41.16,141.07c-.9-.44-1.53-1.22-.91-2.27s2-1.36,3-1.64c6.71-1.89,14.32-1.8,21.24-2,.71,0,5.07.07,3.48,1.65-1.21,1.21-2.74,1.26-4.32,1.22a49.73,49.73,0,0,0-6.22.21,51.55,51.55,0,0,0-7.5,1.28c-2.25.55-4.7,1.92-7,2A4,4,0,0,1,41.16,141.07Z"/></svg>