<svg id="Layer_1" data-name="Layer 1" xmlns="http://www.w3.org/2000/svg" viewBox="0 0 280 200"><defs><style>.cls-1{fill:#94cc33;}.cls-2{fill:#3aaa35;}.cls-3{fill:#c6c6c6;}.cls-4{fill:#f6f6f6;}.cls-5{fill:#231f20;}</style></defs><title>Untitled-2</title><path d="M185.58,28.3H166.31v-18H113.09v18H93.82V78.62h-8.6V92.8a50.62,50.62,0,0,0,50.58,50.54h7.81A50.62,50.62,0,0,0,194.19,92.8V78.62h-8.61Zm-4.87,4.87V85.48h-14.4V33.17Zm-19.27-18v80a60.54,60.54,0,0,0-17-2.45H135a60.54,60.54,0,0,0-17,2.45v-80Zm-62.75,18h14.4V85.48H98.69Zm90.63,50.32V92.8a45.75,45.75,0,0,1-45.71,45.67H135.8A45.75,45.75,0,0,1,90.09,92.8V83.49h3.73v6.86h19.27v6.5a61,61,0,0,0-12.8,6.8l2.78,4a55.57,55.57,0,0,1,31.88-10h9.5a55.53,55.53,0,0,1,31.88,10l2.79-4a60.83,60.83,0,0,0-12.81-6.8v-6.5h19.27V83.49Z"/><rect x="126.35" y="40.69" width="7.31" height="13.34"/><rect x="145.75" y="40.69" width="7.31" height="13.34"/><rect x="126.35" y="66.29" width="7.31" height="13.34"/><rect x="145.75" y="66.29" width="7.31" height="13.34"/><path class="cls-1" d="M185.58,90.35H166.31v6.5a60.83,60.83,0,0,1,12.81,6.8l-2.79,4a55.53,55.53,0,0,0-31.88-10H135a55.57,55.57,0,0,0-31.88,10l-2.78-4a61,61,0,0,1,12.8-6.8v-6.5H93.82V83.49H90.09V92.8a45.75,45.75,0,0,0,45.71,45.67h7.81A45.75,45.75,0,0,0,189.32,92.8V83.49h-3.74Z"/><path class="cls-2" d="M143.61,134.61H135.8A45.75,45.75,0,0,1,90.09,88.93V92.8a45.75,45.75,0,0,0,45.71,45.67h7.81A45.75,45.75,0,0,0,189.32,92.8V88.93A45.75,45.75,0,0,1,143.61,134.61Z"/><rect class="cls-3" x="98.69" y="33.17" width="14.4" height="52.32"/><rect class="cls-3" x="166.31" y="33.17" width="14.4" height="52.32"/><path class="cls-4" d="M144.45,92.76a60.54,60.54,0,0,1,17,2.45v-80H118v80a60.54,60.54,0,0,1,17-2.45Zm1.3-52.07h7.3V54h-7.3Zm0,25.6h7.3V79.63h-7.3ZM133.66,79.63h-7.31V66.29h7.31Zm0-25.6h-7.31V40.69h7.31Z"/><path d="M203.59,66.84V95.51a56.06,56.06,0,0,1-56,56H131.84a56.07,56.07,0,0,1-56-56V66.84H70.94V95.51a61,61,0,0,0,60.9,60.85h15.73a61,61,0,0,0,60.9-60.85V66.84Z"/><path d="M74.05,29.43S57.92,47.86,60.23,64.24c2.14,15.25,25.51,15.25,27.65,0C90.19,47.86,74.05,29.43,74.05,29.43Z"/><path class="cls-1" d="M74.05,73.07c-5,0-10.34-2.85-11.24-9.2C61.17,52.22,70,39,74.05,33.62,78.12,39,86.93,52.22,85.29,63.87,84.4,70.22,79,73.07,74.05,73.07Z"/><path class="cls-2" d="M85.29,61.15C84.4,67.5,79,70.34,74.05,70.34S63.71,67.5,62.81,61.15c-.08-.58-.11-1.16-.15-1.75a23,23,0,0,0,.15,4.47c.9,6.35,6.29,9.2,11.24,9.2s10.35-2.85,11.24-9.2a21.51,21.51,0,0,0,.15-4.47C85.41,60,85.37,60.57,85.29,61.15Z"/><path d="M206,29.43s-16.14,18.43-13.83,34.81c2.14,15.25,25.51,15.25,27.65,0C222.08,47.86,206,29.43,206,29.43Z"/><path class="cls-1" d="M205.94,73.07c-4.95,0-10.34-2.85-11.23-9.2-1.64-11.65,7.17-24.87,11.23-30.25C210,39,218.83,52.22,217.18,63.87,216.29,70.22,210.89,73.07,205.94,73.07Z"/><path class="cls-2" d="M217.18,61.15c-.89,6.35-6.29,9.19-11.24,9.19s-10.34-2.84-11.23-9.19a17,17,0,0,1-.15-1.75,21.51,21.51,0,0,0,.15,4.47c.89,6.35,6.28,9.2,11.23,9.2s10.35-2.85,11.24-9.2a21.51,21.51,0,0,0,.15-4.47C217.3,60,217.26,60.57,217.18,61.15Z"/><path class="cls-5" d="M81,175.93v2h-6v3.76h4.76v1.95H74.92v3.85h6v2H72.38v-13.6Z"/><path class="cls-5" d="M99.77,186.32a.5.5,0,0,1,.37.16l1,1.08a5.44,5.44,0,0,1-2,1.57,7,7,0,0,1-2.9.55,6.91,6.91,0,0,1-2.72-.52,6,6,0,0,1-2.07-1.44,6.22,6.22,0,0,1-1.31-2.2,8.33,8.33,0,0,1-.46-2.79,7.93,7.93,0,0,1,.49-2.81,6.48,6.48,0,0,1,1.38-2.19,6.11,6.11,0,0,1,2.12-1.43,7.39,7.39,0,0,1,5.37,0,6.28,6.28,0,0,1,2,1.28l-.85,1.18a.69.69,0,0,1-.19.19.54.54,0,0,1-.33.09.67.67,0,0,1-.29-.08l-.33-.2c-.11-.08-.25-.16-.41-.26a4.05,4.05,0,0,0-.55-.26,3.82,3.82,0,0,0-.71-.19,4.55,4.55,0,0,0-1-.08,4.14,4.14,0,0,0-1.67.32,3.68,3.68,0,0,0-1.3.94,4.23,4.23,0,0,0-.85,1.5,6.37,6.37,0,0,0-.3,2,6.15,6.15,0,0,0,.32,2,4.51,4.51,0,0,0,.88,1.5,3.81,3.81,0,0,0,1.31.94,4,4,0,0,0,1.62.32,8.9,8.9,0,0,0,.94-.05,4.56,4.56,0,0,0,.77-.18,3.35,3.35,0,0,0,.66-.32,4.29,4.29,0,0,0,.63-.47.9.9,0,0,1,.2-.14A.54.54,0,0,1,99.77,186.32Z"/><path class="cls-5" d="M123.08,182.73a7.57,7.57,0,0,1-.49,2.77,6.52,6.52,0,0,1-1.4,2.2,6.18,6.18,0,0,1-2.17,1.45,7.34,7.34,0,0,1-2.82.53,7.25,7.25,0,0,1-2.81-.53,6.22,6.22,0,0,1-2.18-1.45,6.39,6.39,0,0,1-1.41-2.2,7.92,7.92,0,0,1,0-5.54,6.42,6.42,0,0,1,3.59-3.66,7.44,7.44,0,0,1,2.81-.52,7.53,7.53,0,0,1,1.94.24,7,7,0,0,1,1.68.68,6.13,6.13,0,0,1,1.37,1.06,6.49,6.49,0,0,1,1,1.4,7,7,0,0,1,.64,1.67A7.85,7.85,0,0,1,123.08,182.73Zm-2.58,0a6.25,6.25,0,0,0-.3-2,4.55,4.55,0,0,0-.86-1.51,3.72,3.72,0,0,0-1.35-1,5.17,5.17,0,0,0-3.58,0,3.75,3.75,0,0,0-1.36,1,4.38,4.38,0,0,0-.86,1.51,6.88,6.88,0,0,0,0,4,4.25,4.25,0,0,0,.86,1.5,3.75,3.75,0,0,0,1.36.95,5.17,5.17,0,0,0,3.58,0,3.72,3.72,0,0,0,1.35-.95,4.4,4.4,0,0,0,.86-1.5A6.29,6.29,0,0,0,120.5,182.73Z"/><path class="cls-5" d="M154.27,186.32a.49.49,0,0,1,.37.16l1,1.08a5.44,5.44,0,0,1-2,1.57,7,7,0,0,1-2.9.55,6.91,6.91,0,0,1-2.72-.52,6,6,0,0,1-2.07-1.44,6.22,6.22,0,0,1-1.31-2.2,8.33,8.33,0,0,1-.46-2.79,7.93,7.93,0,0,1,.49-2.81,6.48,6.48,0,0,1,1.38-2.19,6.11,6.11,0,0,1,2.12-1.43,7.39,7.39,0,0,1,5.37,0,6.28,6.28,0,0,1,2,1.28l-.85,1.18a.69.69,0,0,1-.19.19.53.53,0,0,1-.32.09.67.67,0,0,1-.3-.08l-.33-.2c-.11-.08-.25-.16-.41-.26a4.54,4.54,0,0,0-.54-.26,4.17,4.17,0,0,0-.72-.19,4.55,4.55,0,0,0-1-.08,4.14,4.14,0,0,0-1.67.32,3.68,3.68,0,0,0-1.3.94,4.23,4.23,0,0,0-.85,1.5,6.37,6.37,0,0,0-.3,2,5.9,5.9,0,0,0,.33,2,4.33,4.33,0,0,0,.87,1.5,3.81,3.81,0,0,0,1.31.94,4,4,0,0,0,1.62.32,8.75,8.75,0,0,0,.94-.05,4.34,4.34,0,0,0,.77-.18,3.1,3.1,0,0,0,.66-.32,4.29,4.29,0,0,0,.63-.47.9.9,0,0,1,.2-.14A.54.54,0,0,1,154.27,186.32Z"/><path class="cls-5" d="M167.44,189.53H164.9v-13.6h2.54Z"/><path class="cls-5" d="M187.51,175.93V178h-4.1v11.52h-2.53V178h-4.11v-2.08Z"/><path class="cls-5" d="M202.66,184.26v5.27h-2.52v-5.27l-5-8.33h2.23a.83.83,0,0,1,.52.16,1.35,1.35,0,0,1,.33.41l2.48,4.54c.14.27.27.53.38.77s.21.47.3.7c.08-.23.17-.47.28-.71s.23-.49.37-.76l2.47-4.54a1.24,1.24,0,0,1,.31-.39.79.79,0,0,1,.53-.18h2.24Z"/></svg>