<svg id="Layer_1" data-name="Layer 1" xmlns="http://www.w3.org/2000/svg" viewBox="0 0 280 200"><defs><style>.cls-1{fill:#1ab5ba;}.cls-2{fill:#354b5a;}</style></defs><title>Untitled-2</title><path class="cls-1" d="M166.49,16.67l-.47-.24-.3-.13a32.19,32.19,0,0,0-12.4-2.49,27.12,27.12,0,0,0-13.4,3l0,0-1.27.83h0a26.86,26.86,0,0,0,0,44.93l1.27.83,1.26-.83a26.85,26.85,0,0,0,3-42.64,24.83,24.83,0,0,1,9.17-1.53A27.68,27.68,0,0,1,164,20.57l.35.18a52.8,52.8,0,0,1-10.71,97.65,4.52,4.52,0,0,1-4-.78,4.64,4.64,0,0,1-1.84-3.71V82.84l.09,0v-.07a34.49,34.49,0,0,0,25.42-25.47h0s0-.09,0-.14l.61-2.58-2.64-.24c-.84-.08-1.63-.12-2.42-.12s-1.74.05-2.6.13c-.28,0-.56.09-.84.13-.57.08-1.13.15-1.68.26-.33.06-.65.16-1,.24-.49.12-1,.23-1.47.38s-.66.24-1,.36-.9.31-1.34.49-.65.31-1,.46-.84.38-1.24.6-.64.37-1,.56-.78.45-1.16.7-.6.44-.9.66-.72.52-1.06.8-.57.49-.85.74-.66.58-1,.88-.52.55-.78.83-.6.63-.88,1-.47.6-.7.9-.54.69-.78,1-.42.64-.63,1-.46.73-.67,1.11-.36.68-.53,1-.39.77-.57,1.17-.29.73-.43,1.09-.32.81-.45,1.23-.23.76-.34,1.15-.23.84-.33,1.27-.15.79-.22,1.19-.15.87-.2,1.31-.08.82-.11,1.24-.06.56-.07.85a29.24,29.24,0,0,1-6.87,0c0-.29,0-.57-.07-.86s-.06-.81-.11-1.22S136,76,136,75.53s-.14-.8-.23-1.19-.21-.85-.32-1.27-.21-.77-.34-1.15-.29-.81-.44-1.21-.29-.75-.45-1.11-.36-.77-.55-1.15-.35-.71-.55-1.06-.43-.72-.65-1.08-.42-.67-.64-1-.5-.68-.76-1-.47-.63-.73-.93-.56-.63-.85-.94-.53-.58-.8-.85-.63-.58-1-.86-.57-.52-.87-.77-.69-.51-1-.77-.62-.46-.94-.68-.74-.46-1.12-.68-.65-.4-1-.58-.81-.4-1.22-.59-.66-.33-1-.47-.87-.33-1.31-.49-.68-.25-1-.36-1-.26-1.45-.37c-.33-.09-.65-.18-1-.25-.55-.11-1.12-.18-1.68-.26-.28,0-.56-.1-.85-.13-.85-.08-1.72-.13-2.59-.13s-1.66,0-2.51.12l-2.63.26.61,2.57s0,.09,0,.14h0a34.5,34.5,0,0,0,25.49,25.48v.07l.11,0v31.08a4.64,4.64,0,0,1-1.83,3.7,4.57,4.57,0,0,1-4,.79,55.35,55.35,0,0,1-6.06-2l-.62-.23A52.18,52.18,0,0,1,132.1,16.49a2.31,2.31,0,0,0-.66-4.57,56.8,56.8,0,0,0-13.9,108.52l.71.26a57.16,57.16,0,0,0,6.51,2.18,9.13,9.13,0,0,0,8-1.58,9.22,9.22,0,0,0,3.64-7.36V83.56a32,32,0,0,0,3.37.19,34,34,0,0,0,3.48-.19v30.35a9.21,9.21,0,0,0,3.65,7.37,9,9,0,0,0,8,1.57A57.41,57.41,0,0,0,166.49,16.67Zm-17.83,23.4s0,0,0,.06a22.23,22.23,0,0,1-.68,5.48.31.31,0,0,1,0,.08c-.1.4-.22.8-.34,1.2a.88.88,0,0,0-.05.15c-.13.38-.26.74-.4,1.11l-.07.19c-.14.35-.29.7-.45,1l-.09.21c-.16.34-.33.66-.5,1l-.12.22c-.17.32-.36.63-.55,1a2.39,2.39,0,0,1-.13.21c-.19.31-.4.62-.61.92l-.13.19c-.23.32-.46.63-.71.93a1.34,1.34,0,0,1-.11.14c-.27.33-.55.66-.84,1l0,0a23.71,23.71,0,0,1-3,2.69,22.26,22.26,0,0,1,0-35.45A22.22,22.22,0,0,1,148.66,40.07Zm-.75,37.81c0-.26.07-.51.11-.76.06-.43.11-.85.19-1.26s.13-.54.19-.81.18-.77.3-1.15.17-.54.26-.81.26-.72.4-1.07.22-.53.34-.79.32-.67.49-1,.27-.5.41-.75.38-.64.58-1,.31-.48.47-.71.44-.6.67-.89l.53-.66c.24-.28.5-.56.76-.84l.57-.59c.28-.27.57-.53.87-.79l.58-.51c.33-.27.68-.51,1-.76.18-.13.36-.28.54-.4.47-.31,1-.61,1.45-.88l.23-.14c.58-.31,1.17-.6,1.77-.85l.57-.22c.43-.17.86-.33,1.3-.47.24-.08.49-.14.74-.21.4-.11.79-.22,1.2-.31s.55-.1.83-.15.78-.13,1.17-.18l.89-.07.73,0A29.89,29.89,0,0,1,147.91,78Zm-36.51-19,.8,0c.29,0,.58,0,.86.08s.81.11,1.22.18l.8.14c.42.09.83.21,1.24.32.24.07.47.12.7.2.49.15,1,.33,1.44.52l.43.16c.61.26,1.2.55,1.78.86l.4.24c.43.25.86.5,1.28.78.2.13.38.28.58.42s.67.48,1,.74.4.35.6.52.58.51.86.79.38.39.57.59.52.55.76.84.36.43.53.65.46.59.67.9l.48.71c.2.31.39.63.57,1s.29.5.42.75.33.67.49,1,.23.52.34.79.27.71.39,1.08.19.53.27.8.21.77.3,1.16.13.53.19.8c.08.42.13.85.19,1.28,0,.24.08.49.1.74a.66.66,0,0,1,0,.14A29.88,29.88,0,0,1,111.4,58.84Z"/><path class="cls-2" d="M34.15,157.81h6.37l2.77-12.9h6.23l-6.88,32.37H36.41L39.87,161H33.51L30,177.28H23.81l6.28-29.43c-3.81,1.6-6.06,4.89-6.06,9.48a6.09,6.09,0,0,0,.6,2.94c-3,0-4.63-1.08-4.63-4.2,0-5.75,8-11.25,15.19-11.25.61,0,1.17,0,1.74.09Zm23.3-2.17-3.12,14.72a5.92,5.92,0,0,0-.17,1.38c0,1.22.56,1.61,1.77,1.61,1.69,0,3.25-1.65,3.9-3.81h1.81c-2.46,7.05-6.75,8-9.09,8-2.59,0-4.63-1.55-4.63-5.19a13.88,13.88,0,0,1,.35-2.81l2.94-13.9Zm-2-9.22A3.47,3.47,0,0,1,59,149.88a3.43,3.43,0,0,1-3.46,3.42,3.39,3.39,0,0,1-3.42-3.42A3.43,3.43,0,0,1,55.5,146.42Zm26.92.56-5,23.38a5.92,5.92,0,0,0-.17,1.38c0,1.22.56,1.61,1.78,1.61,1.68,0,2.85-1.65,3.5-3.81h1.82c-2.47,7.05-6.36,7.74-8.7,7.74a4,4,0,0,1-4.24-3.72c-1.3,2-3.34,4-6.41,4s-5.76-1.81-5.76-7c0-5.84,3.6-15.15,11.13-15.15,2.47,0,3.5,1,3.5,2.21v.18l2.13-10Zm-11,22.56,2.13-9.92a1.72,1.72,0,0,0-1.78-1.51c-3.68,0-6.06,7.79-6.06,11.86,0,3.33,1.39,3.38,2.16,3.38,1.22,0,3-1.22,3.55-3.6ZM105.15,147l-5,23.38a5.92,5.92,0,0,0-.17,1.38c0,1.22.56,1.61,1.77,1.61,1.69,0,2.86-1.65,3.51-3.81h1.82c-2.47,7.05-6.36,7.74-8.7,7.74a4,4,0,0,1-4.24-3.72c-1.3,2-3.34,4-6.41,4s-5.76-1.81-5.76-7c0-5.84,3.59-15.15,11.13-15.15,2.46,0,3.5,1,3.5,2.21v.18l2.12-10Zm-11,22.56,2.12-9.92a1.7,1.7,0,0,0-1.77-1.51c-3.68,0-6.06,7.79-6.06,11.86,0,3.33,1.38,3.38,2.16,3.38,1.21,0,3-1.22,3.55-3.6Zm20.13,4.37c3.42,0,5.5-1.91,7.66-4.37h1.48c-2.47,4-6.15,8-11.91,8-4.07,0-6.75-2-6.75-6.88s2.81-15.41,11.69-15.41c3.85,0,4.76,2,4.76,4.16,0,5-4.76,8.83-10,9.13,0,.61-.08,1.21-.08,1.73C111.13,173.22,112.16,173.91,114.24,173.91Zm2.51-16.36c-2.2,0-4.33,4.63-5.19,8.91,3.33-.21,6.28-3.55,6.28-7.14C117.84,158.24,117.58,157.55,116.75,157.55Zm16.06,1.86c-1.55,0-2.72,1.81-3.37,4l-3,13.89h-6.23l4.59-21.64h6.23l-.47,2.25a6.4,6.4,0,0,1,5.06-2.42c2.77,0,4.81,1.43,4.81,4.89s-2.08,8.74-2.08,11.17c0,1.08.43,1.82,1.73,1.82a2.69,2.69,0,0,0,1.43-.26,4.61,4.61,0,0,1-4.76,4.45c-3.34,0-4.38-2.42-4.38-4.89,0-2.94,2-8.27,2-11C134.37,160.19,133.85,159.41,132.81,159.41Zm35.72,12.12L177.62,145h3l-12,32.24H162V147.72c-4.72,1.47-6.8,4.85-6.8,9.61a5.89,5.89,0,0,0,.61,2.94c-3,0-4.64-1.08-4.64-4.2,0-5.75,8-11.25,15.2-11.25.6,0,1.17,0,1.73.09Zm29.82-15.89-3.11,14.72a6,6,0,0,0-.18,1.38c0,1.22.57,1.86,1.78,1.86,1.69,0,2.86-1.9,3.51-4.06h1.81c-2.46,7.05-6.36,8-8.7,8s-4-1.38-4.24-4c-1.34,2-3.37,4-6.45,4s-5.76-1.81-5.76-7c0-5.84,3.6-15.15,11.13-15.15,2.47,0,3.51,1,3.51,2.21v.3l.47-2.29ZM183.42,170c0,3.33,1.39,3.38,2.17,3.38,1.25,0,3.07-1.3,3.59-3.81l2.08-9.79a1.68,1.68,0,0,0-1.78-1.64C185.8,158.11,183.42,165.9,183.42,170Zm28-23-5,23.38a6,6,0,0,0-.18,1.38c0,1.22.57,1.61,1.78,1.61,1.69,0,3.25-1.65,3.9-3.81h1.81c-2.46,7.05-6.75,8-9.09,8-2.59,0-4.63-1.55-4.63-5.19a13.88,13.88,0,0,1,.35-2.81L205,147.85Zm11.55,0-5,23.38a6,6,0,0,0-.18,1.38c0,1.22.57,1.61,1.78,1.61,1.69,0,3.24-1.65,3.89-3.81h1.82c-2.47,7.05-6.75,8-9.09,8-2.6,0-4.63-1.55-4.63-5.19a13.88,13.88,0,0,1,.35-2.81l4.63-21.69Zm9.48,26.93c3.42,0,5.5-1.91,7.67-4.37h1.47c-2.47,4-6.15,8-11.91,8-4.06,0-6.75-2-6.75-6.88s2.82-15.41,11.69-15.41c3.85,0,4.76,2,4.76,4.16,0,5-4.76,8.83-9.95,9.13-.05.61-.09,1.21-.09,1.73C229.31,173.22,230.35,173.91,232.42,173.91Zm2.52-16.36c-2.21,0-4.33,4.63-5.2,8.91,3.33-.21,6.28-3.55,6.28-7.14C236,158.24,235.76,157.55,234.94,157.55Zm14.32-1.91-3.11,14.72a4.37,4.37,0,0,0-.13,1.08c0,1,.3,1.91,1.3,1.91,1.69,0,2.81-1.65,3.46-3.81l2.94-13.9H260l-5.28,25.11c-1.3,6.19-5,7.36-7.88,7.36a4.87,4.87,0,0,1-5.11-4.68c0-4,3.38-5.28,7.49-6.49l.43-1.91a6.68,6.68,0,0,1-5.28,2.51c-2.59,0-4.63-1.55-4.63-5.19a13.88,13.88,0,0,1,.35-2.81l2.94-13.9Zm-3.41,28.61c.86,0,2-.82,2.55-3.37l.52-2.56c-2.73.91-4.81,2.17-4.81,4.5A1.75,1.75,0,0,0,245.85,184.25Z"/></svg>