<svg id="Layer_1" data-name="Layer 1" xmlns="http://www.w3.org/2000/svg" viewBox="0 0 280 200"><defs><style>.cls-1{fill:#2c2d2d;}.cls-2{fill:#739a77;}</style></defs><title>Untitled-2</title><rect class="cls-1" x="63.46" y="20.48" width="152.61" height="123.64"/><rect class="cls-1" x="63.47" y="116.08" width="152.6" height="29.18"/><path class="cls-2" d="M104,145.27c3.48-7.68,8.93-17.28,14.8-24a6.32,6.32,0,0,0,1.38-4A55,55,0,0,0,114,92.69c-.54-1-1.17-2-1.89-3.19-12.59,6.93-25.72,7.69-39.27,4.34,13.09,1.51,25.76.84,37.51-6.93-8.61-11-19.85-17.19-32.83-20.64,12.07,1.76,23,6.18,32.2,14.35s14.22,18.95,17.06,31.44c6.61-6.71,12.73-13,17-21.29C129,83,120.24,70.64,115.83,54.91c5.53,14.66,14.3,26.41,29.35,33.15,8.34-19,6.52-37.55-.68-56.07A60.31,60.31,0,0,1,153,52.12c1.46,7.05,2.25,14.23,3.38,21.66,12.23-6.3,22.14-15.25,28.75-27.84-1,2.15-1.91,4.35-3,6.43a63.2,63.2,0,0,1-3.83,6.16c-1.42,2-3,3.94-4.78,6.2a41.56,41.56,0,0,0,24.36,4,39.18,39.18,0,0,1-23.76-.65,4.77,4.77,0,0,0-5.49,1c-3.74,3.17-7.9,5.85-11.83,8.8a4.84,4.84,0,0,0-1.75,2.16c-1.73,5.73-3.33,11.5-5,17.26a4.54,4.54,0,0,0,0,1c18.73-6.72,37.56-5.36,56.45-1.35-5.19-.29-10.37-.84-15.56-.83-13.18,0-26.17,1.32-38.19,7.42a36.09,36.09,0,0,0-13.5,11.24c-6.88,9.66-13.86,19.24-18.25,30.38"/><path class="cls-2" d="M144.3,29.63c-15.61,2.51-26.07-6.39-27.38-21.16C132.66,6,143,15,144.3,29.63Z"/><path class="cls-2" d="M56.25,36.69c14.24,1.13,21.92,10.48,20.38,24.85C61.84,60.86,54.24,49.77,56.25,36.69Z"/><path class="cls-2" d="M230,117.5c-12.67,2.35-22.91-5.22-24-17.54C218.76,97.42,228.1,104.1,230,117.5Z"/><path class="cls-2" d="M185.87,39.54c-6.47-10.44-2.19-23.63,9.1-28C201.66,22.67,197.54,34.24,185.87,39.54Z"/><path class="cls-2" d="M200.53,67.51c5.85-12.29,17.09-15.27,28.14-9.24C223.1,70.46,211.86,73.45,200.53,67.51Z"/><path class="cls-2" d="M162.67,13.83c2.92,10-2.49,18.68-12.79,20.53C146.15,25.42,152.36,15.45,162.67,13.83Z"/><path class="cls-2" d="M160.28,41.12c9.17,3.44,12.73,13.43,7.82,21.93C158.92,59.58,155.28,49.37,160.28,41.12Z"/><path class="cls-2" d="M167.77,29.74c9.66,1.14,15,9.32,12.91,19.39C170.41,48,165.61,39.71,167.77,29.74Z"/><path class="cls-2" d="M92.06,91.79c-7.74-1.91-11.19-8.25-8.81-16C90.3,76.3,94.45,83.72,92.06,91.79Z"/><path class="cls-2" d="M206.23,93.87c1.29-8.69,8.55-13.43,17.35-11.32C223,91,214.62,96.4,206.23,93.87Z"/><path class="cls-2" d="M129.69,74.11c2.13-10.29,12-13.06,17.88-9.9C146,72.5,138.45,76.75,129.69,74.11Z"/><path class="cls-2" d="M60.87,110.12c1.56-9.32,9.07-14.39,17-11.61C76.6,107.52,69.68,112,60.87,110.12Z"/><path class="cls-2" d="M50,88.12c7.93-5.15,16.74-3,20.07,4.72C62.54,98,54.57,95.86,50,88.12Z"/><path class="cls-2" d="M181.92,57.93c5.47-7,13.48-7.71,20.62-1.9C199.09,63.21,188.65,64.24,181.92,57.93Z"/><path class="cls-2" d="M95.61,47.86c8.11-2.59,16.1,3,17,11.78C104.24,61.81,97.09,56.9,95.61,47.86Z"/><path class="cls-2" d="M87.68,65c-7.64-5.33-9-14-3.26-20.54C91.86,48.86,93.29,57.54,87.68,65Z"/><path class="cls-2" d="M209.37,40c-4.51,8-12.94,10.05-20.24,5.09C192.81,37.31,201,35.2,209.37,40Z"/><path class="cls-2" d="M130.06,44.61c5,7.7,2.9,16.14-4.88,20.3C120,58,121.91,49.82,130.06,44.61Z"/><path class="cls-2" d="M188.33,72.66c8.51-.16,14.14,6.45,13.37,15.51C193.78,89.43,186.87,81.5,188.33,72.66Z"/><path class="cls-2" d="M69.43,74.89c8.5,2.2,11.51,10.23,8.64,16.94C70.5,90,66.81,82.83,69.43,74.89Z"/><path class="cls-2" d="M99.08,67.44c7.91-5.15,16.61-3.25,20.38,4.33C112.14,77,103.67,75.23,99.08,67.44Z"/><path class="cls-2" d="M175.31,71.2c8.16,3,11.13,11.23,7.14,19.35C173.19,87.19,171.5,78.4,175.31,71.2Z"/><path class="cls-2" d="M54,68c5.69-6.76,14.25-7,20.72-.65C69.86,74.12,59.76,74.43,54,68Z"/><path class="cls-2" d="M87.08,184.89V164.3c0-3.65,2.8-7.06,8.27-7.06,5,0,7.92,3.31,7.92,7.11v20.49c0,3.61-2.62,7.11-7.92,7.11S87.08,188.74,87.08,184.89Zm3.15-20.59v20.59c0,2.49,1.61,4.73,5.12,4.73a4.53,4.53,0,0,0,4.88-4.78V164.35a4.6,4.6,0,0,0-4.88-4.82C91.84,159.53,90.23,161.67,90.23,164.3Z"/><path class="cls-2" d="M126.05,189.32v2.29H113.8V157.54H117v31.78Z"/><path class="cls-2" d="M135.45,191.61V157.54h3.16v34.07Z"/><path class="cls-2" d="M156.16,187l1.49-10.32,3.63-19.23h3.21l-6.55,34.12H154.2l-6.37-34.12H151l3.63,19.23L156,187Z"/><path class="cls-2" d="M174,191.61V157.54h3.15v34.07Z"/><path class="cls-2" d="M187.87,191.61V157.54H191v34.07Z"/><path class="cls-2" d="M128,33.92c8.2-2.3,16,3.6,16.54,12.36C136.09,48.16,129.12,43,128,33.92Z"/><path class="cls-2" d="M105.19,20.48c13.55,5.48,18.16,17,12.24,30.5C103.22,45.77,99.21,32.62,105.19,20.48Z"/></svg>