<svg width="16" height="16" viewBox="0 0 16 16" fill="none" xmlns="http://www.w3.org/2000/svg">
<path d="M2.4 15.2873C1.75881 15.2739 1.14841 15.0097 0.699739 14.5514C0.251068 14.0932 -0.000140301 13.4773 5.8787e-08 12.836V4.50779C0.00238986 4.19943 0.0671109 3.89474 0.190272 3.61203C0.313433 3.32932 0.492491 3.07444 0.71668 2.86271C0.940868 2.65097 1.20556 2.48676 1.49484 2.37994C1.78411 2.27312 2.09201 2.2259 2.4 2.24112H3.42564V1.21548C3.42564 1.05227 3.49048 0.895747 3.60588 0.78034C3.72129 0.664933 3.87782 0.600098 4.04103 0.600098C4.20424 0.600098 4.36076 0.664933 4.47617 0.78034C4.59158 0.895747 4.65641 1.05227 4.65641 1.21548V2.24112H11.2821V1.21548C11.2821 1.05227 11.3469 0.895747 11.4623 0.78034C11.5777 0.664933 11.7342 0.600098 11.8974 0.600098C12.0606 0.600098 12.2172 0.664933 12.3326 0.78034C12.448 0.895747 12.5128 1.05227 12.5128 1.21548V2.24112H13.5385C13.8514 2.21719 14.166 2.25793 14.4625 2.36081C14.7591 2.46369 15.0313 2.62651 15.2622 2.83914C15.4931 3.05176 15.6777 3.30963 15.8047 3.59671C15.9316 3.88378 15.9981 4.19391 16 4.50779V12.836C16.0001 13.4773 15.7489 14.0932 15.3003 14.5514C14.8516 15.0097 14.2412 15.2739 13.6 15.2873H2.4ZM1.23077 12.836C1.21036 13.1728 1.32043 13.5046 1.53815 13.7624C1.75587 14.0202 2.06451 14.1843 2.4 14.2206H13.6C13.9355 14.1843 14.2441 14.0202 14.4618 13.7624C14.6796 13.5046 14.7896 13.1728 14.7692 12.836V7.24625H1.23077V12.836ZM2.4 3.30779C2.24302 3.30483 2.08709 3.33408 1.94186 3.39374C1.79662 3.4534 1.66516 3.5422 1.55559 3.65465C1.44601 3.76711 1.36066 3.90083 1.30479 4.04757C1.24892 4.19431 1.22373 4.35094 1.23077 4.50779V6.01548H14.7692V4.50779C14.7763 4.35094 14.7511 4.19431 14.6952 4.04757C14.6393 3.90083 14.554 3.76711 14.4444 3.65465C14.3348 3.5422 14.2034 3.4534 14.0581 3.39374C13.9129 3.33408 13.757 3.30483 13.6 3.30779H12.5744V4.11805C12.5744 4.28126 12.5095 4.43778 12.3941 4.55319C12.2787 4.6686 12.1222 4.73343 11.959 4.73343C11.7958 4.73343 11.6392 4.6686 11.5238 4.55319C11.4084 4.43778 11.3436 4.28126 11.3436 4.11805V3.30779H4.67692V4.11805C4.67692 4.28126 4.61209 4.43778 4.49668 4.55319C4.38127 4.6686 4.22475 4.73343 4.06154 4.73343C3.89833 4.73343 3.7418 4.6686 3.6264 4.55319C3.51099 4.43778 3.44615 4.28126 3.44615 4.11805V3.30779H2.4Z" fill="#3E5871"/>
</svg>
