<svg width="240" height="30" viewBox="0 0 240 30" fill="none" xmlns="http://www.w3.org/2000/svg">
<path d="M197.026 0V3.01264H200.333L194.94 26.4855L189.548 3.01264H192.854V0H185.746L192.532 29.9703H197.348L204.134 0H197.026Z" fill="#0E2942"/>
<path d="M48.6096 22.9133L38.657 0.184973V0H35.41V29.9703H38.657V7.19444L48.608 29.9227V29.9703H51.8558V0H48.6096V22.9133ZM83.019 0.0296582H80.0721C79.2995 0.0296581 78.5344 0.181253 77.8206 0.475786C77.1068 0.770318 76.4583 1.20202 75.912 1.74624C75.3657 2.29046 74.9324 2.93653 74.6368 3.64757C74.3412 4.3586 74.1891 5.12068 74.1892 5.89026V24.1394C74.1891 24.909 74.3412 25.6711 74.6368 26.3821C74.9324 27.0931 75.3657 27.7392 75.912 28.2834C76.4583 28.8276 77.1068 29.2593 77.8206 29.5539C78.5344 29.8484 79.2995 30 80.0721 30H83.019C84.5794 30 86.076 29.3825 87.1794 28.2835C88.2828 27.1844 88.9026 25.6937 88.9026 24.1394V21.3664H85.7199V24.1105C85.7199 24.5198 85.6389 24.925 85.4817 25.3031C85.3245 25.6812 85.094 26.0248 84.8035 26.3142C84.513 26.6036 84.1681 26.8331 83.7885 26.9897C83.4089 27.1464 83.002 27.227 82.5912 27.227H80.4952C80.0843 27.227 79.6775 27.1464 79.2979 26.9897C78.9183 26.8331 78.5734 26.6036 78.2829 26.3142C77.9923 26.0248 77.7619 25.6812 77.6047 25.3031C77.4474 24.925 77.3665 24.5198 77.3665 24.1105V5.91836C77.3665 5.50914 77.4474 5.10393 77.6047 4.72587C77.7619 4.34781 77.9924 4.0043 78.2829 3.71498C78.5735 3.42565 78.9184 3.19617 79.298 3.03964C79.6775 2.88311 80.0844 2.80259 80.4952 2.8027H82.5912C83.002 2.80259 83.4088 2.88311 83.7884 3.03964C84.168 3.19617 84.5129 3.42565 84.8035 3.71498C85.094 4.0043 85.3245 4.34781 85.4817 4.72587C85.6389 5.10393 85.7199 5.50914 85.7199 5.91836V10.5076H88.9003V5.89026C88.9003 4.33634 88.2807 2.84603 87.1778 1.74702C86.075 0.648008 84.579 0.030279 83.019 0.0296582ZM3.24701 16.1481H11.3175V13.3462H3.24701V2.8027H13.2168V0H0V29.9703H13.6917V27.1676H3.24701V16.1481ZM229.555 27.1676V16.1481H237.626V13.3462H229.555V2.8027H239.525V0H226.308V29.9703H240V27.1676H229.555ZM151.968 0L145.145 29.9703H148.414L149.995 23.028H158.735L160.313 29.9703H163.583L156.762 0H151.968ZM150.636 20.2253L154.368 3.83527L158.1 20.2253H150.636ZM114.425 0H111.178V29.9703H122.741V27.1676H114.425V0Z" fill="#0E2942"/>
</svg>
