<svg width="18" height="20" viewBox="0 0 18 20" fill="none" xmlns="http://www.w3.org/2000/svg">
<path d="M15.4344 0H0.700028C0.514397 0 0.336421 0.073755 0.205008 0.205008C0.073755 0.336422 0 0.514397 0 0.700028V19.3C0 19.4856 0.073755 19.6636 0.205008 19.795C0.336421 19.9262 0.514397 20 0.700028 20H15.4344C16.0841 20 16.7074 19.7419 17.1668 19.2823C17.6264 18.823 17.8845 18.1996 17.8845 17.5499V2.4501C17.8845 1.80039 17.6264 1.17709 17.1668 0.717669C16.7075 0.25813 16.0842 0 15.4344 0ZM1.40006 1.40006H4.47905V18.5999H1.40006V1.40006ZM16.4845 17.5499C16.4845 17.8284 16.3738 18.0954 16.1769 18.2924C15.9799 18.4893 15.7128 18.5999 15.4344 18.5999H5.87885V1.40004H15.4344C15.7129 1.40004 15.9799 1.51066 16.1769 1.70755C16.3738 1.90459 16.4845 2.17165 16.4845 2.45006V17.5499ZM8.16812 6.07664C8.16812 5.89086 8.24187 5.71288 8.37328 5.58162C8.50454 5.45037 8.68252 5.37662 8.86814 5.37662H13.4919C13.7419 5.37662 13.973 5.5099 14.0982 5.72663C14.2232 5.9432 14.2232 6.20993 14.0982 6.42666C13.973 6.64323 13.7419 6.77667 13.4919 6.77667H8.86814C8.68251 6.77667 8.50454 6.70292 8.37328 6.57151C8.24187 6.44025 8.16812 6.26227 8.16812 6.07664ZM14.8604 9.81723C14.8604 10.0029 14.7866 10.1808 14.6554 10.3123C14.5241 10.4435 14.346 10.5173 14.1604 10.5173H8.21012C7.96011 10.5173 7.72902 10.3838 7.60386 10.1672C7.47885 9.95067 7.47885 9.68379 7.60386 9.46722C7.72902 9.25065 7.96012 9.11721 8.21012 9.11721H14.1604C14.346 9.11721 14.5241 9.19096 14.6554 9.32221C14.7866 9.45347 14.8604 9.6316 14.8604 9.81723Z" fill="#44A0F8"/>
</svg>
