<svg width="16" height="12" viewBox="0 0 16 12" fill="none" xmlns="http://www.w3.org/2000/svg">
<path d="M15.4001 5.40404L2.04843 5.40403L6.46808 1.0167C6.70245 0.784024 6.70245 0.406962 6.46808 0.174501C6.3511 0.0579568 6.1975 -8.56962e-07 6.0439 -8.7039e-07C5.8903 -8.83818e-07 5.7367 0.0581694 5.61972 0.174501L0.175783 5.5789C-0.0585932 5.81157 -0.0585932 6.18864 0.175783 6.4211L5.61918 11.8255C5.85314 12.0582 6.23359 12.0582 6.46754 11.8255C6.70192 11.5928 6.70192 11.2158 6.46754 10.9833L2.04789 6.59575L15.4001 6.59575C15.7313 6.59575 16 6.3288 16 6.00016C16 5.6713 15.7315 5.40436 15.4001 5.40436L15.4001 5.40404Z" fill="#44A0F8"/>
</svg>
