<svg width="20" height="20" viewBox="0 0 20 20" fill="none" xmlns="http://www.w3.org/2000/svg">
<path fill-rule="evenodd" clip-rule="evenodd" d="M0.257812 7.65195C0.257812 6.74068 0.996543 6.00195 1.90781 6.00195H3.71587C4.62714 6.00195 5.36587 6.74068 5.36587 7.65195V17.9152C5.36587 18.8265 4.62714 19.5652 3.71587 19.5652H1.90781C0.996544 19.5652 0.257812 18.8265 0.257812 17.9152V7.65195ZM1.90781 7.30195C1.71451 7.30195 1.55781 7.45865 1.55781 7.65195V17.9152C1.55781 18.1085 1.71451 18.2652 1.90781 18.2652H3.71587C3.90917 18.2652 4.06587 18.1085 4.06587 17.9152V7.65195C4.06587 7.45865 3.90917 7.30195 3.71587 7.30195H1.90781Z" fill="#44A0F8"/>
<path fill-rule="evenodd" clip-rule="evenodd" d="M2.84448 1.3C1.99149 1.3 1.3 1.99149 1.3 2.84448C1.3 3.69747 1.99149 4.38895 2.84448 4.38895C3.69747 4.38895 4.38895 3.69747 4.38895 2.84448C4.38895 1.99149 3.69747 1.3 2.84448 1.3ZM0 2.84448C0 1.27352 1.27352 0 2.84448 0C4.41544 0 5.68895 1.27352 5.68895 2.84448C5.68895 4.41544 4.41544 5.68895 2.84448 5.68895C1.27352 5.68895 0 4.41544 0 2.84448Z" fill="#44A0F8"/>
<path fill-rule="evenodd" clip-rule="evenodd" d="M14.1566 5.68199C15.6075 5.60829 17.1012 6.10588 17.9342 6.97768C19.5176 8.63466 19.6199 11.1276 19.5988 12.3377V18.9155C19.5988 19.2744 19.3078 19.5655 18.9488 19.5655H15.1085C14.7495 19.5655 14.4585 19.2744 14.4585 18.9155V12.332C14.4585 12.315 14.4591 12.2979 14.4605 12.2809C14.4857 11.9617 14.4331 11.4759 14.2198 11.0842C14.0277 10.7315 13.702 10.4364 13.0694 10.3992C12.4716 10.364 12.1345 10.625 11.9085 10.9995C11.6583 11.4141 11.5631 11.9588 11.5631 12.332V18.9155C11.5631 19.2744 11.2721 19.5655 10.9131 19.5655H7.10508C6.74609 19.5655 6.45508 19.2744 6.45508 18.9155V6.74902C6.45508 6.39004 6.74609 6.09902 7.10508 6.09902H10.7841C11.1083 6.09902 11.3771 6.33644 11.4261 6.64693C12.2405 6.02093 13.2155 5.72979 14.1566 5.68199ZM10.1341 7.39902H7.75508V18.2655H10.2631V12.332C10.2631 11.8016 10.3875 11.0038 10.7955 10.3277C11.2279 9.61138 11.988 9.03331 13.1458 9.10141C14.2688 9.16747 14.9759 9.75448 15.3614 10.4624C15.7192 11.1193 15.7932 11.8577 15.7585 12.356V18.2655H18.2988V12.3204C18.3203 11.1188 18.1838 9.12059 16.9944 7.8758C16.4851 7.34282 15.397 6.92066 14.2226 6.98032C13.0824 7.03823 11.9829 7.54328 11.3559 8.70383C11.2145 8.96568 10.9133 9.098 10.6247 9.02505C10.3362 8.95209 10.1341 8.6925 10.1341 8.39488V7.39902Z" fill="#44A0F8"/>
</svg>
