<svg width="16" height="16" viewBox="0 0 16 16" fill="none" xmlns="http://www.w3.org/2000/svg">
<path d="M8 0C5.87833 0 3.84331 0.842901 2.34315 2.34315C0.842901 3.84353 0 5.87833 0 8C0 10.1217 0.842901 12.1567 2.34315 13.6568C3.84353 15.1571 5.87833 16 8 16C10.1217 16 12.1567 15.1571 13.6568 13.6568C15.1571 12.1565 16 10.1217 16 8C15.9974 5.87905 15.1538 3.8455 13.654 2.34596C12.1543 0.846205 10.1207 0.00255585 8 0ZM8 14.5456C6.26405 14.5456 4.59916 13.856 3.37173 12.6285C2.1442 11.4009 1.45459 9.73608 1.45459 8.00019C1.45459 6.2643 2.1442 4.59935 3.37173 3.37192C4.59925 2.14439 6.26411 1.45478 8 1.45478C9.73589 1.45478 11.4008 2.14439 12.6283 3.37192C13.8558 4.59944 14.5454 6.2643 14.5454 8.00019C14.5435 9.73555 13.8532 11.3992 12.6262 12.6266C11.3991 13.8536 9.7353 14.5438 7.99981 14.5458L8 14.5456Z" fill="#44A0F8"/>
<path d="M10.3958 5.66762L7.27356 8.78981L5.6059 7.12215C5.47039 6.98189 5.28411 6.9019 5.08906 6.90019C4.89401 6.89849 4.7064 6.97519 4.56844 7.11314C4.43062 7.25109 4.35379 7.4387 4.3555 7.63375C4.3572 7.82881 4.43719 8.01495 4.57758 8.15047L6.7594 10.3323C6.89576 10.4687 7.08072 10.5452 7.27356 10.5452C7.4664 10.5452 7.65136 10.4687 7.78772 10.3323L11.4242 6.69582L11.4241 6.69594C11.6026 6.51124 11.6703 6.24605 11.6024 5.99841C11.5345 5.75064 11.341 5.55718 11.0933 5.48923C10.8456 5.42142 10.5805 5.48911 10.3957 5.6676L10.3958 5.66762Z" fill="#44A0F8"/>
</svg>
