<svg width="20" height="20" viewBox="0 0 20 20" fill="none" xmlns="http://www.w3.org/2000/svg">
<path d="M19.7581 18.5861L14.8589 13.6893C16.0862 12.1915 16.7592 10.3171 16.7592 8.38139C16.7592 3.7589 12.9993 0 8.38061 0C7.25144 0 6.15505 0.220992 5.12205 0.658874C4.1238 1.08243 3.22785 1.68608 2.45874 2.45548C1.68963 3.22489 1.08413 4.12113 0.660712 5.11968C0.222968 6.15302 0 7.24982 0 8.37933C0 13.0018 3.75989 16.7607 8.37859 16.7607C10.3157 16.7607 12.1875 16.0875 13.6848 14.8597L18.5799 19.7565C18.7374 19.9141 18.9461 20 19.167 20C19.3899 20 19.5986 19.9141 19.754 19.7565C20.0813 19.4352 20.0813 18.9093 19.7581 18.5861L19.7581 18.5861ZM15.1005 8.37951C15.1005 12.0873 12.0854 15.1015 8.3808 15.1015C4.67424 15.1015 1.66109 12.0853 1.66109 8.37951C1.66109 4.67371 4.67623 1.65757 8.3808 1.65757C12.0854 1.65757 15.1005 4.67371 15.1005 8.37951Z" fill="white"/>
</svg>
