<svg width="20" height="16" viewBox="0 0 20 16" fill="none" xmlns="http://www.w3.org/2000/svg">
<path fill-rule="evenodd" clip-rule="evenodd" d="M15.2768 2.19212C14.8002 1.69792 13.3962 0.857615 11.7373 1.59246C10.9409 1.94526 10.5155 2.55269 10.299 3.20072C10.0766 3.86659 10.0857 4.55226 10.1586 4.95695C10.1936 5.15077 10.1387 5.34997 10.0095 5.49861C9.88031 5.64725 9.69069 5.7293 9.49389 5.72171C6.27783 5.59772 3.63511 3.82042 2.22411 2.49473C2.04466 3.14448 2.12316 3.70092 2.30478 4.15797C2.57278 4.83238 3.08531 5.33311 3.45967 5.57439C3.70512 5.73259 3.81494 6.03506 3.72816 6.31389C3.64139 6.59272 3.37931 6.77945 3.08743 6.77043C2.77934 6.7609 2.49537 6.72261 2.2416 6.66806C2.39497 7.15892 2.66552 7.53798 2.97549 7.83073C3.48337 8.31039 4.1036 8.56098 4.49334 8.64037C4.77771 8.6983 4.98923 8.93772 5.01165 9.22707C5.03407 9.51642 4.86197 9.78557 4.58991 9.88662C4.31092 9.99024 4.03583 10.0426 3.78583 10.0657C4.02201 10.3832 4.31546 10.6217 4.62649 10.8005C5.1897 11.1245 5.79305 11.2402 6.14873 11.2488C6.42182 11.2554 6.66163 11.4321 6.74893 11.6909C6.83622 11.9498 6.75237 12.2356 6.53906 12.4062C5.49959 13.2378 4.38308 13.6561 3.40651 13.8602C6.70248 14.9214 10.0398 14.4131 12.8547 12.0155C14.2912 10.792 15.0623 9.66243 15.4842 8.57361C15.9088 7.47784 16 6.37298 16 5.15174C16 4.93057 16.1125 4.72458 16.2985 4.60498C16.5785 4.42498 16.9224 4.18538 17.2632 3.93289C17.0662 3.89882 16.8976 3.85972 16.7756 3.83113L16.768 3.82935C16.7135 3.81657 16.6761 3.80781 16.6489 3.80184C16.4285 3.80126 16.214 3.68854 16.0925 3.48597C15.9092 3.18017 16.0064 2.78376 16.3104 2.59749C16.3147 2.59488 16.319 2.59233 16.3232 2.58986C16.4895 2.49191 16.6435 2.3487 16.7839 2.1746C16.428 2.26981 16.093 2.34013 15.8559 2.3813C15.6434 2.41819 15.4265 2.34732 15.2768 2.19212ZM18.0046 2.70736C18.0978 2.56922 18.1796 2.43126 18.251 2.29945C18.5204 1.80219 18.6796 1.323 18.7553 1.08849C18.8463 0.806142 18.7347 0.497948 18.4839 0.339461C18.2331 0.180974 17.9068 0.212416 17.6909 0.415879C17.6519 0.452571 17.5568 0.517808 17.3836 0.597987C17.2192 0.674137 17.0195 0.747817 16.8033 0.815804C16.5054 0.909482 16.1966 0.985918 15.9414 1.04039C15.0759 0.325416 13.2867 -0.515719 11.2108 0.403864C10.0149 0.933594 9.37359 1.86803 9.06599 2.78881C8.88364 3.33466 8.81495 3.88312 8.81246 4.36092C5.77762 3.96658 3.36991 1.9457 2.51439 0.920335C2.37799 0.75686 2.17018 0.670544 1.9581 0.689276C1.74603 0.708008 1.55656 0.829413 1.45093 1.01427C0.6695 2.38177 0.698023 3.63487 1.09668 4.63805C1.15447 4.7835 1.21966 4.92283 1.29059 5.05582C1.24568 5.06781 1.20169 5.08473 1.1594 5.10662C0.946718 5.21674 0.811819 5.43488 0.808323 5.67436C0.787905 7.07298 1.35745 8.09072 2.08288 8.77585C2.13903 8.82888 2.19608 8.8799 2.25382 8.92896C2.24151 8.9426 2.22972 8.95681 2.2185 8.97157C2.0956 9.13343 2.05547 9.34345 2.11004 9.53921C2.43936 10.7206 3.19216 11.4753 3.97837 11.9275C4.13607 12.0182 4.29578 12.0972 4.45476 12.1656C3.74142 12.4846 3.03512 12.6349 2.42594 12.6995C1.93989 12.751 1.5215 12.7474 1.21945 12.7331C1.07465 12.7263 0.957246 12.7171 0.866411 12.7099L0.854401 12.709L0.853619 12.7089C0.811365 12.7056 0.763746 12.7019 0.725485 12.7001C0.707601 12.6993 0.67544 12.698 0.639957 12.6994C0.622965 12.7 0.589529 12.7017 0.549045 12.7084C0.548485 12.7085 0.54783 12.7086 0.547081 12.7087C0.523589 12.7126 0.408351 12.7312 0.289446 12.8105C0.101308 12.9359 -0.0081298 13.1501 0.000472047 13.376C0.00907389 13.602 0.13448 13.8072 0.331609 13.918C4.76223 16.4074 9.69677 16.4129 13.6977 13.0051C15.2671 11.6684 16.1828 10.3687 16.6964 9.04329C17.1605 7.84536 17.2795 6.66735 17.2974 5.50284C17.6875 5.23851 18.1318 4.91455 18.5272 4.60382C18.7774 4.40721 19.0145 4.21076 19.2092 4.03392C19.3879 3.8717 19.5809 3.68205 19.6955 3.50528C19.8522 3.26339 19.831 2.94714 19.6432 2.7284C19.4555 2.50967 19.1461 2.44071 18.8833 2.55899C18.6159 2.6793 18.3109 2.71679 18.0046 2.70736ZM2.67297 10.011C2.67291 10.0109 2.67388 10.011 2.67606 10.0113L2.67297 10.011Z" fill="#44A0F8"/>
</svg>
