<svg id="Layer_1" data-name="Layer 1" xmlns="http://www.w3.org/2000/svg" viewBox="0 0 280 200"><defs><style>.cls-1{fill:#001b59;}.cls-2{fill:#6db235;}.cls-3{fill:#f9ed32;}.cls-4{fill:#ffffba;}.cls-5{fill:#d7df23;}.cls-6{fill:#f25900;}.cls-7{fill:#f7941e;}.cls-8{fill:#ff3697;}.cls-9{fill:#be1e2d;}</style></defs><title>z1</title><path class="cls-1" d="M59.88,171.71a8.26,8.26,0,0,1,2.21,6,8.53,8.53,0,0,1-1.16,4.4,8.25,8.25,0,0,1-3.16,3.1,8.79,8.79,0,0,1-4.36,1.12,8.2,8.2,0,0,1-6-2.41A7.9,7.9,0,0,1,45,178.08,8.83,8.83,0,0,1,46,173.74a8.22,8.22,0,0,1,3.11-3.14,9.18,9.18,0,0,1,4.6-1.19A8.18,8.18,0,0,1,59.88,171.71Zm-9.09-.57a7.06,7.06,0,0,0-1.92,2.91,11.32,11.32,0,0,0-.68,4,9.45,9.45,0,0,0,1.54,5.48,4.44,4.44,0,0,0,3.71,2.23,4.23,4.23,0,0,0,2.7-1,7.11,7.11,0,0,0,2-2.88,10.86,10.86,0,0,0,.74-4.08,10,10,0,0,0-1.38-5.6A4.38,4.38,0,0,0,53.65,170,4.24,4.24,0,0,0,50.79,171.14Z"/><path class="cls-1" d="M90.24,169.69v.52l-9.39,15.36h4.92c3,0,4.57-1.4,4.73-4.22h.42l-.28,4.71H77.52v-.5l9.3-15.37H82.5q-3.61,0-3.86,3.43l-.42,0,.23-3.89Z"/><path class="cls-1" d="M119.48,169.69l.24,3.91-.44.07c-.15-2.32-1.46-3.48-3.9-3.48h-4.11V177h2.08a2.15,2.15,0,0,0,2.4-2.45h.44V180h-.44q0-2.49-2.4-2.49h-2.08v5.36q0,2.75,3.69,2.75,5.17,0,5.4-4.27l.41,0-.28,4.67H106.35v-.45a1.83,1.83,0,0,0,2.05-2V172.2a1.8,1.8,0,0,0-2.05-2.06v-.45Z"/><path class="cls-1" d="M144.49,169.68a5.25,5.25,0,0,1,3.51,1.24,3.78,3.78,0,0,1,.28,5.73,5.11,5.11,0,0,1-2.94,1.42,2.47,2.47,0,0,1,2.12,1.55L149,182.7c1,2,2.07,2.92,3.35,2.92v.45h-5.6a7.16,7.16,0,0,0-.82-3l-1.42-3.21a3.15,3.15,0,0,0-1.12-1.28,3.21,3.21,0,0,0-1.82-.47h-.45v5.44a1.79,1.79,0,0,0,2,2v.45h-7v-.45a1.8,1.8,0,0,0,2-2V172.2a1.81,1.81,0,0,0-2-2.06v-.46Zm-3.36,8h1.06a4.45,4.45,0,0,0,3.08-1.06,3.57,3.57,0,0,0,0-5.32,4.45,4.45,0,0,0-3.08-1.06h-1.06Z"/><path class="cls-1" d="M180.42,169.69l.24,3.91-.43.07q-.24-3.48-3.91-3.48h-3.61V177h2.08q2.36,0,2.4-3h.44v6.54h-.44q0-3-2.4-3h-2.08v6.06c0,1.44.68,2.14,2.06,2.09v.4h-7v-.45a1.79,1.79,0,0,0,2.05-2V172.2a1.84,1.84,0,0,0-2.05-2.06v-.45Z"/><path class="cls-1" d="M203.05,169.69v.45a1.82,1.82,0,0,0-2,2.07v11.35a1.81,1.81,0,0,0,2,2.06v.45h-7v-.45a1.81,1.81,0,0,0,2-2.06V172.21a1.82,1.82,0,0,0-2-2.07v-.45Z"/><path class="cls-1" d="M225.64,169.69v.44c-1.19,0-1.36.7-.5,2.08l2.24,3.56,2.55-3.58c1-1.35.83-2-.4-2.06v-.44h4.15v.44a4.07,4.07,0,0,0-3.11,2.07l-2.87,4.08,4.62,7.29c.87,1.37,1.81,2.05,2.84,2.05v.45H228.4v-.45c1.21,0,1.38-.71.5-2.09l-3-4.75-3.67,4.82c-1,1.33-.87,2,.4,2v.45h-4.15v-.45a4.09,4.09,0,0,0,3.12-2l4-5.31-3.9-6.13c-.84-1.35-1.76-2-2.77-2v-.44Z"/><path class="cls-2" d="M169.6,95.56c-1.38,5.93-6.64,9.81-17.68,10.55-23,1.55-35.08,2.73-38.26-15.54l-.78,1.1a24.5,24.5,0,0,0-4.6,11.88,31.27,31.27,0,0,0,14.86,13.7,38,38,0,0,0,32.38-.08l.2-.1a2.81,2.81,0,0,1,.81-.41,30.51,30.51,0,0,0,14.32-14.42A38.62,38.62,0,0,0,169.6,95.56Z"/><path class="cls-3" d="M128.65,52.16c6.1-3.51,10.28-5.6,13.89-5.52,2.38-7.83-3-15.26-9.28-21.3-6.79,9-16.94,23.62-23.15,38.49a9.51,9.51,0,0,0,3.15,4.35C114.74,61.36,119,57.71,128.65,52.16Z"/><path class="cls-4" d="M159.13,78A39.09,39.09,0,0,1,169.6,95.56c1.76-7.59-2.84-18.55-9.85-30.62-7.55-13-11.7-18.19-17.21-18.3a16.46,16.46,0,0,1-3,5.45c-7.35,9.19-19.42,21-26.31,16.09-.89,4.09-.79,9.31-.27,16.77a52.92,52.92,0,0,0,.67,5.62C126,73.18,140.43,59.87,159.13,78Z"/><path class="cls-5" d="M151.92,106.11c11-.74,16.3-4.62,17.68-10.55A39.09,39.09,0,0,0,159.13,78c-18.7-18.15-33.17-4.84-45.47,12.55C116.84,108.84,128.89,107.66,151.92,106.11Z"/><path class="cls-5" d="M139.57,52.09a16.46,16.46,0,0,0,3-5.45c-3.61-.08-7.79,2-13.89,5.52-9.66,5.55-13.91,9.2-15.39,16C120.15,73.09,132.22,61.28,139.57,52.09Z"/><path class="cls-6" d="M97.74,54.8a12.39,12.39,0,0,0-4.17-2.09,79.18,79.18,0,0,0-16.71-2.49c-.15,1.33-.24,2.69-.31,4.07,6.38,1.57,12.74,5.34,14.62,8.23a19.34,19.34,0,0,1,2.61,6,46.44,46.44,0,0,0,3.35-8.24A14.92,14.92,0,0,0,97.74,54.8Z"/><path class="cls-7" d="M76.55,54.29a93.62,93.62,0,0,0,2.52,25.37c6.73-.09,11.51-5.1,14.71-11.12a19.34,19.34,0,0,0-2.61-6C89.29,59.63,82.93,55.86,76.55,54.29Z"/><path class="cls-8" d="M102.92,129.94c-7.71-3.35-15.79-14-21.86-27.73a10.47,10.47,0,0,0-3.27,2.09c4,8,8.73,19.6-2.11,15.81-.61-.22-1.34-.47-2.13-.77a31.91,31.91,0,0,0,1.89,7.18c10.66,6.25,18.52,7.24,23.93,6.42a20.36,20.36,0,0,0,6.42-2.07A15.2,15.2,0,0,1,102.92,129.94Z"/><path class="cls-4" d="M77.79,104.3c-.47-.94-.92-1.84-1.34-2.66-4-7.79-9.17-1.59-12.72,5.75-3.09,6.38,4.66,10,9.82,12C72.65,112.64,74.53,107.33,77.79,104.3Z"/><path class="cls-9" d="M77.79,104.3c-3.26,3-5.14,8.34-4.24,15,.79.3,1.52.55,2.13.77C86.52,123.9,81.78,112.35,77.79,104.3Z"/><path class="cls-6" d="M180.8,54.8A12.39,12.39,0,0,1,185,52.71a79.18,79.18,0,0,1,16.71-2.49c.15,1.33.24,2.69.31,4.07-6.38,1.57-12.74,5.34-14.62,8.23a19.34,19.34,0,0,0-2.61,6,46.44,46.44,0,0,1-3.35-8.24A14.92,14.92,0,0,1,180.8,54.8Z"/><path class="cls-7" d="M202,54.29a93.62,93.62,0,0,1-2.52,25.37c-6.73-.09-11.51-5.1-14.71-11.12a19.34,19.34,0,0,1,2.61-6C189.25,59.63,195.61,55.86,202,54.29Z"/><path class="cls-8" d="M175.62,129.94c7.71-3.35,15.79-14,21.86-27.73a10.47,10.47,0,0,1,3.27,2.09c-4,8-8.73,19.6,2.11,15.81.61-.22,1.34-.47,2.13-.77a31.91,31.91,0,0,1-1.89,7.18c-10.66,6.25-18.52,7.24-23.93,6.42a20.36,20.36,0,0,1-6.42-2.07A15.2,15.2,0,0,0,175.62,129.94Z"/><path class="cls-4" d="M200.75,104.3c.47-.94.92-1.84,1.34-2.66,4-7.79,9.17-1.59,12.72,5.75,3.09,6.38-4.66,10-9.82,12C205.89,112.64,204,107.33,200.75,104.3Z"/><path class="cls-9" d="M200.75,104.3c3.26,3,5.14,8.34,4.24,15-.79.3-1.52.55-2.13.77C192,123.9,196.76,112.35,200.75,104.3Z"/><path class="cls-1" d="M233.63,104.63c-.4-.48-10-11.87-28.93-16.77l-1.43-.39c4.15-14.25,5.46-28.58,3.69-40.39a3,3,0,0,0-3-2.61,85.9,85.9,0,0,0-20.54,2.77,18.18,18.18,0,0,0-11,8.76c-.23.42-.44.86-.65,1.35C163.68,40,151.38,23.78,144.69,15.58a7.1,7.1,0,0,0-11,0C127,23.77,114.78,40,106.73,57.32a12.47,12.47,0,0,0-.64-1.32,18.15,18.15,0,0,0-11-8.76,85.9,85.9,0,0,0-20.54-2.77,3,3,0,0,0-3,2.61c-1.77,11.81-.46,26.14,3.69,40.39l-1.44.39c-18.88,4.9-28.52,16.29-28.93,16.77a3.06,3.06,0,0,0,.16,4.09c19.35,20,36.46,30.16,50.83,30.16a28.63,28.63,0,0,0,4.48-.34A26.16,26.16,0,0,0,119,125.74a5.31,5.31,0,0,1,6-1.62c12.21,4.43,24,1.37,28.58-.14a5.33,5.33,0,0,1,5.86,1.67l.06.07a26.19,26.19,0,0,0,18.68,12.82,28.72,28.72,0,0,0,4.48.34c14.38,0,31.48-10.15,50.84-30.16A3.07,3.07,0,0,0,233.63,104.63ZM163.82,120a2.77,2.77,0,0,1,1.13-1.9c10.17-7.47,15.07-18.47,14.58-32.7,0-1-.11-2-.23-3.13a49.94,49.94,0,0,0,16.27,9.22c-.45,1.32-.94,2.66-1.45,4-5.76,14.82-13.92,26.33-20.81,29.31-3.5,1.52-6.22.74-8.81-2.51l-.09-.11A2.88,2.88,0,0,1,163.82,120Zm37.42-69.27C202.32,61,201,73.39,197.43,85.6c-11.21-4.12-18.33-10.24-20.61-17.71a11.52,11.52,0,0,1,1-9,11.92,11.92,0,0,1,7.26-5.8A78.17,78.17,0,0,1,201.24,50.68Zm-25.5,79.66c9.2-4,19.25-18.5,25.67-37l1.75.47A56.27,56.27,0,0,1,227,106.58c-23.67,23.8-39,27.24-47.8,25.93A20.4,20.4,0,0,1,174,131,15.79,15.79,0,0,0,175.74,130.34Zm-19.38-14.08a2.59,2.59,0,0,0-.83.42l-.19.09a37.37,37.37,0,0,1-32,.08c-8.67-4.08-18.88-12.81-18.23-31.29.85-24.33,25.73-56.74,33.33-66.1a1,1,0,0,1,.77-.36,1,1,0,0,1,.76.36c7.64,9.36,32.61,41.78,33.46,66.1C173.91,99.89,168.17,110.21,156.36,116.26ZM101.67,67.89c-2.27,7.47-9.4,13.59-20.61,17.71C77.52,73.39,76.18,61,77.25,50.68a77.58,77.58,0,0,1,16.2,2.45,11.94,11.94,0,0,1,7.27,5.8A11.56,11.56,0,0,1,101.67,67.89ZM77.09,93.31c6.42,18.53,16.47,33.05,25.66,37a15.79,15.79,0,0,0,1.77.65,20.4,20.4,0,0,1-5.22,1.52c-8.74,1.32-24.12-2.12-47.8-25.93a56.34,56.34,0,0,1,23.83-12.8C75.93,93.63,76.51,93.47,77.09,93.31Zm5.83-1.87a49.83,49.83,0,0,0,16.27-9.22c-.11,1.11-.19,2.14-.22,3.13-.5,14.23,4.41,25.23,14.58,32.7a2.84,2.84,0,0,1,1.13,1.9,2.81,2.81,0,0,1-.6,2.14l-.06.08c-2.6,3.29-5.33,4.08-8.83,2.55-6.89-3-15.06-14.49-20.81-29.31C83.87,94.1,83.38,92.76,82.92,91.44Z"/></svg>