<svg id="Layer_1" data-name="Layer 1" xmlns="http://www.w3.org/2000/svg" viewBox="0 0 280 200"><defs><style>.cls-1{fill:#fb696f;}.cls-2{fill:#98c7c1;}.cls-3{fill:#2d465c;}.cls-4{fill:#8ed0c2;}</style></defs><title>Untitled-2</title><path class="cls-1" d="M109.92,98.7A8,8,0,0,0,103.53,96H94.31c2.43,6.49,7.54,15.58,17.92,21v-12A9.5,9.5,0,0,0,109.92,98.7Z"/><path class="cls-2" d="M66.85,56.93a22.13,22.13,0,0,1,7.69,1.21,15.71,15.71,0,0,1,4.91,2.68A9.73,9.73,0,0,1,82,64.9a19.24,19.24,0,0,1,1.11,4.35c.12,1.18.19,2.63.19,4.36q.18,8.7,14.45,8.7,7.77,0,11.11-2.87t3.33-10.84q0-17.22-13.06-27a46.87,46.87,0,0,0-17.14-8C74.85,37,69.18,44.38,64,57.1A25.66,25.66,0,0,1,66.85,56.93Z"/><path class="cls-3" d="M85.61,96H72.41a7.38,7.38,0,0,0-6.3,3.42A14,14,0,0,0,66,115a7.4,7.4,0,0,0,6.39,3.25H83.34v6.29c0,5.15-1,9.21-2.92,12.21a116.63,116.63,0,0,1,14.14,4.18c5.76,2,10.3,3.55,14.5,3.38a54,54,0,0,0,3.14-18.07C95.4,119.31,88.37,104.56,85.61,96Z"/><path class="cls-1" d="M52,139.12q-3.06-4.53-3.06-12.51V78.22c-5.74,3.15-12.59,4.33-19.33,4.33A66.27,66.27,0,0,1,20,81.82v44.79q0,18.83,8.62,29.28A41.91,41.91,0,0,1,52,139.12Z"/><path class="cls-4" d="M91.84,148.78c-7-2.43-15-5.19-25.08-5.19-17.39,0-26.45,9.14-30.78,15.9q12,8.76,30.69,8.77,20.73,0,33.15-10.56a30.36,30.36,0,0,0,4.94-5.37A67.35,67.35,0,0,1,91.84,148.78Z"/><path class="cls-3" d="M54.27,59.28c3.34-9.3,8-20.05,15.83-27.41-1.42-.08-2.87-.13-4.36-.13q-19.83,0-32.14,10.56-11.14,9.56-12.19,29C32.2,73.06,49.2,73.39,54.27,59.28Z"/><path class="cls-3" d="M149.4,69.54c1.63.56,2.49.29,2.59-.79h.71l.42,7.73-.67.08q-1.8-7.19-8.88-7.21a7.64,7.64,0,0,0-6.49,3.87,16.22,16.22,0,0,0-2.48,9,21.64,21.64,0,0,0,.87,6.36A9,9,0,0,0,138.28,93a7,7,0,0,0,4.78,1.69,5.75,5.75,0,0,0,4.19-1.35,4.69,4.69,0,0,0,1.55-3.7V88.7q0-3.37-3.61-4.22v-.8h12v.8c-2.38.53-3.57,1.93-3.57,4.22v3.11a15.42,15.42,0,0,1-4.36,2.66,16.92,16.92,0,0,1-6.11,1.23,13.2,13.2,0,0,1-13.89-13.44A14,14,0,0,1,131,75.33a12.93,12.93,0,0,1,5.05-5.06,14.94,14.94,0,0,1,7.63-1.92A18.93,18.93,0,0,1,149.4,69.54Z"/><path class="cls-3" d="M171.68,68.73a8.57,8.57,0,0,1,5.69,2,6.18,6.18,0,0,1,2.35,4.85,6.1,6.1,0,0,1-1.9,4.43,8.33,8.33,0,0,1-4.77,2.3,4,4,0,0,1,3.44,2.51l2.5,5c1.55,3.14,3.36,4.72,5.43,4.72v.73h-9.06A11.65,11.65,0,0,0,174,90.46l-2.32-5.19a5.09,5.09,0,0,0-1.8-2.08,5.2,5.2,0,0,0-2.95-.75h-.73v8.81c0,2.2,1.08,3.3,3.3,3.3v.73H158.24v-.73q3.3,0,3.3-3.3V72.82q0-3.34-3.3-3.34v-.75Zm-5.45,12.91h1.71a7.23,7.23,0,0,0,5-1.72,5.77,5.77,0,0,0,0-8.61,7.28,7.28,0,0,0-5-1.72h-1.71Z"/><path class="cls-3" d="M206.77,68.75l.4,6.33-.71.11c-.26-3.76-2.36-5.64-6.33-5.64h-6.65v11h3.37q3.89,0,3.89-4h.71v8.84h-.71q0-4.05-3.89-4h-3.37v8.7c0,3,2,4.45,6,4.45q8.37,0,8.75-6.91l.66,0-.46,7.57h-22.9v-.73c2.22,0,3.32-1.15,3.32-3.3V72.82c0-2.26-1.09-3.37-3.32-3.34v-.73Z"/><path class="cls-3" d="M223.81,68.75l9.5,22.86a4.13,4.13,0,0,0,3.83,2.86v.81h-10.9v-.81c2.07,0,2.71-.93,1.93-2.86l-2.08-5.14h-9.38l-2,5.14q-1.16,2.86,1.95,2.86v.81H210v-.81a3.89,3.89,0,0,0,3.92-2.86l8.7-22.86Zm-6.79,17h8.76c-.32-.78-1.83-4.5-4.5-11.16Z"/><path class="cls-3" d="M259.6,68.75l.4,6.36-.71,0q-.39-5.61-5.89-5.61h-4.25V91.25c0,2.2,1.12,3.3,3.34,3.3v.73h-11.3v-.73q3.33,0,3.33-3.3V69.54h-4.24c-3.67,0-5.64,1.87-5.89,5.61l-.71-.07.4-6.33Z"/><path class="cls-3" d="M140.49,104.63v.73q-3.3,0-3.3,3.34V126q0,4.42,6,4.43a12.23,12.23,0,0,0,3.94-.59,7.07,7.07,0,0,0,3.08-2.18,8,8,0,0,0,1.73-4.12l.69,0-.45,7.59H129.22l0-.68q3.28,0,3.28-3.35V108.7q0-3.35-3.3-3.34v-.73Z"/><path class="cls-3" d="M177.88,107.89a13.48,13.48,0,0,1,3.57,9.79,13.81,13.81,0,0,1-1.88,7.13,13.32,13.32,0,0,1-5.12,5,14.21,14.21,0,0,1-7.06,1.83,13.32,13.32,0,0,1-9.75-3.9,12.84,12.84,0,0,1-4-9.54,14.37,14.37,0,0,1,1.72-7,13.31,13.31,0,0,1,5-5.08,14.57,14.57,0,0,1,7.44-1.93Q174.27,104.18,177.88,107.89ZM163.15,107a11.39,11.39,0,0,0-3.12,4.71,18.3,18.3,0,0,0-1.09,6.49,15.36,15.36,0,0,0,2.49,8.87q2.46,3.62,6,3.61a6.89,6.89,0,0,0,4.38-1.67,11.63,11.63,0,0,0,3.22-4.67,17.4,17.4,0,0,0,1.21-6.6q0-5.68-2.25-9.08a7.1,7.1,0,0,0-6.21-3.44A6.83,6.83,0,0,0,163.15,107Z"/><path class="cls-3" d="M202.72,105.42c1.63.55,2.49.29,2.59-.79H206l.42,7.73-.67.07q-1.78-7.17-8.88-7.2a7.64,7.64,0,0,0-6.49,3.87,16.22,16.22,0,0,0-2.48,9,21.3,21.3,0,0,0,.88,6.36,9.08,9.08,0,0,0,2.8,4.38,7,7,0,0,0,4.78,1.69,5.75,5.75,0,0,0,4.19-1.35,4.65,4.65,0,0,0,1.55-3.7v-1c0-2.24-1.2-3.65-3.61-4.21v-.8h12v.8q-3.57.8-3.57,4.21v3.12a15.28,15.28,0,0,1-4.36,2.66,16.92,16.92,0,0,1-6.11,1.22,13.19,13.19,0,0,1-13.89-13.43,14,14,0,0,1,1.81-6.93,13.15,13.15,0,0,1,5.05-5.07,15.07,15.07,0,0,1,7.64-1.91A18.87,18.87,0,0,1,202.72,105.42Z"/><path class="cls-3" d="M235.76,107.89a13.48,13.48,0,0,1,3.57,9.79,13.81,13.81,0,0,1-1.88,7.13,13.32,13.32,0,0,1-5.12,5,14.21,14.21,0,0,1-7.06,1.83,13.32,13.32,0,0,1-9.75-3.9,12.84,12.84,0,0,1-4-9.54,14.37,14.37,0,0,1,1.72-7,13.31,13.31,0,0,1,5.05-5.08,14.55,14.55,0,0,1,7.44-1.93Q232.15,104.18,235.76,107.89ZM221,107a11.39,11.39,0,0,0-3.12,4.71,18.29,18.29,0,0,0-1.1,6.49,15.36,15.36,0,0,0,2.5,8.87q2.46,3.62,6,3.61a6.84,6.84,0,0,0,4.37-1.67,11.55,11.55,0,0,0,3.23-4.67,17.4,17.4,0,0,0,1.2-6.6c0-3.79-.74-6.82-2.24-9.08a7.1,7.1,0,0,0-6.21-3.44A6.83,6.83,0,0,0,221,107Z"/></svg>