<svg id="Layer_1" data-name="Layer 1" xmlns="http://www.w3.org/2000/svg" xmlns:xlink="http://www.w3.org/1999/xlink" viewBox="0 0 280 200"><defs><style>.cls-1{fill:#402a6b;}.cls-2{fill:#f68f71;}.cls-3{fill:url(#linear-gradient);}</style><linearGradient id="linear-gradient" x1="47.2" y1="13.13" x2="148.39" y2="88.56" gradientUnits="userSpaceOnUse"><stop offset="0" stop-color="#fdd160"/><stop offset="0.08" stop-color="#fccc61"/><stop offset="0.17" stop-color="#fbbd65"/><stop offset="0.27" stop-color="#f8a56b"/><stop offset="0.37" stop-color="#f58474"/><stop offset="0.46" stop-color="#f1637c"/><stop offset="0.71" stop-color="#ae0072"/><stop offset="0.87" stop-color="#72176e"/><stop offset="1" stop-color="#402a6b"/></linearGradient></defs><title>Untitled-2</title><path class="cls-1" d="M47.75,174.68l5.31,12.78a2.31,2.31,0,0,0,2.14,1.6v.45H49.11v-.45c1.15,0,1.51-.52,1.08-1.6L49,184.59H43.77l-1.1,2.87c-.43,1.07-.06,1.6,1.09,1.6v.45H40v-.45a2.18,2.18,0,0,0,2.19-1.6l4.87-12.78ZM44,184.16h4.9l-2.52-6.24C44.85,181.8,44.05,183.88,44,184.16Z"/><path class="cls-1" d="M68.7,175c1,.42,1.43.33,1.44-.28h.4l.32,4.13-.38,0a6.58,6.58,0,0,0-1.21-2.7A3.22,3.22,0,0,0,66.52,175a3,3,0,0,0-2,.68,1.73,1.73,0,0,0-.63,1,2.55,2.55,0,0,0,0,1.26,2,2,0,0,0,.55,1A8,8,0,0,0,67,180.17a20.7,20.7,0,0,1,2.73,1.16,4.88,4.88,0,0,1,1.63,1.51,4.16,4.16,0,0,1,.49,2.32,4.72,4.72,0,0,1-1.55,3.29,5.19,5.19,0,0,1-4,1.28,6.45,6.45,0,0,1-2.84-.88,4.74,4.74,0,0,0-.89-.42.55.55,0,0,0-.6.15,1.38,1.38,0,0,0-.32.93h-.37V185h.37a6,6,0,0,0,1.49,2.9,4.51,4.51,0,0,0,3.12,1.27,3.74,3.74,0,0,0,2.46-.62,2.15,2.15,0,0,0,.83-1.1,3,3,0,0,0,.17-1.35,2.32,2.32,0,0,0-.45-1.16,4.07,4.07,0,0,0-1.12-.88,13.06,13.06,0,0,0-1.85-.84c-.72-.28-1.26-.51-1.61-.69q-3.1-1.58-3.12-4a3.73,3.73,0,0,1,1.2-2.84,5.24,5.24,0,0,1,3.57-1.21A5.73,5.73,0,0,1,68.7,175Z"/><path class="cls-1" d="M93.31,174.68l.23,3.55-.4,0q-.21-3.13-3.29-3.14H87.47v12.15a1.64,1.64,0,0,0,1.87,1.84v.41H83v-.41a1.64,1.64,0,0,0,1.87-1.84V175.11H82.5q-3.07,0-3.29,3.14l-.4,0,.23-3.53Z"/><path class="cls-1" d="M107.93,174.67a4.77,4.77,0,0,1,3.18,1.12,3.45,3.45,0,0,1,.25,5.19,4.61,4.61,0,0,1-2.67,1.28,2.26,2.26,0,0,1,1.93,1.41l1.4,2.79q1.31,2.64,3,2.64v.41H110a6.58,6.58,0,0,0-.75-2.69L108,183.91a2.89,2.89,0,0,0-1-1.16,2.93,2.93,0,0,0-1.65-.42h-.41v4.93a1.62,1.62,0,0,0,1.84,1.84v.41h-6.31v-.41a1.62,1.62,0,0,0,1.85-1.84V177a1.64,1.64,0,0,0-1.85-1.87v-.41Zm-3.05,7.21h1a4,4,0,0,0,2.79-1,3.22,3.22,0,0,0,0-4.81,4,4,0,0,0-2.79-1h-1Z"/><path class="cls-1" d="M134.75,176.5a7.53,7.53,0,0,1,2,5.48,7.71,7.71,0,0,1-1.05,4,7.42,7.42,0,0,1-2.86,2.81,8,8,0,0,1-4,1,7.44,7.44,0,0,1-5.45-2.19,7.14,7.14,0,0,1-2.21-5.33,8.09,8.09,0,0,1,1-3.92A7.52,7.52,0,0,1,125,175.5a8.23,8.23,0,0,1,4.16-1.08A7.42,7.42,0,0,1,134.75,176.5Zm-8.24-.51a6.37,6.37,0,0,0-1.75,2.63,10.47,10.47,0,0,0-.61,3.63,8.6,8.6,0,0,0,1.4,5,4,4,0,0,0,3.35,2,3.84,3.84,0,0,0,2.45-.94,6.5,6.5,0,0,0,1.81-2.61,9.86,9.86,0,0,0,.67-3.69,9.14,9.14,0,0,0-1.25-5.08A4,4,0,0,0,129.1,175,3.85,3.85,0,0,0,126.51,176Z"/><path class="cls-1" d="M163.83,174.68v.4A1.64,1.64,0,0,0,162,177v9.68c0,1.65,1.11,2.47,3.33,2.47a6.81,6.81,0,0,0,2.21-.32,4.06,4.06,0,0,0,1.72-1.22,4.5,4.5,0,0,0,1-2.31l.39,0-.26,4.24H157.53v-.38a1.64,1.64,0,0,0,1.84-1.87V177a1.65,1.65,0,0,0-1.85-1.87v-.4Z"/><path class="cls-1" d="M185.23,174.68l5.31,12.78a2.31,2.31,0,0,0,2.14,1.6v.45h-6.09v-.45c1.15,0,1.51-.52,1.08-1.6l-1.17-2.87h-5.25l-1.1,2.87c-.42,1.07-.06,1.6,1.09,1.6v.45h-3.76v-.45a2.18,2.18,0,0,0,2.19-1.6l4.87-12.78Zm-3.8,9.48h4.9l-2.52-6.24Z"/><path class="cls-1" d="M203.9,174.67a2.94,2.94,0,0,0,.25,1l4.75,10.7,4.77-11.7h4.25v.4a1.65,1.65,0,0,0-1.86,1.87v10.29a1.65,1.65,0,0,0,1.86,1.87v.4h-6.31v-.4a1.66,1.66,0,0,0,1.89-1.87v-11l-5.43,13.2h-.74l-6-13.2v11a1.69,1.69,0,0,0,1.85,1.94v.33h-4.17v-.36a1.67,1.67,0,0,0,1.87-1.91V177a1.66,1.66,0,0,0-1.87-1.87v-.4Z"/><path class="cls-1" d="M232.55,174.68l5.31,12.78a2.31,2.31,0,0,0,2.14,1.6v.45h-6.1v-.45c1.16,0,1.52-.52,1.08-1.6l-1.16-2.87h-5.25l-1.1,2.87c-.43,1.07-.06,1.6,1.09,1.6v.45H224.8v-.45a2.18,2.18,0,0,0,2.19-1.6l4.86-12.78Zm-3.81,9.48h4.91c-.19-.44-1-2.52-2.52-6.24Q228.91,183.74,228.74,184.16Z"/><path class="cls-2" d="M161.78,77.59a8.79,8.79,0,0,0-6.8-1.14.47.47,0,0,1-.52-.73,5.93,5.93,0,0,1,4.24-2.15s-6.11-1.61-8.89,4.14a1.4,1.4,0,0,0,.86,1.94,2.53,2.53,0,0,1,1.09.63c.79.85,5.81,6.37,10.3-1.61A.81.81,0,0,0,161.78,77.59Z"/><path class="cls-2" d="M122.15,76.75c-3.37,1.46-5-2.22-5-2.22-2,3.64,1.71,3.78-.49,5.33s-1.63,3-1.63,3c.89-2.3,2.17-2.35,4.35-3.47a14.24,14.24,0,0,0,3-2.27A.24.24,0,0,0,122.15,76.75Z"/><path class="cls-2" d="M137.07,99.55c.26.13,1.42,1.8,1.59,1s-.3-3.62-1.16-3.66.65,1.63-.9,2-4.22,3.91-10.93,4.43-6.06-8.43-6.06-8.43c-1.8,3.69-.39,4.93-.55,7s-3.58,1.14-3.58,1.14c2,2.2,5.09-.27,5.09-.27,2.17,2.61,6,2,6,2C130,104.63,136.81,99.42,137.07,99.55Z"/><path class="cls-2" d="M160.37,99.15c-5.06,10.73-17.37,7.68-20.25,5.24a2.55,2.55,0,0,0-4.32.86c-.1.2-.2.38-.3.56a12.17,12.17,0,0,1-9.57,5.77c2.56,7.71,12.71,14.53,18.56,15.58s5.06-8.38,12.39-9.51,8.2-16.23,7.06-19.2S161.48,96.78,160.37,99.15Z"/><path class="cls-2" d="M149.46,83.35c1.19,1.25,3.9.79,2.78-.42s-4.15-2.67-4.63-1.37C147.08,83,148.27,82.09,149.46,83.35Z"/><path class="cls-2" d="M131.85,87.09a5.57,5.57,0,0,0-1.37-4c-1.38-1.4,1.13,4.79-1.3,5.86C129.18,88.93,131.79,89.11,131.85,87.09Z"/><path class="cls-3" d="M200.64,77.42a67.21,67.21,0,1,0-77,66.49c.42-15.5-1.41-25.44-2.33-29.38-4.84-1.1-7.44-5.63-8.49-9.14a8.13,8.13,0,0,1-4.33-3.82c-1.83-3.68-.11-7.85,1.14-10.9a22.61,22.61,0,0,0,.85-2.25,10.57,10.57,0,0,1,.56-7.45,10.71,10.71,0,0,1,.83-1.7,6.94,6.94,0,0,1-.48-3,3.16,3.16,0,0,1-1.81-1.49,3.11,3.11,0,0,1-.37-1.64,11.89,11.89,0,0,1-2.31-1.1,3.12,3.12,0,0,1,1.9-5.76c1.2.09,2.75-1,4-2.25-3.4-5.11-6.09-14.22-5.17-21.51.63-5,2.85-8.7,6.42-10.81,4-2.36,7.25-2.72,9.66-1.08,4.11,2.8,3,9.78,2.52,12.77-.44,2.76-.64,4,11,10.3a11,11,0,0,0,12.35-.79c4.14-3,5.85-7.48,5.63-8.65a17.84,17.84,0,0,0-2.26-4.52c-1.93-3.2-3.94-6.51-2.32-9.64s5.38-3.27,6.64-3.36c3.68-.26,7.24,1.22,10.28,4.28,5.55,5.61,8.46,15.49,8,21.43A48,48,0,0,1,174,61.27a23.09,23.09,0,0,1,7.41,6.15,3.13,3.13,0,0,1-.35,4.11,3.08,3.08,0,0,1-1.68.83,19.27,19.27,0,0,1,1.08,4,3.12,3.12,0,0,1-6.11,1.23A2.79,2.79,0,0,0,173,76a14.15,14.15,0,0,1-2.27,5.15,24.41,24.41,0,0,1,8.49,15.45c.81,5.76.82,18.29.62,29.42A67,67,0,0,0,200.64,77.42ZM99.29,98.26l-3.05,2.22a.24.24,0,0,0-.09.27l1.16,3.59a.24.24,0,0,1-.37.28l-3.06-2.22a.21.21,0,0,0-.28,0l-3.06,2.22a.24.24,0,0,1-.37-.28l1.16-3.59a.22.22,0,0,0-.09-.27l-3-2.22a.24.24,0,0,1,.14-.44h3.78a.24.24,0,0,0,.23-.17l1.17-3.59a.24.24,0,0,1,.46,0l1.17,3.59a.25.25,0,0,0,.23.17h3.78A.24.24,0,0,1,99.29,98.26Zm1.62-33.44-4,3a.22.22,0,0,0-.09.27l1.55,4.77a.25.25,0,0,1-.38.27l-4.06-3a.24.24,0,0,0-.28,0l-4.06,3a.25.25,0,0,1-.38-.27L90.71,68a.23.23,0,0,0-.08-.27l-4.06-3a.24.24,0,0,1,.14-.44h5a.25.25,0,0,0,.23-.17l1.55-4.77a.24.24,0,0,1,.46,0l1.55,4.77a.25.25,0,0,0,.23.17h5A.24.24,0,0,1,100.91,64.82ZM80.34,81.05A64.65,64.65,0,0,0,96,123.58,59,59,0,0,1,132.68,18.36c1.13,0,2.26,0,3.37.1C105,20.28,80.34,47.6,80.34,81.05Zm61-55.79-3,2.2a.24.24,0,0,0-.08.28l1.15,3.55a.24.24,0,0,1-.37.27l-3-2.19a.23.23,0,0,0-.29,0l-3,2.19a.24.24,0,0,1-.38-.27l1.16-3.55a.26.26,0,0,0-.09-.28l-3-2.2a.24.24,0,0,1,.15-.44h3.74a.25.25,0,0,0,.23-.17l1.15-3.55a.25.25,0,0,1,.47,0l1.15,3.55a.26.26,0,0,0,.24.17h3.74A.24.24,0,0,1,141.3,25.26Z"/><path class="cls-2" d="M157.82,79.47c-.63-.84-.93-1.57-.4-1.89a1.34,1.34,0,0,1,1.75,1.08C159.29,79.58,158.5,80.38,157.82,79.47Z"/><path class="cls-2" d="M123.17,84.74c-1.21,2.37-3.64,2.2-3.87.81s-2.49-4-4.23-1.33.05,7.69,3.3,8.1c.38.05,1.14.18,1.19-2.49a2.27,2.27,0,0,0-.2-1c-.27-.58-.59-1.44-.1-1.6s1.77.8,3.24-.5c1.1-1,.57,1-.73,1.87a4.15,4.15,0,0,0-1.49,3,.56.56,0,0,0,.64.61c4.1-.73,8.27-4,8-6.51C128.55,82.65,124.39,82.36,123.17,84.74Z"/><path class="cls-2" d="M167.15,41.37c-3-10-9.05-8.65-10.55-7.73s1.33,4.33,3.34,6.92c1.75,2.24,1,6.24-.3,9.33a3,3,0,0,1,1.55-.2,4.41,4.41,0,0,0-2,2.51,3.45,3.45,0,0,1,1.66,0,4.16,4.16,0,0,0-2.59,2.34,4.28,4.28,0,0,1,2.89,0,6,6,0,0,0-1.71.71A5,5,0,0,0,158,62.47l0,0c4.38,5.81,9,1.28,10.89-3.33S170.14,51.34,167.15,41.37Z"/><path class="cls-2" d="M122.37,56.46a1.83,1.83,0,0,1,1.76-1.08,4,4,0,0,0-2.64-1,1.6,1.6,0,0,1,1.27-.58,2.51,2.51,0,0,0-1.52-1.24s0-.25.45-.25a5,5,0,0,1-1.16-4.93c1.61-5.94,2.07-11.53.29-11.87s-6.17.28-7.73,7.89,3.23,17.75,5.82,18.73,7.15-.29,7.32-2.59v0a2.75,2.75,0,0,0-1.2-2.45A3.53,3.53,0,0,0,122.37,56.46Z"/></svg>