<svg id="Layer_1" data-name="Layer 1" xmlns="http://www.w3.org/2000/svg" viewBox="0 0 280 200"><defs><style>.cls-1{fill:#003463;}.cls-2{fill:#fff;}.cls-3{fill:#7a7b7a;}.cls-4{fill:none;}.cls-5{fill:#787978;}</style></defs><title>z8</title><polygon class="cls-1" points="127.46 73.33 118.42 78.47 133.81 42.96 148.96 78.47 140.01 73.22 127.46 73.33"/><path class="cls-2" d="M133.85,57l-4,10.21h8Z"/><path class="cls-1" d="M3.81,136.67V109.08h7v27.59Z"/><path class="cls-1" d="M37,136.67l-12.69-17v17H17.72V109.08h6.19l12.73,17v-17h6.55v27.59Z"/><path class="cls-1" d="M58,136.67,47.28,109.08h7.49l7.06,20.3,7-20.3H76.1L65.26,136.67Z"/><path class="cls-1" d="M87.21,114.6v5.47h13.16v5.52H87.21v5.56h15v5.52h-22V109.08h21.59v5.52Z"/><path class="cls-1" d="M129.62,111.84,127,117.31c-2.92-1.69-6.58-2.87-8.83-2.87-1.81,0-3,.67-3,2,0,4.77,14.58,2,14.58,12,0,5.52-4.89,8.43-11,8.43a20.56,20.56,0,0,1-12.61-4.41l2.72-5.4c2.84,2.48,7.1,4.14,10,4.14,2.21,0,3.59-.83,3.59-2.41,0-4.88-14.58-2-14.58-11.74,0-5.09,4.37-8.32,11-8.32A20.66,20.66,0,0,1,129.62,111.84Z"/><path class="cls-1" d="M147.67,114.71v22h-7v-22h-8.24V109H156v5.67Z"/><path class="cls-1" d="M184.49,136.67l0-17.94-6.63,15.18h-4.57l-6.62-15.18v17.94h-6.27V109h7.69l7.49,16.43L183,109h7.64v27.63Z"/><path class="cls-1" d="M204.63,114.6v5.47h13.16v5.52H204.63v5.56h15v5.52h-22V109.08h21.6v5.52Z"/><path class="cls-1" d="M244.83,136.67l-12.69-17v17h-6.59V109.08h6.19l12.73,17v-17H251v27.59Z"/><path class="cls-1" d="M270.68,114.71v22h-7v-22h-8.24V109H279v5.67Z"/><polygon class="cls-3" points="65.18 153.57 107.1 147.52 173.69 147.52 211.39 153.42 65.18 153.57"/><ellipse class="cls-3" cx="156.44" cy="142.51" rx="9.45" ry="11.01" transform="translate(-17.76 262.67) rotate(-76.93)"/><ellipse class="cls-3" cx="148.21" cy="143.23" rx="9.45" ry="11.01" transform="translate(-24.83 255.21) rotate(-76.93)"/><ellipse class="cls-2" cx="134.1" cy="138.16" rx="17.01" ry="16.35"/><ellipse class="cls-2" cx="135.42" cy="137.8" rx="17.01" ry="16.35"/><ellipse class="cls-2" cx="167.76" cy="149.66" rx="7.6" ry="7.38"/><path class="cls-4" d="M121.67,153.55h5.48a17.51,17.51,0,0,1-3.18-2.1A11,11,0,0,1,121.67,153.55Z"/><path class="cls-3" d="M124,151.45A15.78,15.78,0,0,1,118.64,135a11,11,0,0,0-6.84.47,10.58,10.58,0,0,0-6.14,13.63,10.06,10.06,0,0,0,3.51,4.42h12.5A11,11,0,0,0,124,151.45Z"/><path class="cls-3" d="M125.68,141.07A10.27,10.27,0,0,1,124,151.45a17.51,17.51,0,0,0,3.18,2.1h15.9a16.29,16.29,0,0,0,9-14.46c0-9-7.61-16.35-17-16.35A16.9,16.9,0,0,0,118.64,135,10.18,10.18,0,0,1,125.68,141.07Z"/><path class="cls-3" d="M124,151.45A10.1,10.1,0,0,0,118.64,135,15.78,15.78,0,0,0,124,151.45Z"/><path class="cls-3" d="M175.76,150.53a7.61,7.61,0,0,0-15.21,0,7.1,7.1,0,0,0,.67,3h13.87A7.25,7.25,0,0,0,175.76,150.53Z"/><polygon class="cls-5" points="127.2 77.87 140.24 77.87 149.13 99.16 138.36 88.75 133.34 147.52 129.01 88.63 118.39 99.26 127.2 77.87"/><path class="cls-1" d="M54.26,93.49v5.87H35.54V71.77h7V93.49Z"/><path class="cls-1" d="M164.86,91.6h-5.52v7.76h-7V71.77h12.34c7.29,0,11.47,3.47,11.47,9.62,0,4.22-1.77,7.25-5,8.87l5.8,9.1h-8Zm-.2-5.52c3,0,4.81-1.54,4.81-4.45s-1.78-4.34-4.81-4.34h-5.32v8.79Z"/><polygon class="cls-1" points="10.04 100.95 1 106.09 16.39 70.58 31.54 106.09 22.59 100.84 10.04 100.95"/><path class="cls-2" d="M16.43,84.57l-4,10.21h8Z"/><polygon class="cls-1" points="66.98 100.43 57.93 105.58 73.33 70.06 88.47 105.58 79.53 100.32 66.98 100.43"/><path class="cls-2" d="M73.37,84.05l-4,10.21h8Z"/><path class="cls-1" d="M114.49,85.33V96.09A21.69,21.69,0,0,1,103,99.68c-8.4,0-14.74-6.07-14.74-14.11s6.5-14,15.21-14a17.59,17.59,0,0,1,11.27,4.1l-3.94,4.76a11.33,11.33,0,0,0-7.37-3,8.2,8.2,0,0,0,.08,16.4,11.87,11.87,0,0,0,4.89-1.34V85.33Z"/></svg>