<svg width="18" height="18" viewBox="0 0 20 20" fill="none" xmlns="http://www.w3.org/2000/svg">
<path class="{{include.cls}}" fill-rule="evenodd" clip-rule="evenodd" d="M18 1.5H2C1.72386 1.5 1.5 1.72386 1.5 2V11C1.5 11.2761 1.72386 11.5 2 11.5H18C18.2761 11.5 18.5 11.2761 18.5 11V2C18.5 1.72386 18.2761 1.5 18 1.5ZM2 0C0.895431 0 0 0.89543 0 2V11C0 12.1046 0.895431 13 2 13H18C19.1046 13 20 12.1046 20 11V2C20 0.895431 19.1046 0 18 0H2Z" fill="white"/>
<rect class="{{include.cls}}" y="15" width="20" height="1.5" rx="0.75" fill="white"/>
<rect class="{{include.cls}}" y="18.5" width="15" height="1.5" rx="0.75" fill="white"/>
</svg>
