<svg width="16" height="12" viewBox="0 0 16 12" fill="none" xmlns="http://www.w3.org/2000/svg">
<path class="{{include.cls}}" d="M0.599948 6.59596H13.9516L9.53192 10.9833C9.29755 11.216 9.29755 11.593 9.53192 11.8255C9.6489 11.942 9.8025 12 9.9561 12C10.1097 12 10.2633 11.9418 10.3803 11.8255L15.8242 6.4211C16.0586 6.18843 16.0586 5.81136 15.8242 5.5789L10.3808 0.174505C10.1469 -0.0581683 9.76641 -0.0581683 9.53246 0.174505C9.29808 0.407178 9.29808 0.784242 9.53246 1.0167L13.9521 5.40425H0.599948C0.268683 5.40425 0 5.6712 0 5.99984C0 6.3287 0.268485 6.59564 0.599948 6.59564V6.59596Z" fill="#44A0F8"/>
</svg>
