<svg width="16" height="15" viewBox="0 0 16 15" fill="none" xmlns="http://www.w3.org/2000/svg">
<path class="{{include.cls}}" d="M13.4604 1.53081H12.6401V0.761946C12.6401 0.341173 12.2609 0 11.8401 0C11.4193 0 11.0401 0.341087 11.0401 0.761946V1.53081H4.96007V0.761946C4.96007 0.341173 4.58084 0 4.16007 0C3.7393 0 3.36007 0.341087 3.36007 0.761946V1.53081H2.53975C1.1394 1.53081 0 2.53618 0 3.93661V12.0635C0 13.464 1.1394 14.6509 2.53975 14.6509H13.4604C14.8608 14.6509 16 13.464 16 12.0635V3.93661C16 2.53615 14.8608 1.53081 13.4602 1.53081H13.4604ZM2.53981 2.97087H3.36013V3.5557C3.36013 3.97647 3.73936 4.31764 4.16013 4.31764C4.5809 4.31764 4.96013 3.97656 4.96013 3.5557V2.97087H11.0402V3.5557C11.0402 3.97647 11.4194 4.31764 11.8402 4.31764C12.2609 4.31764 12.6402 3.97656 12.6402 3.5557L12.64 2.97087H13.4604C14.0206 2.97087 14.4001 3.37644 14.4001 3.93661V5.21085H1.60007V3.93661C1.60007 3.37647 1.97952 2.97087 2.53981 2.97087H2.53981ZM13.4604 13.2109H2.53981C1.97955 13.2109 1.60006 12.6237 1.60006 12.0636V6.811H14.4001V12.0636C14.4001 12.6237 14.0206 13.2109 13.4604 13.2109H13.4604Z" fill="#44A0F8"/>
</svg>
