<svg width="17" height="18" viewBox="0 0 19 20" fill="none" xmlns="http://www.w3.org/2000/svg">
<path class="{{include.cls}}" fill-rule="evenodd" clip-rule="evenodd" d="M16.5209 0.0036308C16.8418 -0.0283565 17.1458 0.153487 17.2694 0.451338C17.5323 1.08518 17.6801 1.75677 17.7056 2.43821C17.7192 2.80148 17.7008 3.16492 17.6507 3.52479C18.3406 4.34454 18.7942 5.3239 18.9572 6.36893C19.1392 7.53594 18.9493 8.72505 18.4148 9.78833C17.8807 10.8508 17.0284 11.7371 15.9703 12.3452C15.3182 12.72 14.604 12.9802 13.8625 13.1179C13.9771 13.4039 14.0417 13.7071 14.0522 14.0156C14.0525 14.024 14.0527 14.0323 14.0527 14.0406V19.2201C14.0527 19.622 13.7286 19.9486 13.3268 19.9518L7.26649 20C7.07143 20.0015 6.88382 19.9251 6.74534 19.7877C6.60686 19.6504 6.52897 19.4634 6.52897 19.2683V17.8289C5.96898 17.868 5.40385 17.8217 4.85601 17.69C4.8483 17.6881 4.84062 17.6862 4.83298 17.6841C3.99792 17.4544 3.23254 17.034 2.60806 16.456C2.44481 16.3046 2.34482 16.1851 2.2173 16.0325L2.206 16.019C2.07577 15.8632 1.88799 15.6387 1.52481 15.2393L1.51948 15.2335L0.967059 14.6125C0.886458 14.5354 0.811984 14.4684 0.737141 14.401L0.72358 14.3888C0.643494 14.3167 0.550318 14.2328 0.467093 14.1462C0.29674 13.9688 0.127619 13.7392 0.0585896 13.4115C-0.0284443 13.14 -0.0185126 12.8469 0.0883848 12.5803C0.108821 12.5293 0.134928 12.4808 0.166214 12.4357C0.404729 12.0917 0.762411 11.9796 0.989369 11.9369C1.20734 11.8959 1.43565 11.8961 1.57798 11.8962C1.58173 11.8962 1.58542 11.8962 1.58905 11.8962C2.04143 11.8848 2.49294 11.9517 2.92082 12.0942C2.92959 12.0972 2.9383 12.1003 2.94695 12.1035C3.71317 12.3915 4.18279 12.7873 4.54835 13.1052L4.55138 13.1078C4.90905 13.4189 5.10472 13.589 5.39861 13.6888C5.64435 13.7448 5.90036 13.7555 6.15141 13.72C6.28819 13.7006 6.42132 13.6679 6.54861 13.6228C6.57628 13.4497 6.61926 13.2794 6.67693 13.1137C5.94558 12.9746 5.24169 12.7147 4.59975 12.3417C3.55628 11.7353 2.71828 10.854 2.19715 9.7996C1.6756 8.74438 1.49685 7.5665 1.68681 6.41332C1.85472 5.39392 2.30301 4.44026 2.97865 3.64176C2.84651 3.00054 2.81882 2.34322 2.89751 1.69224C2.93875 1.30857 3.01809 0.929604 3.13434 0.560234C3.23528 0.239474 3.54186 0.0288119 3.87749 0.0495815C4.63828 0.0966615 5.38372 0.278756 6.07359 0.587267C6.51746 0.763773 6.93825 0.98813 7.32731 1.25603C8.23424 0.991177 9.17488 0.8389 10.1249 0.803246L10.1447 0.802771C11.1487 0.792344 12.1488 0.917333 13.114 1.17369C13.5835 0.882881 14.0842 0.639328 14.6079 0.446912C15.2214 0.218013 15.8651 0.0690067 16.5209 0.0036308ZM8.15818 13.3692C8.03493 13.5988 7.97323 13.8488 7.97505 14.0996C7.97695 14.3627 7.83745 14.6065 7.60969 14.7383C7.22535 14.9605 6.79885 15.1064 6.35635 15.169C5.91386 15.2316 5.46224 15.2099 5.02831 15.1051C5.01103 15.1009 4.99391 15.0961 4.97699 15.0907C4.37509 14.8979 3.97053 14.544 3.65287 14.2661C3.63086 14.2468 3.60928 14.2279 3.58807 14.2095C3.25954 13.9238 2.95245 13.6713 2.44526 13.4783C2.22768 13.4072 1.99905 13.3671 1.76757 13.3596C1.83676 13.4221 1.91686 13.4953 2.00308 13.5786C2.01635 13.5914 2.02913 13.6047 2.0414 13.6185L2.61017 14.2577C2.98982 14.6753 3.191 14.9156 3.32883 15.0805C3.46418 15.2424 3.51087 15.2974 3.60255 15.3824C4.04665 15.7933 4.59811 16.0998 5.2096 16.2699C5.82616 16.4162 6.47347 16.4152 7.08965 16.2671C7.3076 16.2147 7.53753 16.2651 7.71359 16.4039C7.88964 16.5426 7.99238 16.7544 7.99238 16.9786V18.5299L12.5892 18.4942V14.0547C12.5823 13.895 12.5427 13.7364 12.4709 13.5868L12.4678 13.5803C12.3817 13.3964 12.242 13.2297 12.0562 13.1012C11.7904 12.9173 11.6767 12.5808 11.7766 12.2734C11.8765 11.966 12.1662 11.7605 12.4893 11.7679C13.4634 11.7903 14.42 11.5484 15.2411 11.0765C16.0618 10.6047 16.7076 9.92631 17.1073 9.13109C17.5066 8.33669 17.6456 7.45586 17.5112 6.59444C17.3768 5.7326 16.9731 4.91862 16.3407 4.25453C16.1761 4.08174 16.1061 3.83956 16.1532 3.60563C16.227 3.23865 16.2572 2.86558 16.2432 2.49295C16.2312 2.1724 16.1828 1.85398 16.0987 1.54285C15.7637 1.60776 15.4354 1.70001 15.118 1.81856L15.1142 1.81997C14.5909 2.01212 14.0976 2.2653 13.6463 2.57267C13.4641 2.69674 13.2357 2.73208 13.0246 2.66888C12.1033 2.39313 11.1392 2.25693 10.1698 2.26601C9.23103 2.30216 8.30405 2.46861 7.41999 2.75932C7.18718 2.83587 6.93152 2.7908 6.73893 2.63925C6.37462 2.35257 5.96396 2.11719 5.52035 1.94216C5.50956 1.93791 5.49888 1.93339 5.48831 1.92863C5.13914 1.7713 4.76969 1.65579 4.3891 1.5847C4.37399 1.6737 4.36165 1.76309 4.3521 1.85276L4.35093 1.86373C4.27811 2.46154 4.32346 3.06686 4.48542 3.65063C4.55488 3.901 4.48636 4.16944 4.30538 4.35588C3.67555 5.00474 3.2704 5.80345 3.13076 6.65117C2.99119 7.49846 3.12135 8.36672 3.50907 9.15119C3.89719 9.93648 4.52908 10.608 5.33501 11.0764C6.14133 11.5449 7.08277 11.7869 8.04265 11.7679C8.36887 11.7614 8.65996 11.9717 8.75628 12.2835C8.85259 12.5952 8.73084 12.9331 8.45781 13.1117C8.34435 13.186 8.24383 13.2728 8.15818 13.3692Z" fill="white"/>
</svg>
