<svg width="17" height="18" viewBox="0 0 17 18" fill="none" xmlns="http://www.w3.org/2000/svg">
<path class="{{include.cls}}" d="M14.7914 0H1.53042C1.36335 0 1.20317 0.0663795 1.0849 0.184507C0.96677 0.302779 0.900391 0.462957 0.900391 0.630025V17.37C0.900391 17.537 0.96677 17.6972 1.0849 17.8155C1.20317 17.9336 1.36335 18 1.53042 18H14.7914C15.3761 18 15.9371 17.7677 16.3505 17.3541C16.7641 16.9407 16.9964 16.3797 16.9964 15.7949V2.20509C16.9964 1.62035 16.7641 1.05938 16.3505 0.645902C15.9371 0.232317 15.3761 0 14.7914 0ZM2.16044 1.26005H4.93154V16.74H2.16044V1.26005ZM15.7364 15.7949C15.7364 16.0455 15.6368 16.2859 15.4596 16.4632C15.2823 16.6404 15.042 16.7399 14.7914 16.7399H6.19135V1.26003H14.7914C15.042 1.26003 15.2823 1.3596 15.4596 1.53679C15.6368 1.71413 15.7364 1.95448 15.7364 2.20505V15.7949ZM8.2517 5.46898C8.2517 5.30177 8.31808 5.14159 8.43635 5.02346C8.55447 4.90533 8.71466 4.83895 8.88172 4.83895H13.0431C13.2681 4.83895 13.4761 4.95891 13.5888 5.15397C13.7013 5.34888 13.7013 5.58894 13.5888 5.78399C13.4761 5.97891 13.2681 6.099 13.0431 6.099H8.88172C8.71465 6.099 8.55447 6.03262 8.43635 5.91436C8.31807 5.79623 8.2517 5.63604 8.2517 5.46898ZM14.2747 8.83551C14.2747 9.00258 14.2084 9.16276 14.0902 9.28103C13.9721 9.39916 13.8118 9.46553 13.6447 9.46553H8.2895C8.06449 9.46553 7.85651 9.34544 7.74386 9.15052C7.63136 8.95561 7.63136 8.71541 7.74386 8.5205C7.85651 8.32558 8.0645 8.20548 8.2895 8.20548H13.6447C13.8118 8.20548 13.9721 8.27186 14.0902 8.38999C14.2084 8.50812 14.2747 8.66844 14.2747 8.83551Z" fill="#44A0F8"/>
</svg>
