<svg width="20" height="20" viewBox="0 0 20 20" fill="none" xmlns="http://www.w3.org/2000/svg">
<path class="{{include.cls}}" d="M10 20C4.47734 20 0 15.5227 0 10C0 4.47734 4.47734 0 10 0C15.5227 0 20 4.47734 20 10C20 15.5227 15.5227 20 10 20ZM10 1.81829C5.47746 1.81829 1.81829 5.47738 1.81829 10C1.81829 14.5226 5.47738 18.1817 10 18.1817C14.5226 18.1817 18.1817 14.5226 18.1817 10C18.1817 5.47738 14.5226 1.81829 10 1.81829Z" fill="white"/>
<path class="{{include.cls}}" d="M10.0008 15.2273C9.50088 15.2273 9.0918 14.8183 9.0918 14.3183V9.09097C9.0918 8.59103 9.50088 8.18195 10.0008 8.18195C10.5008 8.18195 10.9099 8.59103 10.9099 9.09097V14.3183C10.9099 14.8183 10.5008 15.2273 10.0008 15.2273Z" fill="white"/>
<path class="{{include.cls}}" d="M10.9099 6.13629C10.9099 6.63838 10.5029 7.04547 10.0008 7.04547C9.49874 7.04547 9.0918 6.63838 9.0918 6.13629C9.0918 5.63421 9.49874 5.22726 10.0008 5.22726C10.5029 5.22726 10.9099 5.63421 10.9099 6.13629Z" fill="white"/>
<path class="{{include.cls}}" d="M9.99968 7.27277C9.36338 7.27277 8.86328 6.77283 8.86328 6.13637C8.86328 5.50007 9.36322 4.99997 9.99968 4.99997C10.636 4.99997 11.1361 5.49991 11.1361 6.13637C11.1361 6.77283 10.636 7.27277 9.99968 7.27277ZM9.99968 5.45456C9.61327 5.45456 9.31787 5.74996 9.31787 6.13637C9.31787 6.52278 9.61327 6.81818 9.99968 6.81818C10.3861 6.81818 10.6815 6.52278 10.6815 6.13637C10.6815 5.75011 10.3861 5.45456 9.99968 5.45456Z" fill="white"/>
</svg>
