<svg width="30" height="30" viewBox="0 0 30 30" fill="none" xmlns="http://www.w3.org/2000/svg">
<path class="{{include.cls}}" d="M3.98089 15.3676C4.99204 14.046 6.59236 13.4568 8.42357 13.4568C11.8073 13.4568 14.2516 15.7418 14.2516 19.5953C14.2516 23.2179 11.9666 26.2912 7.16561 26.2912C2.75478 26.2912 0 23.1383 0 18.0189C0 11.1718 4.11624 5.79755 11.5605 4.02208C11.9984 3.91857 12.4841 4.18927 12.6354 4.61921L12.7866 5.04915C12.9379 5.47908 12.707 5.90106 12.2691 6.02845C7.35669 7.40583 4.37898 10.3995 3.63853 15.2482C3.57484 15.6941 3.70223 15.7339 3.98089 15.3676ZM19.7293 15.3676C20.7404 14.046 22.3408 13.4568 24.172 13.4568C27.5557 13.4568 30 15.7418 30 19.5953C30 23.2179 27.715 26.2912 22.914 26.2912C18.5032 26.2912 15.7484 23.1383 15.7484 18.0189C15.7484 11.1718 19.8647 5.79755 27.3169 4.02208C27.7548 3.91857 28.2404 4.18927 28.3917 4.61921L28.543 5.04915C28.6943 5.47908 28.4634 5.90106 28.0255 6.02845C23.1131 7.40583 20.1354 10.3995 19.3949 15.2482C19.3232 15.6941 19.4586 15.7339 19.7293 15.3676Z" fill="#44A0F8"/>
</svg>
