<svg width="16" height="16" viewBox="0 0 16 16" fill="none" xmlns="http://www.w3.org/2000/svg">
<g clip-path="url(#clip0_595_9954)">
<path class="{{include.cls}}" fill-rule="evenodd" clip-rule="evenodd" d="M7.90876 4.26392C8.35618 4.26392 8.71889 4.62662 8.71889 5.07404V7.71521L11.342 9.75049C11.6955 10.0248 11.7598 10.5337 11.4855 10.8872C11.2112 11.2407 10.7023 11.3049 10.3488 11.0306L7.41214 8.75208C7.21436 8.59862 7.09863 8.36235 7.09863 8.11202V5.07404C7.09863 4.62662 7.46134 4.26392 7.90876 4.26392Z" fill="#3E5871"/>
<path class="{{include.cls}}" fill-rule="evenodd" clip-rule="evenodd" d="M7.90918 1.42841C4.3298 1.42841 1.42817 4.33005 1.42817 7.90942C1.42817 11.4888 4.3298 14.3904 7.90918 14.3904C11.4886 14.3904 14.3902 11.4888 14.3902 7.90942C14.3902 4.33005 11.4886 1.42841 7.90918 1.42841ZM-0.0908203 7.90942C-0.0908203 3.49113 3.49089 -0.0905762 7.90918 -0.0905762C12.3275 -0.0905762 15.9092 3.49113 15.9092 7.90942C15.9092 12.3277 12.3275 15.9094 7.90918 15.9094C3.49089 15.9094 -0.0908203 12.3277 -0.0908203 7.90942Z" fill="#3E5871"/>
</g>
<defs>
<clipPath id="clip0_595_9954">
<rect width="16" height="16" fill="white"/>
</clipPath>
</defs>
</svg>
