<svg width="16" height="16" viewBox="0 0 16 16" fill="none" xmlns="http://www.w3.org/2000/svg">
<path class="{{include.cls}}" d="M2.77997 16.0001H12.9949C13.9658 16.0001 14.7749 15.2112 14.7749 14.22V13.1884C14.7749 11.4287 13.8243 9.79028 12.3273 8.92043L12.2465 8.90011C9.55623 7.32236 6.19845 7.32236 3.48796 8.90011L3.44746 8.92029C1.9507 9.81048 1 11.4489 1 13.1883V14.2199C1 15.1908 1.78888 15.9999 2.77992 15.9999L2.77997 16.0001ZM2.61813 13.1884C2.61813 12.0152 3.24515 10.9027 4.27686 10.3161L4.31736 10.296C5.40957 9.6486 6.64345 9.34526 7.87737 9.34526C9.11129 9.34526 10.3451 9.66893 11.4374 10.296L11.4779 10.3161C12.4893 10.9027 13.1366 12.0152 13.1366 13.1884V14.22C13.1366 14.3009 13.0759 14.3819 12.9748 14.3819H2.78008C2.69923 14.3819 2.61824 14.3212 2.61824 14.22L2.61813 13.1884Z" fill="#3E5871"/>
<path class="{{include.cls}}" d="M7.8775 0C6.64362 0 5.49072 0.66751 4.88386 1.73957C4.277 2.81163 4.277 4.12635 4.88386 5.19856C5.49072 6.27062 6.64362 6.93813 7.8775 6.93813C9.11138 6.93813 10.2643 6.27062 10.8711 5.19856C11.478 4.12649 11.478 2.81178 10.8711 1.73957C10.2643 0.66751 9.11138 0 7.8775 0ZM9.47541 4.38938C9.15173 4.95575 8.54487 5.31992 7.8775 5.31992C7.20999 5.31992 6.60313 4.97607 6.2796 4.38938C5.95592 3.80285 5.95592 3.11501 6.2796 2.54864C6.60327 1.98226 7.21014 1.6181 7.8775 1.6181C8.54501 1.6181 9.15187 1.96195 9.47541 2.54864C9.79908 3.13531 9.79908 3.82301 9.47541 4.38938Z" fill="#3E5871"/>
</svg>
