<svg width="20" height="20" viewBox="0 0 20 20" fill="none" xmlns="http://www.w3.org/2000/svg">
<path class="{{include.cls}}" d="M19.8109 11.889C20.063 10.6423 20.063 9.35772 19.8109 8.11105C19.8347 7.97638 19.807 7.83743 19.7328 7.72229C19.2184 5.52605 17.9757 3.5679 16.2066 2.1661C14.4374 0.764143 12.2457 0.000904762 9.98728 0C9.38661 0.00427829 8.78728 0.0600809 8.19615 0.166667H8.1183C5.82578 0.6077 3.75973 1.835 2.27756 3.63633C0.795015 5.43767 -0.0104818 7.69957 0.000103005 10.0311C0.0105329 12.3628 0.836544 14.6174 2.3353 16.4054C3.83406 18.1931 5.91107 19.4017 8.20751 19.822C8.79454 19.9324 9.3902 19.9919 9.98748 19.9999C12.2459 19.9989 14.4377 19.2357 16.2068 17.8338C17.9759 16.432 19.2186 14.4738 19.733 12.2776C19.8072 12.1624 19.8349 12.0235 19.8111 11.8888L19.8109 11.889ZM7.48381 12.6001H7.33909C7.24895 11.7362 7.20443 10.8685 7.20574 10C7.20611 9.13896 7.25062 8.27867 7.33909 7.42224H7.48381C9.19002 7.22544 10.9115 7.19568 12.6237 7.33333C12.7175 8.21914 12.7658 9.10919 12.7682 10C12.7665 10.8982 12.7183 11.7958 12.6237 12.6888C10.9115 12.8266 9.18997 12.7969 7.48381 12.6001V12.6001ZM1.08665 10C1.0913 9.62854 1.11738 9.25743 1.1645 8.88896C2.7979 8.28943 4.48585 7.85043 6.20422 7.57777C6.13755 8.37781 6.09303 9.18882 6.09303 10C6.09303 10.8112 6.09303 11.6445 6.20422 12.4222C4.48571 12.1495 2.79776 11.7106 1.1645 11.1111C1.11738 10.7426 1.0913 10.3715 1.08665 10ZM13.7584 7.4111C15.4492 7.60046 17.118 7.95034 18.7424 8.45558C18.8362 8.96505 18.8847 9.482 18.8871 10.0001C18.8839 10.5181 18.8355 11.0348 18.7424 11.5445C17.1179 12.0497 15.4491 12.3996 13.7584 12.589C13.8363 11.7557 13.8808 10.9002 13.8808 10.0001C13.8808 9.10019 13.8363 8.24453 13.7584 7.41119V7.4111ZM18.431 7.19998C16.915 6.77382 15.3674 6.46912 13.803 6.28888H13.6249C13.4197 4.66926 13.0734 3.07069 12.5903 1.51126C13.9445 1.93146 15.1797 2.66602 16.195 3.65488C17.2102 4.64374 17.9764 5.85855 18.431 7.20007L18.431 7.19998ZM11.3439 1.22236C11.8645 2.83693 12.237 4.49579 12.4566 6.17807C10.7843 6.06609 9.10543 6.09958 7.43927 6.27796C7.65849 4.5631 8.03079 2.87115 8.55173 1.22272C9.02648 1.14813 9.50642 1.11093 9.98698 1.11149C10.4416 1.11502 10.8951 1.15204 11.3442 1.22272L11.3439 1.22236ZM7.38339 1.50007C6.89802 3.11317 6.54452 4.76307 6.32663 6.4334C4.65913 6.67857 3.01719 7.07274 1.4204 7.61102C1.8214 6.17464 2.57773 4.86212 3.61981 3.79426C4.66185 2.72617 5.95611 1.93731 7.38354 1.49998L7.38339 1.50007ZM1.42012 12.3891C3.01738 12.9263 4.65918 13.3205 6.32634 13.5667C6.5381 15.2383 6.89177 16.8885 7.38311 18.5001C5.95868 18.0574 4.66723 17.2666 3.62591 16.1995C2.58478 15.1324 1.82659 13.8226 1.41997 12.389L1.42012 12.3891ZM8.62926 18.7782L8.62944 18.778C8.10721 17.1258 7.73488 15.4301 7.5168 13.7113C8.55068 13.8339 9.59085 13.8934 10.632 13.8891C11.2883 13.8891 11.9225 13.8891 12.5455 13.8226V13.8224C12.3259 15.5045 11.9534 17.1633 11.4329 18.7781C10.9546 18.8532 10.4709 18.8904 9.98664 18.8893C9.53201 18.8858 9.07849 18.8488 8.62944 18.7781L8.62926 18.7782ZM12.5898 18.5005L12.59 18.5003C13.0731 16.9407 13.4194 15.3422 13.6246 13.7226H13.7915C15.3597 13.5433 16.9111 13.2386 18.4307 12.8116C17.9761 14.1531 17.2099 15.3679 16.1947 16.3567C15.1794 17.3456 13.9442 18.0801 12.59 18.5004L12.5898 18.5005Z" fill="#44A0F8"/>
</svg>
