<svg width="1170" height="680" viewBox="0 0 1170 680" fill="none" xmlns="http://www.w3.org/2000/svg">
<rect width="1170" height="680" fill="white"/>
<circle cx="53.5" cy="626.5" r="12.5" fill="#44A0F8" stroke="white" stroke-width="2"/>
<path d="M77.8971 626.4C77.8971 625.632 78.0571 624.949 78.3771 624.352C78.7077 623.744 79.1611 623.269 79.7371 622.928C80.3131 622.587 80.9691 622.416 81.7051 622.416C82.4624 622.416 83.1237 622.587 83.6891 622.928C84.2651 623.269 84.7131 623.744 85.0331 624.352C85.3531 624.949 85.5131 625.632 85.5131 626.4C85.5131 627.168 85.3477 627.856 85.0171 628.464C84.6971 629.061 84.2491 629.531 83.6731 629.872C83.1077 630.213 82.4517 630.384 81.7051 630.384C80.9691 630.384 80.3131 630.213 79.7371 629.872C79.1611 629.531 78.7077 629.061 78.3771 628.464C78.0571 627.856 77.8971 627.168 77.8971 626.4ZM75.8971 626.4C75.8971 627.232 76.0411 628.005 76.3291 628.72C76.6171 629.435 77.0171 630.053 77.5291 630.576C78.0517 631.099 78.6704 631.509 79.3851 631.808C80.0997 632.096 80.8731 632.24 81.7051 632.24C82.5477 632.24 83.3211 632.096 84.0251 631.808C84.7397 631.509 85.3584 631.099 85.8811 630.576C86.4037 630.053 86.8091 629.435 87.0971 628.72C87.3851 628.005 87.5291 627.232 87.5291 626.4C87.5291 625.557 87.3851 624.784 87.0971 624.08C86.8091 623.376 86.3984 622.768 85.8651 622.256C85.3424 621.733 84.7291 621.328 84.0251 621.04C83.3211 620.752 82.5477 620.608 81.7051 620.608C80.8837 620.608 80.1157 620.752 79.4011 621.04C78.6971 621.328 78.0784 621.733 77.5451 622.256C77.0224 622.768 76.6171 623.376 76.3291 624.08C76.0411 624.784 75.8971 625.557 75.8971 626.4ZM90.9012 635.52V624.64H89.1572V635.52H90.9012ZM96.9972 628.32C96.9972 627.499 96.8319 626.8 96.5012 626.224C96.1705 625.648 95.7332 625.211 95.1892 624.912C94.6452 624.603 94.0532 624.448 93.4132 624.448C92.7839 624.448 92.2345 624.608 91.7652 624.928C91.3065 625.237 90.9492 625.68 90.6932 626.256C90.4479 626.832 90.3252 627.52 90.3252 628.32C90.3252 629.109 90.4479 629.797 90.6932 630.384C90.9492 630.96 91.3065 631.408 91.7652 631.728C92.2345 632.037 92.7839 632.192 93.4132 632.192C94.0532 632.192 94.6452 632.043 95.1892 631.744C95.7332 631.435 96.1705 630.992 96.5012 630.416C96.8319 629.829 96.9972 629.131 96.9972 628.32ZM95.2052 628.32C95.2052 628.811 95.1039 629.232 94.9012 629.584C94.6985 629.925 94.4265 630.187 94.0852 630.368C93.7545 630.539 93.3865 630.624 92.9812 630.624C92.6505 630.624 92.3252 630.539 92.0052 630.368C91.6852 630.187 91.4185 629.925 91.2052 629.584C91.0025 629.243 90.9012 628.821 90.9012 628.32C90.9012 627.819 91.0025 627.397 91.2052 627.056C91.4185 626.715 91.6852 626.459 92.0052 626.288C92.3252 626.107 92.6505 626.016 92.9812 626.016C93.3865 626.016 93.7545 626.107 94.0852 626.288C94.4265 626.459 94.6985 626.72 94.9012 627.072C95.1039 627.413 95.2052 627.829 95.2052 628.32ZM101.843 632.16C102.696 632.16 103.427 631.995 104.035 631.664C104.643 631.333 105.139 630.837 105.523 630.176L104.035 629.568C103.8 629.963 103.507 630.256 103.155 630.448C102.803 630.64 102.392 630.736 101.923 630.736C101.475 630.736 101.091 630.64 100.771 630.448C100.462 630.256 100.227 629.979 100.067 629.616C99.9071 629.243 99.8271 628.789 99.8271 628.256C99.8377 627.723 99.9231 627.275 100.083 626.912C100.243 626.549 100.478 626.272 100.787 626.08C101.096 625.888 101.47 625.792 101.907 625.792C102.27 625.792 102.584 625.872 102.851 626.032C103.128 626.192 103.342 626.416 103.491 626.704C103.651 626.992 103.731 627.333 103.731 627.728C103.731 627.803 103.71 627.899 103.667 628.016C103.635 628.123 103.603 628.208 103.571 628.272L104.099 627.536H99.1071V628.72H105.571C105.582 628.677 105.587 628.608 105.587 628.512C105.598 628.416 105.603 628.325 105.603 628.24C105.603 627.451 105.454 626.779 105.155 626.224C104.867 625.659 104.451 625.227 103.907 624.928C103.363 624.629 102.702 624.48 101.923 624.48C101.144 624.48 100.467 624.64 99.8911 624.96C99.3151 625.269 98.8671 625.712 98.5471 626.288C98.2377 626.864 98.0831 627.541 98.0831 628.32C98.0831 629.088 98.2377 629.76 98.5471 630.336C98.8564 630.912 99.2937 631.36 99.8591 631.68C100.435 632 101.096 632.16 101.843 632.16ZM111.988 627.52V632H113.764V627.328C113.764 626.443 113.546 625.749 113.108 625.248C112.671 624.736 112.036 624.48 111.204 624.48C110.692 624.48 110.25 624.587 109.876 624.8C109.514 625.013 109.215 625.339 108.98 625.776V624.64H107.252V632H108.98V627.52C108.98 627.189 109.05 626.901 109.188 626.656C109.327 626.4 109.519 626.208 109.764 626.08C110.01 625.941 110.292 625.872 110.612 625.872C111.082 625.872 111.428 626.011 111.652 626.288C111.876 626.565 111.988 626.976 111.988 627.52ZM120.912 620.8V632H122.8V620.8H120.912ZM122.032 622.464H124.288C124.939 622.464 125.461 622.619 125.856 622.928C126.251 623.227 126.448 623.675 126.448 624.272C126.448 624.869 126.251 625.323 125.856 625.632C125.461 625.941 124.939 626.096 124.288 626.096H122.032V627.76H124.288C125.099 627.76 125.803 627.621 126.4 627.344C127.008 627.056 127.477 626.651 127.808 626.128C128.139 625.605 128.304 624.987 128.304 624.272C128.304 623.557 128.139 622.944 127.808 622.432C127.477 621.909 127.008 621.509 126.4 621.232C125.803 620.944 125.099 620.8 124.288 620.8H122.032V622.464ZM128.974 628.32C128.974 629.067 129.144 629.733 129.486 630.32C129.838 630.896 130.312 631.349 130.91 631.68C131.507 632 132.184 632.16 132.942 632.16C133.699 632.16 134.371 632 134.958 631.68C135.555 631.349 136.03 630.896 136.382 630.32C136.734 629.733 136.91 629.067 136.91 628.32C136.91 627.563 136.734 626.896 136.382 626.32C136.03 625.744 135.555 625.296 134.958 624.976C134.371 624.645 133.699 624.48 132.942 624.48C132.184 624.48 131.507 624.645 130.91 624.976C130.312 625.296 129.838 625.744 129.486 626.32C129.144 626.896 128.974 627.563 128.974 628.32ZM130.75 628.32C130.75 627.861 130.846 627.456 131.038 627.104C131.23 626.752 131.491 626.48 131.822 626.288C132.152 626.096 132.526 626 132.942 626C133.347 626 133.715 626.096 134.046 626.288C134.387 626.48 134.654 626.752 134.846 627.104C135.038 627.456 135.134 627.861 135.134 628.32C135.134 628.779 135.038 629.184 134.846 629.536C134.654 629.877 134.387 630.149 134.046 630.352C133.715 630.544 133.347 630.64 132.942 630.64C132.526 630.64 132.152 630.544 131.822 630.352C131.491 630.149 131.23 629.877 131.038 629.536C130.846 629.184 130.75 628.779 130.75 628.32ZM140.261 624.64H138.549V632H140.261V624.64ZM142.453 626.48L143.285 625.024C143.125 624.821 142.928 624.683 142.693 624.608C142.459 624.523 142.208 624.48 141.941 624.48C141.568 624.48 141.205 624.613 140.853 624.88C140.512 625.147 140.229 625.509 140.005 625.968C139.792 626.416 139.685 626.933 139.685 627.52L140.261 627.856C140.261 627.504 140.299 627.2 140.373 626.944C140.459 626.677 140.592 626.469 140.773 626.32C140.955 626.171 141.189 626.096 141.477 626.096C141.691 626.096 141.867 626.128 142.005 626.192C142.144 626.256 142.293 626.352 142.453 626.48ZM143.447 624.64V626.16H147.623V624.64H143.447ZM144.679 622.08V632H146.391V622.08H144.679Z" fill="#93A9BF"/>
<rect x="432" y="489" width="278" height="148" rx="19" fill="white" stroke="#E3EAF2" stroke-width="2"/>
<path d="M545.281 512.6V518.24L539.149 512.18V521H540.541V515.36L546.673 521.42V512.6H545.281ZM550.828 521.12C551.468 521.12 552.016 520.996 552.472 520.748C552.928 520.5 553.3 520.128 553.588 519.632L552.472 519.176C552.296 519.472 552.076 519.692 551.812 519.836C551.548 519.98 551.24 520.052 550.888 520.052C550.552 520.052 550.264 519.98 550.024 519.836C549.792 519.692 549.616 519.484 549.496 519.212C549.376 518.932 549.316 518.592 549.316 518.192C549.324 517.792 549.388 517.456 549.508 517.184C549.628 516.912 549.804 516.704 550.036 516.56C550.268 516.416 550.548 516.344 550.876 516.344C551.148 516.344 551.384 516.404 551.584 516.524C551.792 516.644 551.952 516.812 552.064 517.028C552.184 517.244 552.244 517.5 552.244 517.796C552.244 517.852 552.228 517.924 552.196 518.012C552.172 518.092 552.148 518.156 552.124 518.204L552.52 517.652H548.776V518.54H553.624C553.632 518.508 553.636 518.456 553.636 518.384C553.644 518.312 553.648 518.244 553.648 518.18C553.648 517.588 553.536 517.084 553.312 516.668C553.096 516.244 552.784 515.92 552.376 515.696C551.968 515.472 551.472 515.36 550.888 515.36C550.304 515.36 549.796 515.48 549.364 515.72C548.932 515.952 548.596 516.284 548.356 516.716C548.124 517.148 548.008 517.656 548.008 518.24C548.008 518.816 548.124 519.32 548.356 519.752C548.588 520.184 548.916 520.52 549.34 520.76C549.772 521 550.268 521.12 550.828 521.12ZM554.117 515.48V516.62H557.249V515.48H554.117ZM555.041 513.56V521H556.325V513.56H555.041ZM557.314 515.48L559.894 521.396L561.55 517.664L563.278 521.396L565.858 515.48H564.454L563.158 518.78L561.538 515.06L560.014 518.768L558.718 515.48H557.314ZM566.09 518.24C566.09 518.8 566.218 519.3 566.474 519.74C566.738 520.172 567.094 520.512 567.542 520.76C567.99 521 568.498 521.12 569.066 521.12C569.634 521.12 570.138 521 570.578 520.76C571.026 520.512 571.382 520.172 571.646 519.74C571.91 519.3 572.042 518.8 572.042 518.24C572.042 517.672 571.91 517.172 571.646 516.74C571.382 516.308 571.026 515.972 570.578 515.732C570.138 515.484 569.634 515.36 569.066 515.36C568.498 515.36 567.99 515.484 567.542 515.732C567.094 515.972 566.738 516.308 566.474 516.74C566.218 517.172 566.09 517.672 566.09 518.24ZM567.422 518.24C567.422 517.896 567.494 517.592 567.638 517.328C567.782 517.064 567.978 516.86 568.226 516.716C568.474 516.572 568.754 516.5 569.066 516.5C569.37 516.5 569.646 516.572 569.894 516.716C570.15 516.86 570.35 517.064 570.494 517.328C570.638 517.592 570.71 517.896 570.71 518.24C570.71 518.584 570.638 518.888 570.494 519.152C570.35 519.408 570.15 519.612 569.894 519.764C569.646 519.908 569.37 519.98 569.066 519.98C568.754 519.98 568.474 519.908 568.226 519.764C567.978 519.612 567.782 519.408 567.638 519.152C567.494 518.888 567.422 518.584 567.422 518.24ZM574.555 515.48H573.271V521H574.555V515.48ZM576.199 516.86L576.823 515.768C576.703 515.616 576.555 515.512 576.379 515.456C576.203 515.392 576.015 515.36 575.815 515.36C575.535 515.36 575.263 515.46 574.999 515.66C574.743 515.86 574.531 516.132 574.363 516.476C574.203 516.812 574.123 517.2 574.123 517.64L574.555 517.892C574.555 517.628 574.583 517.4 574.639 517.208C574.703 517.008 574.803 516.852 574.939 516.74C575.075 516.628 575.251 516.572 575.467 516.572C575.627 516.572 575.759 516.596 575.863 516.644C575.967 516.692 576.079 516.764 576.199 516.86ZM577.665 511.64V521H578.937V511.64H577.665ZM580.965 515.48L578.577 517.76L581.217 521H582.789L580.173 517.76L582.549 515.48H580.965ZM591.596 512.6L586.604 522.8H587.912L592.868 512.6H591.596ZM598.131 518.3L597.075 519.032C597.259 519.416 597.507 519.772 597.819 520.1C598.131 520.428 598.495 520.692 598.911 520.892C599.335 521.084 599.795 521.18 600.291 521.18C600.651 521.18 600.995 521.12 601.323 521C601.659 520.888 601.959 520.728 602.223 520.52C602.487 520.304 602.695 520.04 602.847 519.728C602.999 519.416 603.075 519.064 603.075 518.672C603.075 518.304 603.011 517.984 602.883 517.712C602.763 517.44 602.599 517.204 602.391 517.004C602.183 516.796 601.951 516.624 601.695 516.488C601.447 516.352 601.199 516.24 600.951 516.152C600.503 515.992 600.139 515.836 599.859 515.684C599.579 515.532 599.371 515.372 599.235 515.204C599.107 515.028 599.043 514.832 599.043 514.616C599.043 514.376 599.135 514.168 599.319 513.992C599.503 513.808 599.791 513.716 600.183 513.716C600.463 513.716 600.707 513.772 600.915 513.884C601.131 513.988 601.319 514.132 601.479 514.316C601.639 514.492 601.771 514.684 601.875 514.892L603.027 514.244C602.883 513.948 602.683 513.664 602.427 513.392C602.179 513.12 601.871 512.896 601.503 512.72C601.135 512.544 600.703 512.456 600.207 512.456C599.703 512.456 599.251 512.552 598.851 512.744C598.459 512.928 598.147 513.192 597.915 513.536C597.683 513.872 597.567 514.264 597.567 514.712C597.567 515.104 597.643 515.44 597.795 515.72C597.947 515.992 598.139 516.224 598.371 516.416C598.603 516.6 598.847 516.756 599.103 516.884C599.359 517.004 599.591 517.1 599.799 517.172C600.151 517.3 600.459 517.432 600.723 517.568C600.995 517.696 601.207 517.856 601.359 518.048C601.511 518.232 601.587 518.48 601.587 518.792C601.587 519.12 601.467 519.388 601.227 519.596C600.987 519.804 600.675 519.908 600.291 519.908C599.971 519.908 599.683 519.844 599.427 519.716C599.171 519.58 598.935 519.392 598.719 519.152C598.511 518.904 598.315 518.62 598.131 518.3ZM605.752 518.84V515.48H604.42V518.984C604.42 519.64 604.584 520.16 604.912 520.544C605.248 520.928 605.724 521.12 606.34 521.12C606.724 521.12 607.052 521.04 607.324 520.88C607.604 520.712 607.832 520.468 608.008 520.148V521H609.304V515.48H608.008V518.84C608.008 519.088 607.956 519.308 607.852 519.5C607.748 519.684 607.604 519.828 607.42 519.932C607.236 520.028 607.02 520.076 606.772 520.076C606.428 520.076 606.172 519.968 606.004 519.752C605.836 519.536 605.752 519.232 605.752 518.84ZM612.219 511.64H610.911V521H612.219V511.64ZM616.791 518.24C616.791 517.632 616.667 517.116 616.419 516.692C616.171 516.26 615.843 515.932 615.435 515.708C615.027 515.476 614.583 515.36 614.103 515.36C613.647 515.36 613.239 515.476 612.879 515.708C612.527 515.94 612.251 516.272 612.051 516.704C611.851 517.128 611.751 517.64 611.751 518.24C611.751 518.832 611.851 519.344 612.051 519.776C612.251 520.208 612.527 520.54 612.879 520.772C613.239 521.004 613.647 521.12 614.103 521.12C614.583 521.12 615.027 521.008 615.435 520.784C615.843 520.552 616.171 520.22 616.419 519.788C616.667 519.356 616.791 518.84 616.791 518.24ZM615.447 518.24C615.447 518.608 615.371 518.924 615.219 519.188C615.067 519.452 614.863 519.652 614.607 519.788C614.359 519.924 614.083 519.992 613.779 519.992C613.531 519.992 613.287 519.924 613.047 519.788C612.807 519.652 612.607 519.456 612.447 519.2C612.295 518.936 612.219 518.616 612.219 518.24C612.219 517.864 612.295 517.548 612.447 517.292C612.607 517.028 612.807 516.828 613.047 516.692C613.287 516.556 613.531 516.488 613.779 516.488C614.083 516.488 614.359 516.556 614.607 516.692C614.863 516.828 615.067 517.028 615.219 517.292C615.371 517.556 615.447 517.872 615.447 518.24ZM621.577 517.64V521H622.909V517.496C622.909 516.832 622.745 516.312 622.417 515.936C622.089 515.552 621.613 515.36 620.989 515.36C620.605 515.36 620.273 515.44 619.993 515.6C619.721 515.76 619.497 516.004 619.321 516.332V515.48H618.025V521H619.321V517.64C619.321 517.392 619.373 517.176 619.477 516.992C619.581 516.8 619.725 516.656 619.909 516.56C620.093 516.456 620.305 516.404 620.545 516.404C620.897 516.404 621.157 516.508 621.325 516.716C621.493 516.924 621.577 517.232 621.577 517.64ZM626.964 521.12C627.604 521.12 628.152 520.996 628.608 520.748C629.064 520.5 629.436 520.128 629.724 519.632L628.608 519.176C628.432 519.472 628.212 519.692 627.948 519.836C627.684 519.98 627.376 520.052 627.024 520.052C626.688 520.052 626.4 519.98 626.16 519.836C625.928 519.692 625.752 519.484 625.632 519.212C625.512 518.932 625.452 518.592 625.452 518.192C625.46 517.792 625.524 517.456 625.644 517.184C625.764 516.912 625.94 516.704 626.172 516.56C626.404 516.416 626.684 516.344 627.012 516.344C627.284 516.344 627.52 516.404 627.72 516.524C627.928 516.644 628.088 516.812 628.2 517.028C628.32 517.244 628.38 517.5 628.38 517.796C628.38 517.852 628.364 517.924 628.332 518.012C628.308 518.092 628.284 518.156 628.26 518.204L628.656 517.652H624.912V518.54H629.76C629.768 518.508 629.772 518.456 629.772 518.384C629.78 518.312 629.784 518.244 629.784 518.18C629.784 517.588 629.672 517.084 629.448 516.668C629.232 516.244 628.92 515.92 628.512 515.696C628.104 515.472 627.608 515.36 627.024 515.36C626.44 515.36 625.932 515.48 625.5 515.72C625.068 515.952 624.732 516.284 624.492 516.716C624.26 517.148 624.144 517.656 624.144 518.24C624.144 518.816 624.26 519.32 624.492 519.752C624.724 520.184 625.052 520.52 625.476 520.76C625.908 521 626.404 521.12 626.964 521.12ZM630.253 515.48V516.62H633.385V515.48H630.253ZM631.177 513.56V521H632.461V513.56H631.177ZM642.221 512.6L637.229 522.8H638.537L643.493 512.6H642.221ZM651.408 518.504L648.936 512.6H647.304L651.408 521.468L655.512 512.6H653.88L651.408 518.504ZM656.489 512.6V521H657.905V512.6H656.489ZM657.329 513.848H659.021C659.509 513.848 659.901 513.964 660.197 514.196C660.493 514.42 660.641 514.756 660.641 515.204C660.641 515.652 660.493 515.992 660.197 516.224C659.901 516.456 659.509 516.572 659.021 516.572H657.329V517.82H659.021C659.629 517.82 660.157 517.716 660.605 517.508C661.061 517.292 661.413 516.988 661.661 516.596C661.909 516.204 662.033 515.74 662.033 515.204C662.033 514.668 661.909 514.208 661.661 513.824C661.413 513.432 661.061 513.132 660.605 512.924C660.157 512.708 659.629 512.6 659.021 512.6H657.329V513.848ZM664.47 516.8C664.47 516.2 664.602 515.68 664.866 515.24C665.138 514.792 665.49 514.448 665.922 514.208C666.362 513.96 666.838 513.836 667.35 513.836C667.75 513.836 668.11 513.888 668.43 513.992C668.75 514.096 669.038 514.24 669.294 514.424C669.558 514.6 669.786 514.8 669.978 515.024V513.344C669.626 513.056 669.246 512.836 668.838 512.684C668.43 512.532 667.918 512.456 667.302 512.456C666.686 512.456 666.11 512.56 665.574 512.768C665.046 512.976 664.586 513.276 664.194 513.668C663.802 514.06 663.494 514.524 663.27 515.06C663.054 515.588 662.946 516.168 662.946 516.8C662.946 517.432 663.054 518.016 663.27 518.552C663.494 519.08 663.802 519.54 664.194 519.932C664.586 520.324 665.046 520.624 665.574 520.832C666.11 521.04 666.686 521.144 667.302 521.144C667.918 521.144 668.43 521.068 668.838 520.916C669.246 520.764 669.626 520.544 669.978 520.256V518.576C669.786 518.8 669.558 519.004 669.294 519.188C669.038 519.364 668.75 519.504 668.43 519.608C668.11 519.712 667.75 519.764 667.35 519.764C666.838 519.764 666.362 519.644 665.922 519.404C665.49 519.156 665.138 518.808 664.866 518.36C664.602 517.912 664.47 517.392 664.47 516.8Z" fill="#99ACBE"/>
<rect x="471" y="548" width="200" height="50" rx="25" fill="#44A0F8"/>
<path d="M542.172 575.4L540.764 576.376C541.009 576.888 541.34 577.363 541.756 577.8C542.172 578.237 542.657 578.589 543.212 578.856C543.777 579.112 544.39 579.24 545.052 579.24C545.532 579.24 545.99 579.16 546.428 579C546.876 578.851 547.276 578.637 547.628 578.36C547.98 578.072 548.257 577.72 548.46 577.304C548.662 576.888 548.764 576.419 548.764 575.896C548.764 575.405 548.678 574.979 548.508 574.616C548.348 574.253 548.129 573.939 547.852 573.672C547.574 573.395 547.265 573.165 546.924 572.984C546.593 572.803 546.262 572.653 545.932 572.536C545.334 572.323 544.849 572.115 544.476 571.912C544.102 571.709 543.825 571.496 543.644 571.272C543.473 571.037 543.388 570.776 543.388 570.488C543.388 570.168 543.51 569.891 543.756 569.656C544.001 569.411 544.385 569.288 544.908 569.288C545.281 569.288 545.606 569.363 545.884 569.512C546.172 569.651 546.422 569.843 546.636 570.088C546.849 570.323 547.025 570.579 547.164 570.856L548.7 569.992C548.508 569.597 548.241 569.219 547.9 568.856C547.569 568.493 547.158 568.195 546.668 567.96C546.177 567.725 545.601 567.608 544.94 567.608C544.268 567.608 543.665 567.736 543.132 567.992C542.609 568.237 542.193 568.589 541.884 569.048C541.574 569.496 541.42 570.019 541.42 570.616C541.42 571.139 541.521 571.587 541.724 571.96C541.926 572.323 542.182 572.632 542.492 572.888C542.801 573.133 543.126 573.341 543.468 573.512C543.809 573.672 544.118 573.8 544.396 573.896C544.865 574.067 545.276 574.243 545.628 574.424C545.99 574.595 546.273 574.808 546.476 575.064C546.678 575.309 546.78 575.64 546.78 576.056C546.78 576.493 546.62 576.851 546.3 577.128C545.98 577.405 545.564 577.544 545.052 577.544C544.625 577.544 544.241 577.459 543.9 577.288C543.558 577.107 543.244 576.856 542.956 576.536C542.678 576.205 542.417 575.827 542.172 575.4ZM553.757 579.16C554.61 579.16 555.341 578.995 555.949 578.664C556.557 578.333 557.053 577.837 557.437 577.176L555.949 576.568C555.714 576.963 555.421 577.256 555.069 577.448C554.717 577.64 554.306 577.736 553.837 577.736C553.389 577.736 553.005 577.64 552.685 577.448C552.376 577.256 552.141 576.979 551.981 576.616C551.821 576.243 551.741 575.789 551.741 575.256C551.752 574.723 551.837 574.275 551.997 573.912C552.157 573.549 552.392 573.272 552.701 573.08C553.01 572.888 553.384 572.792 553.821 572.792C554.184 572.792 554.498 572.872 554.765 573.032C555.042 573.192 555.256 573.416 555.405 573.704C555.565 573.992 555.645 574.333 555.645 574.728C555.645 574.803 555.624 574.899 555.581 575.016C555.549 575.123 555.517 575.208 555.485 575.272L556.013 574.536H551.021V575.72H557.485C557.496 575.677 557.501 575.608 557.501 575.512C557.512 575.416 557.517 575.325 557.517 575.24C557.517 574.451 557.368 573.779 557.069 573.224C556.781 572.659 556.365 572.227 555.821 571.928C555.277 571.629 554.616 571.48 553.837 571.48C553.058 571.48 552.381 571.64 551.805 571.96C551.229 572.269 550.781 572.712 550.461 573.288C550.152 573.864 549.997 574.541 549.997 575.32C549.997 576.088 550.152 576.76 550.461 577.336C550.77 577.912 551.208 578.36 551.773 578.68C552.349 579 553.01 579.16 553.757 579.16ZM560.879 571.64H559.167V579H560.879V571.64ZM563.071 573.48L563.903 572.024C563.743 571.821 563.545 571.683 563.311 571.608C563.076 571.523 562.825 571.48 562.559 571.48C562.185 571.48 561.823 571.613 561.471 571.88C561.129 572.147 560.847 572.509 560.623 572.968C560.409 573.416 560.303 573.933 560.303 574.52L560.879 574.856C560.879 574.504 560.916 574.2 560.991 573.944C561.076 573.677 561.209 573.469 561.391 573.32C561.572 573.171 561.807 573.096 562.095 573.096C562.308 573.096 562.484 573.128 562.623 573.192C562.761 573.256 562.911 573.352 563.071 573.48ZM564.453 571.64L568.261 579.672L572.085 571.64H570.181L568.261 576.392L566.341 571.64H564.453ZM576.132 579.16C576.985 579.16 577.716 578.995 578.324 578.664C578.932 578.333 579.428 577.837 579.812 577.176L578.324 576.568C578.089 576.963 577.796 577.256 577.444 577.448C577.092 577.64 576.681 577.736 576.212 577.736C575.764 577.736 575.38 577.64 575.06 577.448C574.751 577.256 574.516 576.979 574.356 576.616C574.196 576.243 574.116 575.789 574.116 575.256C574.127 574.723 574.212 574.275 574.372 573.912C574.532 573.549 574.767 573.272 575.076 573.08C575.385 572.888 575.759 572.792 576.196 572.792C576.559 572.792 576.873 572.872 577.14 573.032C577.417 573.192 577.631 573.416 577.78 573.704C577.94 573.992 578.02 574.333 578.02 574.728C578.02 574.803 577.999 574.899 577.956 575.016C577.924 575.123 577.892 575.208 577.86 575.272L578.388 574.536H573.396V575.72H579.86C579.871 575.677 579.876 575.608 579.876 575.512C579.887 575.416 579.892 575.325 579.892 575.24C579.892 574.451 579.743 573.779 579.444 573.224C579.156 572.659 578.74 572.227 578.196 571.928C577.652 571.629 576.991 571.48 576.212 571.48C575.433 571.48 574.756 571.64 574.18 571.96C573.604 572.269 573.156 572.712 572.836 573.288C572.527 573.864 572.372 574.541 572.372 575.32C572.372 576.088 572.527 576.76 572.836 577.336C573.145 577.912 573.583 578.36 574.148 578.68C574.724 579 575.385 579.16 576.132 579.16ZM583.254 571.64H581.542V579H583.254V571.64ZM585.446 573.48L586.278 572.024C586.118 571.821 585.92 571.683 585.686 571.608C585.451 571.523 585.2 571.48 584.934 571.48C584.56 571.48 584.198 571.613 583.846 571.88C583.504 572.147 583.222 572.509 582.998 572.968C582.784 573.416 582.678 573.933 582.678 574.52L583.254 574.856C583.254 574.504 583.291 574.2 583.366 573.944C583.451 573.677 583.584 573.469 583.766 573.32C583.947 573.171 584.182 573.096 584.47 573.096C584.683 573.096 584.859 573.128 584.998 573.192C585.136 573.256 585.286 573.352 585.446 573.48ZM591.476 579H600.02V577.24H595.156L598.34 574.12C598.799 573.693 599.167 573.208 599.444 572.664C599.732 572.12 599.876 571.555 599.876 570.968C599.876 570.595 599.796 570.211 599.636 569.816C599.487 569.421 599.252 569.059 598.932 568.728C598.623 568.397 598.228 568.131 597.748 567.928C597.268 567.715 596.703 567.608 596.052 567.608C595.199 567.608 594.474 567.789 593.876 568.152C593.29 568.504 592.842 568.995 592.532 569.624C592.234 570.243 592.084 570.952 592.084 571.752H593.956C593.956 571.261 594.036 570.829 594.196 570.456C594.367 570.083 594.607 569.8 594.916 569.608C595.226 569.405 595.594 569.304 596.02 569.304C596.33 569.304 596.602 569.357 596.836 569.464C597.071 569.56 597.268 569.693 597.428 569.864C597.599 570.035 597.722 570.227 597.796 570.44C597.882 570.643 597.924 570.851 597.924 571.064C597.924 571.363 597.876 571.645 597.78 571.912C597.684 572.179 597.54 572.445 597.348 572.712C597.156 572.979 596.927 573.256 596.66 573.544L591.476 579Z" fill="white"/>
<rect x="851" y="311" width="278" height="148" rx="19" fill="white" stroke="#E3EAF2" stroke-width="2"/>
<path d="M964.281 334.6V340.24L958.149 334.18V343H959.541V337.36L965.673 343.42V334.6H964.281ZM969.828 343.12C970.468 343.12 971.016 342.996 971.472 342.748C971.928 342.5 972.3 342.128 972.588 341.632L971.472 341.176C971.296 341.472 971.076 341.692 970.812 341.836C970.548 341.98 970.24 342.052 969.888 342.052C969.552 342.052 969.264 341.98 969.024 341.836C968.792 341.692 968.616 341.484 968.496 341.212C968.376 340.932 968.316 340.592 968.316 340.192C968.324 339.792 968.388 339.456 968.508 339.184C968.628 338.912 968.804 338.704 969.036 338.56C969.268 338.416 969.548 338.344 969.876 338.344C970.148 338.344 970.384 338.404 970.584 338.524C970.792 338.644 970.952 338.812 971.064 339.028C971.184 339.244 971.244 339.5 971.244 339.796C971.244 339.852 971.228 339.924 971.196 340.012C971.172 340.092 971.148 340.156 971.124 340.204L971.52 339.652H967.776V340.54H972.624C972.632 340.508 972.636 340.456 972.636 340.384C972.644 340.312 972.648 340.244 972.648 340.18C972.648 339.588 972.536 339.084 972.312 338.668C972.096 338.244 971.784 337.92 971.376 337.696C970.968 337.472 970.472 337.36 969.888 337.36C969.304 337.36 968.796 337.48 968.364 337.72C967.932 337.952 967.596 338.284 967.356 338.716C967.124 339.148 967.008 339.656 967.008 340.24C967.008 340.816 967.124 341.32 967.356 341.752C967.588 342.184 967.916 342.52 968.34 342.76C968.772 343 969.268 343.12 969.828 343.12ZM973.117 337.48V338.62H976.249V337.48H973.117ZM974.041 335.56V343H975.325V335.56H974.041ZM976.314 337.48L978.894 343.396L980.55 339.664L982.278 343.396L984.858 337.48H983.454L982.158 340.78L980.538 337.06L979.014 340.768L977.718 337.48H976.314ZM985.09 340.24C985.09 340.8 985.218 341.3 985.474 341.74C985.738 342.172 986.094 342.512 986.542 342.76C986.99 343 987.498 343.12 988.066 343.12C988.634 343.12 989.138 343 989.578 342.76C990.026 342.512 990.382 342.172 990.646 341.74C990.91 341.3 991.042 340.8 991.042 340.24C991.042 339.672 990.91 339.172 990.646 338.74C990.382 338.308 990.026 337.972 989.578 337.732C989.138 337.484 988.634 337.36 988.066 337.36C987.498 337.36 986.99 337.484 986.542 337.732C986.094 337.972 985.738 338.308 985.474 338.74C985.218 339.172 985.09 339.672 985.09 340.24ZM986.422 340.24C986.422 339.896 986.494 339.592 986.638 339.328C986.782 339.064 986.978 338.86 987.226 338.716C987.474 338.572 987.754 338.5 988.066 338.5C988.37 338.5 988.646 338.572 988.894 338.716C989.15 338.86 989.35 339.064 989.494 339.328C989.638 339.592 989.71 339.896 989.71 340.24C989.71 340.584 989.638 340.888 989.494 341.152C989.35 341.408 989.15 341.612 988.894 341.764C988.646 341.908 988.37 341.98 988.066 341.98C987.754 341.98 987.474 341.908 987.226 341.764C986.978 341.612 986.782 341.408 986.638 341.152C986.494 340.888 986.422 340.584 986.422 340.24ZM993.555 337.48H992.271V343H993.555V337.48ZM995.199 338.86L995.823 337.768C995.703 337.616 995.555 337.512 995.379 337.456C995.203 337.392 995.015 337.36 994.815 337.36C994.535 337.36 994.263 337.46 993.999 337.66C993.743 337.86 993.531 338.132 993.363 338.476C993.203 338.812 993.123 339.2 993.123 339.64L993.555 339.892C993.555 339.628 993.583 339.4 993.639 339.208C993.703 339.008 993.803 338.852 993.939 338.74C994.075 338.628 994.251 338.572 994.467 338.572C994.627 338.572 994.759 338.596 994.863 338.644C994.967 338.692 995.079 338.764 995.199 338.86ZM996.665 333.64V343H997.937V333.64H996.665ZM999.965 337.48L997.577 339.76L1000.22 343H1001.79L999.173 339.76L1001.55 337.48H999.965ZM1010.6 334.6L1005.6 344.8H1006.91L1011.87 334.6H1010.6ZM1017.13 340.3L1016.07 341.032C1016.26 341.416 1016.51 341.772 1016.82 342.1C1017.13 342.428 1017.49 342.692 1017.91 342.892C1018.33 343.084 1018.79 343.18 1019.29 343.18C1019.65 343.18 1019.99 343.12 1020.32 343C1020.66 342.888 1020.96 342.728 1021.22 342.52C1021.49 342.304 1021.69 342.04 1021.85 341.728C1022 341.416 1022.07 341.064 1022.07 340.672C1022.07 340.304 1022.01 339.984 1021.88 339.712C1021.76 339.44 1021.6 339.204 1021.39 339.004C1021.18 338.796 1020.95 338.624 1020.69 338.488C1020.45 338.352 1020.2 338.24 1019.95 338.152C1019.5 337.992 1019.14 337.836 1018.86 337.684C1018.58 337.532 1018.37 337.372 1018.23 337.204C1018.11 337.028 1018.04 336.832 1018.04 336.616C1018.04 336.376 1018.13 336.168 1018.32 335.992C1018.5 335.808 1018.79 335.716 1019.18 335.716C1019.46 335.716 1019.71 335.772 1019.91 335.884C1020.13 335.988 1020.32 336.132 1020.48 336.316C1020.64 336.492 1020.77 336.684 1020.87 336.892L1022.03 336.244C1021.88 335.948 1021.68 335.664 1021.43 335.392C1021.18 335.12 1020.87 334.896 1020.5 334.72C1020.13 334.544 1019.7 334.456 1019.21 334.456C1018.7 334.456 1018.25 334.552 1017.85 334.744C1017.46 334.928 1017.15 335.192 1016.91 335.536C1016.68 335.872 1016.57 336.264 1016.57 336.712C1016.57 337.104 1016.64 337.44 1016.79 337.72C1016.95 337.992 1017.14 338.224 1017.37 338.416C1017.6 338.6 1017.85 338.756 1018.1 338.884C1018.36 339.004 1018.59 339.1 1018.8 339.172C1019.15 339.3 1019.46 339.432 1019.72 339.568C1019.99 339.696 1020.21 339.856 1020.36 340.048C1020.51 340.232 1020.59 340.48 1020.59 340.792C1020.59 341.12 1020.47 341.388 1020.23 341.596C1019.99 341.804 1019.67 341.908 1019.29 341.908C1018.97 341.908 1018.68 341.844 1018.43 341.716C1018.17 341.58 1017.93 341.392 1017.72 341.152C1017.51 340.904 1017.31 340.62 1017.13 340.3ZM1024.75 340.84V337.48H1023.42V340.984C1023.42 341.64 1023.58 342.16 1023.91 342.544C1024.25 342.928 1024.72 343.12 1025.34 343.12C1025.72 343.12 1026.05 343.04 1026.32 342.88C1026.6 342.712 1026.83 342.468 1027.01 342.148V343H1028.3V337.48H1027.01V340.84C1027.01 341.088 1026.96 341.308 1026.85 341.5C1026.75 341.684 1026.6 341.828 1026.42 341.932C1026.24 342.028 1026.02 342.076 1025.77 342.076C1025.43 342.076 1025.17 341.968 1025 341.752C1024.84 341.536 1024.75 341.232 1024.75 340.84ZM1031.22 333.64H1029.91V343H1031.22V333.64ZM1035.79 340.24C1035.79 339.632 1035.67 339.116 1035.42 338.692C1035.17 338.26 1034.84 337.932 1034.43 337.708C1034.03 337.476 1033.58 337.36 1033.1 337.36C1032.65 337.36 1032.24 337.476 1031.88 337.708C1031.53 337.94 1031.25 338.272 1031.05 338.704C1030.85 339.128 1030.75 339.64 1030.75 340.24C1030.75 340.832 1030.85 341.344 1031.05 341.776C1031.25 342.208 1031.53 342.54 1031.88 342.772C1032.24 343.004 1032.65 343.12 1033.1 343.12C1033.58 343.12 1034.03 343.008 1034.43 342.784C1034.84 342.552 1035.17 342.22 1035.42 341.788C1035.67 341.356 1035.79 340.84 1035.79 340.24ZM1034.45 340.24C1034.45 340.608 1034.37 340.924 1034.22 341.188C1034.07 341.452 1033.86 341.652 1033.61 341.788C1033.36 341.924 1033.08 341.992 1032.78 341.992C1032.53 341.992 1032.29 341.924 1032.05 341.788C1031.81 341.652 1031.61 341.456 1031.45 341.2C1031.29 340.936 1031.22 340.616 1031.22 340.24C1031.22 339.864 1031.29 339.548 1031.45 339.292C1031.61 339.028 1031.81 338.828 1032.05 338.692C1032.29 338.556 1032.53 338.488 1032.78 338.488C1033.08 338.488 1033.36 338.556 1033.61 338.692C1033.86 338.828 1034.07 339.028 1034.22 339.292C1034.37 339.556 1034.45 339.872 1034.45 340.24ZM1040.58 339.64V343H1041.91V339.496C1041.91 338.832 1041.75 338.312 1041.42 337.936C1041.09 337.552 1040.61 337.36 1039.99 337.36C1039.61 337.36 1039.27 337.44 1038.99 337.6C1038.72 337.76 1038.5 338.004 1038.32 338.332V337.48H1037.03V343H1038.32V339.64C1038.32 339.392 1038.37 339.176 1038.48 338.992C1038.58 338.8 1038.73 338.656 1038.91 338.56C1039.09 338.456 1039.31 338.404 1039.55 338.404C1039.9 338.404 1040.16 338.508 1040.33 338.716C1040.49 338.924 1040.58 339.232 1040.58 339.64ZM1045.96 343.12C1046.6 343.12 1047.15 342.996 1047.61 342.748C1048.06 342.5 1048.44 342.128 1048.72 341.632L1047.61 341.176C1047.43 341.472 1047.21 341.692 1046.95 341.836C1046.68 341.98 1046.38 342.052 1046.02 342.052C1045.69 342.052 1045.4 341.98 1045.16 341.836C1044.93 341.692 1044.75 341.484 1044.63 341.212C1044.51 340.932 1044.45 340.592 1044.45 340.192C1044.46 339.792 1044.52 339.456 1044.64 339.184C1044.76 338.912 1044.94 338.704 1045.17 338.56C1045.4 338.416 1045.68 338.344 1046.01 338.344C1046.28 338.344 1046.52 338.404 1046.72 338.524C1046.93 338.644 1047.09 338.812 1047.2 339.028C1047.32 339.244 1047.38 339.5 1047.38 339.796C1047.38 339.852 1047.36 339.924 1047.33 340.012C1047.31 340.092 1047.28 340.156 1047.26 340.204L1047.66 339.652H1043.91V340.54H1048.76C1048.77 340.508 1048.77 340.456 1048.77 340.384C1048.78 340.312 1048.78 340.244 1048.78 340.18C1048.78 339.588 1048.67 339.084 1048.45 338.668C1048.23 338.244 1047.92 337.92 1047.51 337.696C1047.1 337.472 1046.61 337.36 1046.02 337.36C1045.44 337.36 1044.93 337.48 1044.5 337.72C1044.07 337.952 1043.73 338.284 1043.49 338.716C1043.26 339.148 1043.14 339.656 1043.14 340.24C1043.14 340.816 1043.26 341.32 1043.49 341.752C1043.72 342.184 1044.05 342.52 1044.48 342.76C1044.91 343 1045.4 343.12 1045.96 343.12ZM1049.25 337.48V338.62H1052.39V337.48H1049.25ZM1050.18 335.56V343H1051.46V335.56H1050.18ZM1061.22 334.6L1056.23 344.8H1057.54L1062.49 334.6H1061.22ZM1070.41 340.504L1067.94 334.6H1066.3L1070.41 343.468L1074.51 334.6H1072.88L1070.41 340.504ZM1075.49 334.6V343H1076.9V334.6H1075.49ZM1076.33 335.848H1078.02C1078.51 335.848 1078.9 335.964 1079.2 336.196C1079.49 336.42 1079.64 336.756 1079.64 337.204C1079.64 337.652 1079.49 337.992 1079.2 338.224C1078.9 338.456 1078.51 338.572 1078.02 338.572H1076.33V339.82H1078.02C1078.63 339.82 1079.16 339.716 1079.6 339.508C1080.06 339.292 1080.41 338.988 1080.66 338.596C1080.91 338.204 1081.03 337.74 1081.03 337.204C1081.03 336.668 1080.91 336.208 1080.66 335.824C1080.41 335.432 1080.06 335.132 1079.6 334.924C1079.16 334.708 1078.63 334.6 1078.02 334.6H1076.33V335.848ZM1083.47 338.8C1083.47 338.2 1083.6 337.68 1083.87 337.24C1084.14 336.792 1084.49 336.448 1084.92 336.208C1085.36 335.96 1085.84 335.836 1086.35 335.836C1086.75 335.836 1087.11 335.888 1087.43 335.992C1087.75 336.096 1088.04 336.24 1088.29 336.424C1088.56 336.6 1088.79 336.8 1088.98 337.024V335.344C1088.63 335.056 1088.25 334.836 1087.84 334.684C1087.43 334.532 1086.92 334.456 1086.3 334.456C1085.69 334.456 1085.11 334.56 1084.57 334.768C1084.05 334.976 1083.59 335.276 1083.19 335.668C1082.8 336.06 1082.49 336.524 1082.27 337.06C1082.05 337.588 1081.95 338.168 1081.95 338.8C1081.95 339.432 1082.05 340.016 1082.27 340.552C1082.49 341.08 1082.8 341.54 1083.19 341.932C1083.59 342.324 1084.05 342.624 1084.57 342.832C1085.11 343.04 1085.69 343.144 1086.3 343.144C1086.92 343.144 1087.43 343.068 1087.84 342.916C1088.25 342.764 1088.63 342.544 1088.98 342.256V340.576C1088.79 340.8 1088.56 341.004 1088.29 341.188C1088.04 341.364 1087.75 341.504 1087.43 341.608C1087.11 341.712 1086.75 341.764 1086.35 341.764C1085.84 341.764 1085.36 341.644 1084.92 341.404C1084.49 341.156 1084.14 340.808 1083.87 340.36C1083.6 339.912 1083.47 339.392 1083.47 338.8Z" fill="#99ACBE"/>
<rect x="890" y="370" width="200" height="50" rx="25" fill="#44A0F8"/>
<path d="M962.211 397.4L960.803 398.376C961.048 398.888 961.379 399.363 961.795 399.8C962.211 400.237 962.696 400.589 963.251 400.856C963.816 401.112 964.429 401.24 965.091 401.24C965.571 401.24 966.029 401.16 966.467 401C966.915 400.851 967.315 400.637 967.667 400.36C968.019 400.072 968.296 399.72 968.499 399.304C968.701 398.888 968.803 398.419 968.803 397.896C968.803 397.405 968.717 396.979 968.547 396.616C968.387 396.253 968.168 395.939 967.891 395.672C967.613 395.395 967.304 395.165 966.963 394.984C966.632 394.803 966.301 394.653 965.971 394.536C965.373 394.323 964.888 394.115 964.515 393.912C964.141 393.709 963.864 393.496 963.683 393.272C963.512 393.037 963.427 392.776 963.427 392.488C963.427 392.168 963.549 391.891 963.795 391.656C964.04 391.411 964.424 391.288 964.947 391.288C965.32 391.288 965.645 391.363 965.923 391.512C966.211 391.651 966.461 391.843 966.675 392.088C966.888 392.323 967.064 392.579 967.203 392.856L968.739 391.992C968.547 391.597 968.28 391.219 967.939 390.856C967.608 390.493 967.197 390.195 966.707 389.96C966.216 389.725 965.64 389.608 964.979 389.608C964.307 389.608 963.704 389.736 963.171 389.992C962.648 390.237 962.232 390.589 961.923 391.048C961.613 391.496 961.459 392.019 961.459 392.616C961.459 393.139 961.56 393.587 961.763 393.96C961.965 394.323 962.221 394.632 962.531 394.888C962.84 395.133 963.165 395.341 963.507 395.512C963.848 395.672 964.157 395.8 964.435 395.896C964.904 396.067 965.315 396.243 965.667 396.424C966.029 396.595 966.312 396.808 966.515 397.064C966.717 397.309 966.819 397.64 966.819 398.056C966.819 398.493 966.659 398.851 966.339 399.128C966.019 399.405 965.603 399.544 965.091 399.544C964.664 399.544 964.28 399.459 963.939 399.288C963.597 399.107 963.283 398.856 962.995 398.536C962.717 398.205 962.456 397.827 962.211 397.4ZM973.796 401.16C974.65 401.16 975.38 400.995 975.988 400.664C976.596 400.333 977.092 399.837 977.476 399.176L975.988 398.568C975.754 398.963 975.46 399.256 975.108 399.448C974.756 399.64 974.346 399.736 973.876 399.736C973.428 399.736 973.044 399.64 972.724 399.448C972.415 399.256 972.18 398.979 972.02 398.616C971.86 398.243 971.78 397.789 971.78 397.256C971.791 396.723 971.876 396.275 972.036 395.912C972.196 395.549 972.431 395.272 972.74 395.08C973.05 394.888 973.423 394.792 973.86 394.792C974.223 394.792 974.538 394.872 974.804 395.032C975.082 395.192 975.295 395.416 975.444 395.704C975.604 395.992 975.684 396.333 975.684 396.728C975.684 396.803 975.663 396.899 975.62 397.016C975.588 397.123 975.556 397.208 975.524 397.272L976.052 396.536H971.06V397.72H977.524C977.535 397.677 977.54 397.608 977.54 397.512C977.551 397.416 977.556 397.325 977.556 397.24C977.556 396.451 977.407 395.779 977.108 395.224C976.82 394.659 976.404 394.227 975.86 393.928C975.316 393.629 974.655 393.48 973.876 393.48C973.098 393.48 972.42 393.64 971.844 393.96C971.268 394.269 970.82 394.712 970.5 395.288C970.191 395.864 970.036 396.541 970.036 397.32C970.036 398.088 970.191 398.76 970.5 399.336C970.81 399.912 971.247 400.36 971.812 400.68C972.388 401 973.05 401.16 973.796 401.16ZM980.918 393.64H979.206V401H980.918V393.64ZM983.11 395.48L983.942 394.024C983.782 393.821 983.584 393.683 983.35 393.608C983.115 393.523 982.864 393.48 982.598 393.48C982.224 393.48 981.862 393.613 981.51 393.88C981.168 394.147 980.886 394.509 980.662 394.968C980.448 395.416 980.342 395.933 980.342 396.52L980.918 396.856C980.918 396.504 980.955 396.2 981.03 395.944C981.115 395.677 981.248 395.469 981.43 395.32C981.611 395.171 981.846 395.096 982.134 395.096C982.347 395.096 982.523 395.128 982.662 395.192C982.8 395.256 982.95 395.352 983.11 395.48ZM984.492 393.64L988.3 401.672L992.124 393.64H990.22L988.3 398.392L986.38 393.64H984.492ZM996.171 401.16C997.025 401.16 997.755 400.995 998.363 400.664C998.971 400.333 999.467 399.837 999.851 399.176L998.363 398.568C998.129 398.963 997.835 399.256 997.483 399.448C997.131 399.64 996.721 399.736 996.251 399.736C995.803 399.736 995.419 399.64 995.099 399.448C994.79 399.256 994.555 398.979 994.395 398.616C994.235 398.243 994.155 397.789 994.155 397.256C994.166 396.723 994.251 396.275 994.411 395.912C994.571 395.549 994.806 395.272 995.115 395.08C995.425 394.888 995.798 394.792 996.235 394.792C996.598 394.792 996.913 394.872 997.179 395.032C997.457 395.192 997.67 395.416 997.819 395.704C997.979 395.992 998.059 396.333 998.059 396.728C998.059 396.803 998.038 396.899 997.995 397.016C997.963 397.123 997.931 397.208 997.899 397.272L998.427 396.536H993.435V397.72H999.899C999.91 397.677 999.915 397.608 999.915 397.512C999.926 397.416 999.931 397.325 999.931 397.24C999.931 396.451 999.782 395.779 999.483 395.224C999.195 394.659 998.779 394.227 998.235 393.928C997.691 393.629 997.03 393.48 996.251 393.48C995.473 393.48 994.795 393.64 994.219 393.96C993.643 394.269 993.195 394.712 992.875 395.288C992.566 395.864 992.411 396.541 992.411 397.32C992.411 398.088 992.566 398.76 992.875 399.336C993.185 399.912 993.622 400.36 994.187 400.68C994.763 401 995.425 401.16 996.171 401.16ZM1003.29 393.64H1001.58V401H1003.29V393.64ZM1005.48 395.48L1006.32 394.024C1006.16 393.821 1005.96 393.683 1005.72 393.608C1005.49 393.523 1005.24 393.48 1004.97 393.48C1004.6 393.48 1004.24 393.613 1003.88 393.88C1003.54 394.147 1003.26 394.509 1003.04 394.968C1002.82 395.416 1002.72 395.933 1002.72 396.52L1003.29 396.856C1003.29 396.504 1003.33 396.2 1003.4 395.944C1003.49 395.677 1003.62 395.469 1003.8 395.32C1003.99 395.171 1004.22 395.096 1004.51 395.096C1004.72 395.096 1004.9 395.128 1005.04 395.192C1005.18 395.256 1005.32 395.352 1005.48 395.48ZM1012.4 392.424L1014.99 391.704V401H1016.86V389.624L1012.4 390.632V392.424Z" fill="white"/>
<path d="M83 425C105.091 425 123 407.091 123 385C123 362.909 105.091 345 83 345C60.9086 345 43 362.909 43 385C43 407.091 60.9086 425 83 425Z" stroke="#93A9BF" stroke-width="4" stroke-miterlimit="10" stroke-linecap="round" stroke-linejoin="round"/>
<path d="M82.9999 390.714C90.8897 390.714 97.2857 384.319 97.2857 376.429C97.2857 368.539 90.8897 362.143 82.9999 362.143C75.1102 362.143 68.7142 368.539 68.7142 376.429C68.7142 384.319 75.1102 390.714 82.9999 390.714Z" stroke="#93A9BF" stroke-width="4" stroke-miterlimit="10" stroke-linecap="round" stroke-linejoin="round"/>
<path d="M52.7142 411C57.8571 399.286 69.2857 391 82.9999 391C96.7142 391 108.429 399.286 113.286 411" stroke="#93A9BF" stroke-width="4" stroke-miterlimit="10" stroke-linecap="round" stroke-linejoin="round"/>
<path d="M837.125 97.125C852.658 97.125 865.25 90.829 865.25 83.0625C865.25 75.296 852.658 69 837.125 69C821.592 69 809 75.296 809 83.0625C809 90.829 821.592 97.125 837.125 97.125Z" stroke="#93A9BF" stroke-width="4" stroke-miterlimit="10" stroke-linecap="round" stroke-linejoin="round"/>
<path d="M809 83.0625V105.562C809 113.437 821.656 119.625 837.125 119.625C852.594 119.625 865.25 113.437 865.25 105.562V83.0625" stroke="#93A9BF" stroke-width="4" stroke-miterlimit="10" stroke-linecap="round" stroke-linejoin="round"/>
<path d="M809 105.562V128.062C809 135.937 821.656 142.125 837.125 142.125C852.594 142.125 865.25 135.937 865.25 128.062V105.562" stroke="#93A9BF" stroke-width="4" stroke-miterlimit="10" stroke-linecap="round" stroke-linejoin="round"/>
<circle cx="808.5" cy="105.5" r="12.5" fill="#44A0F8" stroke="white" stroke-width="2"/>
<path fill-rule="evenodd" clip-rule="evenodd" d="M690.167 168.571L689.575 165.565C678.603 109.828 629.714 68 571 68C524.388 68 483.889 94.481 463.715 133.263L462.725 135.168L460.59 135.395C412.444 140.52 375 181.369 375 230.875C375 283.906 418.047 327 471 327H687.667C731.453 327 767 291.416 767 247.562C767 205.646 734.496 171.644 693.223 168.783L690.167 168.571ZM571 64C631.667 64 682.167 107.221 693.5 164.792C736.833 167.796 771 203.508 771 247.562C771 293.62 733.667 331 687.667 331H471C415.833 331 371 286.111 371 230.875C371 179.311 410 136.757 460.167 131.417C481 91.3675 522.833 64 571 64Z" fill="#254BE9"/>
<path d="M461 134C381.5 144 372.5 212.5 373 230.5C377.4 307.7 438.167 328.667 468 329.5H682C697.5 329.5 765 321.5 769 249C766.5 177.5 706 168.5 691.5 166.5C684 118.5 640 68.5 575 66C510 63.5 477 107.5 461 134Z" fill="#254BE9"/>
<circle cx="571.5" cy="330.5" r="12.5" fill="#44A0F8" stroke="white" stroke-width="2"/>
<path d="M677 105L789 105M789 105L781 97M789 105L781 113" stroke="#4476F8" stroke-width="2" stroke-linecap="round" stroke-linejoin="round"/>
<path d="M571 393L571 347M571 347L563 355M571 347L579 355" stroke="#4476F8" stroke-width="2" stroke-linecap="round" stroke-linejoin="round"/>
<path d="M556.904 399.8V411H558.824V399.8H556.904ZM560.52 411C561.662 411 562.664 410.771 563.528 410.312C564.392 409.843 565.064 409.192 565.544 408.36C566.035 407.517 566.28 406.531 566.28 405.4C566.28 404.269 566.035 403.288 565.544 402.456C565.064 401.613 564.392 400.963 563.528 400.504C562.664 400.035 561.662 399.8 560.52 399.8H558.072V401.576H560.472C561.027 401.576 561.539 401.656 562.008 401.816C562.478 401.976 562.883 402.216 563.224 402.536C563.576 402.856 563.848 403.256 564.04 403.736C564.243 404.216 564.344 404.771 564.344 405.4C564.344 406.029 564.243 406.584 564.04 407.064C563.848 407.544 563.576 407.944 563.224 408.264C562.883 408.584 562.478 408.824 562.008 408.984C561.539 409.144 561.027 409.224 560.472 409.224H558.072V411H560.52ZM569.067 408.712C569.067 408.477 569.12 408.28 569.227 408.12C569.344 407.96 569.515 407.837 569.739 407.752C569.963 407.656 570.256 407.608 570.619 407.608C571.035 407.608 571.43 407.661 571.803 407.768C572.176 407.875 572.528 408.045 572.859 408.28V407.4C572.763 407.283 572.598 407.155 572.363 407.016C572.128 406.867 571.83 406.739 571.467 406.632C571.115 406.525 570.694 406.472 570.203 406.472C569.286 406.472 568.576 406.685 568.075 407.112C567.574 407.528 567.323 408.093 567.323 408.808C567.323 409.309 567.44 409.736 567.675 410.088C567.91 410.44 568.224 410.707 568.619 410.888C569.014 411.069 569.44 411.16 569.899 411.16C570.326 411.16 570.742 411.085 571.147 410.936C571.563 410.776 571.904 410.541 572.171 410.232C572.448 409.912 572.587 409.517 572.587 409.048L572.331 408.088C572.331 408.451 572.24 408.771 572.059 409.048C571.888 409.315 571.659 409.517 571.371 409.656C571.094 409.795 570.784 409.864 570.443 409.864C570.176 409.864 569.936 409.821 569.723 409.736C569.52 409.651 569.36 409.523 569.243 409.352C569.126 409.171 569.067 408.957 569.067 408.712ZM568.523 405.56C568.63 405.485 568.79 405.395 569.003 405.288C569.227 405.171 569.488 405.075 569.787 405C570.096 404.915 570.422 404.872 570.763 404.872C570.987 404.872 571.195 404.893 571.387 404.936C571.579 404.979 571.744 405.048 571.883 405.144C572.022 405.24 572.128 405.363 572.203 405.512C572.288 405.661 572.331 405.853 572.331 406.088V411H574.027V405.752C574.027 405.261 573.894 404.851 573.627 404.52C573.36 404.179 572.992 403.917 572.523 403.736C572.064 403.555 571.531 403.464 570.923 403.464C570.24 403.464 569.632 403.56 569.099 403.752C568.576 403.944 568.15 404.141 567.819 404.344L568.523 405.56ZM575.018 403.64V405.16H579.194V403.64H575.018ZM576.25 401.08V411H577.962V401.08H576.25ZM581.473 408.712C581.473 408.477 581.527 408.28 581.633 408.12C581.751 407.96 581.921 407.837 582.145 407.752C582.369 407.656 582.663 407.608 583.025 407.608C583.441 407.608 583.836 407.661 584.209 407.768C584.583 407.875 584.935 408.045 585.265 408.28V407.4C585.169 407.283 585.004 407.155 584.769 407.016C584.535 406.867 584.236 406.739 583.873 406.632C583.521 406.525 583.1 406.472 582.609 406.472C581.692 406.472 580.983 406.685 580.481 407.112C579.98 407.528 579.729 408.093 579.729 408.808C579.729 409.309 579.847 409.736 580.081 410.088C580.316 410.44 580.631 410.707 581.025 410.888C581.42 411.069 581.847 411.16 582.305 411.16C582.732 411.16 583.148 411.085 583.553 410.936C583.969 410.776 584.311 410.541 584.577 410.232C584.855 409.912 584.993 409.517 584.993 409.048L584.737 408.088C584.737 408.451 584.647 408.771 584.465 409.048C584.295 409.315 584.065 409.517 583.777 409.656C583.5 409.795 583.191 409.864 582.849 409.864C582.583 409.864 582.343 409.821 582.129 409.736C581.927 409.651 581.767 409.523 581.649 409.352C581.532 409.171 581.473 408.957 581.473 408.712ZM580.929 405.56C581.036 405.485 581.196 405.395 581.409 405.288C581.633 405.171 581.895 405.075 582.193 405C582.503 404.915 582.828 404.872 583.169 404.872C583.393 404.872 583.601 404.893 583.793 404.936C583.985 404.979 584.151 405.048 584.289 405.144C584.428 405.24 584.535 405.363 584.609 405.512C584.695 405.661 584.737 405.853 584.737 406.088V411H586.433V405.752C586.433 405.261 586.3 404.851 586.033 404.52C585.767 404.179 585.399 403.917 584.929 403.736C584.471 403.555 583.937 403.464 583.329 403.464C582.647 403.464 582.039 403.56 581.505 403.752C580.983 403.944 580.556 404.141 580.225 404.344L580.929 405.56ZM545.249 423.4C545.249 422.6 545.425 421.907 545.777 421.32C546.14 420.723 546.609 420.264 547.185 419.944C547.772 419.613 548.407 419.448 549.089 419.448C549.623 419.448 550.103 419.517 550.529 419.656C550.956 419.795 551.34 419.987 551.681 420.232C552.033 420.467 552.337 420.733 552.593 421.032V418.792C552.124 418.408 551.617 418.115 551.073 417.912C550.529 417.709 549.847 417.608 549.025 417.608C548.204 417.608 547.436 417.747 546.721 418.024C546.017 418.301 545.404 418.701 544.881 419.224C544.359 419.747 543.948 420.365 543.649 421.08C543.361 421.784 543.217 422.557 543.217 423.4C543.217 424.243 543.361 425.021 543.649 425.736C543.948 426.44 544.359 427.053 544.881 427.576C545.404 428.099 546.017 428.499 546.721 428.776C547.436 429.053 548.204 429.192 549.025 429.192C549.847 429.192 550.529 429.091 551.073 428.888C551.617 428.685 552.124 428.392 552.593 428.008V425.768C552.337 426.067 552.033 426.339 551.681 426.584C551.34 426.819 550.956 427.005 550.529 427.144C550.103 427.283 549.623 427.352 549.089 427.352C548.407 427.352 547.772 427.192 547.185 426.872C546.609 426.541 546.14 426.077 545.777 425.48C545.425 424.883 545.249 424.189 545.249 423.4ZM556.504 416.52H554.776V429H556.504V416.52ZM559.512 424.52V429H561.256V424.28C561.256 423.651 561.16 423.128 560.968 422.712C560.776 422.285 560.488 421.965 560.104 421.752C559.731 421.539 559.272 421.432 558.728 421.432C558.173 421.432 557.699 421.571 557.304 421.848C556.92 422.125 556.621 422.493 556.408 422.952C556.195 423.411 556.088 423.933 556.088 424.52H556.504C556.504 424.189 556.573 423.901 556.712 423.656C556.851 423.411 557.043 423.219 557.288 423.08C557.533 422.941 557.816 422.872 558.136 422.872C558.616 422.872 558.963 423.011 559.176 423.288C559.4 423.565 559.512 423.976 559.512 424.52ZM564.536 426.712C564.536 426.477 564.589 426.28 564.696 426.12C564.813 425.96 564.984 425.837 565.208 425.752C565.432 425.656 565.725 425.608 566.088 425.608C566.504 425.608 566.898 425.661 567.272 425.768C567.645 425.875 567.997 426.045 568.328 426.28V425.4C568.232 425.283 568.066 425.155 567.832 425.016C567.597 424.867 567.298 424.739 566.936 424.632C566.584 424.525 566.162 424.472 565.672 424.472C564.754 424.472 564.045 424.685 563.544 425.112C563.042 425.528 562.792 426.093 562.792 426.808C562.792 427.309 562.909 427.736 563.144 428.088C563.378 428.44 563.693 428.707 564.088 428.888C564.482 429.069 564.909 429.16 565.368 429.16C565.794 429.16 566.21 429.085 566.616 428.936C567.032 428.776 567.373 428.541 567.64 428.232C567.917 427.912 568.056 427.517 568.056 427.048L567.8 426.088C567.8 426.451 567.709 426.771 567.528 427.048C567.357 427.315 567.128 427.517 566.84 427.656C566.562 427.795 566.253 427.864 565.912 427.864C565.645 427.864 565.405 427.821 565.192 427.736C564.989 427.651 564.829 427.523 564.712 427.352C564.594 427.171 564.536 426.957 564.536 426.712ZM563.992 423.56C564.098 423.485 564.258 423.395 564.472 423.288C564.696 423.171 564.957 423.075 565.256 423C565.565 422.915 565.89 422.872 566.232 422.872C566.456 422.872 566.664 422.893 566.856 422.936C567.048 422.979 567.213 423.048 567.352 423.144C567.49 423.24 567.597 423.363 567.672 423.512C567.757 423.661 567.8 423.853 567.8 424.088V429H569.496V423.752C569.496 423.261 569.362 422.851 569.096 422.52C568.829 422.179 568.461 421.917 567.992 421.736C567.533 421.555 567 421.464 566.392 421.464C565.709 421.464 565.101 421.56 564.568 421.752C564.045 421.944 563.618 422.141 563.288 422.344L563.992 423.56ZM576.246 424.52V429H578.022V424.328C578.022 423.443 577.804 422.749 577.366 422.248C576.929 421.736 576.294 421.48 575.462 421.48C574.95 421.48 574.508 421.587 574.134 421.8C573.772 422.013 573.473 422.339 573.238 422.776V421.64H571.51V429H573.238V424.52C573.238 424.189 573.308 423.901 573.446 423.656C573.585 423.4 573.777 423.208 574.022 423.08C574.268 422.941 574.55 422.872 574.87 422.872C575.34 422.872 575.686 423.011 575.91 423.288C576.134 423.565 576.246 423.976 576.246 424.52ZM584.965 424.52V429H586.741V424.328C586.741 423.443 586.522 422.749 586.085 422.248C585.648 421.736 585.013 421.48 584.181 421.48C583.669 421.48 583.226 421.587 582.853 421.8C582.49 422.013 582.192 422.339 581.957 422.776V421.64H580.229V429H581.957V424.52C581.957 424.189 582.026 423.901 582.165 423.656C582.304 423.4 582.496 423.208 582.741 423.08C582.986 422.941 583.269 422.872 583.589 422.872C584.058 422.872 584.405 423.011 584.629 423.288C584.853 423.565 584.965 423.976 584.965 424.52ZM592.148 429.16C593.001 429.16 593.732 428.995 594.34 428.664C594.948 428.333 595.444 427.837 595.828 427.176L594.34 426.568C594.105 426.963 593.812 427.256 593.46 427.448C593.108 427.64 592.697 427.736 592.228 427.736C591.78 427.736 591.396 427.64 591.076 427.448C590.766 427.256 590.532 426.979 590.372 426.616C590.212 426.243 590.132 425.789 590.132 425.256C590.142 424.723 590.228 424.275 590.388 423.912C590.548 423.549 590.782 423.272 591.092 423.08C591.401 422.888 591.774 422.792 592.212 422.792C592.574 422.792 592.889 422.872 593.156 423.032C593.433 423.192 593.646 423.416 593.796 423.704C593.956 423.992 594.036 424.333 594.036 424.728C594.036 424.803 594.014 424.899 593.972 425.016C593.94 425.123 593.908 425.208 593.876 425.272L594.404 424.536H589.412V425.72H595.876C595.886 425.677 595.892 425.608 595.892 425.512C595.902 425.416 595.908 425.325 595.908 425.24C595.908 424.451 595.758 423.779 595.46 423.224C595.172 422.659 594.756 422.227 594.212 421.928C593.668 421.629 593.006 421.48 592.228 421.48C591.449 421.48 590.772 421.64 590.196 421.96C589.62 422.269 589.172 422.712 588.852 423.288C588.542 423.864 588.388 424.541 588.388 425.32C588.388 426.088 588.542 426.76 588.852 427.336C589.161 427.912 589.598 428.36 590.164 428.68C590.74 429 591.401 429.16 592.148 429.16ZM597.557 416.52V429H599.285V416.52H597.557Z" fill="#4476F8"/>
<path d="M325.904 370.8V382H327.824V370.8H325.904ZM329.52 382C330.662 382 331.664 381.771 332.528 381.312C333.392 380.843 334.064 380.192 334.544 379.36C335.035 378.517 335.28 377.531 335.28 376.4C335.28 375.269 335.035 374.288 334.544 373.456C334.064 372.613 333.392 371.963 332.528 371.504C331.664 371.035 330.662 370.8 329.52 370.8H327.072V372.576H329.472C330.027 372.576 330.539 372.656 331.008 372.816C331.478 372.976 331.883 373.216 332.224 373.536C332.576 373.856 332.848 374.256 333.04 374.736C333.243 375.216 333.344 375.771 333.344 376.4C333.344 377.029 333.243 377.584 333.04 378.064C332.848 378.544 332.576 378.944 332.224 379.264C331.883 379.584 331.478 379.824 331.008 379.984C330.539 380.144 330.027 380.224 329.472 380.224H327.072V382H329.52ZM338.067 379.712C338.067 379.477 338.12 379.28 338.227 379.12C338.344 378.96 338.515 378.837 338.739 378.752C338.963 378.656 339.256 378.608 339.619 378.608C340.035 378.608 340.43 378.661 340.803 378.768C341.176 378.875 341.528 379.045 341.859 379.28V378.4C341.763 378.283 341.598 378.155 341.363 378.016C341.128 377.867 340.83 377.739 340.467 377.632C340.115 377.525 339.694 377.472 339.203 377.472C338.286 377.472 337.576 377.685 337.075 378.112C336.574 378.528 336.323 379.093 336.323 379.808C336.323 380.309 336.44 380.736 336.675 381.088C336.91 381.44 337.224 381.707 337.619 381.888C338.014 382.069 338.44 382.16 338.899 382.16C339.326 382.16 339.742 382.085 340.147 381.936C340.563 381.776 340.904 381.541 341.171 381.232C341.448 380.912 341.587 380.517 341.587 380.048L341.331 379.088C341.331 379.451 341.24 379.771 341.059 380.048C340.888 380.315 340.659 380.517 340.371 380.656C340.094 380.795 339.784 380.864 339.443 380.864C339.176 380.864 338.936 380.821 338.723 380.736C338.52 380.651 338.36 380.523 338.243 380.352C338.126 380.171 338.067 379.957 338.067 379.712ZM337.523 376.56C337.63 376.485 337.79 376.395 338.003 376.288C338.227 376.171 338.488 376.075 338.787 376C339.096 375.915 339.422 375.872 339.763 375.872C339.987 375.872 340.195 375.893 340.387 375.936C340.579 375.979 340.744 376.048 340.883 376.144C341.022 376.24 341.128 376.363 341.203 376.512C341.288 376.661 341.331 376.853 341.331 377.088V382H343.027V376.752C343.027 376.261 342.894 375.851 342.627 375.52C342.36 375.179 341.992 374.917 341.523 374.736C341.064 374.555 340.531 374.464 339.923 374.464C339.24 374.464 338.632 374.56 338.099 374.752C337.576 374.944 337.15 375.141 336.819 375.344L337.523 376.56ZM344.018 374.64V376.16H348.194V374.64H344.018ZM345.25 372.08V382H346.962V372.08H345.25ZM350.473 379.712C350.473 379.477 350.527 379.28 350.633 379.12C350.751 378.96 350.921 378.837 351.145 378.752C351.369 378.656 351.663 378.608 352.025 378.608C352.441 378.608 352.836 378.661 353.209 378.768C353.583 378.875 353.935 379.045 354.265 379.28V378.4C354.169 378.283 354.004 378.155 353.769 378.016C353.535 377.867 353.236 377.739 352.873 377.632C352.521 377.525 352.1 377.472 351.609 377.472C350.692 377.472 349.983 377.685 349.481 378.112C348.98 378.528 348.729 379.093 348.729 379.808C348.729 380.309 348.847 380.736 349.081 381.088C349.316 381.44 349.631 381.707 350.025 381.888C350.42 382.069 350.847 382.16 351.305 382.16C351.732 382.16 352.148 382.085 352.553 381.936C352.969 381.776 353.311 381.541 353.577 381.232C353.855 380.912 353.993 380.517 353.993 380.048L353.737 379.088C353.737 379.451 353.647 379.771 353.465 380.048C353.295 380.315 353.065 380.517 352.777 380.656C352.5 380.795 352.191 380.864 351.849 380.864C351.583 380.864 351.343 380.821 351.129 380.736C350.927 380.651 350.767 380.523 350.649 380.352C350.532 380.171 350.473 379.957 350.473 379.712ZM349.929 376.56C350.036 376.485 350.196 376.395 350.409 376.288C350.633 376.171 350.895 376.075 351.193 376C351.503 375.915 351.828 375.872 352.169 375.872C352.393 375.872 352.601 375.893 352.793 375.936C352.985 375.979 353.151 376.048 353.289 376.144C353.428 376.24 353.535 376.363 353.609 376.512C353.695 376.661 353.737 376.853 353.737 377.088V382H355.433V376.752C355.433 376.261 355.3 375.851 355.033 375.52C354.767 375.179 354.399 374.917 353.929 374.736C353.471 374.555 352.937 374.464 352.329 374.464C351.647 374.464 351.039 374.56 350.505 374.752C349.983 374.944 349.556 375.141 349.225 375.344L349.929 376.56ZM314.249 394.4C314.249 393.6 314.425 392.907 314.777 392.32C315.14 391.723 315.609 391.264 316.185 390.944C316.772 390.613 317.407 390.448 318.089 390.448C318.623 390.448 319.103 390.517 319.529 390.656C319.956 390.795 320.34 390.987 320.681 391.232C321.033 391.467 321.337 391.733 321.593 392.032V389.792C321.124 389.408 320.617 389.115 320.073 388.912C319.529 388.709 318.847 388.608 318.025 388.608C317.204 388.608 316.436 388.747 315.721 389.024C315.017 389.301 314.404 389.701 313.881 390.224C313.359 390.747 312.948 391.365 312.649 392.08C312.361 392.784 312.217 393.557 312.217 394.4C312.217 395.243 312.361 396.021 312.649 396.736C312.948 397.44 313.359 398.053 313.881 398.576C314.404 399.099 315.017 399.499 315.721 399.776C316.436 400.053 317.204 400.192 318.025 400.192C318.847 400.192 319.529 400.091 320.073 399.888C320.617 399.685 321.124 399.392 321.593 399.008V396.768C321.337 397.067 321.033 397.339 320.681 397.584C320.34 397.819 319.956 398.005 319.529 398.144C319.103 398.283 318.623 398.352 318.089 398.352C317.407 398.352 316.772 398.192 316.185 397.872C315.609 397.541 315.14 397.077 314.777 396.48C314.425 395.883 314.249 395.189 314.249 394.4ZM325.504 387.52H323.776V400H325.504V387.52ZM328.512 395.52V400H330.256V395.28C330.256 394.651 330.16 394.128 329.968 393.712C329.776 393.285 329.488 392.965 329.104 392.752C328.731 392.539 328.272 392.432 327.728 392.432C327.173 392.432 326.699 392.571 326.304 392.848C325.92 393.125 325.621 393.493 325.408 393.952C325.195 394.411 325.088 394.933 325.088 395.52H325.504C325.504 395.189 325.573 394.901 325.712 394.656C325.851 394.411 326.043 394.219 326.288 394.08C326.533 393.941 326.816 393.872 327.136 393.872C327.616 393.872 327.963 394.011 328.176 394.288C328.4 394.565 328.512 394.976 328.512 395.52ZM333.536 397.712C333.536 397.477 333.589 397.28 333.696 397.12C333.813 396.96 333.984 396.837 334.208 396.752C334.432 396.656 334.725 396.608 335.088 396.608C335.504 396.608 335.898 396.661 336.272 396.768C336.645 396.875 336.997 397.045 337.328 397.28V396.4C337.232 396.283 337.066 396.155 336.832 396.016C336.597 395.867 336.298 395.739 335.936 395.632C335.584 395.525 335.162 395.472 334.672 395.472C333.754 395.472 333.045 395.685 332.544 396.112C332.042 396.528 331.792 397.093 331.792 397.808C331.792 398.309 331.909 398.736 332.144 399.088C332.378 399.44 332.693 399.707 333.088 399.888C333.482 400.069 333.909 400.16 334.368 400.16C334.794 400.16 335.21 400.085 335.616 399.936C336.032 399.776 336.373 399.541 336.64 399.232C336.917 398.912 337.056 398.517 337.056 398.048L336.8 397.088C336.8 397.451 336.709 397.771 336.528 398.048C336.357 398.315 336.128 398.517 335.84 398.656C335.562 398.795 335.253 398.864 334.912 398.864C334.645 398.864 334.405 398.821 334.192 398.736C333.989 398.651 333.829 398.523 333.712 398.352C333.594 398.171 333.536 397.957 333.536 397.712ZM332.992 394.56C333.098 394.485 333.258 394.395 333.472 394.288C333.696 394.171 333.957 394.075 334.256 394C334.565 393.915 334.89 393.872 335.232 393.872C335.456 393.872 335.664 393.893 335.856 393.936C336.048 393.979 336.213 394.048 336.352 394.144C336.49 394.24 336.597 394.363 336.672 394.512C336.757 394.661 336.8 394.853 336.8 395.088V400H338.496V394.752C338.496 394.261 338.362 393.851 338.096 393.52C337.829 393.179 337.461 392.917 336.992 392.736C336.533 392.555 336 392.464 335.392 392.464C334.709 392.464 334.101 392.56 333.568 392.752C333.045 392.944 332.618 393.141 332.288 393.344L332.992 394.56ZM345.246 395.52V400H347.022V395.328C347.022 394.443 346.804 393.749 346.366 393.248C345.929 392.736 345.294 392.48 344.462 392.48C343.95 392.48 343.508 392.587 343.134 392.8C342.772 393.013 342.473 393.339 342.238 393.776V392.64H340.51V400H342.238V395.52C342.238 395.189 342.308 394.901 342.446 394.656C342.585 394.4 342.777 394.208 343.022 394.08C343.268 393.941 343.55 393.872 343.87 393.872C344.34 393.872 344.686 394.011 344.91 394.288C345.134 394.565 345.246 394.976 345.246 395.52ZM353.965 395.52V400H355.741V395.328C355.741 394.443 355.522 393.749 355.085 393.248C354.648 392.736 354.013 392.48 353.181 392.48C352.669 392.48 352.226 392.587 351.853 392.8C351.49 393.013 351.192 393.339 350.957 393.776V392.64H349.229V400H350.957V395.52C350.957 395.189 351.026 394.901 351.165 394.656C351.304 394.4 351.496 394.208 351.741 394.08C351.986 393.941 352.269 393.872 352.589 393.872C353.058 393.872 353.405 394.011 353.629 394.288C353.853 394.565 353.965 394.976 353.965 395.52ZM361.148 400.16C362.001 400.16 362.732 399.995 363.34 399.664C363.948 399.333 364.444 398.837 364.828 398.176L363.34 397.568C363.105 397.963 362.812 398.256 362.46 398.448C362.108 398.64 361.697 398.736 361.228 398.736C360.78 398.736 360.396 398.64 360.076 398.448C359.766 398.256 359.532 397.979 359.372 397.616C359.212 397.243 359.132 396.789 359.132 396.256C359.142 395.723 359.228 395.275 359.388 394.912C359.548 394.549 359.782 394.272 360.092 394.08C360.401 393.888 360.774 393.792 361.212 393.792C361.574 393.792 361.889 393.872 362.156 394.032C362.433 394.192 362.646 394.416 362.796 394.704C362.956 394.992 363.036 395.333 363.036 395.728C363.036 395.803 363.014 395.899 362.972 396.016C362.94 396.123 362.908 396.208 362.876 396.272L363.404 395.536H358.412V396.72H364.876C364.886 396.677 364.892 396.608 364.892 396.512C364.902 396.416 364.908 396.325 364.908 396.24C364.908 395.451 364.758 394.779 364.46 394.224C364.172 393.659 363.756 393.227 363.212 392.928C362.668 392.629 362.006 392.48 361.228 392.48C360.449 392.48 359.772 392.64 359.196 392.96C358.62 393.269 358.172 393.712 357.852 394.288C357.542 394.864 357.388 395.541 357.388 396.32C357.388 397.088 357.542 397.76 357.852 398.336C358.161 398.912 358.598 399.36 359.164 399.68C359.74 400 360.401 400.16 361.148 400.16ZM366.557 387.52V400H368.285V387.52H366.557Z" fill="#4476F8"/>
<path d="M702.904 370.8V382H704.824V370.8H702.904ZM706.52 382C707.662 382 708.664 381.771 709.528 381.312C710.392 380.843 711.064 380.192 711.544 379.36C712.035 378.517 712.28 377.531 712.28 376.4C712.28 375.269 712.035 374.288 711.544 373.456C711.064 372.613 710.392 371.963 709.528 371.504C708.664 371.035 707.662 370.8 706.52 370.8H704.072V372.576H706.472C707.027 372.576 707.539 372.656 708.008 372.816C708.478 372.976 708.883 373.216 709.224 373.536C709.576 373.856 709.848 374.256 710.04 374.736C710.243 375.216 710.344 375.771 710.344 376.4C710.344 377.029 710.243 377.584 710.04 378.064C709.848 378.544 709.576 378.944 709.224 379.264C708.883 379.584 708.478 379.824 708.008 379.984C707.539 380.144 707.027 380.224 706.472 380.224H704.072V382H706.52ZM715.067 379.712C715.067 379.477 715.12 379.28 715.227 379.12C715.344 378.96 715.515 378.837 715.739 378.752C715.963 378.656 716.256 378.608 716.619 378.608C717.035 378.608 717.43 378.661 717.803 378.768C718.176 378.875 718.528 379.045 718.859 379.28V378.4C718.763 378.283 718.598 378.155 718.363 378.016C718.128 377.867 717.83 377.739 717.467 377.632C717.115 377.525 716.694 377.472 716.203 377.472C715.286 377.472 714.576 377.685 714.075 378.112C713.574 378.528 713.323 379.093 713.323 379.808C713.323 380.309 713.44 380.736 713.675 381.088C713.91 381.44 714.224 381.707 714.619 381.888C715.014 382.069 715.44 382.16 715.899 382.16C716.326 382.16 716.742 382.085 717.147 381.936C717.563 381.776 717.904 381.541 718.171 381.232C718.448 380.912 718.587 380.517 718.587 380.048L718.331 379.088C718.331 379.451 718.24 379.771 718.059 380.048C717.888 380.315 717.659 380.517 717.371 380.656C717.094 380.795 716.784 380.864 716.443 380.864C716.176 380.864 715.936 380.821 715.723 380.736C715.52 380.651 715.36 380.523 715.243 380.352C715.126 380.171 715.067 379.957 715.067 379.712ZM714.523 376.56C714.63 376.485 714.79 376.395 715.003 376.288C715.227 376.171 715.488 376.075 715.787 376C716.096 375.915 716.422 375.872 716.763 375.872C716.987 375.872 717.195 375.893 717.387 375.936C717.579 375.979 717.744 376.048 717.883 376.144C718.022 376.24 718.128 376.363 718.203 376.512C718.288 376.661 718.331 376.853 718.331 377.088V382H720.027V376.752C720.027 376.261 719.894 375.851 719.627 375.52C719.36 375.179 718.992 374.917 718.523 374.736C718.064 374.555 717.531 374.464 716.923 374.464C716.24 374.464 715.632 374.56 715.099 374.752C714.576 374.944 714.15 375.141 713.819 375.344L714.523 376.56ZM721.018 374.64V376.16H725.194V374.64H721.018ZM722.25 372.08V382H723.962V372.08H722.25ZM727.473 379.712C727.473 379.477 727.527 379.28 727.633 379.12C727.751 378.96 727.921 378.837 728.145 378.752C728.369 378.656 728.663 378.608 729.025 378.608C729.441 378.608 729.836 378.661 730.209 378.768C730.583 378.875 730.935 379.045 731.265 379.28V378.4C731.169 378.283 731.004 378.155 730.769 378.016C730.535 377.867 730.236 377.739 729.873 377.632C729.521 377.525 729.1 377.472 728.609 377.472C727.692 377.472 726.983 377.685 726.481 378.112C725.98 378.528 725.729 379.093 725.729 379.808C725.729 380.309 725.847 380.736 726.081 381.088C726.316 381.44 726.631 381.707 727.025 381.888C727.42 382.069 727.847 382.16 728.305 382.16C728.732 382.16 729.148 382.085 729.553 381.936C729.969 381.776 730.311 381.541 730.577 381.232C730.855 380.912 730.993 380.517 730.993 380.048L730.737 379.088C730.737 379.451 730.647 379.771 730.465 380.048C730.295 380.315 730.065 380.517 729.777 380.656C729.5 380.795 729.191 380.864 728.849 380.864C728.583 380.864 728.343 380.821 728.129 380.736C727.927 380.651 727.767 380.523 727.649 380.352C727.532 380.171 727.473 379.957 727.473 379.712ZM726.929 376.56C727.036 376.485 727.196 376.395 727.409 376.288C727.633 376.171 727.895 376.075 728.193 376C728.503 375.915 728.828 375.872 729.169 375.872C729.393 375.872 729.601 375.893 729.793 375.936C729.985 375.979 730.151 376.048 730.289 376.144C730.428 376.24 730.535 376.363 730.609 376.512C730.695 376.661 730.737 376.853 730.737 377.088V382H732.433V376.752C732.433 376.261 732.3 375.851 732.033 375.52C731.767 375.179 731.399 374.917 730.929 374.736C730.471 374.555 729.937 374.464 729.329 374.464C728.647 374.464 728.039 374.56 727.505 374.752C726.983 374.944 726.556 375.141 726.225 375.344L726.929 376.56ZM691.249 394.4C691.249 393.6 691.425 392.907 691.777 392.32C692.14 391.723 692.609 391.264 693.185 390.944C693.772 390.613 694.407 390.448 695.089 390.448C695.623 390.448 696.103 390.517 696.529 390.656C696.956 390.795 697.34 390.987 697.681 391.232C698.033 391.467 698.337 391.733 698.593 392.032V389.792C698.124 389.408 697.617 389.115 697.073 388.912C696.529 388.709 695.847 388.608 695.025 388.608C694.204 388.608 693.436 388.747 692.721 389.024C692.017 389.301 691.404 389.701 690.881 390.224C690.359 390.747 689.948 391.365 689.649 392.08C689.361 392.784 689.217 393.557 689.217 394.4C689.217 395.243 689.361 396.021 689.649 396.736C689.948 397.44 690.359 398.053 690.881 398.576C691.404 399.099 692.017 399.499 692.721 399.776C693.436 400.053 694.204 400.192 695.025 400.192C695.847 400.192 696.529 400.091 697.073 399.888C697.617 399.685 698.124 399.392 698.593 399.008V396.768C698.337 397.067 698.033 397.339 697.681 397.584C697.34 397.819 696.956 398.005 696.529 398.144C696.103 398.283 695.623 398.352 695.089 398.352C694.407 398.352 693.772 398.192 693.185 397.872C692.609 397.541 692.14 397.077 691.777 396.48C691.425 395.883 691.249 395.189 691.249 394.4ZM702.504 387.52H700.776V400H702.504V387.52ZM705.512 395.52V400H707.256V395.28C707.256 394.651 707.16 394.128 706.968 393.712C706.776 393.285 706.488 392.965 706.104 392.752C705.731 392.539 705.272 392.432 704.728 392.432C704.173 392.432 703.699 392.571 703.304 392.848C702.92 393.125 702.621 393.493 702.408 393.952C702.195 394.411 702.088 394.933 702.088 395.52H702.504C702.504 395.189 702.573 394.901 702.712 394.656C702.851 394.411 703.043 394.219 703.288 394.08C703.533 393.941 703.816 393.872 704.136 393.872C704.616 393.872 704.963 394.011 705.176 394.288C705.4 394.565 705.512 394.976 705.512 395.52ZM710.536 397.712C710.536 397.477 710.589 397.28 710.696 397.12C710.813 396.96 710.984 396.837 711.208 396.752C711.432 396.656 711.725 396.608 712.088 396.608C712.504 396.608 712.898 396.661 713.272 396.768C713.645 396.875 713.997 397.045 714.328 397.28V396.4C714.232 396.283 714.066 396.155 713.832 396.016C713.597 395.867 713.298 395.739 712.936 395.632C712.584 395.525 712.162 395.472 711.672 395.472C710.754 395.472 710.045 395.685 709.544 396.112C709.042 396.528 708.792 397.093 708.792 397.808C708.792 398.309 708.909 398.736 709.144 399.088C709.378 399.44 709.693 399.707 710.088 399.888C710.482 400.069 710.909 400.16 711.368 400.16C711.794 400.16 712.21 400.085 712.616 399.936C713.032 399.776 713.373 399.541 713.64 399.232C713.917 398.912 714.056 398.517 714.056 398.048L713.8 397.088C713.8 397.451 713.709 397.771 713.528 398.048C713.357 398.315 713.128 398.517 712.84 398.656C712.562 398.795 712.253 398.864 711.912 398.864C711.645 398.864 711.405 398.821 711.192 398.736C710.989 398.651 710.829 398.523 710.712 398.352C710.594 398.171 710.536 397.957 710.536 397.712ZM709.992 394.56C710.098 394.485 710.258 394.395 710.472 394.288C710.696 394.171 710.957 394.075 711.256 394C711.565 393.915 711.89 393.872 712.232 393.872C712.456 393.872 712.664 393.893 712.856 393.936C713.048 393.979 713.213 394.048 713.352 394.144C713.49 394.24 713.597 394.363 713.672 394.512C713.757 394.661 713.8 394.853 713.8 395.088V400H715.496V394.752C715.496 394.261 715.362 393.851 715.096 393.52C714.829 393.179 714.461 392.917 713.992 392.736C713.533 392.555 713 392.464 712.392 392.464C711.709 392.464 711.101 392.56 710.568 392.752C710.045 392.944 709.618 393.141 709.288 393.344L709.992 394.56ZM722.246 395.52V400H724.022V395.328C724.022 394.443 723.804 393.749 723.366 393.248C722.929 392.736 722.294 392.48 721.462 392.48C720.95 392.48 720.508 392.587 720.134 392.8C719.772 393.013 719.473 393.339 719.238 393.776V392.64H717.51V400H719.238V395.52C719.238 395.189 719.308 394.901 719.446 394.656C719.585 394.4 719.777 394.208 720.022 394.08C720.268 393.941 720.55 393.872 720.87 393.872C721.34 393.872 721.686 394.011 721.91 394.288C722.134 394.565 722.246 394.976 722.246 395.52ZM730.965 395.52V400H732.741V395.328C732.741 394.443 732.522 393.749 732.085 393.248C731.648 392.736 731.013 392.48 730.181 392.48C729.669 392.48 729.226 392.587 728.853 392.8C728.49 393.013 728.192 393.339 727.957 393.776V392.64H726.229V400H727.957V395.52C727.957 395.189 728.026 394.901 728.165 394.656C728.304 394.4 728.496 394.208 728.741 394.08C728.986 393.941 729.269 393.872 729.589 393.872C730.058 393.872 730.405 394.011 730.629 394.288C730.853 394.565 730.965 394.976 730.965 395.52ZM738.148 400.16C739.001 400.16 739.732 399.995 740.34 399.664C740.948 399.333 741.444 398.837 741.828 398.176L740.34 397.568C740.105 397.963 739.812 398.256 739.46 398.448C739.108 398.64 738.697 398.736 738.228 398.736C737.78 398.736 737.396 398.64 737.076 398.448C736.766 398.256 736.532 397.979 736.372 397.616C736.212 397.243 736.132 396.789 736.132 396.256C736.142 395.723 736.228 395.275 736.388 394.912C736.548 394.549 736.782 394.272 737.092 394.08C737.401 393.888 737.774 393.792 738.212 393.792C738.574 393.792 738.889 393.872 739.156 394.032C739.433 394.192 739.646 394.416 739.796 394.704C739.956 394.992 740.036 395.333 740.036 395.728C740.036 395.803 740.014 395.899 739.972 396.016C739.94 396.123 739.908 396.208 739.876 396.272L740.404 395.536H735.412V396.72H741.876C741.886 396.677 741.892 396.608 741.892 396.512C741.902 396.416 741.908 396.325 741.908 396.24C741.908 395.451 741.758 394.779 741.46 394.224C741.172 393.659 740.756 393.227 740.212 392.928C739.668 392.629 739.006 392.48 738.228 392.48C737.449 392.48 736.772 392.64 736.196 392.96C735.62 393.269 735.172 393.712 734.852 394.288C734.542 394.864 734.388 395.541 734.388 396.32C734.388 397.088 734.542 397.76 734.852 398.336C735.161 398.912 735.598 399.36 736.164 399.68C736.74 400 737.401 400.16 738.148 400.16ZM743.557 387.52V400H745.285V387.52H743.557Z" fill="#4476F8"/>
<path d="M547 364.5L547 347M547 347L539 355M547 347L555 355" stroke="#4476F8" stroke-width="2" stroke-linecap="round" stroke-linejoin="round"/>
<path d="M547 349V370C547 378.284 540.284 385 532 385H378" stroke="#4476F8" stroke-width="2" stroke-linecap="round" stroke-linejoin="round"/>
<path d="M303.5 385H131" stroke="#4476F8" stroke-width="2" stroke-linecap="round" stroke-linejoin="round"/>
<path d="M843.5 385H753.5" stroke="#4476F8" stroke-width="2" stroke-linecap="round" stroke-linejoin="round"/>
<path d="M595 364.5L595 347M595 347L603 355M595 347L587 355" stroke="#4476F8" stroke-width="2" stroke-linecap="round" stroke-linejoin="round"/>
<path d="M595 349V370C595 378.284 601.716 385 610 385H681.5" stroke="#4476F8" stroke-width="2" stroke-linecap="round" stroke-linejoin="round"/>
<path d="M571 435L571 482" stroke="#4476F8" stroke-width="2" stroke-linecap="round" stroke-linejoin="round"/>
<path d="M542.242 219.84L538.122 210H535.402L542.242 224.78L549.082 210H546.362L542.242 219.84ZM552.929 224.2C553.995 224.2 554.909 223.993 555.669 223.58C556.429 223.167 557.049 222.547 557.529 221.72L555.669 220.96C555.375 221.453 555.009 221.82 554.569 222.06C554.129 222.3 553.615 222.42 553.029 222.42C552.469 222.42 551.989 222.3 551.589 222.06C551.202 221.82 550.909 221.473 550.709 221.02C550.509 220.553 550.409 219.987 550.409 219.32C550.422 218.653 550.529 218.093 550.729 217.64C550.929 217.187 551.222 216.84 551.609 216.6C551.995 216.36 552.462 216.24 553.009 216.24C553.462 216.24 553.855 216.34 554.189 216.54C554.535 216.74 554.802 217.02 554.989 217.38C555.189 217.74 555.289 218.167 555.289 218.66C555.289 218.753 555.262 218.873 555.209 219.02C555.169 219.153 555.129 219.26 555.089 219.34L555.749 218.42H549.509V219.9H557.589C557.602 219.847 557.609 219.76 557.609 219.64C557.622 219.52 557.629 219.407 557.629 219.3C557.629 218.313 557.442 217.473 557.069 216.78C556.709 216.073 556.189 215.533 555.509 215.16C554.829 214.787 554.002 214.6 553.029 214.6C552.055 214.6 551.209 214.8 550.489 215.2C549.769 215.587 549.209 216.14 548.809 216.86C548.422 217.58 548.229 218.427 548.229 219.4C548.229 220.36 548.422 221.2 548.809 221.92C549.195 222.64 549.742 223.2 550.449 223.6C551.169 224 551.995 224.2 552.929 224.2ZM565.611 218.4V224H567.831V218.16C567.831 217.053 567.557 216.187 567.011 215.56C566.464 214.92 565.671 214.6 564.631 214.6C563.991 214.6 563.437 214.733 562.971 215C562.517 215.267 562.144 215.673 561.851 216.22V214.8H559.691V224H561.851V218.4C561.851 217.987 561.937 217.627 562.111 217.32C562.284 217 562.524 216.76 562.831 216.6C563.137 216.427 563.491 216.34 563.891 216.34C564.477 216.34 564.911 216.513 565.191 216.86C565.471 217.207 565.611 217.72 565.611 218.4ZM577.509 208.4V224H579.689V208.4H577.509ZM569.889 219.4C569.889 220.4 570.096 221.26 570.509 221.98C570.922 222.7 571.469 223.253 572.149 223.64C572.842 224.013 573.582 224.2 574.369 224.2C575.142 224.2 575.816 224.007 576.389 223.62C576.976 223.233 577.436 222.68 577.769 221.96C578.116 221.24 578.289 220.387 578.289 219.4C578.289 218.4 578.116 217.547 577.769 216.84C577.436 216.12 576.976 215.567 576.389 215.18C575.816 214.793 575.142 214.6 574.369 214.6C573.582 214.6 572.842 214.793 572.149 215.18C571.469 215.553 570.922 216.1 570.509 216.82C570.096 217.527 569.889 218.387 569.889 219.4ZM572.129 219.4C572.129 218.787 572.256 218.26 572.509 217.82C572.762 217.38 573.096 217.047 573.509 216.82C573.936 216.593 574.396 216.48 574.889 216.48C575.302 216.48 575.709 216.593 576.109 216.82C576.522 217.047 576.856 217.38 577.109 217.82C577.376 218.247 577.509 218.773 577.509 219.4C577.509 220.027 577.376 220.56 577.109 221C576.856 221.427 576.522 221.753 576.109 221.98C575.709 222.207 575.302 222.32 574.889 222.32C574.396 222.32 573.936 222.207 573.509 221.98C573.096 221.753 572.762 221.42 572.509 220.98C572.256 220.54 572.129 220.013 572.129 219.4ZM581.666 219.4C581.666 220.333 581.88 221.167 582.306 221.9C582.746 222.62 583.34 223.187 584.086 223.6C584.833 224 585.68 224.2 586.626 224.2C587.573 224.2 588.413 224 589.146 223.6C589.893 223.187 590.486 222.62 590.926 221.9C591.366 221.167 591.586 220.333 591.586 219.4C591.586 218.453 591.366 217.62 590.926 216.9C590.486 216.18 589.893 215.62 589.146 215.22C588.413 214.807 587.573 214.6 586.626 214.6C585.68 214.6 584.833 214.807 584.086 215.22C583.34 215.62 582.746 216.18 582.306 216.9C581.88 217.62 581.666 218.453 581.666 219.4ZM583.886 219.4C583.886 218.827 584.006 218.32 584.246 217.88C584.486 217.44 584.813 217.1 585.226 216.86C585.64 216.62 586.106 216.5 586.626 216.5C587.133 216.5 587.593 216.62 588.006 216.86C588.433 217.1 588.766 217.44 589.006 217.88C589.246 218.32 589.366 218.827 589.366 219.4C589.366 219.973 589.246 220.48 589.006 220.92C588.766 221.347 588.433 221.687 588.006 221.94C587.593 222.18 587.133 222.3 586.626 222.3C586.106 222.3 585.64 222.18 585.226 221.94C584.813 221.687 584.486 221.347 584.246 220.92C584.006 220.48 583.886 219.973 583.886 219.4ZM595.776 214.8H593.636V224H595.776V214.8ZM598.516 217.1L599.556 215.28C599.356 215.027 599.109 214.853 598.816 214.76C598.523 214.653 598.209 214.6 597.876 214.6C597.409 214.6 596.956 214.767 596.516 215.1C596.089 215.433 595.736 215.887 595.456 216.46C595.189 217.02 595.056 217.667 595.056 218.4L595.776 218.82C595.776 218.38 595.823 218 595.916 217.68C596.023 217.347 596.189 217.087 596.416 216.9C596.643 216.713 596.936 216.62 597.296 216.62C597.563 216.62 597.783 216.66 597.956 216.74C598.129 216.82 598.316 216.94 598.516 217.1Z" fill="white"/>
</svg>
