<svg width="1170" height="680" viewBox="0 0 1170 680" fill="none" xmlns="http://www.w3.org/2000/svg">
<rect width="1170" height="680" fill="white"/>
<path d="M560.494 328.6V334.24L554.362 328.18V337H555.754V331.36L561.886 337.42V328.6H560.494ZM566.041 337.12C566.681 337.12 567.229 336.996 567.685 336.748C568.141 336.5 568.513 336.128 568.801 335.632L567.685 335.176C567.509 335.472 567.289 335.692 567.025 335.836C566.761 335.98 566.453 336.052 566.101 336.052C565.765 336.052 565.477 335.98 565.237 335.836C565.005 335.692 564.829 335.484 564.709 335.212C564.589 334.932 564.529 334.592 564.529 334.192C564.537 333.792 564.601 333.456 564.721 333.184C564.841 332.912 565.017 332.704 565.249 332.56C565.481 332.416 565.761 332.344 566.089 332.344C566.361 332.344 566.597 332.404 566.797 332.524C567.005 332.644 567.165 332.812 567.277 333.028C567.397 333.244 567.457 333.5 567.457 333.796C567.457 333.852 567.441 333.924 567.409 334.012C567.385 334.092 567.361 334.156 567.337 334.204L567.733 333.652H563.989V334.54H568.837C568.845 334.508 568.849 334.456 568.849 334.384C568.857 334.312 568.861 334.244 568.861 334.18C568.861 333.588 568.749 333.084 568.525 332.668C568.309 332.244 567.997 331.92 567.589 331.696C567.181 331.472 566.685 331.36 566.101 331.36C565.517 331.36 565.009 331.48 564.576 331.72C564.145 331.952 563.809 332.284 563.569 332.716C563.337 333.148 563.221 333.656 563.221 334.24C563.221 334.816 563.337 335.32 563.569 335.752C563.801 336.184 564.129 336.52 564.553 336.76C564.985 337 565.481 337.12 566.041 337.12ZM569.33 331.48V332.62H572.462V331.48H569.33ZM570.254 329.56V337H571.538V329.56H570.254ZM572.527 331.48L575.107 337.396L576.763 333.664L578.491 337.396L581.071 331.48H579.667L578.371 334.78L576.751 331.06L575.227 334.768L573.931 331.48H572.527ZM581.303 334.24C581.303 334.8 581.431 335.3 581.687 335.74C581.951 336.172 582.307 336.512 582.755 336.76C583.203 337 583.711 337.12 584.279 337.12C584.847 337.12 585.351 337 585.791 336.76C586.239 336.512 586.595 336.172 586.859 335.74C587.123 335.3 587.255 334.8 587.255 334.24C587.255 333.672 587.123 333.172 586.859 332.74C586.595 332.308 586.239 331.972 585.791 331.732C585.351 331.484 584.847 331.36 584.279 331.36C583.711 331.36 583.203 331.484 582.755 331.732C582.307 331.972 581.951 332.308 581.687 332.74C581.431 333.172 581.303 333.672 581.303 334.24ZM582.635 334.24C582.635 333.896 582.707 333.592 582.851 333.328C582.995 333.064 583.191 332.86 583.439 332.716C583.687 332.572 583.967 332.5 584.279 332.5C584.583 332.5 584.859 332.572 585.107 332.716C585.363 332.86 585.563 333.064 585.707 333.328C585.851 333.592 585.923 333.896 585.923 334.24C585.923 334.584 585.851 334.888 585.707 335.152C585.563 335.408 585.363 335.612 585.107 335.764C584.859 335.908 584.583 335.98 584.279 335.98C583.967 335.98 583.687 335.908 583.439 335.764C583.191 335.612 582.995 335.408 582.851 335.152C582.707 334.888 582.635 334.584 582.635 334.24ZM589.768 331.48H588.484V337H589.768V331.48ZM591.412 332.86L592.036 331.768C591.916 331.616 591.768 331.512 591.592 331.456C591.416 331.392 591.228 331.36 591.028 331.36C590.748 331.36 590.476 331.46 590.212 331.66C589.956 331.86 589.744 332.132 589.576 332.476C589.416 332.812 589.336 333.2 589.336 333.64L589.768 333.892C589.768 333.628 589.796 333.4 589.852 333.208C589.916 333.008 590.016 332.852 590.152 332.74C590.288 332.628 590.464 332.572 590.68 332.572C590.84 332.572 590.972 332.596 591.076 332.644C591.18 332.692 591.292 332.764 591.412 332.86ZM592.878 327.64V337H594.15V327.64H592.878ZM596.178 331.48L593.79 333.76L596.43 337H598.002L595.386 333.76L597.762 331.48H596.178ZM606.809 328.6L601.817 338.8H603.125L608.081 328.6H606.809ZM613.343 334.3L612.287 335.032C612.471 335.416 612.719 335.772 613.031 336.1C613.343 336.428 613.707 336.692 614.123 336.892C614.547 337.084 615.007 337.18 615.503 337.18C615.863 337.18 616.207 337.12 616.535 337C616.871 336.888 617.171 336.728 617.435 336.52C617.699 336.304 617.907 336.04 618.059 335.728C618.211 335.416 618.287 335.064 618.287 334.672C618.287 334.304 618.223 333.984 618.095 333.712C617.975 333.44 617.811 333.204 617.603 333.004C617.395 332.796 617.163 332.624 616.907 332.488C616.659 332.352 616.411 332.24 616.163 332.152C615.715 331.992 615.351 331.836 615.071 331.684C614.791 331.532 614.583 331.372 614.447 331.204C614.319 331.028 614.255 330.832 614.255 330.616C614.255 330.376 614.347 330.168 614.531 329.992C614.715 329.808 615.003 329.716 615.395 329.716C615.675 329.716 615.919 329.772 616.127 329.884C616.343 329.988 616.531 330.132 616.691 330.316C616.851 330.492 616.983 330.684 617.087 330.892L618.239 330.244C618.095 329.948 617.895 329.664 617.639 329.392C617.391 329.12 617.083 328.896 616.715 328.72C616.347 328.544 615.915 328.456 615.419 328.456C614.915 328.456 614.463 328.552 614.063 328.744C613.671 328.928 613.359 329.192 613.127 329.536C612.895 329.872 612.779 330.264 612.779 330.712C612.779 331.104 612.855 331.44 613.007 331.72C613.159 331.992 613.351 332.224 613.583 332.416C613.815 332.6 614.059 332.756 614.315 332.884C614.571 333.004 614.803 333.1 615.011 333.172C615.363 333.3 615.671 333.432 615.935 333.568C616.207 333.696 616.419 333.856 616.571 334.048C616.723 334.232 616.799 334.48 616.799 334.792C616.799 335.12 616.679 335.388 616.439 335.596C616.199 335.804 615.887 335.908 615.503 335.908C615.183 335.908 614.895 335.844 614.639 335.716C614.383 335.58 614.147 335.392 613.931 335.152C613.723 334.904 613.527 334.62 613.343 334.3ZM620.965 334.84V331.48H619.633V334.984C619.633 335.64 619.797 336.16 620.125 336.544C620.461 336.928 620.937 337.12 621.553 337.12C621.937 337.12 622.265 337.04 622.537 336.88C622.817 336.712 623.045 336.468 623.221 336.148V337H624.517V331.48H623.221V334.84C623.221 335.088 623.169 335.308 623.065 335.5C622.961 335.684 622.817 335.828 622.633 335.932C622.449 336.028 622.233 336.076 621.985 336.076C621.641 336.076 621.385 335.968 621.217 335.752C621.049 335.536 620.965 335.232 620.965 334.84ZM627.432 327.64H626.124V337H627.432V327.64ZM632.004 334.24C632.004 333.632 631.88 333.116 631.632 332.692C631.384 332.26 631.056 331.932 630.648 331.708C630.24 331.476 629.796 331.36 629.316 331.36C628.86 331.36 628.452 331.476 628.092 331.708C627.74 331.94 627.464 332.272 627.264 332.704C627.064 333.128 626.964 333.64 626.964 334.24C626.964 334.832 627.064 335.344 627.264 335.776C627.464 336.208 627.74 336.54 628.092 336.772C628.452 337.004 628.86 337.12 629.316 337.12C629.796 337.12 630.24 337.008 630.648 336.784C631.056 336.552 631.384 336.22 631.632 335.788C631.88 335.356 632.004 334.84 632.004 334.24ZM630.66 334.24C630.66 334.608 630.584 334.924 630.432 335.188C630.28 335.452 630.076 335.652 629.82 335.788C629.572 335.924 629.296 335.992 628.992 335.992C628.744 335.992 628.5 335.924 628.26 335.788C628.02 335.652 627.82 335.456 627.66 335.2C627.508 334.936 627.432 334.616 627.432 334.24C627.432 333.864 627.508 333.548 627.66 333.292C627.82 333.028 628.02 332.828 628.26 332.692C628.5 332.556 628.744 332.488 628.992 332.488C629.296 332.488 629.572 332.556 629.82 332.692C630.076 332.828 630.28 333.028 630.432 333.292C630.584 333.556 630.66 333.872 630.66 334.24ZM636.79 333.64V337H638.122V333.496C638.122 332.832 637.958 332.312 637.63 331.936C637.302 331.552 636.826 331.36 636.202 331.36C635.818 331.36 635.486 331.44 635.206 331.6C634.934 331.76 634.71 332.004 634.534 332.332V331.48H633.238V337H634.534V333.64C634.534 333.392 634.586 333.176 634.69 332.992C634.794 332.8 634.938 332.656 635.122 332.56C635.306 332.456 635.518 332.404 635.758 332.404C636.11 332.404 636.37 332.508 636.538 332.716C636.706 332.924 636.79 333.232 636.79 333.64ZM642.177 337.12C642.817 337.12 643.365 336.996 643.821 336.748C644.277 336.5 644.649 336.128 644.937 335.632L643.821 335.176C643.645 335.472 643.425 335.692 643.161 335.836C642.897 335.98 642.589 336.052 642.237 336.052C641.901 336.052 641.613 335.98 641.373 335.836C641.141 335.692 640.965 335.484 640.845 335.212C640.725 334.932 640.665 334.592 640.665 334.192C640.673 333.792 640.737 333.456 640.857 333.184C640.977 332.912 641.153 332.704 641.385 332.56C641.617 332.416 641.897 332.344 642.225 332.344C642.497 332.344 642.733 332.404 642.933 332.524C643.141 332.644 643.301 332.812 643.413 333.028C643.533 333.244 643.593 333.5 643.593 333.796C643.593 333.852 643.577 333.924 643.545 334.012C643.521 334.092 643.497 334.156 643.473 334.204L643.869 333.652H640.125V334.54H644.973C644.981 334.508 644.985 334.456 644.985 334.384C644.993 334.312 644.997 334.244 644.997 334.18C644.997 333.588 644.885 333.084 644.661 332.668C644.445 332.244 644.133 331.92 643.725 331.696C643.317 331.472 642.821 331.36 642.237 331.36C641.653 331.36 641.145 331.48 640.713 331.72C640.281 331.952 639.945 332.284 639.705 332.716C639.473 333.148 639.357 333.656 639.357 334.24C639.357 334.816 639.473 335.32 639.705 335.752C639.937 336.184 640.265 336.52 640.689 336.76C641.121 337 641.617 337.12 642.177 337.12ZM645.466 331.48V332.62H648.598V331.48H645.466ZM646.39 329.56V337H647.674V329.56H646.39ZM657.434 328.6L652.442 338.8H653.75L658.706 328.6H657.434ZM666.62 334.504L664.148 328.6H662.516L666.62 337.468L670.724 328.6H669.092L666.62 334.504ZM671.702 328.6V337H673.118V328.6H671.702ZM672.542 329.848H674.234C674.722 329.848 675.114 329.964 675.41 330.196C675.706 330.42 675.854 330.756 675.854 331.204C675.854 331.652 675.706 331.992 675.41 332.224C675.114 332.456 674.722 332.572 674.234 332.572H672.542V333.82H674.234C674.842 333.82 675.37 333.716 675.818 333.508C676.274 333.292 676.626 332.988 676.874 332.596C677.122 332.204 677.246 331.74 677.246 331.204C677.246 330.668 677.122 330.208 676.874 329.824C676.626 329.432 676.274 329.132 675.818 328.924C675.37 328.708 674.842 328.6 674.234 328.6H672.542V329.848ZM679.683 332.8C679.683 332.2 679.815 331.68 680.079 331.24C680.351 330.792 680.703 330.448 681.135 330.208C681.575 329.96 682.051 329.836 682.563 329.836C682.963 329.836 683.323 329.888 683.643 329.992C683.963 330.096 684.251 330.24 684.507 330.424C684.771 330.6 684.999 330.8 685.191 331.024V329.344C684.839 329.056 684.459 328.836 684.051 328.684C683.643 328.532 683.131 328.456 682.515 328.456C681.899 328.456 681.323 328.56 680.787 328.768C680.259 328.976 679.799 329.276 679.407 329.668C679.015 330.06 678.707 330.524 678.483 331.06C678.267 331.588 678.159 332.168 678.159 332.8C678.159 333.432 678.267 334.016 678.483 334.552C678.707 335.08 679.015 335.54 679.407 335.932C679.799 336.324 680.259 336.624 680.787 336.832C681.323 337.04 681.899 337.144 682.515 337.144C683.131 337.144 683.643 337.068 684.051 336.916C684.459 336.764 684.839 336.544 685.191 336.256V334.576C684.999 334.8 684.771 335.004 684.507 335.188C684.251 335.364 683.963 335.504 683.643 335.608C683.323 335.712 682.963 335.764 682.563 335.764C682.051 335.764 681.575 335.644 681.135 335.404C680.703 335.156 680.351 334.808 680.079 334.36C679.815 333.912 679.683 333.392 679.683 332.8Z" fill="#99ACBE"/>
<rect x="486" y="357" width="200" height="50" rx="25" fill="#F0F4F8"/>
<path d="M564.25 382.864H572.234V381.12H564.25V382.864ZM571.018 376.8V388H572.906V376.8H571.018ZM563.498 376.8V388H565.386V376.8H563.498ZM574.7 384.32C574.7 385.067 574.871 385.733 575.212 386.32C575.564 386.896 576.039 387.349 576.636 387.68C577.234 388 577.911 388.16 578.668 388.16C579.426 388.16 580.098 388 580.684 387.68C581.282 387.349 581.756 386.896 582.108 386.32C582.46 385.733 582.636 385.067 582.636 384.32C582.636 383.563 582.46 382.896 582.108 382.32C581.756 381.744 581.282 381.296 580.684 380.976C580.098 380.645 579.426 380.48 578.668 380.48C577.911 380.48 577.234 380.645 576.636 380.976C576.039 381.296 575.564 381.744 575.212 382.32C574.871 382.896 574.7 383.563 574.7 384.32ZM576.476 384.32C576.476 383.861 576.572 383.456 576.764 383.104C576.956 382.752 577.218 382.48 577.548 382.288C577.879 382.096 578.252 382 578.668 382C579.074 382 579.442 382.096 579.772 382.288C580.114 382.48 580.38 382.752 580.572 383.104C580.764 383.456 580.86 383.861 580.86 384.32C580.86 384.779 580.764 385.184 580.572 385.536C580.38 385.877 580.114 386.149 579.772 386.352C579.442 386.544 579.074 386.64 578.668 386.64C578.252 386.64 577.879 386.544 577.548 386.352C577.218 386.149 576.956 385.877 576.764 385.536C576.572 385.184 576.476 384.779 576.476 384.32ZM584.612 385.584L583.604 386.592C583.817 386.869 584.079 387.136 584.388 387.392C584.708 387.637 585.076 387.84 585.492 388C585.919 388.149 586.383 388.224 586.884 388.224C587.695 388.224 588.335 388.016 588.804 387.6C589.284 387.173 589.524 386.613 589.524 385.92C589.524 385.472 589.417 385.109 589.204 384.832C589.001 384.555 588.729 384.32 588.388 384.128C588.047 383.936 587.673 383.76 587.268 383.6C586.969 383.483 586.697 383.371 586.452 383.264C586.217 383.157 586.025 383.04 585.876 382.912C585.737 382.773 585.668 382.619 585.668 382.448C585.668 382.245 585.748 382.091 585.908 381.984C586.068 381.877 586.271 381.824 586.516 381.824C586.879 381.824 587.231 381.915 587.572 382.096C587.913 382.277 588.207 382.512 588.452 382.8L589.412 381.776C589.209 381.531 588.964 381.312 588.676 381.12C588.388 380.928 588.063 380.773 587.7 380.656C587.348 380.539 586.969 380.48 586.564 380.48C586.116 380.48 585.695 380.555 585.3 380.704C584.916 380.843 584.607 381.061 584.372 381.36C584.148 381.659 584.036 382.032 584.036 382.48C584.036 382.917 584.137 383.28 584.34 383.568C584.553 383.856 584.82 384.091 585.14 384.272C585.471 384.443 585.801 384.592 586.132 384.72C586.463 384.837 586.751 384.955 586.996 385.072C587.241 385.179 587.433 385.312 587.572 385.472C587.711 385.621 587.78 385.803 587.78 386.016C587.78 386.261 587.689 386.453 587.508 386.592C587.337 386.731 587.097 386.8 586.788 386.8C586.543 386.8 586.297 386.757 586.052 386.672C585.807 386.576 585.561 386.437 585.316 386.256C585.081 386.064 584.847 385.84 584.612 385.584ZM590.033 380.64V382.16H594.209V380.64H590.033ZM591.265 378.08V388H592.977V378.08H591.265ZM599.414 388H607.958V386.24H603.094L606.278 383.12C606.736 382.693 607.104 382.208 607.382 381.664C607.67 381.12 607.814 380.555 607.814 379.968C607.814 379.595 607.734 379.211 607.574 378.816C607.424 378.421 607.19 378.059 606.87 377.728C606.56 377.397 606.166 377.131 605.686 376.928C605.206 376.715 604.64 376.608 603.99 376.608C603.136 376.608 602.411 376.789 601.814 377.152C601.227 377.504 600.779 377.995 600.47 378.624C600.171 379.243 600.022 379.952 600.022 380.752H601.894C601.894 380.261 601.974 379.829 602.134 379.456C602.304 379.083 602.544 378.8 602.854 378.608C603.163 378.405 603.531 378.304 603.958 378.304C604.267 378.304 604.539 378.357 604.774 378.464C605.008 378.56 605.206 378.693 605.366 378.864C605.536 379.035 605.659 379.227 605.734 379.44C605.819 379.643 605.862 379.851 605.862 380.064C605.862 380.363 605.814 380.645 605.718 380.912C605.622 381.179 605.478 381.445 605.286 381.712C605.094 381.979 604.864 382.256 604.598 382.544L599.414 388Z" fill="#93A9BF"/>
<rect x="463" y="301" width="246" height="129" rx="19" stroke="#D9D9D9" stroke-width="2"/>
<path d="M980.494 326.6V332.24L974.362 326.18V335H975.754V329.36L981.886 335.42V326.6H980.494ZM986.041 335.12C986.681 335.12 987.229 334.996 987.685 334.748C988.141 334.5 988.513 334.128 988.801 333.632L987.685 333.176C987.509 333.472 987.289 333.692 987.025 333.836C986.761 333.98 986.453 334.052 986.101 334.052C985.765 334.052 985.477 333.98 985.237 333.836C985.005 333.692 984.829 333.484 984.709 333.212C984.589 332.932 984.529 332.592 984.529 332.192C984.537 331.792 984.601 331.456 984.721 331.184C984.841 330.912 985.017 330.704 985.249 330.56C985.481 330.416 985.761 330.344 986.089 330.344C986.361 330.344 986.597 330.404 986.797 330.524C987.005 330.644 987.165 330.812 987.277 331.028C987.397 331.244 987.457 331.5 987.457 331.796C987.457 331.852 987.441 331.924 987.409 332.012C987.385 332.092 987.361 332.156 987.337 332.204L987.733 331.652H983.989V332.54H988.837C988.845 332.508 988.849 332.456 988.849 332.384C988.857 332.312 988.861 332.244 988.861 332.18C988.861 331.588 988.749 331.084 988.525 330.668C988.309 330.244 987.997 329.92 987.589 329.696C987.181 329.472 986.685 329.36 986.101 329.36C985.517 329.36 985.009 329.48 984.576 329.72C984.145 329.952 983.809 330.284 983.569 330.716C983.337 331.148 983.221 331.656 983.221 332.24C983.221 332.816 983.337 333.32 983.569 333.752C983.801 334.184 984.129 334.52 984.553 334.76C984.985 335 985.481 335.12 986.041 335.12ZM989.33 329.48V330.62H992.462V329.48H989.33ZM990.254 327.56V335H991.538V327.56H990.254ZM992.527 329.48L995.107 335.396L996.763 331.664L998.491 335.396L1001.07 329.48H999.667L998.371 332.78L996.751 329.06L995.227 332.768L993.931 329.48H992.527ZM1001.3 332.24C1001.3 332.8 1001.43 333.3 1001.69 333.74C1001.95 334.172 1002.31 334.512 1002.75 334.76C1003.2 335 1003.71 335.12 1004.28 335.12C1004.85 335.12 1005.35 335 1005.79 334.76C1006.24 334.512 1006.59 334.172 1006.86 333.74C1007.12 333.3 1007.25 332.8 1007.25 332.24C1007.25 331.672 1007.12 331.172 1006.86 330.74C1006.59 330.308 1006.24 329.972 1005.79 329.732C1005.35 329.484 1004.85 329.36 1004.28 329.36C1003.71 329.36 1003.2 329.484 1002.75 329.732C1002.31 329.972 1001.95 330.308 1001.69 330.74C1001.43 331.172 1001.3 331.672 1001.3 332.24ZM1002.63 332.24C1002.63 331.896 1002.71 331.592 1002.85 331.328C1002.99 331.064 1003.19 330.86 1003.44 330.716C1003.69 330.572 1003.97 330.5 1004.28 330.5C1004.58 330.5 1004.86 330.572 1005.11 330.716C1005.36 330.86 1005.56 331.064 1005.71 331.328C1005.85 331.592 1005.92 331.896 1005.92 332.24C1005.92 332.584 1005.85 332.888 1005.71 333.152C1005.56 333.408 1005.36 333.612 1005.11 333.764C1004.86 333.908 1004.58 333.98 1004.28 333.98C1003.97 333.98 1003.69 333.908 1003.44 333.764C1003.19 333.612 1002.99 333.408 1002.85 333.152C1002.71 332.888 1002.63 332.584 1002.63 332.24ZM1009.77 329.48H1008.48V335H1009.77V329.48ZM1011.41 330.86L1012.04 329.768C1011.92 329.616 1011.77 329.512 1011.59 329.456C1011.42 329.392 1011.23 329.36 1011.03 329.36C1010.75 329.36 1010.48 329.46 1010.21 329.66C1009.96 329.86 1009.74 330.132 1009.58 330.476C1009.42 330.812 1009.34 331.2 1009.34 331.64L1009.77 331.892C1009.77 331.628 1009.8 331.4 1009.85 331.208C1009.92 331.008 1010.02 330.852 1010.15 330.74C1010.29 330.628 1010.46 330.572 1010.68 330.572C1010.84 330.572 1010.97 330.596 1011.08 330.644C1011.18 330.692 1011.29 330.764 1011.41 330.86ZM1012.88 325.64V335H1014.15V325.64H1012.88ZM1016.18 329.48L1013.79 331.76L1016.43 335H1018L1015.39 331.76L1017.76 329.48H1016.18ZM1026.81 326.6L1021.82 336.8H1023.12L1028.08 326.6H1026.81ZM1033.34 332.3L1032.29 333.032C1032.47 333.416 1032.72 333.772 1033.03 334.1C1033.34 334.428 1033.71 334.692 1034.12 334.892C1034.55 335.084 1035.01 335.18 1035.5 335.18C1035.86 335.18 1036.21 335.12 1036.54 335C1036.87 334.888 1037.17 334.728 1037.44 334.52C1037.7 334.304 1037.91 334.04 1038.06 333.728C1038.21 333.416 1038.29 333.064 1038.29 332.672C1038.29 332.304 1038.22 331.984 1038.1 331.712C1037.98 331.44 1037.81 331.204 1037.6 331.004C1037.4 330.796 1037.16 330.624 1036.91 330.488C1036.66 330.352 1036.41 330.24 1036.16 330.152C1035.72 329.992 1035.35 329.836 1035.07 329.684C1034.79 329.532 1034.58 329.372 1034.45 329.204C1034.32 329.028 1034.26 328.832 1034.26 328.616C1034.26 328.376 1034.35 328.168 1034.53 327.992C1034.72 327.808 1035 327.716 1035.4 327.716C1035.68 327.716 1035.92 327.772 1036.13 327.884C1036.34 327.988 1036.53 328.132 1036.69 328.316C1036.85 328.492 1036.98 328.684 1037.09 328.892L1038.24 328.244C1038.1 327.948 1037.9 327.664 1037.64 327.392C1037.39 327.12 1037.08 326.896 1036.72 326.72C1036.35 326.544 1035.92 326.456 1035.42 326.456C1034.92 326.456 1034.46 326.552 1034.06 326.744C1033.67 326.928 1033.36 327.192 1033.13 327.536C1032.9 327.872 1032.78 328.264 1032.78 328.712C1032.78 329.104 1032.86 329.44 1033.01 329.72C1033.16 329.992 1033.35 330.224 1033.58 330.416C1033.82 330.6 1034.06 330.756 1034.32 330.884C1034.57 331.004 1034.8 331.1 1035.01 331.172C1035.36 331.3 1035.67 331.432 1035.94 331.568C1036.21 331.696 1036.42 331.856 1036.57 332.048C1036.72 332.232 1036.8 332.48 1036.8 332.792C1036.8 333.12 1036.68 333.388 1036.44 333.596C1036.2 333.804 1035.89 333.908 1035.5 333.908C1035.18 333.908 1034.9 333.844 1034.64 333.716C1034.38 333.58 1034.15 333.392 1033.93 333.152C1033.72 332.904 1033.53 332.62 1033.34 332.3ZM1040.96 332.84V329.48H1039.63V332.984C1039.63 333.64 1039.8 334.16 1040.12 334.544C1040.46 334.928 1040.94 335.12 1041.55 335.12C1041.94 335.12 1042.26 335.04 1042.54 334.88C1042.82 334.712 1043.04 334.468 1043.22 334.148V335H1044.52V329.48H1043.22V332.84C1043.22 333.088 1043.17 333.308 1043.06 333.5C1042.96 333.684 1042.82 333.828 1042.63 333.932C1042.45 334.028 1042.23 334.076 1041.98 334.076C1041.64 334.076 1041.38 333.968 1041.22 333.752C1041.05 333.536 1040.96 333.232 1040.96 332.84ZM1047.43 325.64H1046.12V335H1047.43V325.64ZM1052 332.24C1052 331.632 1051.88 331.116 1051.63 330.692C1051.38 330.26 1051.06 329.932 1050.65 329.708C1050.24 329.476 1049.8 329.36 1049.32 329.36C1048.86 329.36 1048.45 329.476 1048.09 329.708C1047.74 329.94 1047.46 330.272 1047.26 330.704C1047.06 331.128 1046.96 331.64 1046.96 332.24C1046.96 332.832 1047.06 333.344 1047.26 333.776C1047.46 334.208 1047.74 334.54 1048.09 334.772C1048.45 335.004 1048.86 335.12 1049.32 335.12C1049.8 335.12 1050.24 335.008 1050.65 334.784C1051.06 334.552 1051.38 334.22 1051.63 333.788C1051.88 333.356 1052 332.84 1052 332.24ZM1050.66 332.24C1050.66 332.608 1050.58 332.924 1050.43 333.188C1050.28 333.452 1050.08 333.652 1049.82 333.788C1049.57 333.924 1049.3 333.992 1048.99 333.992C1048.74 333.992 1048.5 333.924 1048.26 333.788C1048.02 333.652 1047.82 333.456 1047.66 333.2C1047.51 332.936 1047.43 332.616 1047.43 332.24C1047.43 331.864 1047.51 331.548 1047.66 331.292C1047.82 331.028 1048.02 330.828 1048.26 330.692C1048.5 330.556 1048.74 330.488 1048.99 330.488C1049.3 330.488 1049.57 330.556 1049.82 330.692C1050.08 330.828 1050.28 331.028 1050.43 331.292C1050.58 331.556 1050.66 331.872 1050.66 332.24ZM1056.79 331.64V335H1058.12V331.496C1058.12 330.832 1057.96 330.312 1057.63 329.936C1057.3 329.552 1056.83 329.36 1056.2 329.36C1055.82 329.36 1055.49 329.44 1055.21 329.6C1054.93 329.76 1054.71 330.004 1054.53 330.332V329.48H1053.24V335H1054.53V331.64C1054.53 331.392 1054.59 331.176 1054.69 330.992C1054.79 330.8 1054.94 330.656 1055.12 330.56C1055.31 330.456 1055.52 330.404 1055.76 330.404C1056.11 330.404 1056.37 330.508 1056.54 330.716C1056.71 330.924 1056.79 331.232 1056.79 331.64ZM1062.18 335.12C1062.82 335.12 1063.37 334.996 1063.82 334.748C1064.28 334.5 1064.65 334.128 1064.94 333.632L1063.82 333.176C1063.65 333.472 1063.43 333.692 1063.16 333.836C1062.9 333.98 1062.59 334.052 1062.24 334.052C1061.9 334.052 1061.61 333.98 1061.37 333.836C1061.14 333.692 1060.97 333.484 1060.85 333.212C1060.73 332.932 1060.67 332.592 1060.67 332.192C1060.67 331.792 1060.74 331.456 1060.86 331.184C1060.98 330.912 1061.15 330.704 1061.39 330.56C1061.62 330.416 1061.9 330.344 1062.23 330.344C1062.5 330.344 1062.73 330.404 1062.93 330.524C1063.14 330.644 1063.3 330.812 1063.41 331.028C1063.53 331.244 1063.59 331.5 1063.59 331.796C1063.59 331.852 1063.58 331.924 1063.55 332.012C1063.52 332.092 1063.5 332.156 1063.47 332.204L1063.87 331.652H1060.13V332.54H1064.97C1064.98 332.508 1064.99 332.456 1064.99 332.384C1064.99 332.312 1065 332.244 1065 332.18C1065 331.588 1064.89 331.084 1064.66 330.668C1064.45 330.244 1064.13 329.92 1063.73 329.696C1063.32 329.472 1062.82 329.36 1062.24 329.36C1061.65 329.36 1061.15 329.48 1060.71 329.72C1060.28 329.952 1059.95 330.284 1059.71 330.716C1059.47 331.148 1059.36 331.656 1059.36 332.24C1059.36 332.816 1059.47 333.32 1059.71 333.752C1059.94 334.184 1060.27 334.52 1060.69 334.76C1061.12 335 1061.62 335.12 1062.18 335.12ZM1065.47 329.48V330.62H1068.6V329.48H1065.47ZM1066.39 327.56V335H1067.67V327.56H1066.39ZM1077.43 326.6L1072.44 336.8H1073.75L1078.71 326.6H1077.43ZM1086.62 332.504L1084.15 326.6H1082.52L1086.62 335.468L1090.72 326.6H1089.09L1086.62 332.504ZM1091.7 326.6V335H1093.12V326.6H1091.7ZM1092.54 327.848H1094.23C1094.72 327.848 1095.11 327.964 1095.41 328.196C1095.71 328.42 1095.85 328.756 1095.85 329.204C1095.85 329.652 1095.71 329.992 1095.41 330.224C1095.11 330.456 1094.72 330.572 1094.23 330.572H1092.54V331.82H1094.23C1094.84 331.82 1095.37 331.716 1095.82 331.508C1096.27 331.292 1096.63 330.988 1096.87 330.596C1097.12 330.204 1097.25 329.74 1097.25 329.204C1097.25 328.668 1097.12 328.208 1096.87 327.824C1096.63 327.432 1096.27 327.132 1095.82 326.924C1095.37 326.708 1094.84 326.6 1094.23 326.6H1092.54V327.848ZM1099.68 330.8C1099.68 330.2 1099.82 329.68 1100.08 329.24C1100.35 328.792 1100.7 328.448 1101.14 328.208C1101.58 327.96 1102.05 327.836 1102.56 327.836C1102.96 327.836 1103.32 327.888 1103.64 327.992C1103.96 328.096 1104.25 328.24 1104.51 328.424C1104.77 328.6 1105 328.8 1105.19 329.024V327.344C1104.84 327.056 1104.46 326.836 1104.05 326.684C1103.64 326.532 1103.13 326.456 1102.52 326.456C1101.9 326.456 1101.32 326.56 1100.79 326.768C1100.26 326.976 1099.8 327.276 1099.41 327.668C1099.02 328.06 1098.71 328.524 1098.48 329.06C1098.27 329.588 1098.16 330.168 1098.16 330.8C1098.16 331.432 1098.27 332.016 1098.48 332.552C1098.71 333.08 1099.02 333.54 1099.41 333.932C1099.8 334.324 1100.26 334.624 1100.79 334.832C1101.32 335.04 1101.9 335.144 1102.52 335.144C1103.13 335.144 1103.64 335.068 1104.05 334.916C1104.46 334.764 1104.84 334.544 1105.19 334.256V332.576C1105 332.8 1104.77 333.004 1104.51 333.188C1104.25 333.364 1103.96 333.504 1103.64 333.608C1103.32 333.712 1102.96 333.764 1102.56 333.764C1102.05 333.764 1101.58 333.644 1101.14 333.404C1100.7 333.156 1100.35 332.808 1100.08 332.36C1099.82 331.912 1099.68 331.392 1099.68 330.8Z" fill="#99ACBE"/>
<rect x="906" y="355" width="200" height="50" rx="25" fill="#F0F4F8"/>
<path d="M984.469 380.864H992.453V379.12H984.469V380.864ZM991.237 374.8V386H993.125V374.8H991.237ZM983.717 374.8V386H985.605V374.8H983.717ZM994.919 382.32C994.919 383.067 995.09 383.733 995.431 384.32C995.783 384.896 996.258 385.349 996.855 385.68C997.452 386 998.13 386.16 998.887 386.16C999.644 386.16 1000.32 386 1000.9 385.68C1001.5 385.349 1001.98 384.896 1002.33 384.32C1002.68 383.733 1002.86 383.067 1002.86 382.32C1002.86 381.563 1002.68 380.896 1002.33 380.32C1001.98 379.744 1001.5 379.296 1000.9 378.976C1000.32 378.645 999.644 378.48 998.887 378.48C998.13 378.48 997.452 378.645 996.855 378.976C996.258 379.296 995.783 379.744 995.431 380.32C995.09 380.896 994.919 381.563 994.919 382.32ZM996.695 382.32C996.695 381.861 996.791 381.456 996.983 381.104C997.175 380.752 997.436 380.48 997.767 380.288C998.098 380.096 998.471 380 998.887 380C999.292 380 999.66 380.096 999.991 380.288C1000.33 380.48 1000.6 380.752 1000.79 381.104C1000.98 381.456 1001.08 381.861 1001.08 382.32C1001.08 382.779 1000.98 383.184 1000.79 383.536C1000.6 383.877 1000.33 384.149 999.991 384.352C999.66 384.544 999.292 384.64 998.887 384.64C998.471 384.64 998.098 384.544 997.767 384.352C997.436 384.149 997.175 383.877 996.983 383.536C996.791 383.184 996.695 382.779 996.695 382.32ZM1004.83 383.584L1003.82 384.592C1004.04 384.869 1004.3 385.136 1004.61 385.392C1004.93 385.637 1005.29 385.84 1005.71 386C1006.14 386.149 1006.6 386.224 1007.1 386.224C1007.91 386.224 1008.55 386.016 1009.02 385.6C1009.5 385.173 1009.74 384.613 1009.74 383.92C1009.74 383.472 1009.64 383.109 1009.42 382.832C1009.22 382.555 1008.95 382.32 1008.61 382.128C1008.27 381.936 1007.89 381.76 1007.49 381.6C1007.19 381.483 1006.92 381.371 1006.67 381.264C1006.44 381.157 1006.24 381.04 1006.09 380.912C1005.96 380.773 1005.89 380.619 1005.89 380.448C1005.89 380.245 1005.97 380.091 1006.13 379.984C1006.29 379.877 1006.49 379.824 1006.73 379.824C1007.1 379.824 1007.45 379.915 1007.79 380.096C1008.13 380.277 1008.43 380.512 1008.67 380.8L1009.63 379.776C1009.43 379.531 1009.18 379.312 1008.89 379.12C1008.61 378.928 1008.28 378.773 1007.92 378.656C1007.57 378.539 1007.19 378.48 1006.78 378.48C1006.33 378.48 1005.91 378.555 1005.52 378.704C1005.13 378.843 1004.83 379.061 1004.59 379.36C1004.37 379.659 1004.25 380.032 1004.25 380.48C1004.25 380.917 1004.36 381.28 1004.56 381.568C1004.77 381.856 1005.04 382.091 1005.36 382.272C1005.69 382.443 1006.02 382.592 1006.35 382.72C1006.68 382.837 1006.97 382.955 1007.21 383.072C1007.46 383.179 1007.65 383.312 1007.79 383.472C1007.93 383.621 1008 383.803 1008 384.016C1008 384.261 1007.91 384.453 1007.73 384.592C1007.56 384.731 1007.32 384.8 1007.01 384.8C1006.76 384.8 1006.52 384.757 1006.27 384.672C1006.03 384.576 1005.78 384.437 1005.53 384.256C1005.3 384.064 1005.07 383.84 1004.83 383.584ZM1010.25 378.64V380.16H1014.43V378.64H1010.25ZM1011.48 376.08V386H1013.2V376.08H1011.48ZM1023.5 380.512C1024.29 380.512 1024.99 380.395 1025.6 380.16C1026.22 379.925 1026.7 379.589 1027.06 379.152C1027.41 378.715 1027.58 378.213 1027.58 377.648C1027.58 377.093 1027.45 376.592 1027.17 376.144C1026.9 375.685 1026.51 375.317 1026 375.04C1025.49 374.763 1024.87 374.624 1024.14 374.624C1023.46 374.624 1022.86 374.763 1022.34 375.04C1021.81 375.307 1021.4 375.675 1021.1 376.144C1020.82 376.613 1020.67 377.157 1020.67 377.776H1022.45C1022.45 377.328 1022.61 376.96 1022.93 376.672C1023.26 376.373 1023.67 376.224 1024.16 376.224C1024.49 376.224 1024.77 376.288 1024.99 376.416C1025.22 376.544 1025.39 376.725 1025.5 376.96C1025.62 377.184 1025.68 377.445 1025.68 377.744C1025.68 377.979 1025.63 378.208 1025.52 378.432C1025.42 378.645 1025.28 378.832 1025.09 378.992C1024.91 379.152 1024.68 379.28 1024.42 379.376C1024.15 379.461 1023.85 379.504 1023.5 379.504V380.512ZM1024.06 386.192C1024.83 386.192 1025.5 386.059 1026.08 385.792C1026.66 385.525 1027.1 385.152 1027.42 384.672C1027.74 384.192 1027.9 383.637 1027.9 383.008C1027.9 382.443 1027.79 381.963 1027.57 381.568C1027.34 381.163 1027.03 380.837 1026.62 380.592C1026.23 380.336 1025.77 380.149 1025.23 380.032C1024.7 379.904 1024.12 379.84 1023.5 379.84V380.912C1023.88 380.912 1024.22 380.955 1024.53 381.04C1024.84 381.125 1025.1 381.248 1025.31 381.408C1025.54 381.568 1025.71 381.765 1025.82 382C1025.94 382.235 1026 382.501 1026 382.8C1026 383.173 1025.92 383.493 1025.76 383.76C1025.6 384.016 1025.38 384.213 1025.09 384.352C1024.81 384.491 1024.48 384.56 1024.1 384.56C1023.72 384.56 1023.38 384.491 1023.07 384.352C1022.76 384.203 1022.52 384 1022.34 383.744C1022.17 383.477 1022.08 383.163 1022.08 382.8H1020.19C1020.19 383.259 1020.28 383.696 1020.46 384.112C1020.65 384.517 1020.9 384.88 1021.23 385.2C1021.56 385.509 1021.97 385.755 1022.45 385.936C1022.93 386.107 1023.47 386.192 1024.06 386.192Z" fill="#93A9BF"/>
<rect x="883" y="299" width="246" height="129" rx="19" stroke="#D9D9D9" stroke-width="2"/>
<path d="M138.494 326.6V332.24L132.362 326.18V335H133.754V329.36L139.886 335.42V326.6H138.494ZM144.041 335.12C144.681 335.12 145.229 334.996 145.685 334.748C146.141 334.5 146.513 334.128 146.801 333.632L145.685 333.176C145.509 333.472 145.289 333.692 145.025 333.836C144.761 333.98 144.453 334.052 144.101 334.052C143.765 334.052 143.477 333.98 143.237 333.836C143.005 333.692 142.829 333.484 142.709 333.212C142.589 332.932 142.529 332.592 142.529 332.192C142.537 331.792 142.601 331.456 142.721 331.184C142.841 330.912 143.017 330.704 143.249 330.56C143.481 330.416 143.761 330.344 144.089 330.344C144.361 330.344 144.597 330.404 144.797 330.524C145.005 330.644 145.165 330.812 145.277 331.028C145.397 331.244 145.457 331.5 145.457 331.796C145.457 331.852 145.441 331.924 145.409 332.012C145.385 332.092 145.361 332.156 145.337 332.204L145.733 331.652H141.989V332.54H146.837C146.845 332.508 146.849 332.456 146.849 332.384C146.857 332.312 146.861 332.244 146.861 332.18C146.861 331.588 146.749 331.084 146.525 330.668C146.309 330.244 145.997 329.92 145.589 329.696C145.181 329.472 144.685 329.36 144.101 329.36C143.517 329.36 143.009 329.48 142.576 329.72C142.145 329.952 141.809 330.284 141.569 330.716C141.337 331.148 141.221 331.656 141.221 332.24C141.221 332.816 141.337 333.32 141.569 333.752C141.801 334.184 142.129 334.52 142.553 334.76C142.985 335 143.481 335.12 144.041 335.12ZM147.33 329.48V330.62H150.462V329.48H147.33ZM148.254 327.56V335H149.538V327.56H148.254ZM150.527 329.48L153.107 335.396L154.763 331.664L156.491 335.396L159.071 329.48H157.667L156.371 332.78L154.751 329.06L153.227 332.768L151.931 329.48H150.527ZM159.303 332.24C159.303 332.8 159.431 333.3 159.687 333.74C159.951 334.172 160.307 334.512 160.755 334.76C161.203 335 161.711 335.12 162.279 335.12C162.847 335.12 163.351 335 163.791 334.76C164.239 334.512 164.595 334.172 164.859 333.74C165.123 333.3 165.255 332.8 165.255 332.24C165.255 331.672 165.123 331.172 164.859 330.74C164.595 330.308 164.239 329.972 163.791 329.732C163.351 329.484 162.847 329.36 162.279 329.36C161.711 329.36 161.203 329.484 160.755 329.732C160.307 329.972 159.951 330.308 159.687 330.74C159.431 331.172 159.303 331.672 159.303 332.24ZM160.635 332.24C160.635 331.896 160.707 331.592 160.851 331.328C160.995 331.064 161.191 330.86 161.439 330.716C161.687 330.572 161.967 330.5 162.279 330.5C162.583 330.5 162.859 330.572 163.107 330.716C163.363 330.86 163.563 331.064 163.707 331.328C163.851 331.592 163.923 331.896 163.923 332.24C163.923 332.584 163.851 332.888 163.707 333.152C163.563 333.408 163.363 333.612 163.107 333.764C162.859 333.908 162.583 333.98 162.279 333.98C161.967 333.98 161.687 333.908 161.439 333.764C161.191 333.612 160.995 333.408 160.851 333.152C160.707 332.888 160.635 332.584 160.635 332.24ZM167.768 329.48H166.484V335H167.768V329.48ZM169.412 330.86L170.036 329.768C169.916 329.616 169.768 329.512 169.592 329.456C169.416 329.392 169.228 329.36 169.028 329.36C168.748 329.36 168.476 329.46 168.212 329.66C167.956 329.86 167.744 330.132 167.576 330.476C167.416 330.812 167.336 331.2 167.336 331.64L167.768 331.892C167.768 331.628 167.796 331.4 167.852 331.208C167.916 331.008 168.016 330.852 168.152 330.74C168.288 330.628 168.464 330.572 168.68 330.572C168.84 330.572 168.972 330.596 169.076 330.644C169.18 330.692 169.292 330.764 169.412 330.86ZM170.878 325.64V335H172.15V325.64H170.878ZM174.178 329.48L171.79 331.76L174.43 335H176.002L173.386 331.76L175.762 329.48H174.178ZM184.809 326.6L179.817 336.8H181.125L186.081 326.6H184.809ZM191.343 332.3L190.287 333.032C190.471 333.416 190.719 333.772 191.031 334.1C191.343 334.428 191.707 334.692 192.123 334.892C192.547 335.084 193.007 335.18 193.503 335.18C193.863 335.18 194.207 335.12 194.535 335C194.871 334.888 195.171 334.728 195.435 334.52C195.699 334.304 195.907 334.04 196.059 333.728C196.211 333.416 196.287 333.064 196.287 332.672C196.287 332.304 196.223 331.984 196.095 331.712C195.975 331.44 195.811 331.204 195.603 331.004C195.395 330.796 195.163 330.624 194.907 330.488C194.659 330.352 194.411 330.24 194.163 330.152C193.715 329.992 193.351 329.836 193.071 329.684C192.791 329.532 192.583 329.372 192.447 329.204C192.319 329.028 192.255 328.832 192.255 328.616C192.255 328.376 192.347 328.168 192.531 327.992C192.715 327.808 193.003 327.716 193.395 327.716C193.675 327.716 193.919 327.772 194.127 327.884C194.343 327.988 194.531 328.132 194.691 328.316C194.851 328.492 194.983 328.684 195.087 328.892L196.239 328.244C196.095 327.948 195.895 327.664 195.639 327.392C195.391 327.12 195.083 326.896 194.715 326.72C194.347 326.544 193.915 326.456 193.419 326.456C192.915 326.456 192.463 326.552 192.063 326.744C191.671 326.928 191.359 327.192 191.127 327.536C190.895 327.872 190.779 328.264 190.779 328.712C190.779 329.104 190.855 329.44 191.007 329.72C191.159 329.992 191.351 330.224 191.583 330.416C191.815 330.6 192.059 330.756 192.315 330.884C192.571 331.004 192.803 331.1 193.011 331.172C193.363 331.3 193.671 331.432 193.935 331.568C194.207 331.696 194.419 331.856 194.571 332.048C194.723 332.232 194.799 332.48 194.799 332.792C194.799 333.12 194.679 333.388 194.439 333.596C194.199 333.804 193.887 333.908 193.503 333.908C193.183 333.908 192.895 333.844 192.639 333.716C192.383 333.58 192.147 333.392 191.931 333.152C191.723 332.904 191.527 332.62 191.343 332.3ZM198.965 332.84V329.48H197.633V332.984C197.633 333.64 197.797 334.16 198.125 334.544C198.461 334.928 198.937 335.12 199.553 335.12C199.937 335.12 200.265 335.04 200.537 334.88C200.817 334.712 201.045 334.468 201.221 334.148V335H202.517V329.48H201.221V332.84C201.221 333.088 201.169 333.308 201.065 333.5C200.961 333.684 200.817 333.828 200.633 333.932C200.449 334.028 200.233 334.076 199.985 334.076C199.641 334.076 199.385 333.968 199.217 333.752C199.049 333.536 198.965 333.232 198.965 332.84ZM205.432 325.64H204.124V335H205.432V325.64ZM210.004 332.24C210.004 331.632 209.88 331.116 209.632 330.692C209.384 330.26 209.056 329.932 208.648 329.708C208.24 329.476 207.796 329.36 207.316 329.36C206.86 329.36 206.452 329.476 206.092 329.708C205.74 329.94 205.464 330.272 205.264 330.704C205.064 331.128 204.964 331.64 204.964 332.24C204.964 332.832 205.064 333.344 205.264 333.776C205.464 334.208 205.74 334.54 206.092 334.772C206.452 335.004 206.86 335.12 207.316 335.12C207.796 335.12 208.24 335.008 208.648 334.784C209.056 334.552 209.384 334.22 209.632 333.788C209.88 333.356 210.004 332.84 210.004 332.24ZM208.66 332.24C208.66 332.608 208.584 332.924 208.432 333.188C208.28 333.452 208.076 333.652 207.82 333.788C207.572 333.924 207.296 333.992 206.992 333.992C206.744 333.992 206.5 333.924 206.26 333.788C206.02 333.652 205.82 333.456 205.66 333.2C205.508 332.936 205.432 332.616 205.432 332.24C205.432 331.864 205.508 331.548 205.66 331.292C205.82 331.028 206.02 330.828 206.26 330.692C206.5 330.556 206.744 330.488 206.992 330.488C207.296 330.488 207.572 330.556 207.82 330.692C208.076 330.828 208.28 331.028 208.432 331.292C208.584 331.556 208.66 331.872 208.66 332.24ZM214.79 331.64V335H216.122V331.496C216.122 330.832 215.958 330.312 215.63 329.936C215.302 329.552 214.826 329.36 214.202 329.36C213.818 329.36 213.486 329.44 213.206 329.6C212.934 329.76 212.71 330.004 212.534 330.332V329.48H211.238V335H212.534V331.64C212.534 331.392 212.586 331.176 212.69 330.992C212.794 330.8 212.938 330.656 213.122 330.56C213.306 330.456 213.518 330.404 213.758 330.404C214.11 330.404 214.37 330.508 214.538 330.716C214.706 330.924 214.79 331.232 214.79 331.64ZM220.177 335.12C220.817 335.12 221.365 334.996 221.821 334.748C222.277 334.5 222.649 334.128 222.937 333.632L221.821 333.176C221.645 333.472 221.425 333.692 221.161 333.836C220.897 333.98 220.589 334.052 220.237 334.052C219.901 334.052 219.613 333.98 219.373 333.836C219.141 333.692 218.965 333.484 218.845 333.212C218.725 332.932 218.665 332.592 218.665 332.192C218.673 331.792 218.737 331.456 218.857 331.184C218.977 330.912 219.153 330.704 219.385 330.56C219.617 330.416 219.897 330.344 220.225 330.344C220.497 330.344 220.733 330.404 220.933 330.524C221.141 330.644 221.301 330.812 221.413 331.028C221.533 331.244 221.593 331.5 221.593 331.796C221.593 331.852 221.577 331.924 221.545 332.012C221.521 332.092 221.497 332.156 221.473 332.204L221.869 331.652H218.125V332.54H222.973C222.981 332.508 222.985 332.456 222.985 332.384C222.993 332.312 222.997 332.244 222.997 332.18C222.997 331.588 222.885 331.084 222.661 330.668C222.445 330.244 222.133 329.92 221.725 329.696C221.317 329.472 220.821 329.36 220.237 329.36C219.653 329.36 219.145 329.48 218.713 329.72C218.281 329.952 217.945 330.284 217.705 330.716C217.473 331.148 217.357 331.656 217.357 332.24C217.357 332.816 217.473 333.32 217.705 333.752C217.937 334.184 218.265 334.52 218.689 334.76C219.121 335 219.617 335.12 220.177 335.12ZM223.466 329.48V330.62H226.598V329.48H223.466ZM224.39 327.56V335H225.674V327.56H224.39ZM235.434 326.6L230.442 336.8H231.75L236.706 326.6H235.434ZM244.62 332.504L242.148 326.6H240.516L244.62 335.468L248.724 326.6H247.092L244.62 332.504ZM249.702 326.6V335H251.118V326.6H249.702ZM250.542 327.848H252.234C252.722 327.848 253.114 327.964 253.41 328.196C253.706 328.42 253.854 328.756 253.854 329.204C253.854 329.652 253.706 329.992 253.41 330.224C253.114 330.456 252.722 330.572 252.234 330.572H250.542V331.82H252.234C252.842 331.82 253.37 331.716 253.818 331.508C254.274 331.292 254.626 330.988 254.874 330.596C255.122 330.204 255.246 329.74 255.246 329.204C255.246 328.668 255.122 328.208 254.874 327.824C254.626 327.432 254.274 327.132 253.818 326.924C253.37 326.708 252.842 326.6 252.234 326.6H250.542V327.848ZM257.683 330.8C257.683 330.2 257.815 329.68 258.079 329.24C258.351 328.792 258.703 328.448 259.135 328.208C259.575 327.96 260.051 327.836 260.563 327.836C260.963 327.836 261.323 327.888 261.643 327.992C261.963 328.096 262.251 328.24 262.507 328.424C262.771 328.6 262.999 328.8 263.191 329.024V327.344C262.839 327.056 262.459 326.836 262.051 326.684C261.643 326.532 261.131 326.456 260.515 326.456C259.899 326.456 259.323 326.56 258.787 326.768C258.259 326.976 257.799 327.276 257.407 327.668C257.015 328.06 256.707 328.524 256.483 329.06C256.267 329.588 256.159 330.168 256.159 330.8C256.159 331.432 256.267 332.016 256.483 332.552C256.707 333.08 257.015 333.54 257.407 333.932C257.799 334.324 258.259 334.624 258.787 334.832C259.323 335.04 259.899 335.144 260.515 335.144C261.131 335.144 261.643 335.068 262.051 334.916C262.459 334.764 262.839 334.544 263.191 334.256V332.576C262.999 332.8 262.771 333.004 262.507 333.188C262.251 333.364 261.963 333.504 261.643 333.608C261.323 333.712 260.963 333.764 260.563 333.764C260.051 333.764 259.575 333.644 259.135 333.404C258.703 333.156 258.351 332.808 258.079 332.36C257.815 331.912 257.683 331.392 257.683 330.8Z" fill="#99ACBE"/>
<rect x="64" y="355" width="200" height="50" rx="25" fill="#F0F4F8"/>
<path d="M143.289 380.864H151.273V379.12H143.289V380.864ZM150.057 374.8V386H151.945V374.8H150.057ZM142.537 374.8V386H144.425V374.8H142.537ZM153.739 382.32C153.739 383.067 153.91 383.733 154.251 384.32C154.603 384.896 155.078 385.349 155.675 385.68C156.273 386 156.95 386.16 157.707 386.16C158.465 386.16 159.137 386 159.723 385.68C160.321 385.349 160.795 384.896 161.147 384.32C161.499 383.733 161.675 383.067 161.675 382.32C161.675 381.563 161.499 380.896 161.147 380.32C160.795 379.744 160.321 379.296 159.723 378.976C159.137 378.645 158.465 378.48 157.707 378.48C156.95 378.48 156.273 378.645 155.675 378.976C155.078 379.296 154.603 379.744 154.251 380.32C153.91 380.896 153.739 381.563 153.739 382.32ZM155.515 382.32C155.515 381.861 155.611 381.456 155.803 381.104C155.995 380.752 156.257 380.48 156.587 380.288C156.918 380.096 157.291 380 157.707 380C158.113 380 158.481 380.096 158.811 380.288C159.153 380.48 159.419 380.752 159.611 381.104C159.803 381.456 159.899 381.861 159.899 382.32C159.899 382.779 159.803 383.184 159.611 383.536C159.419 383.877 159.153 384.149 158.811 384.352C158.481 384.544 158.113 384.64 157.707 384.64C157.291 384.64 156.918 384.544 156.587 384.352C156.257 384.149 155.995 383.877 155.803 383.536C155.611 383.184 155.515 382.779 155.515 382.32ZM163.651 383.584L162.643 384.592C162.856 384.869 163.118 385.136 163.427 385.392C163.747 385.637 164.115 385.84 164.531 386C164.958 386.149 165.422 386.224 165.923 386.224C166.734 386.224 167.374 386.016 167.843 385.6C168.323 385.173 168.563 384.613 168.563 383.92C168.563 383.472 168.456 383.109 168.243 382.832C168.04 382.555 167.768 382.32 167.427 382.128C167.086 381.936 166.712 381.76 166.307 381.6C166.008 381.483 165.736 381.371 165.491 381.264C165.256 381.157 165.064 381.04 164.915 380.912C164.776 380.773 164.707 380.619 164.707 380.448C164.707 380.245 164.787 380.091 164.947 379.984C165.107 379.877 165.31 379.824 165.555 379.824C165.918 379.824 166.27 379.915 166.611 380.096C166.952 380.277 167.246 380.512 167.491 380.8L168.451 379.776C168.248 379.531 168.003 379.312 167.715 379.12C167.427 378.928 167.102 378.773 166.739 378.656C166.387 378.539 166.008 378.48 165.603 378.48C165.155 378.48 164.734 378.555 164.339 378.704C163.955 378.843 163.646 379.061 163.411 379.36C163.187 379.659 163.075 380.032 163.075 380.48C163.075 380.917 163.176 381.28 163.379 381.568C163.592 381.856 163.859 382.091 164.179 382.272C164.51 382.443 164.84 382.592 165.171 382.72C165.502 382.837 165.79 382.955 166.035 383.072C166.28 383.179 166.472 383.312 166.611 383.472C166.75 383.621 166.819 383.803 166.819 384.016C166.819 384.261 166.728 384.453 166.547 384.592C166.376 384.731 166.136 384.8 165.827 384.8C165.582 384.8 165.336 384.757 165.091 384.672C164.846 384.576 164.6 384.437 164.355 384.256C164.12 384.064 163.886 383.84 163.651 383.584ZM169.072 378.64V380.16H173.248V378.64H169.072ZM170.304 376.08V386H172.016V376.08H170.304ZM179.333 377.424L181.925 376.704V386H183.797V374.624L179.333 375.632V377.424Z" fill="#93A9BF"/>
<rect x="41" y="299" width="246" height="129" rx="19" stroke="#D9D9D9" stroke-width="2"/>
<path d="M538.615 493.8V505H540.535V493.8H538.615ZM542.231 505C543.373 505 544.375 504.771 545.239 504.312C546.103 503.843 546.775 503.192 547.255 502.36C547.746 501.517 547.991 500.531 547.991 499.4C547.991 498.269 547.746 497.288 547.255 496.456C546.775 495.613 546.103 494.963 545.239 494.504C544.375 494.035 543.373 493.8 542.231 493.8H539.783V495.576H542.183C542.738 495.576 543.25 495.656 543.719 495.816C544.189 495.976 544.594 496.216 544.935 496.536C545.287 496.856 545.559 497.256 545.751 497.736C545.954 498.216 546.055 498.771 546.055 499.4C546.055 500.029 545.954 500.584 545.751 501.064C545.559 501.544 545.287 501.944 544.935 502.264C544.594 502.584 544.189 502.824 543.719 502.984C543.25 503.144 542.738 503.224 542.183 503.224H539.783V505H542.231ZM550.778 502.712C550.778 502.477 550.831 502.28 550.938 502.12C551.055 501.96 551.226 501.837 551.45 501.752C551.674 501.656 551.967 501.608 552.33 501.608C552.746 501.608 553.141 501.661 553.514 501.768C553.887 501.875 554.239 502.045 554.57 502.28V501.4C554.474 501.283 554.309 501.155 554.074 501.016C553.839 500.867 553.541 500.739 553.178 500.632C552.826 500.525 552.405 500.472 551.914 500.472C550.997 500.472 550.287 500.685 549.786 501.112C549.285 501.528 549.034 502.093 549.034 502.808C549.034 503.309 549.151 503.736 549.386 504.088C549.621 504.44 549.935 504.707 550.33 504.888C550.725 505.069 551.151 505.16 551.61 505.16C552.037 505.16 552.453 505.085 552.858 504.936C553.274 504.776 553.615 504.541 553.882 504.232C554.159 503.912 554.298 503.517 554.298 503.048L554.042 502.088C554.042 502.451 553.951 502.771 553.77 503.048C553.599 503.315 553.37 503.517 553.082 503.656C552.805 503.795 552.495 503.864 552.154 503.864C551.887 503.864 551.647 503.821 551.434 503.736C551.231 503.651 551.071 503.523 550.954 503.352C550.837 503.171 550.778 502.957 550.778 502.712ZM550.234 499.56C550.341 499.485 550.501 499.395 550.714 499.288C550.938 499.171 551.199 499.075 551.498 499C551.807 498.915 552.133 498.872 552.474 498.872C552.698 498.872 552.906 498.893 553.098 498.936C553.29 498.979 553.455 499.048 553.594 499.144C553.733 499.24 553.839 499.363 553.914 499.512C553.999 499.661 554.042 499.853 554.042 500.088V505H555.738V499.752C555.738 499.261 555.605 498.851 555.338 498.52C555.071 498.179 554.703 497.917 554.234 497.736C553.775 497.555 553.242 497.464 552.634 497.464C551.951 497.464 551.343 497.56 550.81 497.752C550.287 497.944 549.861 498.141 549.53 498.344L550.234 499.56ZM556.728 497.64V499.16H560.904V497.64H556.728ZM557.96 495.08V505H559.672V495.08H557.96ZM563.184 502.712C563.184 502.477 563.238 502.28 563.344 502.12C563.462 501.96 563.632 501.837 563.856 501.752C564.08 501.656 564.374 501.608 564.736 501.608C565.152 501.608 565.547 501.661 565.92 501.768C566.294 501.875 566.646 502.045 566.976 502.28V501.4C566.88 501.283 566.715 501.155 566.48 501.016C566.246 500.867 565.947 500.739 565.584 500.632C565.232 500.525 564.811 500.472 564.32 500.472C563.403 500.472 562.694 500.685 562.192 501.112C561.691 501.528 561.44 502.093 561.44 502.808C561.44 503.309 561.558 503.736 561.792 504.088C562.027 504.44 562.342 504.707 562.736 504.888C563.131 505.069 563.558 505.16 564.016 505.16C564.443 505.16 564.859 505.085 565.264 504.936C565.68 504.776 566.022 504.541 566.288 504.232C566.566 503.912 566.704 503.517 566.704 503.048L566.448 502.088C566.448 502.451 566.358 502.771 566.176 503.048C566.006 503.315 565.776 503.517 565.488 503.656C565.211 503.795 564.902 503.864 564.56 503.864C564.294 503.864 564.054 503.821 563.84 503.736C563.638 503.651 563.478 503.523 563.36 503.352C563.243 503.171 563.184 502.957 563.184 502.712ZM562.64 499.56C562.747 499.485 562.907 499.395 563.12 499.288C563.344 499.171 563.606 499.075 563.904 499C564.214 498.915 564.539 498.872 564.88 498.872C565.104 498.872 565.312 498.893 565.504 498.936C565.696 498.979 565.862 499.048 566 499.144C566.139 499.24 566.246 499.363 566.32 499.512C566.406 499.661 566.448 499.853 566.448 500.088V505H568.144V499.752C568.144 499.261 568.011 498.851 567.744 498.52C567.478 498.179 567.11 497.917 566.64 497.736C566.182 497.555 565.648 497.464 565.04 497.464C564.358 497.464 563.75 497.56 563.216 497.752C562.694 497.944 562.267 498.141 561.936 498.344L562.64 499.56ZM576.492 499.4C576.492 498.6 576.668 497.907 577.02 497.32C577.382 496.723 577.852 496.264 578.428 495.944C579.014 495.613 579.649 495.448 580.332 495.448C580.865 495.448 581.345 495.517 581.772 495.656C582.198 495.795 582.582 495.987 582.924 496.232C583.276 496.467 583.58 496.733 583.836 497.032V494.792C583.366 494.408 582.86 494.115 582.316 493.912C581.772 493.709 581.089 493.608 580.268 493.608C579.446 493.608 578.678 493.747 577.964 494.024C577.26 494.301 576.646 494.701 576.124 495.224C575.601 495.747 575.19 496.365 574.892 497.08C574.604 497.784 574.46 498.557 574.46 499.4C574.46 500.243 574.604 501.021 574.892 501.736C575.19 502.44 575.601 503.053 576.124 503.576C576.646 504.099 577.26 504.499 577.964 504.776C578.678 505.053 579.446 505.192 580.268 505.192C581.089 505.192 581.772 505.091 582.316 504.888C582.86 504.685 583.366 504.392 583.836 504.008V501.768C583.58 502.067 583.276 502.339 582.924 502.584C582.582 502.819 582.198 503.005 581.772 503.144C581.345 503.283 580.865 503.352 580.332 503.352C579.649 503.352 579.014 503.192 578.428 502.872C577.852 502.541 577.382 502.077 577.02 501.48C576.668 500.883 576.492 500.189 576.492 499.4ZM587.746 492.52H586.018V505H587.746V492.52ZM590.754 500.52V505H592.498V500.28C592.498 499.651 592.402 499.128 592.21 498.712C592.018 498.285 591.73 497.965 591.346 497.752C590.973 497.539 590.514 497.432 589.97 497.432C589.415 497.432 588.941 497.571 588.546 497.848C588.162 498.125 587.863 498.493 587.65 498.952C587.437 499.411 587.33 499.933 587.33 500.52H587.746C587.746 500.189 587.815 499.901 587.954 499.656C588.093 499.411 588.285 499.219 588.53 499.08C588.775 498.941 589.058 498.872 589.378 498.872C589.858 498.872 590.205 499.011 590.418 499.288C590.642 499.565 590.754 499.976 590.754 500.52ZM595.778 502.712C595.778 502.477 595.831 502.28 595.938 502.12C596.055 501.96 596.226 501.837 596.45 501.752C596.674 501.656 596.967 501.608 597.33 501.608C597.746 501.608 598.141 501.661 598.514 501.768C598.887 501.875 599.239 502.045 599.57 502.28V501.4C599.474 501.283 599.309 501.155 599.074 501.016C598.839 500.867 598.541 500.739 598.178 500.632C597.826 500.525 597.405 500.472 596.914 500.472C595.997 500.472 595.287 500.685 594.786 501.112C594.285 501.528 594.034 502.093 594.034 502.808C594.034 503.309 594.151 503.736 594.386 504.088C594.621 504.44 594.935 504.707 595.33 504.888C595.725 505.069 596.151 505.16 596.61 505.16C597.037 505.16 597.453 505.085 597.858 504.936C598.274 504.776 598.615 504.541 598.882 504.232C599.159 503.912 599.298 503.517 599.298 503.048L599.042 502.088C599.042 502.451 598.951 502.771 598.77 503.048C598.599 503.315 598.37 503.517 598.082 503.656C597.805 503.795 597.495 503.864 597.154 503.864C596.887 503.864 596.647 503.821 596.434 503.736C596.231 503.651 596.071 503.523 595.954 503.352C595.837 503.171 595.778 502.957 595.778 502.712ZM595.234 499.56C595.341 499.485 595.501 499.395 595.714 499.288C595.938 499.171 596.199 499.075 596.498 499C596.807 498.915 597.133 498.872 597.474 498.872C597.698 498.872 597.906 498.893 598.098 498.936C598.29 498.979 598.455 499.048 598.594 499.144C598.733 499.24 598.839 499.363 598.914 499.512C598.999 499.661 599.042 499.853 599.042 500.088V505H600.738V499.752C600.738 499.261 600.605 498.851 600.338 498.52C600.071 498.179 599.703 497.917 599.234 497.736C598.775 497.555 598.242 497.464 597.634 497.464C596.951 497.464 596.343 497.56 595.81 497.752C595.287 497.944 594.861 498.141 594.53 498.344L595.234 499.56ZM607.488 500.52V505H609.264V500.328C609.264 499.443 609.046 498.749 608.608 498.248C608.171 497.736 607.536 497.48 606.704 497.48C606.192 497.48 605.75 497.587 605.376 497.8C605.014 498.013 604.715 498.339 604.48 498.776V497.64H602.752V505H604.48V500.52C604.48 500.189 604.55 499.901 604.688 499.656C604.827 499.4 605.019 499.208 605.264 499.08C605.51 498.941 605.792 498.872 606.112 498.872C606.582 498.872 606.928 499.011 607.152 499.288C607.376 499.565 607.488 499.976 607.488 500.52ZM616.207 500.52V505H617.983V500.328C617.983 499.443 617.765 498.749 617.327 498.248C616.89 497.736 616.255 497.48 615.423 497.48C614.911 497.48 614.469 497.587 614.095 497.8C613.733 498.013 613.434 498.339 613.199 498.776V497.64H611.471V505H613.199V500.52C613.199 500.189 613.269 499.901 613.407 499.656C613.546 499.4 613.738 499.208 613.983 499.08C614.229 498.941 614.511 498.872 614.831 498.872C615.301 498.872 615.647 499.011 615.871 499.288C616.095 499.565 616.207 499.976 616.207 500.52ZM623.39 505.16C624.243 505.16 624.974 504.995 625.582 504.664C626.19 504.333 626.686 503.837 627.07 503.176L625.582 502.568C625.347 502.963 625.054 503.256 624.702 503.448C624.35 503.64 623.939 503.736 623.47 503.736C623.022 503.736 622.638 503.64 622.318 503.448C622.009 503.256 621.774 502.979 621.614 502.616C621.454 502.243 621.374 501.789 621.374 501.256C621.385 500.723 621.47 500.275 621.63 499.912C621.79 499.549 622.025 499.272 622.334 499.08C622.643 498.888 623.017 498.792 623.454 498.792C623.817 498.792 624.131 498.872 624.398 499.032C624.675 499.192 624.889 499.416 625.038 499.704C625.198 499.992 625.278 500.333 625.278 500.728C625.278 500.803 625.257 500.899 625.214 501.016C625.182 501.123 625.15 501.208 625.118 501.272L625.646 500.536H620.654V501.72H627.118C627.129 501.677 627.134 501.608 627.134 501.512C627.145 501.416 627.15 501.325 627.15 501.24C627.15 500.451 627.001 499.779 626.702 499.224C626.414 498.659 625.998 498.227 625.454 497.928C624.91 497.629 624.249 497.48 623.47 497.48C622.691 497.48 622.014 497.64 621.438 497.96C620.862 498.269 620.414 498.712 620.094 499.288C619.785 499.864 619.63 500.541 619.63 501.32C619.63 502.088 619.785 502.76 620.094 503.336C620.403 503.912 620.841 504.36 621.406 504.68C621.982 505 622.643 505.16 623.39 505.16ZM628.799 492.52V505H630.527V492.52H628.799Z" fill="#4476F8"/>
<path d="M530.96 226.4C530.96 225.6 531.136 224.907 531.488 224.32C531.851 223.723 532.32 223.264 532.896 222.944C533.483 222.613 534.118 222.448 534.8 222.448C535.334 222.448 535.814 222.517 536.24 222.656C536.667 222.795 537.051 222.987 537.392 223.232C537.744 223.467 538.048 223.733 538.304 224.032V221.792C537.835 221.408 537.328 221.115 536.784 220.912C536.24 220.709 535.558 220.608 534.736 220.608C533.915 220.608 533.147 220.747 532.432 221.024C531.728 221.301 531.115 221.701 530.592 222.224C530.07 222.747 529.659 223.365 529.36 224.08C529.072 224.784 528.928 225.557 528.928 226.4C528.928 227.243 529.072 228.021 529.36 228.736C529.659 229.44 530.07 230.053 530.592 230.576C531.115 231.099 531.728 231.499 532.432 231.776C533.147 232.053 533.915 232.192 534.736 232.192C535.558 232.192 536.24 232.091 536.784 231.888C537.328 231.685 537.835 231.392 538.304 231.008V228.768C538.048 229.067 537.744 229.339 537.392 229.584C537.051 229.819 536.667 230.005 536.24 230.144C535.814 230.283 535.334 230.352 534.8 230.352C534.118 230.352 533.483 230.192 532.896 229.872C532.32 229.541 531.851 229.077 531.488 228.48C531.136 227.883 530.96 227.189 530.96 226.4ZM539.927 228.32C539.927 229.067 540.097 229.733 540.439 230.32C540.791 230.896 541.265 231.349 541.863 231.68C542.46 232 543.137 232.16 543.895 232.16C544.652 232.16 545.324 232 545.911 231.68C546.508 231.349 546.983 230.896 547.335 230.32C547.687 229.733 547.863 229.067 547.863 228.32C547.863 227.563 547.687 226.896 547.335 226.32C546.983 225.744 546.508 225.296 545.911 224.976C545.324 224.645 544.652 224.48 543.895 224.48C543.137 224.48 542.46 224.645 541.863 224.976C541.265 225.296 540.791 225.744 540.439 226.32C540.097 226.896 539.927 227.563 539.927 228.32ZM541.703 228.32C541.703 227.861 541.799 227.456 541.991 227.104C542.183 226.752 542.444 226.48 542.775 226.288C543.105 226.096 543.479 226 543.895 226C544.3 226 544.668 226.096 544.999 226.288C545.34 226.48 545.607 226.752 545.799 227.104C545.991 227.456 546.087 227.861 546.087 228.32C546.087 228.779 545.991 229.184 545.799 229.536C545.607 229.877 545.34 230.149 544.999 230.352C544.668 230.544 544.3 230.64 543.895 230.64C543.479 230.64 543.105 230.544 542.775 230.352C542.444 230.149 542.183 229.877 541.991 229.536C541.799 229.184 541.703 228.779 541.703 228.32ZM554.238 227.52V232H556.014V227.328C556.014 226.443 555.796 225.749 555.358 225.248C554.921 224.736 554.286 224.48 553.454 224.48C552.942 224.48 552.5 224.587 552.126 224.8C551.764 225.013 551.465 225.339 551.23 225.776V224.64H549.502V232H551.23V227.52C551.23 227.189 551.3 226.901 551.438 226.656C551.577 226.4 551.769 226.208 552.014 226.08C552.26 225.941 552.542 225.872 552.862 225.872C553.332 225.872 553.678 226.011 553.902 226.288C554.126 226.565 554.238 226.976 554.238 227.52ZM557.197 224.64V226.16H561.373V224.64H557.197ZM558.429 222.08V232H560.141V222.08H558.429ZM564.277 224.64H562.565V232H564.277V224.64ZM566.469 226.48L567.301 225.024C567.141 224.821 566.944 224.683 566.709 224.608C566.474 224.523 566.224 224.48 565.957 224.48C565.584 224.48 565.221 224.613 564.869 224.88C564.528 225.147 564.245 225.509 564.021 225.968C563.808 226.416 563.701 226.933 563.701 227.52L564.277 227.856C564.277 227.504 564.314 227.2 564.389 226.944C564.474 226.677 564.608 226.469 564.789 226.32C564.97 226.171 565.205 226.096 565.493 226.096C565.706 226.096 565.882 226.128 566.021 226.192C566.16 226.256 566.309 226.352 566.469 226.48ZM567.692 228.32C567.692 229.067 567.863 229.733 568.204 230.32C568.556 230.896 569.031 231.349 569.628 231.68C570.226 232 570.903 232.16 571.66 232.16C572.418 232.16 573.09 232 573.676 231.68C574.274 231.349 574.748 230.896 575.1 230.32C575.452 229.733 575.628 229.067 575.628 228.32C575.628 227.563 575.452 226.896 575.1 226.32C574.748 225.744 574.274 225.296 573.676 224.976C573.09 224.645 572.418 224.48 571.66 224.48C570.903 224.48 570.226 224.645 569.628 224.976C569.031 225.296 568.556 225.744 568.204 226.32C567.863 226.896 567.692 227.563 567.692 228.32ZM569.468 228.32C569.468 227.861 569.564 227.456 569.756 227.104C569.948 226.752 570.21 226.48 570.54 226.288C570.871 226.096 571.244 226 571.66 226C572.066 226 572.434 226.096 572.764 226.288C573.106 226.48 573.372 226.752 573.564 227.104C573.756 227.456 573.852 227.861 573.852 228.32C573.852 228.779 573.756 229.184 573.564 229.536C573.372 229.877 573.106 230.149 572.764 230.352C572.434 230.544 572.066 230.64 571.66 230.64C571.244 230.64 570.871 230.544 570.54 230.352C570.21 230.149 569.948 229.877 569.756 229.536C569.564 229.184 569.468 228.779 569.468 228.32ZM577.268 219.52V232H578.996V219.52H577.268ZM587.538 226.4C587.538 225.6 587.714 224.907 588.066 224.32C588.429 223.723 588.898 223.264 589.474 222.944C590.061 222.613 590.696 222.448 591.378 222.448C591.912 222.448 592.392 222.517 592.818 222.656C593.245 222.795 593.629 222.987 593.97 223.232C594.322 223.467 594.626 223.733 594.882 224.032V221.792C594.413 221.408 593.906 221.115 593.362 220.912C592.818 220.709 592.136 220.608 591.314 220.608C590.493 220.608 589.725 220.747 589.01 221.024C588.306 221.301 587.693 221.701 587.17 222.224C586.648 222.747 586.237 223.365 585.938 224.08C585.65 224.784 585.506 225.557 585.506 226.4C585.506 227.243 585.65 228.021 585.938 228.736C586.237 229.44 586.648 230.053 587.17 230.576C587.693 231.099 588.306 231.499 589.01 231.776C589.725 232.053 590.493 232.192 591.314 232.192C592.136 232.192 592.818 232.091 593.362 231.888C593.906 231.685 594.413 231.392 594.882 231.008V228.768C594.626 229.067 594.322 229.339 593.97 229.584C593.629 229.819 593.245 230.005 592.818 230.144C592.392 230.283 591.912 230.352 591.378 230.352C590.696 230.352 590.061 230.192 589.474 229.872C588.898 229.541 588.429 229.077 588.066 228.48C587.714 227.883 587.538 227.189 587.538 226.4ZM598.793 219.52H597.065V232H598.793V219.52ZM601.801 227.52V232H603.545V227.28C603.545 226.651 603.449 226.128 603.257 225.712C603.065 225.285 602.777 224.965 602.393 224.752C602.02 224.539 601.561 224.432 601.017 224.432C600.462 224.432 599.988 224.571 599.593 224.848C599.209 225.125 598.91 225.493 598.697 225.952C598.484 226.411 598.377 226.933 598.377 227.52H598.793C598.793 227.189 598.862 226.901 599.001 226.656C599.14 226.411 599.332 226.219 599.577 226.08C599.822 225.941 600.105 225.872 600.425 225.872C600.905 225.872 601.252 226.011 601.465 226.288C601.689 226.565 601.801 226.976 601.801 227.52ZM606.825 229.712C606.825 229.477 606.878 229.28 606.985 229.12C607.102 228.96 607.273 228.837 607.497 228.752C607.721 228.656 608.014 228.608 608.377 228.608C608.793 228.608 609.187 228.661 609.561 228.768C609.934 228.875 610.286 229.045 610.617 229.28V228.4C610.521 228.283 610.355 228.155 610.121 228.016C609.886 227.867 609.587 227.739 609.225 227.632C608.873 227.525 608.451 227.472 607.961 227.472C607.043 227.472 606.334 227.685 605.833 228.112C605.331 228.528 605.081 229.093 605.081 229.808C605.081 230.309 605.198 230.736 605.433 231.088C605.667 231.44 605.982 231.707 606.377 231.888C606.771 232.069 607.198 232.16 607.657 232.16C608.083 232.16 608.499 232.085 608.905 231.936C609.321 231.776 609.662 231.541 609.929 231.232C610.206 230.912 610.345 230.517 610.345 230.048L610.089 229.088C610.089 229.451 609.998 229.771 609.817 230.048C609.646 230.315 609.417 230.517 609.129 230.656C608.851 230.795 608.542 230.864 608.201 230.864C607.934 230.864 607.694 230.821 607.481 230.736C607.278 230.651 607.118 230.523 607.001 230.352C606.883 230.171 606.825 229.957 606.825 229.712ZM606.281 226.56C606.387 226.485 606.547 226.395 606.761 226.288C606.985 226.171 607.246 226.075 607.545 226C607.854 225.915 608.179 225.872 608.521 225.872C608.745 225.872 608.953 225.893 609.145 225.936C609.337 225.979 609.502 226.048 609.641 226.144C609.779 226.24 609.886 226.363 609.961 226.512C610.046 226.661 610.089 226.853 610.089 227.088V232H611.785V226.752C611.785 226.261 611.651 225.851 611.385 225.52C611.118 225.179 610.75 224.917 610.281 224.736C609.822 224.555 609.289 224.464 608.681 224.464C607.998 224.464 607.39 224.56 606.857 224.752C606.334 224.944 605.907 225.141 605.577 225.344L606.281 226.56ZM618.535 227.52V232H620.311V227.328C620.311 226.443 620.093 225.749 619.655 225.248C619.218 224.736 618.583 224.48 617.751 224.48C617.239 224.48 616.797 224.587 616.423 224.8C616.061 225.013 615.762 225.339 615.527 225.776V224.64H613.799V232H615.527V227.52C615.527 227.189 615.597 226.901 615.735 226.656C615.874 226.4 616.066 226.208 616.311 226.08C616.557 225.941 616.839 225.872 617.159 225.872C617.629 225.872 617.975 226.011 618.199 226.288C618.423 226.565 618.535 226.976 618.535 227.52ZM627.254 227.52V232H629.03V227.328C629.03 226.443 628.811 225.749 628.374 225.248C627.937 224.736 627.302 224.48 626.47 224.48C625.958 224.48 625.515 224.587 625.142 224.8C624.779 225.013 624.481 225.339 624.246 225.776V224.64H622.518V232H624.246V227.52C624.246 227.189 624.315 226.901 624.454 226.656C624.593 226.4 624.785 226.208 625.03 226.08C625.275 225.941 625.558 225.872 625.878 225.872C626.347 225.872 626.694 226.011 626.918 226.288C627.142 226.565 627.254 226.976 627.254 227.52ZM634.437 232.16C635.29 232.16 636.021 231.995 636.629 231.664C637.237 231.333 637.733 230.837 638.117 230.176L636.629 229.568C636.394 229.963 636.101 230.256 635.749 230.448C635.397 230.64 634.986 230.736 634.517 230.736C634.069 230.736 633.685 230.64 633.365 230.448C633.055 230.256 632.821 229.979 632.661 229.616C632.501 229.243 632.421 228.789 632.421 228.256C632.431 227.723 632.517 227.275 632.677 226.912C632.837 226.549 633.071 226.272 633.381 226.08C633.69 225.888 634.063 225.792 634.501 225.792C634.863 225.792 635.178 225.872 635.445 226.032C635.722 226.192 635.935 226.416 636.085 226.704C636.245 226.992 636.325 227.333 636.325 227.728C636.325 227.803 636.303 227.899 636.261 228.016C636.229 228.123 636.197 228.208 636.165 228.272L636.693 227.536H631.701V228.72H638.165C638.175 228.677 638.181 228.608 638.181 228.512C638.191 228.416 638.197 228.325 638.197 228.24C638.197 227.451 638.047 226.779 637.749 226.224C637.461 225.659 637.045 225.227 636.501 224.928C635.957 224.629 635.295 224.48 634.517 224.48C633.738 224.48 633.061 224.64 632.485 224.96C631.909 225.269 631.461 225.712 631.141 226.288C630.831 226.864 630.677 227.541 630.677 228.32C630.677 229.088 630.831 229.76 631.141 230.336C631.45 230.912 631.887 231.36 632.453 231.68C633.029 232 633.69 232.16 634.437 232.16ZM639.846 219.52V232H641.574V219.52H639.846Z" fill="#93A9BF"/>
<path d="M586 516L586 561.5M586 561.5L594 553.5M586 561.5L578 553.5" stroke="#4476F8" stroke-width="2" stroke-linecap="round" stroke-linejoin="round"/>
<path d="M585 210L585 160M585 160L577 168M585 160L593 168" stroke="#93A9BF" stroke-width="2" stroke-linecap="round" stroke-linejoin="round" stroke-dasharray="4 4"/>
<path d="M586 415L586 480.5" stroke="#4476F8" stroke-width="2" stroke-linecap="round" stroke-linejoin="round"/>
<path d="M586 247L586 312.5" stroke="#93A9BF" stroke-width="2" stroke-linecap="round" stroke-linejoin="round" stroke-dasharray="4 4"/>
<rect x="486" y="589" width="200" height="50" rx="25" fill="#4476F8"/>
<path d="M569.755 614.656L573.323 620H575.595L571.803 614.656H569.755ZM567.451 608.8V620H569.339V608.8H567.451ZM568.571 610.432H570.827C571.254 610.432 571.627 610.507 571.947 610.656C572.278 610.805 572.534 611.019 572.715 611.296C572.896 611.573 572.987 611.915 572.987 612.32C572.987 612.715 572.896 613.056 572.715 613.344C572.534 613.621 572.278 613.835 571.947 613.984C571.627 614.133 571.254 614.208 570.827 614.208H568.571V615.76H570.907C571.718 615.76 572.422 615.616 573.019 615.328C573.627 615.04 574.096 614.635 574.427 614.112C574.758 613.589 574.923 612.976 574.923 612.272C574.923 611.568 574.758 610.96 574.427 610.448C574.096 609.925 573.627 609.52 573.019 609.232C572.422 608.944 571.718 608.8 570.907 608.8H568.571V610.432ZM580.023 620.16C580.876 620.16 581.607 619.995 582.215 619.664C582.823 619.333 583.319 618.837 583.703 618.176L582.215 617.568C581.98 617.963 581.687 618.256 581.335 618.448C580.983 618.64 580.572 618.736 580.103 618.736C579.655 618.736 579.271 618.64 578.951 618.448C578.641 618.256 578.407 617.979 578.247 617.616C578.087 617.243 578.007 616.789 578.007 616.256C578.017 615.723 578.103 615.275 578.263 614.912C578.423 614.549 578.657 614.272 578.967 614.08C579.276 613.888 579.649 613.792 580.087 613.792C580.449 613.792 580.764 613.872 581.031 614.032C581.308 614.192 581.521 614.416 581.671 614.704C581.831 614.992 581.911 615.333 581.911 615.728C581.911 615.803 581.889 615.899 581.847 616.016C581.815 616.123 581.783 616.208 581.751 616.272L582.279 615.536H577.287V616.72H583.751C583.761 616.677 583.767 616.608 583.767 616.512C583.777 616.416 583.783 616.325 583.783 616.24C583.783 615.451 583.633 614.779 583.335 614.224C583.047 613.659 582.631 613.227 582.087 612.928C581.543 612.629 580.881 612.48 580.103 612.48C579.324 612.48 578.647 612.64 578.071 612.96C577.495 613.269 577.047 613.712 576.727 614.288C576.417 614.864 576.263 615.541 576.263 616.32C576.263 617.088 576.417 617.76 576.727 618.336C577.036 618.912 577.473 619.36 578.039 619.68C578.615 620 579.276 620.16 580.023 620.16ZM585.432 607.52V620H587.16V607.52H585.432ZM590.458 617.712C590.458 617.477 590.511 617.28 590.618 617.12C590.735 616.96 590.906 616.837 591.13 616.752C591.354 616.656 591.647 616.608 592.01 616.608C592.426 616.608 592.82 616.661 593.194 616.768C593.567 616.875 593.919 617.045 594.25 617.28V616.4C594.154 616.283 593.988 616.155 593.754 616.016C593.519 615.867 593.22 615.739 592.858 615.632C592.506 615.525 592.084 615.472 591.594 615.472C590.676 615.472 589.967 615.685 589.466 616.112C588.964 616.528 588.714 617.093 588.714 617.808C588.714 618.309 588.831 618.736 589.066 619.088C589.3 619.44 589.615 619.707 590.01 619.888C590.404 620.069 590.831 620.16 591.29 620.16C591.716 620.16 592.132 620.085 592.538 619.936C592.954 619.776 593.295 619.541 593.562 619.232C593.839 618.912 593.978 618.517 593.978 618.048L593.722 617.088C593.722 617.451 593.631 617.771 593.45 618.048C593.279 618.315 593.05 618.517 592.762 618.656C592.484 618.795 592.175 618.864 591.834 618.864C591.567 618.864 591.327 618.821 591.114 618.736C590.911 618.651 590.751 618.523 590.634 618.352C590.516 618.171 590.458 617.957 590.458 617.712ZM589.914 614.56C590.02 614.485 590.18 614.395 590.394 614.288C590.618 614.171 590.879 614.075 591.178 614C591.487 613.915 591.812 613.872 592.154 613.872C592.378 613.872 592.586 613.893 592.778 613.936C592.97 613.979 593.135 614.048 593.274 614.144C593.412 614.24 593.519 614.363 593.594 614.512C593.679 614.661 593.722 614.853 593.722 615.088V620H595.418V614.752C595.418 614.261 595.284 613.851 595.018 613.52C594.751 613.179 594.383 612.917 593.914 612.736C593.455 612.555 592.922 612.464 592.314 612.464C591.631 612.464 591.023 612.56 590.49 612.752C589.967 612.944 589.54 613.141 589.21 613.344L589.914 614.56ZM603.866 612.64H602.01L599.706 618.416L600.522 618.464L598.17 612.64H596.186L599.146 619.136L597.226 623.52H599.066L603.866 612.64Z" fill="white"/>
<circle cx="585.5" cy="587.5" r="12.5" fill="#44A0F8" stroke="white" stroke-width="2"/>
<path d="M161 412V485C161 493.284 167.716 500 176 500H528" stroke="#4476F8" stroke-width="2" stroke-linecap="round" stroke-linejoin="round"/>
<path d="M1010 412V485C1010 493.284 1003.28 500 995 500H643" stroke="#4476F8" stroke-width="2" stroke-linecap="round" stroke-linejoin="round"/>
<path d="M161 312V241C161 232.716 167.716 226 176 226H522" stroke="#93A9BF" stroke-width="2" stroke-linecap="round" stroke-linejoin="round" stroke-dasharray="4 4"/>
<path d="M1010 313V242C1010 233.716 1003.28 227 995 227H649" stroke="#93A9BF" stroke-width="2" stroke-linecap="round" stroke-linejoin="round" stroke-dasharray="4 4"/>
<rect x="487" y="42" width="200" height="100" rx="50" fill="#254BE9"/>
<path d="M523.568 84V98H525.948V84H523.568ZM529.076 84V98H531.476V84H529.076ZM533.596 98C535.022 98 536.276 97.7133 537.356 97.14C538.436 96.5533 539.276 95.74 539.876 94.7C540.489 93.6467 540.796 92.4133 540.796 91C540.796 89.5867 540.489 88.36 539.876 87.32C539.276 86.2667 538.436 85.4533 537.356 84.88C536.276 84.2933 535.022 84 533.596 84H530.536V86.22H533.536C534.229 86.22 534.869 86.32 535.456 86.52C536.042 86.72 536.549 87.02 536.976 87.42C537.416 87.82 537.756 88.32 537.996 88.92C538.249 89.52 538.376 90.2133 538.376 91C538.376 91.7867 538.249 92.48 537.996 93.08C537.756 93.68 537.416 94.18 536.976 94.58C536.549 94.98 536.042 95.28 535.456 95.48C534.869 95.68 534.229 95.78 533.536 95.78H530.536V98H533.596ZM553.319 84V93.4L543.099 83.3V98H545.419V88.6L555.639 98.7V84H553.319ZM566.48 91C566.48 90 566.7 89.1333 567.14 88.4C567.593 87.6533 568.18 87.08 568.9 86.68C569.633 86.2667 570.426 86.06 571.28 86.06C571.946 86.06 572.546 86.1467 573.08 86.32C573.613 86.4933 574.093 86.7333 574.52 87.04C574.96 87.3333 575.34 87.6667 575.66 88.04V85.24C575.073 84.76 574.44 84.3933 573.76 84.14C573.08 83.8867 572.226 83.76 571.2 83.76C570.173 83.76 569.213 83.9333 568.32 84.28C567.44 84.6267 566.673 85.1267 566.02 85.78C565.366 86.4333 564.853 87.2067 564.48 88.1C564.12 88.98 563.94 89.9467 563.94 91C563.94 92.0533 564.12 93.0267 564.48 93.92C564.853 94.8 565.366 95.5667 566.02 96.22C566.673 96.8733 567.44 97.3733 568.32 97.72C569.213 98.0667 570.173 98.24 571.2 98.24C572.226 98.24 573.08 98.1133 573.76 97.86C574.44 97.6067 575.073 97.24 575.66 96.76V93.96C575.34 94.3333 574.96 94.6733 574.52 94.98C574.093 95.2733 573.613 95.5067 573.08 95.68C572.546 95.8533 571.946 95.94 571.28 95.94C570.426 95.94 569.633 95.74 568.9 95.34C568.18 94.9267 567.593 94.3467 567.14 93.6C566.7 92.8533 566.48 91.9867 566.48 91ZM577.688 93.4C577.688 94.3333 577.901 95.1667 578.328 95.9C578.768 96.62 579.361 97.1867 580.108 97.6C580.854 98 581.701 98.2 582.648 98.2C583.594 98.2 584.434 98 585.168 97.6C585.914 97.1867 586.508 96.62 586.948 95.9C587.388 95.1667 587.608 94.3333 587.608 93.4C587.608 92.4533 587.388 91.62 586.948 90.9C586.508 90.18 585.914 89.62 585.168 89.22C584.434 88.8067 583.594 88.6 582.648 88.6C581.701 88.6 580.854 88.8067 580.108 89.22C579.361 89.62 578.768 90.18 578.328 90.9C577.901 91.62 577.688 92.4533 577.688 93.4ZM579.908 93.4C579.908 92.8267 580.028 92.32 580.268 91.88C580.508 91.44 580.834 91.1 581.248 90.86C581.661 90.62 582.128 90.5 582.648 90.5C583.154 90.5 583.614 90.62 584.028 90.86C584.454 91.1 584.788 91.44 585.028 91.88C585.268 92.32 585.388 92.8267 585.388 93.4C585.388 93.9733 585.268 94.48 585.028 94.92C584.788 95.3467 584.454 95.6867 584.028 95.94C583.614 96.18 583.154 96.3 582.648 96.3C582.128 96.3 581.661 96.18 581.248 95.94C580.834 95.6867 580.508 95.3467 580.268 94.92C580.028 94.48 579.908 93.9733 579.908 93.4ZM595.577 92.4V98H597.797V92.16C597.797 91.0533 597.524 90.1867 596.977 89.56C596.431 88.92 595.637 88.6 594.597 88.6C593.957 88.6 593.404 88.7333 592.937 89C592.484 89.2667 592.111 89.6733 591.817 90.22V88.8H589.657V98H591.817V92.4C591.817 91.9867 591.904 91.6267 592.077 91.32C592.251 91 592.491 90.76 592.797 90.6C593.104 90.4267 593.457 90.34 593.857 90.34C594.444 90.34 594.877 90.5133 595.157 90.86C595.437 91.2067 595.577 91.72 595.577 92.4ZM599.276 88.8V90.7H604.496V88.8H599.276ZM600.816 85.6V98H602.956V85.6H600.816ZM608.125 88.8H605.985V98H608.125V88.8ZM610.865 91.1L611.905 89.28C611.705 89.0267 611.459 88.8533 611.165 88.76C610.872 88.6533 610.559 88.6 610.225 88.6C609.759 88.6 609.305 88.7667 608.865 89.1C608.439 89.4333 608.085 89.8867 607.805 90.46C607.539 91.02 607.405 91.6667 607.405 92.4L608.125 92.82C608.125 92.38 608.172 92 608.265 91.68C608.372 91.3467 608.539 91.0867 608.765 90.9C608.992 90.7133 609.285 90.62 609.645 90.62C609.912 90.62 610.132 90.66 610.305 90.74C610.479 90.82 610.665 90.94 610.865 91.1ZM612.395 93.4C612.395 94.3333 612.608 95.1667 613.035 95.9C613.475 96.62 614.068 97.1867 614.815 97.6C615.562 98 616.408 98.2 617.355 98.2C618.302 98.2 619.142 98 619.875 97.6C620.622 97.1867 621.215 96.62 621.655 95.9C622.095 95.1667 622.315 94.3333 622.315 93.4C622.315 92.4533 622.095 91.62 621.655 90.9C621.215 90.18 620.622 89.62 619.875 89.22C619.142 88.8067 618.302 88.6 617.355 88.6C616.408 88.6 615.562 88.8067 614.815 89.22C614.068 89.62 613.475 90.18 613.035 90.9C612.608 91.62 612.395 92.4533 612.395 93.4ZM614.615 93.4C614.615 92.8267 614.735 92.32 614.975 91.88C615.215 91.44 615.542 91.1 615.955 90.86C616.368 90.62 616.835 90.5 617.355 90.5C617.862 90.5 618.322 90.62 618.735 90.86C619.162 91.1 619.495 91.44 619.735 91.88C619.975 92.32 620.095 92.8267 620.095 93.4C620.095 93.9733 619.975 94.48 619.735 94.92C619.495 95.3467 619.162 95.6867 618.735 95.94C618.322 96.18 617.862 96.3 617.355 96.3C616.835 96.3 616.368 96.18 615.955 95.94C615.542 95.6867 615.215 95.3467 614.975 94.92C614.735 94.48 614.615 93.9733 614.615 93.4ZM624.364 82.4V98H626.524V82.4H624.364ZM629.286 82.4V98H631.446V82.4H629.286ZM638.208 98.2C639.275 98.2 640.188 97.9933 640.948 97.58C641.708 97.1667 642.328 96.5467 642.808 95.72L640.948 94.96C640.655 95.4533 640.288 95.82 639.848 96.06C639.408 96.3 638.895 96.42 638.308 96.42C637.748 96.42 637.268 96.3 636.868 96.06C636.481 95.82 636.188 95.4733 635.988 95.02C635.788 94.5533 635.688 93.9867 635.688 93.32C635.701 92.6533 635.808 92.0933 636.008 91.64C636.208 91.1867 636.501 90.84 636.888 90.6C637.275 90.36 637.741 90.24 638.288 90.24C638.741 90.24 639.135 90.34 639.468 90.54C639.815 90.74 640.081 91.02 640.268 91.38C640.468 91.74 640.568 92.1667 640.568 92.66C640.568 92.7533 640.541 92.8733 640.488 93.02C640.448 93.1533 640.408 93.26 640.368 93.34L641.028 92.42H634.788V93.9H642.868C642.881 93.8467 642.888 93.76 642.888 93.64C642.901 93.52 642.908 93.4067 642.908 93.3C642.908 92.3133 642.721 91.4733 642.348 90.78C641.988 90.0733 641.468 89.5333 640.788 89.16C640.108 88.7867 639.281 88.6 638.308 88.6C637.335 88.6 636.488 88.8 635.768 89.2C635.048 89.5867 634.488 90.14 634.088 90.86C633.701 91.58 633.508 92.4267 633.508 93.4C633.508 94.36 633.701 95.2 634.088 95.92C634.475 96.64 635.021 97.2 635.728 97.6C636.448 98 637.275 98.2 638.208 98.2ZM647.11 88.8H644.97V98H647.11V88.8ZM649.85 91.1L650.89 89.28C650.69 89.0267 650.443 88.8533 650.15 88.76C649.857 88.6533 649.543 88.6 649.21 88.6C648.743 88.6 648.29 88.7667 647.85 89.1C647.423 89.4333 647.07 89.8867 646.79 90.46C646.523 91.02 646.39 91.6667 646.39 92.4L647.11 92.82C647.11 92.38 647.157 92 647.25 91.68C647.357 91.3467 647.523 91.0867 647.75 90.9C647.977 90.7133 648.27 90.62 648.63 90.62C648.897 90.62 649.117 90.66 649.29 90.74C649.463 90.82 649.65 90.94 649.85 91.1Z" fill="white"/>
<path d="M481 91L432 91M432 91L440 99M432 91L440 83" stroke="#4476F8" stroke-width="2" stroke-linecap="round" stroke-linejoin="round"/>
<circle cx="586.5" cy="141.5" r="12.5" fill="#44A0F8" stroke="white" stroke-width="2"/>
<path d="M385.125 82.125C400.658 82.125 413.25 75.829 413.25 68.0625C413.25 60.296 400.658 54 385.125 54C369.592 54 357 60.296 357 68.0625C357 75.829 369.592 82.125 385.125 82.125Z" stroke="#93A9BF" stroke-width="4" stroke-miterlimit="10" stroke-linecap="round" stroke-linejoin="round"/>
<path d="M357 68.0625V90.5625C357 98.4375 369.656 104.625 385.125 104.625C400.594 104.625 413.25 98.4375 413.25 90.5625V68.0625" stroke="#93A9BF" stroke-width="4" stroke-miterlimit="10" stroke-linecap="round" stroke-linejoin="round"/>
<path d="M357 90.5625V113.062C357 120.937 369.656 127.125 385.125 127.125C400.594 127.125 413.25 120.937 413.25 113.062V90.5625" stroke="#93A9BF" stroke-width="4" stroke-miterlimit="10" stroke-linecap="round" stroke-linejoin="round"/>
<circle cx="416.5" cy="90.5" r="12.5" fill="#44A0F8" stroke="white" stroke-width="2"/>
<circle cx="53.5" cy="627.5" r="12.5" fill="#44A0F8" stroke="white" stroke-width="2"/>
<path d="M77.8971 627.4C77.8971 626.632 78.0571 625.949 78.3771 625.352C78.7077 624.744 79.1611 624.269 79.7371 623.928C80.3131 623.587 80.9691 623.416 81.7051 623.416C82.4624 623.416 83.1237 623.587 83.6891 623.928C84.2651 624.269 84.7131 624.744 85.0331 625.352C85.3531 625.949 85.5131 626.632 85.5131 627.4C85.5131 628.168 85.3477 628.856 85.0171 629.464C84.6971 630.061 84.2491 630.531 83.6731 630.872C83.1077 631.213 82.4517 631.384 81.7051 631.384C80.9691 631.384 80.3131 631.213 79.7371 630.872C79.1611 630.531 78.7077 630.061 78.3771 629.464C78.0571 628.856 77.8971 628.168 77.8971 627.4ZM75.8971 627.4C75.8971 628.232 76.0411 629.005 76.3291 629.72C76.6171 630.435 77.0171 631.053 77.5291 631.576C78.0517 632.099 78.6704 632.509 79.3851 632.808C80.0997 633.096 80.8731 633.24 81.7051 633.24C82.5477 633.24 83.3211 633.096 84.0251 632.808C84.7397 632.509 85.3584 632.099 85.8811 631.576C86.4037 631.053 86.8091 630.435 87.0971 629.72C87.3851 629.005 87.5291 628.232 87.5291 627.4C87.5291 626.557 87.3851 625.784 87.0971 625.08C86.8091 624.376 86.3984 623.768 85.8651 623.256C85.3424 622.733 84.7291 622.328 84.0251 622.04C83.3211 621.752 82.5477 621.608 81.7051 621.608C80.8837 621.608 80.1157 621.752 79.4011 622.04C78.6971 622.328 78.0784 622.733 77.5451 623.256C77.0224 623.768 76.6171 624.376 76.3291 625.08C76.0411 625.784 75.8971 626.557 75.8971 627.4ZM90.9012 636.52V625.64H89.1572V636.52H90.9012ZM96.9972 629.32C96.9972 628.499 96.8319 627.8 96.5012 627.224C96.1705 626.648 95.7332 626.211 95.1892 625.912C94.6452 625.603 94.0532 625.448 93.4132 625.448C92.7839 625.448 92.2345 625.608 91.7652 625.928C91.3065 626.237 90.9492 626.68 90.6932 627.256C90.4479 627.832 90.3252 628.52 90.3252 629.32C90.3252 630.109 90.4479 630.797 90.6932 631.384C90.9492 631.96 91.3065 632.408 91.7652 632.728C92.2345 633.037 92.7839 633.192 93.4132 633.192C94.0532 633.192 94.6452 633.043 95.1892 632.744C95.7332 632.435 96.1705 631.992 96.5012 631.416C96.8319 630.829 96.9972 630.131 96.9972 629.32ZM95.2052 629.32C95.2052 629.811 95.1039 630.232 94.9012 630.584C94.6985 630.925 94.4265 631.187 94.0852 631.368C93.7545 631.539 93.3865 631.624 92.9812 631.624C92.6505 631.624 92.3252 631.539 92.0052 631.368C91.6852 631.187 91.4185 630.925 91.2052 630.584C91.0025 630.243 90.9012 629.821 90.9012 629.32C90.9012 628.819 91.0025 628.397 91.2052 628.056C91.4185 627.715 91.6852 627.459 92.0052 627.288C92.3252 627.107 92.6505 627.016 92.9812 627.016C93.3865 627.016 93.7545 627.107 94.0852 627.288C94.4265 627.459 94.6985 627.72 94.9012 628.072C95.1039 628.413 95.2052 628.829 95.2052 629.32ZM101.843 633.16C102.696 633.16 103.427 632.995 104.035 632.664C104.643 632.333 105.139 631.837 105.523 631.176L104.035 630.568C103.8 630.963 103.507 631.256 103.155 631.448C102.803 631.64 102.392 631.736 101.923 631.736C101.475 631.736 101.091 631.64 100.771 631.448C100.462 631.256 100.227 630.979 100.067 630.616C99.9071 630.243 99.8271 629.789 99.8271 629.256C99.8377 628.723 99.9231 628.275 100.083 627.912C100.243 627.549 100.478 627.272 100.787 627.08C101.096 626.888 101.47 626.792 101.907 626.792C102.27 626.792 102.584 626.872 102.851 627.032C103.128 627.192 103.342 627.416 103.491 627.704C103.651 627.992 103.731 628.333 103.731 628.728C103.731 628.803 103.71 628.899 103.667 629.016C103.635 629.123 103.603 629.208 103.571 629.272L104.099 628.536H99.1071V629.72H105.571C105.582 629.677 105.587 629.608 105.587 629.512C105.598 629.416 105.603 629.325 105.603 629.24C105.603 628.451 105.454 627.779 105.155 627.224C104.867 626.659 104.451 626.227 103.907 625.928C103.363 625.629 102.702 625.48 101.923 625.48C101.144 625.48 100.467 625.64 99.8911 625.96C99.3151 626.269 98.8671 626.712 98.5471 627.288C98.2377 627.864 98.0831 628.541 98.0831 629.32C98.0831 630.088 98.2377 630.76 98.5471 631.336C98.8564 631.912 99.2937 632.36 99.8591 632.68C100.435 633 101.096 633.16 101.843 633.16ZM111.988 628.52V633H113.764V628.328C113.764 627.443 113.546 626.749 113.108 626.248C112.671 625.736 112.036 625.48 111.204 625.48C110.692 625.48 110.25 625.587 109.876 625.8C109.514 626.013 109.215 626.339 108.98 626.776V625.64H107.252V633H108.98V628.52C108.98 628.189 109.05 627.901 109.188 627.656C109.327 627.4 109.519 627.208 109.764 627.08C110.01 626.941 110.292 626.872 110.612 626.872C111.082 626.872 111.428 627.011 111.652 627.288C111.876 627.565 111.988 627.976 111.988 628.52ZM120.912 621.8V633H122.8V621.8H120.912ZM122.032 623.464H124.288C124.939 623.464 125.461 623.619 125.856 623.928C126.251 624.227 126.448 624.675 126.448 625.272C126.448 625.869 126.251 626.323 125.856 626.632C125.461 626.941 124.939 627.096 124.288 627.096H122.032V628.76H124.288C125.099 628.76 125.803 628.621 126.4 628.344C127.008 628.056 127.477 627.651 127.808 627.128C128.139 626.605 128.304 625.987 128.304 625.272C128.304 624.557 128.139 623.944 127.808 623.432C127.477 622.909 127.008 622.509 126.4 622.232C125.803 621.944 125.099 621.8 124.288 621.8H122.032V623.464ZM128.974 629.32C128.974 630.067 129.144 630.733 129.486 631.32C129.838 631.896 130.312 632.349 130.91 632.68C131.507 633 132.184 633.16 132.942 633.16C133.699 633.16 134.371 633 134.958 632.68C135.555 632.349 136.03 631.896 136.382 631.32C136.734 630.733 136.91 630.067 136.91 629.32C136.91 628.563 136.734 627.896 136.382 627.32C136.03 626.744 135.555 626.296 134.958 625.976C134.371 625.645 133.699 625.48 132.942 625.48C132.184 625.48 131.507 625.645 130.91 625.976C130.312 626.296 129.838 626.744 129.486 627.32C129.144 627.896 128.974 628.563 128.974 629.32ZM130.75 629.32C130.75 628.861 130.846 628.456 131.038 628.104C131.23 627.752 131.491 627.48 131.822 627.288C132.152 627.096 132.526 627 132.942 627C133.347 627 133.715 627.096 134.046 627.288C134.387 627.48 134.654 627.752 134.846 628.104C135.038 628.456 135.134 628.861 135.134 629.32C135.134 629.779 135.038 630.184 134.846 630.536C134.654 630.877 134.387 631.149 134.046 631.352C133.715 631.544 133.347 631.64 132.942 631.64C132.526 631.64 132.152 631.544 131.822 631.352C131.491 631.149 131.23 630.877 131.038 630.536C130.846 630.184 130.75 629.779 130.75 629.32ZM140.261 625.64H138.549V633H140.261V625.64ZM142.453 627.48L143.285 626.024C143.125 625.821 142.928 625.683 142.693 625.608C142.459 625.523 142.208 625.48 141.941 625.48C141.568 625.48 141.205 625.613 140.853 625.88C140.512 626.147 140.229 626.509 140.005 626.968C139.792 627.416 139.685 627.933 139.685 628.52L140.261 628.856C140.261 628.504 140.299 628.2 140.373 627.944C140.459 627.677 140.592 627.469 140.773 627.32C140.955 627.171 141.189 627.096 141.477 627.096C141.691 627.096 141.867 627.128 142.005 627.192C142.144 627.256 142.293 627.352 142.453 627.48ZM143.447 625.64V627.16H147.623V625.64H143.447ZM144.679 623.08V633H146.391V623.08H144.679Z" fill="#93A9BF"/>
</svg>
