<svg width="1170" height="680" viewBox="0 0 1170 680" fill="none" xmlns="http://www.w3.org/2000/svg">
<rect width="1170" height="680" fill="white"/>
<circle cx="53.5" cy="626.5" r="12.5" fill="#44A0F8" stroke="white" stroke-width="2"/>
<path d="M77.8971 626.4C77.8971 625.632 78.0571 624.949 78.3771 624.352C78.7077 623.744 79.1611 623.269 79.7371 622.928C80.3131 622.587 80.9691 622.416 81.7051 622.416C82.4624 622.416 83.1237 622.587 83.6891 622.928C84.2651 623.269 84.7131 623.744 85.0331 624.352C85.3531 624.949 85.5131 625.632 85.5131 626.4C85.5131 627.168 85.3477 627.856 85.0171 628.464C84.6971 629.061 84.2491 629.531 83.6731 629.872C83.1077 630.213 82.4517 630.384 81.7051 630.384C80.9691 630.384 80.3131 630.213 79.7371 629.872C79.1611 629.531 78.7077 629.061 78.3771 628.464C78.0571 627.856 77.8971 627.168 77.8971 626.4ZM75.8971 626.4C75.8971 627.232 76.0411 628.005 76.3291 628.72C76.6171 629.435 77.0171 630.053 77.5291 630.576C78.0517 631.099 78.6704 631.509 79.3851 631.808C80.0997 632.096 80.8731 632.24 81.7051 632.24C82.5477 632.24 83.3211 632.096 84.0251 631.808C84.7397 631.509 85.3584 631.099 85.8811 630.576C86.4037 630.053 86.8091 629.435 87.0971 628.72C87.3851 628.005 87.5291 627.232 87.5291 626.4C87.5291 625.557 87.3851 624.784 87.0971 624.08C86.8091 623.376 86.3984 622.768 85.8651 622.256C85.3424 621.733 84.7291 621.328 84.0251 621.04C83.3211 620.752 82.5477 620.608 81.7051 620.608C80.8837 620.608 80.1157 620.752 79.4011 621.04C78.6971 621.328 78.0784 621.733 77.5451 622.256C77.0224 622.768 76.6171 623.376 76.3291 624.08C76.0411 624.784 75.8971 625.557 75.8971 626.4ZM90.9012 635.52V624.64H89.1572V635.52H90.9012ZM96.9972 628.32C96.9972 627.499 96.8319 626.8 96.5012 626.224C96.1705 625.648 95.7332 625.211 95.1892 624.912C94.6452 624.603 94.0532 624.448 93.4132 624.448C92.7839 624.448 92.2345 624.608 91.7652 624.928C91.3065 625.237 90.9492 625.68 90.6932 626.256C90.4479 626.832 90.3252 627.52 90.3252 628.32C90.3252 629.109 90.4479 629.797 90.6932 630.384C90.9492 630.96 91.3065 631.408 91.7652 631.728C92.2345 632.037 92.7839 632.192 93.4132 632.192C94.0532 632.192 94.6452 632.043 95.1892 631.744C95.7332 631.435 96.1705 630.992 96.5012 630.416C96.8319 629.829 96.9972 629.131 96.9972 628.32ZM95.2052 628.32C95.2052 628.811 95.1039 629.232 94.9012 629.584C94.6985 629.925 94.4265 630.187 94.0852 630.368C93.7545 630.539 93.3865 630.624 92.9812 630.624C92.6505 630.624 92.3252 630.539 92.0052 630.368C91.6852 630.187 91.4185 629.925 91.2052 629.584C91.0025 629.243 90.9012 628.821 90.9012 628.32C90.9012 627.819 91.0025 627.397 91.2052 627.056C91.4185 626.715 91.6852 626.459 92.0052 626.288C92.3252 626.107 92.6505 626.016 92.9812 626.016C93.3865 626.016 93.7545 626.107 94.0852 626.288C94.4265 626.459 94.6985 626.72 94.9012 627.072C95.1039 627.413 95.2052 627.829 95.2052 628.32ZM101.843 632.16C102.696 632.16 103.427 631.995 104.035 631.664C104.643 631.333 105.139 630.837 105.523 630.176L104.035 629.568C103.8 629.963 103.507 630.256 103.155 630.448C102.803 630.64 102.392 630.736 101.923 630.736C101.475 630.736 101.091 630.64 100.771 630.448C100.462 630.256 100.227 629.979 100.067 629.616C99.9071 629.243 99.8271 628.789 99.8271 628.256C99.8377 627.723 99.9231 627.275 100.083 626.912C100.243 626.549 100.478 626.272 100.787 626.08C101.096 625.888 101.47 625.792 101.907 625.792C102.27 625.792 102.584 625.872 102.851 626.032C103.128 626.192 103.342 626.416 103.491 626.704C103.651 626.992 103.731 627.333 103.731 627.728C103.731 627.803 103.71 627.899 103.667 628.016C103.635 628.123 103.603 628.208 103.571 628.272L104.099 627.536H99.1071V628.72H105.571C105.582 628.677 105.587 628.608 105.587 628.512C105.598 628.416 105.603 628.325 105.603 628.24C105.603 627.451 105.454 626.779 105.155 626.224C104.867 625.659 104.451 625.227 103.907 624.928C103.363 624.629 102.702 624.48 101.923 624.48C101.144 624.48 100.467 624.64 99.8911 624.96C99.3151 625.269 98.8671 625.712 98.5471 626.288C98.2377 626.864 98.0831 627.541 98.0831 628.32C98.0831 629.088 98.2377 629.76 98.5471 630.336C98.8564 630.912 99.2937 631.36 99.8591 631.68C100.435 632 101.096 632.16 101.843 632.16ZM111.988 627.52V632H113.764V627.328C113.764 626.443 113.546 625.749 113.108 625.248C112.671 624.736 112.036 624.48 111.204 624.48C110.692 624.48 110.25 624.587 109.876 624.8C109.514 625.013 109.215 625.339 108.98 625.776V624.64H107.252V632H108.98V627.52C108.98 627.189 109.05 626.901 109.188 626.656C109.327 626.4 109.519 626.208 109.764 626.08C110.01 625.941 110.292 625.872 110.612 625.872C111.082 625.872 111.428 626.011 111.652 626.288C111.876 626.565 111.988 626.976 111.988 627.52ZM120.912 620.8V632H122.8V620.8H120.912ZM122.032 622.464H124.288C124.939 622.464 125.461 622.619 125.856 622.928C126.251 623.227 126.448 623.675 126.448 624.272C126.448 624.869 126.251 625.323 125.856 625.632C125.461 625.941 124.939 626.096 124.288 626.096H122.032V627.76H124.288C125.099 627.76 125.803 627.621 126.4 627.344C127.008 627.056 127.477 626.651 127.808 626.128C128.139 625.605 128.304 624.987 128.304 624.272C128.304 623.557 128.139 622.944 127.808 622.432C127.477 621.909 127.008 621.509 126.4 621.232C125.803 620.944 125.099 620.8 124.288 620.8H122.032V622.464ZM128.974 628.32C128.974 629.067 129.144 629.733 129.486 630.32C129.838 630.896 130.312 631.349 130.91 631.68C131.507 632 132.184 632.16 132.942 632.16C133.699 632.16 134.371 632 134.958 631.68C135.555 631.349 136.03 630.896 136.382 630.32C136.734 629.733 136.91 629.067 136.91 628.32C136.91 627.563 136.734 626.896 136.382 626.32C136.03 625.744 135.555 625.296 134.958 624.976C134.371 624.645 133.699 624.48 132.942 624.48C132.184 624.48 131.507 624.645 130.91 624.976C130.312 625.296 129.838 625.744 129.486 626.32C129.144 626.896 128.974 627.563 128.974 628.32ZM130.75 628.32C130.75 627.861 130.846 627.456 131.038 627.104C131.23 626.752 131.491 626.48 131.822 626.288C132.152 626.096 132.526 626 132.942 626C133.347 626 133.715 626.096 134.046 626.288C134.387 626.48 134.654 626.752 134.846 627.104C135.038 627.456 135.134 627.861 135.134 628.32C135.134 628.779 135.038 629.184 134.846 629.536C134.654 629.877 134.387 630.149 134.046 630.352C133.715 630.544 133.347 630.64 132.942 630.64C132.526 630.64 132.152 630.544 131.822 630.352C131.491 630.149 131.23 629.877 131.038 629.536C130.846 629.184 130.75 628.779 130.75 628.32ZM140.261 624.64H138.549V632H140.261V624.64ZM142.453 626.48L143.285 625.024C143.125 624.821 142.928 624.683 142.693 624.608C142.459 624.523 142.208 624.48 141.941 624.48C141.568 624.48 141.205 624.613 140.853 624.88C140.512 625.147 140.229 625.509 140.005 625.968C139.792 626.416 139.685 626.933 139.685 627.52L140.261 627.856C140.261 627.504 140.299 627.2 140.373 626.944C140.459 626.677 140.592 626.469 140.773 626.32C140.955 626.171 141.189 626.096 141.477 626.096C141.691 626.096 141.867 626.128 142.005 626.192C142.144 626.256 142.293 626.352 142.453 626.48ZM143.447 624.64V626.16H147.623V624.64H143.447ZM144.679 622.08V632H146.391V622.08H144.679Z" fill="#93A9BF"/>
<path d="M404 132C426.091 132 444 114.091 444 92C444 69.9086 426.091 52 404 52C381.909 52 364 69.9086 364 92C364 114.091 381.909 132 404 132Z" stroke="#93A9BF" stroke-width="4" stroke-miterlimit="10" stroke-linecap="round" stroke-linejoin="round"/>
<path d="M404 97.7145C411.89 97.7145 418.286 91.3186 418.286 83.4288C418.286 75.539 411.89 69.1431 404 69.1431C396.11 69.1431 389.714 75.539 389.714 83.4288C389.714 91.3186 396.11 97.7145 404 97.7145Z" stroke="#93A9BF" stroke-width="4" stroke-miterlimit="10" stroke-linecap="round" stroke-linejoin="round"/>
<path d="M373.714 118C378.857 106.286 390.286 98.0005 404 98.0005C417.714 98.0005 429.429 106.286 434.286 118" stroke="#93A9BF" stroke-width="4" stroke-miterlimit="10" stroke-linecap="round" stroke-linejoin="round"/>
<rect x="797" y="42" width="200" height="100" rx="50" fill="#254BE9"/>
<path d="M871.242 93.84L867.122 84H864.402L871.242 98.78L878.082 84H875.362L871.242 93.84ZM881.929 98.2C882.995 98.2 883.909 97.9933 884.669 97.58C885.429 97.1667 886.049 96.5467 886.529 95.72L884.669 94.96C884.375 95.4533 884.009 95.82 883.569 96.06C883.129 96.3 882.615 96.42 882.029 96.42C881.469 96.42 880.989 96.3 880.589 96.06C880.202 95.82 879.909 95.4733 879.709 95.02C879.509 94.5533 879.409 93.9867 879.409 93.32C879.422 92.6533 879.529 92.0933 879.729 91.64C879.929 91.1867 880.222 90.84 880.609 90.6C880.995 90.36 881.462 90.24 882.009 90.24C882.462 90.24 882.855 90.34 883.189 90.54C883.535 90.74 883.802 91.02 883.989 91.38C884.189 91.74 884.289 92.1667 884.289 92.66C884.289 92.7533 884.262 92.8733 884.209 93.02C884.169 93.1533 884.129 93.26 884.089 93.34L884.749 92.42H878.509V93.9H886.589C886.602 93.8467 886.609 93.76 886.609 93.64C886.622 93.52 886.629 93.4067 886.629 93.3C886.629 92.3133 886.442 91.4733 886.069 90.78C885.709 90.0733 885.189 89.5333 884.509 89.16C883.829 88.7867 883.002 88.6 882.029 88.6C881.055 88.6 880.209 88.8 879.489 89.2C878.769 89.5867 878.209 90.14 877.809 90.86C877.422 91.58 877.229 92.4267 877.229 93.4C877.229 94.36 877.422 95.2 877.809 95.92C878.195 96.64 878.742 97.2 879.449 97.6C880.169 98 880.995 98.2 881.929 98.2ZM894.611 92.4V98H896.831V92.16C896.831 91.0533 896.557 90.1867 896.011 89.56C895.464 88.92 894.671 88.6 893.631 88.6C892.991 88.6 892.437 88.7333 891.971 89C891.517 89.2667 891.144 89.6733 890.851 90.22V88.8H888.691V98H890.851V92.4C890.851 91.9867 890.937 91.6267 891.111 91.32C891.284 91 891.524 90.76 891.831 90.6C892.137 90.4267 892.491 90.34 892.891 90.34C893.477 90.34 893.911 90.5133 894.191 90.86C894.471 91.2067 894.611 91.72 894.611 92.4ZM906.509 82.4V98H908.689V82.4H906.509ZM898.889 93.4C898.889 94.4 899.096 95.26 899.509 95.98C899.922 96.7 900.469 97.2533 901.149 97.64C901.842 98.0133 902.582 98.2 903.369 98.2C904.142 98.2 904.816 98.0067 905.389 97.62C905.976 97.2333 906.436 96.68 906.769 95.96C907.116 95.24 907.289 94.3867 907.289 93.4C907.289 92.4 907.116 91.5467 906.769 90.84C906.436 90.12 905.976 89.5667 905.389 89.18C904.816 88.7933 904.142 88.6 903.369 88.6C902.582 88.6 901.842 88.7933 901.149 89.18C900.469 89.5533 899.922 90.1 899.509 90.82C899.096 91.5267 898.889 92.3867 898.889 93.4ZM901.129 93.4C901.129 92.7867 901.256 92.26 901.509 91.82C901.762 91.38 902.096 91.0467 902.509 90.82C902.936 90.5933 903.396 90.48 903.889 90.48C904.302 90.48 904.709 90.5933 905.109 90.82C905.522 91.0467 905.856 91.38 906.109 91.82C906.376 92.2467 906.509 92.7733 906.509 93.4C906.509 94.0267 906.376 94.56 906.109 95C905.856 95.4267 905.522 95.7533 905.109 95.98C904.709 96.2067 904.302 96.32 903.889 96.32C903.396 96.32 902.936 96.2067 902.509 95.98C902.096 95.7533 901.762 95.42 901.509 94.98C901.256 94.54 901.129 94.0133 901.129 93.4ZM910.666 93.4C910.666 94.3333 910.88 95.1667 911.306 95.9C911.746 96.62 912.34 97.1867 913.086 97.6C913.833 98 914.68 98.2 915.626 98.2C916.573 98.2 917.413 98 918.146 97.6C918.893 97.1867 919.486 96.62 919.926 95.9C920.366 95.1667 920.586 94.3333 920.586 93.4C920.586 92.4533 920.366 91.62 919.926 90.9C919.486 90.18 918.893 89.62 918.146 89.22C917.413 88.8067 916.573 88.6 915.626 88.6C914.68 88.6 913.833 88.8067 913.086 89.22C912.34 89.62 911.746 90.18 911.306 90.9C910.88 91.62 910.666 92.4533 910.666 93.4ZM912.886 93.4C912.886 92.8267 913.006 92.32 913.246 91.88C913.486 91.44 913.813 91.1 914.226 90.86C914.64 90.62 915.106 90.5 915.626 90.5C916.133 90.5 916.593 90.62 917.006 90.86C917.433 91.1 917.766 91.44 918.006 91.88C918.246 92.32 918.366 92.8267 918.366 93.4C918.366 93.9733 918.246 94.48 918.006 94.92C917.766 95.3467 917.433 95.6867 917.006 95.94C916.593 96.18 916.133 96.3 915.626 96.3C915.106 96.3 914.64 96.18 914.226 95.94C913.813 95.6867 913.486 95.3467 913.246 94.92C913.006 94.48 912.886 93.9733 912.886 93.4ZM924.776 88.8H922.636V98H924.776V88.8ZM927.516 91.1L928.556 89.28C928.356 89.0267 928.109 88.8533 927.816 88.76C927.523 88.6533 927.209 88.6 926.876 88.6C926.409 88.6 925.956 88.7667 925.516 89.1C925.089 89.4333 924.736 89.8867 924.456 90.46C924.189 91.02 924.056 91.6667 924.056 92.4L924.776 92.82C924.776 92.38 924.823 92 924.916 91.68C925.023 91.3467 925.189 91.0867 925.416 90.9C925.643 90.7133 925.936 90.62 926.296 90.62C926.563 90.62 926.783 90.66 926.956 90.74C927.129 90.82 927.316 90.94 927.516 91.1Z" fill="white"/>
<circle cx="799.5" cy="92.5" r="12.5" fill="#44A0F8" stroke="white" stroke-width="2"/>
<path d="M1003 92L1052 92M1052 92L1044 100M1052 92L1044 84" stroke="#4476F8" stroke-width="2" stroke-linecap="round" stroke-linejoin="round"/>
<path d="M1098.88 83.125C1083.34 83.125 1070.75 76.829 1070.75 69.0625C1070.75 61.296 1083.34 55 1098.88 55C1114.41 55 1127 61.296 1127 69.0625C1127 76.829 1114.41 83.125 1098.88 83.125Z" stroke="#93A9BF" stroke-width="4" stroke-miterlimit="10" stroke-linecap="round" stroke-linejoin="round"/>
<path d="M1127 69.0625V91.5625C1127 99.4375 1114.34 105.625 1098.88 105.625C1083.41 105.625 1070.75 99.4375 1070.75 91.5625V69.0625" stroke="#93A9BF" stroke-width="4" stroke-miterlimit="10" stroke-linecap="round" stroke-linejoin="round"/>
<path d="M1127 91.5625V114.062C1127 121.937 1114.34 128.125 1098.88 128.125C1083.41 128.125 1070.75 121.937 1070.75 114.062V91.5625" stroke="#93A9BF" stroke-width="4" stroke-miterlimit="10" stroke-linecap="round" stroke-linejoin="round"/>
<circle r="12.5" transform="matrix(-1 0 0 1 1067.5 91.5)" fill="#44A0F8" stroke="white" stroke-width="2"/>
<path d="M680 107L778 107M778 107L770 99M778 107L770 115" stroke="#93A9BF" stroke-width="2" stroke-linecap="round" stroke-linejoin="round" stroke-dasharray="4 4"/>
<path d="M456 107L551 107" stroke="#93A9BF" stroke-width="2" stroke-linecap="round" stroke-linejoin="round" stroke-dasharray="4 4"/>
<path d="M562.334 109.12H568.254L567.886 107.52H562.686L562.334 109.12ZM565.262 103.968L567.038 108.128L567.086 108.592L568.606 112H570.734L565.262 100.176L559.79 112H561.918L563.47 108.496L563.502 108.08L565.262 103.968ZM573.045 108.32C573.045 107.861 573.146 107.456 573.349 107.104C573.552 106.752 573.824 106.475 574.165 106.272C574.517 106.069 574.906 105.968 575.333 105.968C575.674 105.968 576.005 106.021 576.325 106.128C576.645 106.235 576.928 106.384 577.173 106.576C577.429 106.757 577.616 106.971 577.733 107.216V105.312C577.477 105.056 577.13 104.853 576.693 104.704C576.256 104.555 575.776 104.48 575.253 104.48C574.496 104.48 573.813 104.645 573.205 104.976C572.608 105.296 572.133 105.744 571.781 106.32C571.44 106.896 571.269 107.563 571.269 108.32C571.269 109.067 571.44 109.733 571.781 110.32C572.133 110.896 572.608 111.349 573.205 111.68C573.813 112 574.496 112.16 575.253 112.16C575.776 112.16 576.256 112.085 576.693 111.936C577.13 111.787 577.477 111.584 577.733 111.328V109.424C577.616 109.659 577.434 109.872 577.189 110.064C576.944 110.256 576.661 110.405 576.341 110.512C576.021 110.619 575.685 110.672 575.333 110.672C574.906 110.672 574.517 110.571 574.165 110.368C573.824 110.165 573.552 109.893 573.349 109.552C573.146 109.2 573.045 108.789 573.045 108.32ZM580.795 108.32C580.795 107.861 580.896 107.456 581.099 107.104C581.302 106.752 581.574 106.475 581.915 106.272C582.267 106.069 582.656 105.968 583.083 105.968C583.424 105.968 583.755 106.021 584.075 106.128C584.395 106.235 584.678 106.384 584.923 106.576C585.179 106.757 585.366 106.971 585.483 107.216V105.312C585.227 105.056 584.88 104.853 584.443 104.704C584.006 104.555 583.526 104.48 583.003 104.48C582.246 104.48 581.563 104.645 580.955 104.976C580.358 105.296 579.883 105.744 579.531 106.32C579.19 106.896 579.019 107.563 579.019 108.32C579.019 109.067 579.19 109.733 579.531 110.32C579.883 110.896 580.358 111.349 580.955 111.68C581.563 112 582.246 112.16 583.003 112.16C583.526 112.16 584.006 112.085 584.443 111.936C584.88 111.787 585.227 111.584 585.483 111.328V109.424C585.366 109.659 585.184 109.872 584.939 110.064C584.694 110.256 584.411 110.405 584.091 110.512C583.771 110.619 583.435 110.672 583.083 110.672C582.656 110.672 582.267 110.571 581.915 110.368C581.574 110.165 581.302 109.893 581.099 109.552C580.896 109.2 580.795 108.789 580.795 108.32ZM590.593 112.16C591.446 112.16 592.177 111.995 592.785 111.664C593.393 111.333 593.889 110.837 594.273 110.176L592.785 109.568C592.55 109.963 592.257 110.256 591.905 110.448C591.553 110.64 591.142 110.736 590.673 110.736C590.225 110.736 589.841 110.64 589.521 110.448C589.212 110.256 588.977 109.979 588.817 109.616C588.657 109.243 588.577 108.789 588.577 108.256C588.588 107.723 588.673 107.275 588.833 106.912C588.993 106.549 589.228 106.272 589.537 106.08C589.846 105.888 590.22 105.792 590.657 105.792C591.02 105.792 591.334 105.872 591.601 106.032C591.878 106.192 592.092 106.416 592.241 106.704C592.401 106.992 592.481 107.333 592.481 107.728C592.481 107.803 592.46 107.899 592.417 108.016C592.385 108.123 592.353 108.208 592.321 108.272L592.849 107.536H587.857V108.72H594.321C594.332 108.677 594.337 108.608 594.337 108.512C594.348 108.416 594.353 108.325 594.353 108.24C594.353 107.451 594.204 106.779 593.905 106.224C593.617 105.659 593.201 105.227 592.657 104.928C592.113 104.629 591.452 104.48 590.673 104.48C589.894 104.48 589.217 104.64 588.641 104.96C588.065 105.269 587.617 105.712 587.297 106.288C586.988 106.864 586.833 107.541 586.833 108.32C586.833 109.088 586.988 109.76 587.297 110.336C587.606 110.912 588.044 111.36 588.609 111.68C589.185 112 589.846 112.16 590.593 112.16ZM596.338 109.584L595.33 110.592C595.544 110.869 595.805 111.136 596.114 111.392C596.434 111.637 596.802 111.84 597.218 112C597.645 112.149 598.109 112.224 598.61 112.224C599.421 112.224 600.061 112.016 600.53 111.6C601.01 111.173 601.25 110.613 601.25 109.92C601.25 109.472 601.144 109.109 600.93 108.832C600.728 108.555 600.456 108.32 600.114 108.128C599.773 107.936 599.4 107.76 598.994 107.6C598.696 107.483 598.424 107.371 598.178 107.264C597.944 107.157 597.752 107.04 597.602 106.912C597.464 106.773 597.394 106.619 597.394 106.448C597.394 106.245 597.474 106.091 597.634 105.984C597.794 105.877 597.997 105.824 598.242 105.824C598.605 105.824 598.957 105.915 599.298 106.096C599.64 106.277 599.933 106.512 600.178 106.8L601.138 105.776C600.936 105.531 600.69 105.312 600.402 105.12C600.114 104.928 599.789 104.773 599.426 104.656C599.074 104.539 598.696 104.48 598.29 104.48C597.842 104.48 597.421 104.555 597.026 104.704C596.642 104.843 596.333 105.061 596.098 105.36C595.874 105.659 595.762 106.032 595.762 106.48C595.762 106.917 595.864 107.28 596.066 107.568C596.28 107.856 596.546 108.091 596.866 108.272C597.197 108.443 597.528 108.592 597.858 108.72C598.189 108.837 598.477 108.955 598.722 109.072C598.968 109.179 599.16 109.312 599.298 109.472C599.437 109.621 599.506 109.803 599.506 110.016C599.506 110.261 599.416 110.453 599.234 110.592C599.064 110.731 598.824 110.8 598.514 110.8C598.269 110.8 598.024 110.757 597.778 110.672C597.533 110.576 597.288 110.437 597.042 110.256C596.808 110.064 596.573 109.84 596.338 109.584ZM603.12 109.584L602.112 110.592C602.325 110.869 602.586 111.136 602.896 111.392C603.216 111.637 603.584 111.84 604 112C604.426 112.149 604.89 112.224 605.392 112.224C606.202 112.224 606.842 112.016 607.312 111.6C607.792 111.173 608.032 110.613 608.032 109.92C608.032 109.472 607.925 109.109 607.712 108.832C607.509 108.555 607.237 108.32 606.896 108.128C606.554 107.936 606.181 107.76 605.776 107.6C605.477 107.483 605.205 107.371 604.96 107.264C604.725 107.157 604.533 107.04 604.384 106.912C604.245 106.773 604.176 106.619 604.176 106.448C604.176 106.245 604.256 106.091 604.416 105.984C604.576 105.877 604.778 105.824 605.024 105.824C605.386 105.824 605.738 105.915 606.08 106.096C606.421 106.277 606.714 106.512 606.96 106.8L607.92 105.776C607.717 105.531 607.472 105.312 607.184 105.12C606.896 104.928 606.57 104.773 606.208 104.656C605.856 104.539 605.477 104.48 605.072 104.48C604.624 104.48 604.202 104.555 603.808 104.704C603.424 104.843 603.114 105.061 602.88 105.36C602.656 105.659 602.544 106.032 602.544 106.48C602.544 106.917 602.645 107.28 602.848 107.568C603.061 107.856 603.328 108.091 603.648 108.272C603.978 108.443 604.309 108.592 604.64 108.72C604.97 108.837 605.258 108.955 605.504 109.072C605.749 109.179 605.941 109.312 606.08 109.472C606.218 109.621 606.288 109.803 606.288 110.016C606.288 110.261 606.197 110.453 606.016 110.592C605.845 110.731 605.605 110.8 605.296 110.8C605.05 110.8 604.805 110.757 604.56 110.672C604.314 110.576 604.069 110.437 603.824 110.256C603.589 110.064 603.354 109.84 603.12 109.584ZM616.81 106.656L620.378 112H622.65L618.858 106.656H616.81ZM614.506 100.8V112H616.394V100.8H614.506ZM615.626 102.432H617.882C618.308 102.432 618.682 102.507 619.002 102.656C619.332 102.805 619.588 103.019 619.77 103.296C619.951 103.573 620.042 103.915 620.042 104.32C620.042 104.715 619.951 105.056 619.77 105.344C619.588 105.621 619.332 105.835 619.002 105.984C618.682 106.133 618.308 106.208 617.882 106.208H615.626V107.76H617.962C618.772 107.76 619.476 107.616 620.074 107.328C620.682 107.04 621.151 106.635 621.482 106.112C621.812 105.589 621.978 104.976 621.978 104.272C621.978 103.568 621.812 102.96 621.482 102.448C621.151 101.925 620.682 101.52 620.074 101.232C619.476 100.944 618.772 100.8 617.962 100.8H615.626V102.432ZM627.077 112.16C627.931 112.16 628.661 111.995 629.269 111.664C629.877 111.333 630.373 110.837 630.757 110.176L629.269 109.568C629.035 109.963 628.741 110.256 628.389 110.448C628.037 110.64 627.627 110.736 627.157 110.736C626.709 110.736 626.325 110.64 626.005 110.448C625.696 110.256 625.461 109.979 625.301 109.616C625.141 109.243 625.061 108.789 625.061 108.256C625.072 107.723 625.157 107.275 625.317 106.912C625.477 106.549 625.712 106.272 626.021 106.08C626.331 105.888 626.704 105.792 627.141 105.792C627.504 105.792 627.819 105.872 628.085 106.032C628.363 106.192 628.576 106.416 628.725 106.704C628.885 106.992 628.965 107.333 628.965 107.728C628.965 107.803 628.944 107.899 628.901 108.016C628.869 108.123 628.837 108.208 628.805 108.272L629.333 107.536H624.341V108.72H630.805C630.816 108.677 630.821 108.608 630.821 108.512C630.832 108.416 630.837 108.325 630.837 108.24C630.837 107.451 630.688 106.779 630.389 106.224C630.101 105.659 629.685 105.227 629.141 104.928C628.597 104.629 627.936 104.48 627.157 104.48C626.379 104.48 625.701 104.64 625.125 104.96C624.549 105.269 624.101 105.712 623.781 106.288C623.472 106.864 623.317 107.541 623.317 108.32C623.317 109.088 623.472 109.76 623.781 110.336C624.091 110.912 624.528 111.36 625.093 111.68C625.669 112 626.331 112.16 627.077 112.16ZM638.023 115.52H639.767V104.64H638.023V115.52ZM631.927 108.32C631.927 109.131 632.092 109.829 632.423 110.416C632.753 110.992 633.191 111.435 633.735 111.744C634.289 112.043 634.881 112.192 635.511 112.192C636.14 112.192 636.684 112.037 637.143 111.728C637.601 111.408 637.959 110.96 638.215 110.384C638.471 109.797 638.599 109.109 638.599 108.32C638.599 107.52 638.471 106.832 638.215 106.256C637.959 105.68 637.601 105.237 637.143 104.928C636.684 104.608 636.14 104.448 635.511 104.448C634.881 104.448 634.289 104.603 633.735 104.912C633.191 105.211 632.753 105.648 632.423 106.224C632.092 106.8 631.927 107.499 631.927 108.32ZM633.719 108.32C633.719 107.829 633.82 107.413 634.023 107.072C634.225 106.72 634.492 106.459 634.823 106.288C635.164 106.107 635.532 106.016 635.927 106.016C636.257 106.016 636.583 106.107 636.903 106.288C637.233 106.459 637.5 106.715 637.703 107.056C637.916 107.397 638.023 107.819 638.023 108.32C638.023 108.821 637.916 109.243 637.703 109.584C637.5 109.925 637.233 110.187 636.903 110.368C636.583 110.539 636.257 110.624 635.927 110.624C635.532 110.624 635.164 110.539 634.823 110.368C634.492 110.187 634.225 109.925 634.023 109.584C633.82 109.232 633.719 108.811 633.719 108.32ZM643.685 109.12V104.64H641.909V109.312C641.909 110.187 642.127 110.88 642.565 111.392C643.013 111.904 643.647 112.16 644.469 112.16C644.981 112.16 645.418 112.053 645.781 111.84C646.154 111.616 646.458 111.291 646.693 110.864V112H648.421V104.64H646.693V109.12C646.693 109.451 646.623 109.744 646.485 110C646.346 110.245 646.154 110.437 645.909 110.576C645.663 110.704 645.375 110.768 645.045 110.768C644.586 110.768 644.245 110.624 644.021 110.336C643.797 110.048 643.685 109.643 643.685 109.12ZM653.827 112.16C654.681 112.16 655.411 111.995 656.019 111.664C656.627 111.333 657.123 110.837 657.507 110.176L656.019 109.568C655.785 109.963 655.491 110.256 655.139 110.448C654.787 110.64 654.377 110.736 653.907 110.736C653.459 110.736 653.075 110.64 652.755 110.448C652.446 110.256 652.211 109.979 652.051 109.616C651.891 109.243 651.811 108.789 651.811 108.256C651.822 107.723 651.907 107.275 652.067 106.912C652.227 106.549 652.462 106.272 652.771 106.08C653.081 105.888 653.454 105.792 653.891 105.792C654.254 105.792 654.569 105.872 654.835 106.032C655.113 106.192 655.326 106.416 655.475 106.704C655.635 106.992 655.715 107.333 655.715 107.728C655.715 107.803 655.694 107.899 655.651 108.016C655.619 108.123 655.587 108.208 655.555 108.272L656.083 107.536H651.091V108.72H657.555C657.566 108.677 657.571 108.608 657.571 108.512C657.582 108.416 657.587 108.325 657.587 108.24C657.587 107.451 657.438 106.779 657.139 106.224C656.851 105.659 656.435 105.227 655.891 104.928C655.347 104.629 654.686 104.48 653.907 104.48C653.129 104.48 652.451 104.64 651.875 104.96C651.299 105.269 650.851 105.712 650.531 106.288C650.222 106.864 650.067 107.541 650.067 108.32C650.067 109.088 650.222 109.76 650.531 110.336C650.841 110.912 651.278 111.36 651.843 111.68C652.419 112 653.081 112.16 653.827 112.16ZM659.573 109.584L658.565 110.592C658.778 110.869 659.039 111.136 659.349 111.392C659.669 111.637 660.037 111.84 660.453 112C660.879 112.149 661.343 112.224 661.845 112.224C662.655 112.224 663.295 112.016 663.765 111.6C664.245 111.173 664.485 110.613 664.485 109.92C664.485 109.472 664.378 109.109 664.165 108.832C663.962 108.555 663.69 108.32 663.349 108.128C663.007 107.936 662.634 107.76 662.229 107.6C661.93 107.483 661.658 107.371 661.413 107.264C661.178 107.157 660.986 107.04 660.837 106.912C660.698 106.773 660.629 106.619 660.629 106.448C660.629 106.245 660.709 106.091 660.869 105.984C661.029 105.877 661.231 105.824 661.477 105.824C661.839 105.824 662.191 105.915 662.533 106.096C662.874 106.277 663.167 106.512 663.413 106.8L664.373 105.776C664.17 105.531 663.925 105.312 663.637 105.12C663.349 104.928 663.023 104.773 662.661 104.656C662.309 104.539 661.93 104.48 661.525 104.48C661.077 104.48 660.655 104.555 660.261 104.704C659.877 104.843 659.567 105.061 659.333 105.36C659.109 105.659 658.997 106.032 658.997 106.48C658.997 106.917 659.098 107.28 659.301 107.568C659.514 107.856 659.781 108.091 660.101 108.272C660.431 108.443 660.762 108.592 661.093 108.72C661.423 108.837 661.711 108.955 661.957 109.072C662.202 109.179 662.394 109.312 662.533 109.472C662.671 109.621 662.741 109.803 662.741 110.016C662.741 110.261 662.65 110.453 662.469 110.592C662.298 110.731 662.058 110.8 661.749 110.8C661.503 110.8 661.258 110.757 661.013 110.672C660.767 110.576 660.522 110.437 660.277 110.256C660.042 110.064 659.807 109.84 659.573 109.584ZM664.994 104.64V106.16H669.17V104.64H664.994ZM666.226 102.08V112H667.938V102.08H666.226Z" fill="#99ACBE"/>
<path d="M526 79L456 79M456 79L464 87M456 79L464 71" stroke="#93A9BF" stroke-width="2" stroke-linecap="round" stroke-linejoin="round" stroke-dasharray="4 4"/>
<path d="M703 79L778 79" stroke="#93A9BF" stroke-width="2" stroke-linecap="round" stroke-linejoin="round" stroke-dasharray="4 4"/>
<path d="M534.894 74.544H537.838V84H539.742V74.544H542.702V72.8H534.894V74.544ZM545.538 84.16C546.392 84.16 547.122 83.9947 547.73 83.664C548.338 83.3333 548.834 82.8373 549.218 82.176L547.73 81.568C547.496 81.9627 547.202 82.256 546.85 82.448C546.498 82.64 546.088 82.736 545.618 82.736C545.17 82.736 544.786 82.64 544.466 82.448C544.157 82.256 543.922 81.9787 543.762 81.616C543.602 81.2427 543.522 80.7893 543.522 80.256C543.533 79.7227 543.618 79.2747 543.778 78.912C543.938 78.5493 544.173 78.272 544.482 78.08C544.792 77.888 545.165 77.792 545.602 77.792C545.965 77.792 546.28 77.872 546.546 78.032C546.824 78.192 547.037 78.416 547.186 78.704C547.346 78.992 547.426 79.3333 547.426 79.728C547.426 79.8027 547.405 79.8987 547.362 80.016C547.33 80.1227 547.298 80.208 547.266 80.272L547.794 79.536H542.802V80.72H549.266C549.277 80.6773 549.282 80.608 549.282 80.512C549.293 80.416 549.298 80.3253 549.298 80.24C549.298 79.4507 549.149 78.7787 548.85 78.224C548.562 77.6587 548.146 77.2267 547.602 76.928C547.058 76.6293 546.397 76.48 545.618 76.48C544.84 76.48 544.162 76.64 543.586 76.96C543.01 77.2693 542.562 77.712 542.242 78.288C541.933 78.864 541.778 79.5413 541.778 80.32C541.778 81.088 541.933 81.76 542.242 82.336C542.552 82.912 542.989 83.36 543.554 83.68C544.13 84 544.792 84.16 545.538 84.16ZM561.476 79.328C561.476 78.72 561.39 78.2027 561.22 77.776C561.049 77.3493 560.788 77.0293 560.436 76.816C560.094 76.592 559.662 76.48 559.14 76.48C558.638 76.48 558.19 76.592 557.796 76.816C557.412 77.04 557.092 77.3653 556.836 77.792C556.676 77.3653 556.414 77.04 556.052 76.816C555.7 76.592 555.252 76.48 554.708 76.48C554.238 76.48 553.828 76.5867 553.476 76.8C553.134 77.0027 552.857 77.3067 552.644 77.712V76.64H550.948V84H552.644V79.52C552.644 79.168 552.702 78.8693 552.82 78.624C552.937 78.3787 553.102 78.192 553.316 78.064C553.54 77.936 553.801 77.872 554.1 77.872C554.526 77.872 554.836 78.0107 555.028 78.288C555.23 78.5547 555.332 78.9653 555.332 79.52V84H557.06V79.52C557.06 79.168 557.118 78.8693 557.236 78.624C557.364 78.3787 557.534 78.192 557.748 78.064C557.972 77.936 558.228 77.872 558.516 77.872C558.942 77.872 559.252 78.0107 559.444 78.288C559.646 78.5547 559.748 78.9653 559.748 79.52V84H561.476V79.328ZM565.362 87.52V76.64H563.618V87.52H565.362ZM571.458 80.32C571.458 79.4987 571.293 78.8 570.962 78.224C570.631 77.648 570.194 77.2107 569.65 76.912C569.106 76.6027 568.514 76.448 567.874 76.448C567.245 76.448 566.695 76.608 566.226 76.928C565.767 77.2373 565.41 77.68 565.154 78.256C564.909 78.832 564.786 79.52 564.786 80.32C564.786 81.1093 564.909 81.7973 565.154 82.384C565.41 82.96 565.767 83.408 566.226 83.728C566.695 84.0373 567.245 84.192 567.874 84.192C568.514 84.192 569.106 84.0427 569.65 83.744C570.194 83.4347 570.631 82.992 570.962 82.416C571.293 81.8293 571.458 81.1307 571.458 80.32ZM569.666 80.32C569.666 80.8107 569.565 81.232 569.362 81.584C569.159 81.9253 568.887 82.1867 568.546 82.368C568.215 82.5387 567.847 82.624 567.442 82.624C567.111 82.624 566.786 82.5387 566.466 82.368C566.146 82.1867 565.879 81.9253 565.666 81.584C565.463 81.2427 565.362 80.8213 565.362 80.32C565.362 79.8187 565.463 79.3973 565.666 79.056C565.879 78.7147 566.146 78.4587 566.466 78.288C566.786 78.1067 567.111 78.016 567.442 78.016C567.847 78.016 568.215 78.1067 568.546 78.288C568.887 78.4587 569.159 78.72 569.362 79.072C569.565 79.4133 569.666 79.8293 569.666 80.32ZM572.544 80.32C572.544 81.0667 572.715 81.7333 573.056 82.32C573.408 82.896 573.883 83.3493 574.48 83.68C575.077 84 575.755 84.16 576.512 84.16C577.269 84.16 577.941 84 578.528 83.68C579.125 83.3493 579.6 82.896 579.952 82.32C580.304 81.7333 580.48 81.0667 580.48 80.32C580.48 79.5627 580.304 78.896 579.952 78.32C579.6 77.744 579.125 77.296 578.528 76.976C577.941 76.6453 577.269 76.48 576.512 76.48C575.755 76.48 575.077 76.6453 574.48 76.976C573.883 77.296 573.408 77.744 573.056 78.32C572.715 78.896 572.544 79.5627 572.544 80.32ZM574.32 80.32C574.32 79.8613 574.416 79.456 574.608 79.104C574.8 78.752 575.061 78.48 575.392 78.288C575.723 78.096 576.096 78 576.512 78C576.917 78 577.285 78.096 577.616 78.288C577.957 78.48 578.224 78.752 578.416 79.104C578.608 79.456 578.704 79.8613 578.704 80.32C578.704 80.7787 578.608 81.184 578.416 81.536C578.224 81.8773 577.957 82.1493 577.616 82.352C577.285 82.544 576.917 82.64 576.512 82.64C576.096 82.64 575.723 82.544 575.392 82.352C575.061 82.1493 574.8 81.8773 574.608 81.536C574.416 81.184 574.32 80.7787 574.32 80.32ZM583.832 76.64H582.12V84H583.832V76.64ZM586.024 78.48L586.856 77.024C586.696 76.8213 586.498 76.6827 586.264 76.608C586.029 76.5227 585.778 76.48 585.512 76.48C585.138 76.48 584.776 76.6133 584.424 76.88C584.082 77.1467 583.8 77.5093 583.576 77.968C583.362 78.416 583.256 78.9333 583.256 79.52L583.832 79.856C583.832 79.504 583.869 79.2 583.944 78.944C584.029 78.6773 584.162 78.4693 584.344 78.32C584.525 78.1707 584.76 78.096 585.048 78.096C585.261 78.096 585.437 78.128 585.576 78.192C585.714 78.256 585.864 78.352 586.024 78.48ZM589.13 81.712C589.13 81.4773 589.183 81.28 589.289 81.12C589.407 80.96 589.578 80.8373 589.802 80.752C590.026 80.656 590.319 80.608 590.682 80.608C591.098 80.608 591.492 80.6613 591.866 80.768C592.239 80.8747 592.591 81.0453 592.922 81.28V80.4C592.826 80.2827 592.66 80.1547 592.426 80.016C592.191 79.8667 591.892 79.7387 591.53 79.632C591.178 79.5253 590.756 79.472 590.266 79.472C589.348 79.472 588.639 79.6853 588.138 80.112C587.636 80.528 587.386 81.0933 587.386 81.808C587.386 82.3093 587.503 82.736 587.738 83.088C587.972 83.44 588.287 83.7067 588.682 83.888C589.076 84.0693 589.503 84.16 589.962 84.16C590.388 84.16 590.804 84.0853 591.21 83.936C591.626 83.776 591.967 83.5413 592.234 83.232C592.511 82.912 592.65 82.5173 592.65 82.048L592.394 81.088C592.394 81.4507 592.303 81.7707 592.122 82.048C591.951 82.3147 591.722 82.5173 591.434 82.656C591.156 82.7947 590.847 82.864 590.506 82.864C590.239 82.864 589.999 82.8213 589.786 82.736C589.583 82.6507 589.423 82.5227 589.306 82.352C589.188 82.1707 589.13 81.9573 589.13 81.712ZM588.586 78.56C588.692 78.4853 588.852 78.3947 589.066 78.288C589.29 78.1707 589.551 78.0747 589.85 78C590.159 77.9147 590.484 77.872 590.826 77.872C591.05 77.872 591.258 77.8933 591.45 77.936C591.642 77.9787 591.807 78.048 591.946 78.144C592.084 78.24 592.191 78.3627 592.266 78.512C592.351 78.6613 592.394 78.8533 592.394 79.088V84H594.09V78.752C594.09 78.2613 593.956 77.8507 593.69 77.52C593.423 77.1787 593.055 76.9173 592.586 76.736C592.127 76.5547 591.594 76.464 590.986 76.464C590.303 76.464 589.695 76.56 589.162 76.752C588.639 76.944 588.212 77.1413 587.882 77.344L588.586 78.56ZM597.816 76.64H596.104V84H597.816V76.64ZM600.008 78.48L600.84 77.024C600.68 76.8213 600.483 76.6827 600.248 76.608C600.013 76.5227 599.763 76.48 599.496 76.48C599.123 76.48 598.76 76.6133 598.408 76.88C598.067 77.1467 597.784 77.5093 597.56 77.968C597.347 78.416 597.24 78.9333 597.24 79.52L597.816 79.856C597.816 79.504 597.853 79.2 597.928 78.944C598.013 78.6773 598.147 78.4693 598.328 78.32C598.509 78.1707 598.744 78.096 599.032 78.096C599.245 78.096 599.421 78.128 599.56 78.192C599.699 78.256 599.848 78.352 600.008 78.48ZM609.022 76.64H607.166L604.862 82.416L605.678 82.464L603.326 76.64H601.342L604.302 83.136L602.382 87.52H604.222L609.022 76.64ZM616.39 78.4C616.39 77.6 616.566 76.9067 616.918 76.32C617.281 75.7227 617.75 75.264 618.326 74.944C618.913 74.6133 619.547 74.448 620.23 74.448C620.763 74.448 621.243 74.5173 621.67 74.656C622.097 74.7947 622.481 74.9867 622.822 75.232C623.174 75.4667 623.478 75.7333 623.734 76.032V73.792C623.265 73.408 622.758 73.1147 622.214 72.912C621.67 72.7093 620.987 72.608 620.166 72.608C619.345 72.608 618.577 72.7467 617.862 73.024C617.158 73.3013 616.545 73.7013 616.022 74.224C615.499 74.7467 615.089 75.3653 614.79 76.08C614.502 76.784 614.358 77.5573 614.358 78.4C614.358 79.2427 614.502 80.0213 614.79 80.736C615.089 81.44 615.499 82.0533 616.022 82.576C616.545 83.0987 617.158 83.4987 617.862 83.776C618.577 84.0533 619.345 84.192 620.166 84.192C620.987 84.192 621.67 84.0907 622.214 83.888C622.758 83.6853 623.265 83.392 623.734 83.008V80.768C623.478 81.0667 623.174 81.3387 622.822 81.584C622.481 81.8187 622.097 82.0053 621.67 82.144C621.243 82.2827 620.763 82.352 620.23 82.352C619.547 82.352 618.913 82.192 618.326 81.872C617.75 81.5413 617.281 81.0773 616.918 80.48C616.566 79.8827 616.39 79.1893 616.39 78.4ZM627.629 76.64H625.917V84H627.629V76.64ZM629.821 78.48L630.653 77.024C630.493 76.8213 630.295 76.6827 630.061 76.608C629.826 76.5227 629.575 76.48 629.309 76.48C628.935 76.48 628.573 76.6133 628.221 76.88C627.879 77.1467 627.597 77.5093 627.373 77.968C627.159 78.416 627.053 78.9333 627.053 79.52L627.629 79.856C627.629 79.504 627.666 79.2 627.741 78.944C627.826 78.6773 627.959 78.4693 628.141 78.32C628.322 78.1707 628.557 78.096 628.845 78.096C629.058 78.096 629.234 78.128 629.373 78.192C629.511 78.256 629.661 78.352 629.821 78.48ZM634.804 84.16C635.657 84.16 636.388 83.9947 636.996 83.664C637.604 83.3333 638.1 82.8373 638.484 82.176L636.996 81.568C636.761 81.9627 636.468 82.256 636.116 82.448C635.764 82.64 635.353 82.736 634.884 82.736C634.436 82.736 634.052 82.64 633.732 82.448C633.423 82.256 633.188 81.9787 633.028 81.616C632.868 81.2427 632.788 80.7893 632.788 80.256C632.799 79.7227 632.884 79.2747 633.044 78.912C633.204 78.5493 633.439 78.272 633.748 78.08C634.057 77.888 634.431 77.792 634.868 77.792C635.231 77.792 635.545 77.872 635.812 78.032C636.089 78.192 636.303 78.416 636.452 78.704C636.612 78.992 636.692 79.3333 636.692 79.728C636.692 79.8027 636.671 79.8987 636.628 80.016C636.596 80.1227 636.564 80.208 636.532 80.272L637.06 79.536H632.068V80.72H638.532C638.543 80.6773 638.548 80.608 638.548 80.512C638.559 80.416 638.564 80.3253 638.564 80.24C638.564 79.4507 638.415 78.7787 638.116 78.224C637.828 77.6587 637.412 77.2267 636.868 76.928C636.324 76.6293 635.663 76.48 634.884 76.48C634.105 76.48 633.428 76.64 632.852 76.96C632.276 77.2693 631.828 77.712 631.508 78.288C631.199 78.864 631.044 79.5413 631.044 80.32C631.044 81.088 631.199 81.76 631.508 82.336C631.817 82.912 632.255 83.36 632.82 83.68C633.396 84 634.057 84.16 634.804 84.16ZM645.749 71.52V84H647.493V71.52H645.749ZM639.653 80.32C639.653 81.12 639.819 81.808 640.149 82.384C640.48 82.96 640.917 83.4027 641.461 83.712C642.016 84.0107 642.608 84.16 643.237 84.16C643.856 84.16 644.395 84.0053 644.853 83.696C645.323 83.3867 645.691 82.944 645.957 82.368C646.235 81.792 646.373 81.1093 646.373 80.32C646.373 79.52 646.235 78.8373 645.957 78.272C645.691 77.696 645.323 77.2533 644.853 76.944C644.395 76.6347 643.856 76.48 643.237 76.48C642.608 76.48 642.016 76.6347 641.461 76.944C640.917 77.2427 640.48 77.68 640.149 78.256C639.819 78.8213 639.653 79.5093 639.653 80.32ZM641.445 80.32C641.445 79.8293 641.547 79.408 641.749 79.056C641.952 78.704 642.219 78.4373 642.549 78.256C642.891 78.0747 643.259 77.984 643.653 77.984C643.984 77.984 644.309 78.0747 644.629 78.256C644.96 78.4373 645.227 78.704 645.429 79.056C645.643 79.3973 645.749 79.8187 645.749 80.32C645.749 80.8213 645.643 81.248 645.429 81.6C645.227 81.9413 644.96 82.2027 644.629 82.384C644.309 82.5653 643.984 82.656 643.653 82.656C643.259 82.656 642.891 82.5653 642.549 82.384C642.219 82.2027 641.952 81.936 641.749 81.584C641.547 81.232 641.445 80.8107 641.445 80.32ZM652.835 84.16C653.689 84.16 654.419 83.9947 655.027 83.664C655.635 83.3333 656.131 82.8373 656.515 82.176L655.027 81.568C654.793 81.9627 654.499 82.256 654.147 82.448C653.795 82.64 653.385 82.736 652.915 82.736C652.467 82.736 652.083 82.64 651.763 82.448C651.454 82.256 651.219 81.9787 651.059 81.616C650.899 81.2427 650.819 80.7893 650.819 80.256C650.83 79.7227 650.915 79.2747 651.075 78.912C651.235 78.5493 651.47 78.272 651.779 78.08C652.089 77.888 652.462 77.792 652.899 77.792C653.262 77.792 653.577 77.872 653.843 78.032C654.121 78.192 654.334 78.416 654.483 78.704C654.643 78.992 654.723 79.3333 654.723 79.728C654.723 79.8027 654.702 79.8987 654.659 80.016C654.627 80.1227 654.595 80.208 654.563 80.272L655.091 79.536H650.099V80.72H656.563C656.574 80.6773 656.579 80.608 656.579 80.512C656.59 80.416 656.595 80.3253 656.595 80.24C656.595 79.4507 656.446 78.7787 656.147 78.224C655.859 77.6587 655.443 77.2267 654.899 76.928C654.355 76.6293 653.694 76.48 652.915 76.48C652.137 76.48 651.459 76.64 650.883 76.96C650.307 77.2693 649.859 77.712 649.539 78.288C649.23 78.864 649.075 79.5413 649.075 80.32C649.075 81.088 649.23 81.76 649.539 82.336C649.849 82.912 650.286 83.36 650.851 83.68C651.427 84 652.089 84.16 652.835 84.16ZM662.981 79.52V84H664.757V79.328C664.757 78.4427 664.538 77.7493 664.101 77.248C663.663 76.736 663.029 76.48 662.197 76.48C661.685 76.48 661.242 76.5867 660.869 76.8C660.506 77.0133 660.207 77.3387 659.973 77.776V76.64H658.245V84H659.973V79.52C659.973 79.1893 660.042 78.9013 660.181 78.656C660.319 78.4 660.511 78.208 660.757 78.08C661.002 77.9413 661.285 77.872 661.605 77.872C662.074 77.872 662.421 78.0107 662.645 78.288C662.869 78.5653 662.981 78.976 662.981 79.52ZM665.939 76.64V78.16H670.115V76.64H665.939ZM667.171 74.08V84H668.883V74.08H667.171ZM671.243 73.712C671.243 74 671.35 74.2507 671.563 74.464C671.787 74.6667 672.043 74.768 672.331 74.768C672.64 74.768 672.896 74.6667 673.099 74.464C673.312 74.2507 673.419 74 673.419 73.712C673.419 73.4133 673.312 73.1627 673.099 72.96C672.896 72.7573 672.64 72.656 672.331 72.656C672.043 72.656 671.787 72.7573 671.563 72.96C671.35 73.1627 671.243 73.4133 671.243 73.712ZM671.483 76.64V84H673.179V76.64H671.483ZM676.645 81.712C676.645 81.4773 676.698 81.28 676.805 81.12C676.922 80.96 677.093 80.8373 677.317 80.752C677.541 80.656 677.834 80.608 678.197 80.608C678.613 80.608 679.008 80.6613 679.381 80.768C679.754 80.8747 680.106 81.0453 680.437 81.28V80.4C680.341 80.2827 680.176 80.1547 679.941 80.016C679.706 79.8667 679.408 79.7387 679.045 79.632C678.693 79.5253 678.272 79.472 677.781 79.472C676.864 79.472 676.154 79.6853 675.653 80.112C675.152 80.528 674.901 81.0933 674.901 81.808C674.901 82.3093 675.018 82.736 675.253 83.088C675.488 83.44 675.802 83.7067 676.197 83.888C676.592 84.0693 677.018 84.16 677.477 84.16C677.904 84.16 678.32 84.0853 678.725 83.936C679.141 83.776 679.482 83.5413 679.749 83.232C680.026 82.912 680.165 82.5173 680.165 82.048L679.909 81.088C679.909 81.4507 679.818 81.7707 679.637 82.048C679.466 82.3147 679.237 82.5173 678.949 82.656C678.672 82.7947 678.362 82.864 678.021 82.864C677.754 82.864 677.514 82.8213 677.301 82.736C677.098 82.6507 676.938 82.5227 676.821 82.352C676.704 82.1707 676.645 81.9573 676.645 81.712ZM676.101 78.56C676.208 78.4853 676.368 78.3947 676.581 78.288C676.805 78.1707 677.066 78.0747 677.365 78C677.674 77.9147 678 77.872 678.341 77.872C678.565 77.872 678.773 77.8933 678.965 77.936C679.157 77.9787 679.322 78.048 679.461 78.144C679.6 78.24 679.706 78.3627 679.781 78.512C679.866 78.6613 679.909 78.8533 679.909 79.088V84H681.605V78.752C681.605 78.2613 681.472 77.8507 681.205 77.52C680.938 77.1787 680.57 76.9173 680.101 76.736C679.642 76.5547 679.109 76.464 678.501 76.464C677.818 76.464 677.21 76.56 676.677 76.752C676.154 76.944 675.728 77.1413 675.397 77.344L676.101 78.56ZM683.62 71.52V84H685.348V71.52H683.62ZM687.893 81.584L686.885 82.592C687.098 82.8693 687.36 83.136 687.669 83.392C687.989 83.6373 688.357 83.84 688.773 84C689.2 84.1493 689.664 84.224 690.165 84.224C690.976 84.224 691.616 84.016 692.085 83.6C692.565 83.1733 692.805 82.6133 692.805 81.92C692.805 81.472 692.698 81.1093 692.485 80.832C692.282 80.5547 692.01 80.32 691.669 80.128C691.328 79.936 690.954 79.76 690.549 79.6C690.25 79.4827 689.978 79.3707 689.733 79.264C689.498 79.1573 689.306 79.04 689.157 78.912C689.018 78.7733 688.949 78.6187 688.949 78.448C688.949 78.2453 689.029 78.0907 689.189 77.984C689.349 77.8773 689.552 77.824 689.797 77.824C690.16 77.824 690.512 77.9147 690.853 78.096C691.194 78.2773 691.488 78.512 691.733 78.8L692.693 77.776C692.49 77.5307 692.245 77.312 691.957 77.12C691.669 76.928 691.344 76.7733 690.981 76.656C690.629 76.5387 690.25 76.48 689.845 76.48C689.397 76.48 688.976 76.5547 688.581 76.704C688.197 76.8427 687.888 77.0613 687.653 77.36C687.429 77.6587 687.317 78.032 687.317 78.48C687.317 78.9173 687.418 79.28 687.621 79.568C687.834 79.856 688.101 80.0907 688.421 80.272C688.752 80.4427 689.082 80.592 689.413 80.72C689.744 80.8373 690.032 80.9547 690.277 81.072C690.522 81.1787 690.714 81.312 690.853 81.472C690.992 81.6213 691.061 81.8027 691.061 82.016C691.061 82.2613 690.97 82.4533 690.789 82.592C690.618 82.7307 690.378 82.8 690.069 82.8C689.824 82.8 689.578 82.7573 689.333 82.672C689.088 82.576 688.842 82.4373 688.597 82.256C688.362 82.064 688.128 81.84 687.893 81.584Z" fill="#99ACBE"/>
<rect x="42" y="429" width="294" height="148" rx="19" fill="white" stroke="#E3EAF2" stroke-width="2"/>
<path d="M72.2809 548.6V554.24L66.1489 548.18V557H67.5409V551.36L73.6729 557.42V548.6H72.2809ZM77.8276 557.12C78.4676 557.12 79.0156 556.996 79.4716 556.748C79.9276 556.5 80.2996 556.128 80.5876 555.632L79.4716 555.176C79.2956 555.472 79.0756 555.692 78.8116 555.836C78.5476 555.98 78.2396 556.052 77.8876 556.052C77.5516 556.052 77.2636 555.98 77.0236 555.836C76.7916 555.692 76.6156 555.484 76.4956 555.212C76.3756 554.932 76.3156 554.592 76.3156 554.192C76.3236 553.792 76.3876 553.456 76.5076 553.184C76.6276 552.912 76.8036 552.704 77.0356 552.56C77.2676 552.416 77.5476 552.344 77.8756 552.344C78.1476 552.344 78.3836 552.404 78.5836 552.524C78.7916 552.644 78.9516 552.812 79.0636 553.028C79.1836 553.244 79.2436 553.5 79.2436 553.796C79.2436 553.852 79.2276 553.924 79.1956 554.012C79.1716 554.092 79.1476 554.156 79.1236 554.204L79.5196 553.652H75.7756V554.54H80.6236C80.6316 554.508 80.6356 554.456 80.6356 554.384C80.6436 554.312 80.6476 554.244 80.6476 554.18C80.6476 553.588 80.5356 553.084 80.3116 552.668C80.0956 552.244 79.7836 551.92 79.3756 551.696C78.9676 551.472 78.4716 551.36 77.8876 551.36C77.3036 551.36 76.7956 551.48 76.3636 551.72C75.9316 551.952 75.5956 552.284 75.3556 552.716C75.1236 553.148 75.0076 553.656 75.0076 554.24C75.0076 554.816 75.1236 555.32 75.3556 555.752C75.5876 556.184 75.9156 556.52 76.3396 556.76C76.7716 557 77.2676 557.12 77.8276 557.12ZM81.1166 551.48V552.62H84.2486V551.48H81.1166ZM82.0406 549.56V557H83.3246V549.56H82.0406ZM84.3145 551.48L86.8945 557.396L88.5505 553.664L90.2785 557.396L92.8585 551.48H91.4545L90.1585 554.78L88.5385 551.06L87.0145 554.768L85.7185 551.48H84.3145ZM93.0896 554.24C93.0896 554.8 93.2176 555.3 93.4736 555.74C93.7376 556.172 94.0936 556.512 94.5416 556.76C94.9896 557 95.4976 557.12 96.0656 557.12C96.6336 557.12 97.1376 557 97.5776 556.76C98.0256 556.512 98.3816 556.172 98.6456 555.74C98.9096 555.3 99.0416 554.8 99.0416 554.24C99.0416 553.672 98.9096 553.172 98.6456 552.74C98.3816 552.308 98.0256 551.972 97.5776 551.732C97.1376 551.484 96.6336 551.36 96.0656 551.36C95.4976 551.36 94.9896 551.484 94.5416 551.732C94.0936 551.972 93.7376 552.308 93.4736 552.74C93.2176 553.172 93.0896 553.672 93.0896 554.24ZM94.4216 554.24C94.4216 553.896 94.4936 553.592 94.6376 553.328C94.7816 553.064 94.9776 552.86 95.2256 552.716C95.4736 552.572 95.7536 552.5 96.0656 552.5C96.3696 552.5 96.6456 552.572 96.8936 552.716C97.1496 552.86 97.3496 553.064 97.4936 553.328C97.6376 553.592 97.7096 553.896 97.7096 554.24C97.7096 554.584 97.6376 554.888 97.4936 555.152C97.3496 555.408 97.1496 555.612 96.8936 555.764C96.6456 555.908 96.3696 555.98 96.0656 555.98C95.7536 555.98 95.4736 555.908 95.2256 555.764C94.9776 555.612 94.7816 555.408 94.6376 555.152C94.4936 554.888 94.4216 554.584 94.4216 554.24ZM101.555 551.48H100.271V557H101.555V551.48ZM103.199 552.86L103.823 551.768C103.703 551.616 103.555 551.512 103.379 551.456C103.203 551.392 103.015 551.36 102.815 551.36C102.535 551.36 102.263 551.46 101.999 551.66C101.743 551.86 101.531 552.132 101.363 552.476C101.203 552.812 101.123 553.2 101.123 553.64L101.555 553.892C101.555 553.628 101.583 553.4 101.639 553.208C101.703 553.008 101.803 552.852 101.939 552.74C102.075 552.628 102.251 552.572 102.467 552.572C102.627 552.572 102.759 552.596 102.863 552.644C102.967 552.692 103.079 552.764 103.199 552.86ZM104.665 547.64V557H105.937V547.64H104.665ZM107.965 551.48L105.577 553.76L108.217 557H109.789L107.173 553.76L109.549 551.48H107.965ZM118.596 548.6L113.604 558.8H114.912L119.868 548.6H118.596ZM125.131 554.3L124.075 555.032C124.259 555.416 124.507 555.772 124.819 556.1C125.131 556.428 125.495 556.692 125.911 556.892C126.335 557.084 126.795 557.18 127.291 557.18C127.651 557.18 127.995 557.12 128.323 557C128.659 556.888 128.959 556.728 129.223 556.52C129.487 556.304 129.695 556.04 129.847 555.728C129.999 555.416 130.075 555.064 130.075 554.672C130.075 554.304 130.011 553.984 129.883 553.712C129.763 553.44 129.599 553.204 129.391 553.004C129.183 552.796 128.951 552.624 128.695 552.488C128.447 552.352 128.199 552.24 127.951 552.152C127.503 551.992 127.139 551.836 126.859 551.684C126.579 551.532 126.371 551.372 126.235 551.204C126.107 551.028 126.043 550.832 126.043 550.616C126.043 550.376 126.135 550.168 126.319 549.992C126.503 549.808 126.791 549.716 127.183 549.716C127.463 549.716 127.707 549.772 127.915 549.884C128.131 549.988 128.319 550.132 128.479 550.316C128.639 550.492 128.771 550.684 128.875 550.892L130.027 550.244C129.883 549.948 129.683 549.664 129.427 549.392C129.179 549.12 128.871 548.896 128.503 548.72C128.135 548.544 127.703 548.456 127.207 548.456C126.703 548.456 126.251 548.552 125.851 548.744C125.459 548.928 125.147 549.192 124.915 549.536C124.683 549.872 124.567 550.264 124.567 550.712C124.567 551.104 124.643 551.44 124.795 551.72C124.947 551.992 125.139 552.224 125.371 552.416C125.603 552.6 125.847 552.756 126.103 552.884C126.359 553.004 126.591 553.1 126.799 553.172C127.151 553.3 127.459 553.432 127.723 553.568C127.995 553.696 128.207 553.856 128.359 554.048C128.511 554.232 128.587 554.48 128.587 554.792C128.587 555.12 128.467 555.388 128.227 555.596C127.987 555.804 127.675 555.908 127.291 555.908C126.971 555.908 126.683 555.844 126.427 555.716C126.171 555.58 125.935 555.392 125.719 555.152C125.511 554.904 125.315 554.62 125.131 554.3ZM132.752 554.84V551.48H131.42V554.984C131.42 555.64 131.584 556.16 131.912 556.544C132.248 556.928 132.724 557.12 133.34 557.12C133.724 557.12 134.052 557.04 134.324 556.88C134.604 556.712 134.832 556.468 135.008 556.148V557H136.304V551.48H135.008V554.84C135.008 555.088 134.956 555.308 134.852 555.5C134.748 555.684 134.604 555.828 134.42 555.932C134.236 556.028 134.02 556.076 133.772 556.076C133.428 556.076 133.172 555.968 133.004 555.752C132.836 555.536 132.752 555.232 132.752 554.84ZM139.219 547.64H137.911V557H139.219V547.64ZM143.791 554.24C143.791 553.632 143.667 553.116 143.419 552.692C143.171 552.26 142.843 551.932 142.435 551.708C142.027 551.476 141.583 551.36 141.103 551.36C140.647 551.36 140.239 551.476 139.879 551.708C139.527 551.94 139.251 552.272 139.051 552.704C138.851 553.128 138.751 553.64 138.751 554.24C138.751 554.832 138.851 555.344 139.051 555.776C139.251 556.208 139.527 556.54 139.879 556.772C140.239 557.004 140.647 557.12 141.103 557.12C141.583 557.12 142.027 557.008 142.435 556.784C142.843 556.552 143.171 556.22 143.419 555.788C143.667 555.356 143.791 554.84 143.791 554.24ZM142.447 554.24C142.447 554.608 142.371 554.924 142.219 555.188C142.067 555.452 141.863 555.652 141.607 555.788C141.359 555.924 141.083 555.992 140.779 555.992C140.531 555.992 140.287 555.924 140.047 555.788C139.807 555.652 139.607 555.456 139.447 555.2C139.295 554.936 139.219 554.616 139.219 554.24C139.219 553.864 139.295 553.548 139.447 553.292C139.607 553.028 139.807 552.828 140.047 552.692C140.287 552.556 140.531 552.488 140.779 552.488C141.083 552.488 141.359 552.556 141.607 552.692C141.863 552.828 142.067 553.028 142.219 553.292C142.371 553.556 142.447 553.872 142.447 554.24ZM148.577 553.64V557H149.909V553.496C149.909 552.832 149.745 552.312 149.417 551.936C149.089 551.552 148.613 551.36 147.989 551.36C147.605 551.36 147.273 551.44 146.993 551.6C146.721 551.76 146.497 552.004 146.321 552.332V551.48H145.025V557H146.321V553.64C146.321 553.392 146.373 553.176 146.477 552.992C146.581 552.8 146.725 552.656 146.909 552.56C147.093 552.456 147.305 552.404 147.545 552.404C147.897 552.404 148.157 552.508 148.325 552.716C148.493 552.924 148.577 553.232 148.577 553.64ZM153.964 557.12C154.604 557.12 155.152 556.996 155.608 556.748C156.064 556.5 156.436 556.128 156.724 555.632L155.608 555.176C155.432 555.472 155.212 555.692 154.948 555.836C154.684 555.98 154.376 556.052 154.024 556.052C153.688 556.052 153.4 555.98 153.16 555.836C152.928 555.692 152.752 555.484 152.632 555.212C152.512 554.932 152.452 554.592 152.452 554.192C152.46 553.792 152.524 553.456 152.644 553.184C152.764 552.912 152.94 552.704 153.172 552.56C153.404 552.416 153.684 552.344 154.012 552.344C154.284 552.344 154.52 552.404 154.72 552.524C154.928 552.644 155.088 552.812 155.2 553.028C155.32 553.244 155.38 553.5 155.38 553.796C155.38 553.852 155.364 553.924 155.332 554.012C155.308 554.092 155.284 554.156 155.26 554.204L155.656 553.652H151.912V554.54H156.76C156.768 554.508 156.772 554.456 156.772 554.384C156.78 554.312 156.784 554.244 156.784 554.18C156.784 553.588 156.672 553.084 156.448 552.668C156.232 552.244 155.92 551.92 155.512 551.696C155.104 551.472 154.608 551.36 154.024 551.36C153.44 551.36 152.932 551.48 152.5 551.72C152.068 551.952 151.732 552.284 151.492 552.716C151.26 553.148 151.144 553.656 151.144 554.24C151.144 554.816 151.26 555.32 151.492 555.752C151.724 556.184 152.052 556.52 152.476 556.76C152.908 557 153.404 557.12 153.964 557.12ZM157.253 551.48V552.62H160.385V551.48H157.253ZM158.177 549.56V557H159.461V549.56H158.177ZM169.221 548.6L164.229 558.8H165.537L170.493 548.6H169.221ZM178.408 554.504L175.936 548.6H174.304L178.408 557.468L182.512 548.6H180.88L178.408 554.504ZM183.489 548.6V557H184.905V548.6H183.489ZM184.329 549.848H186.021C186.509 549.848 186.901 549.964 187.197 550.196C187.493 550.42 187.641 550.756 187.641 551.204C187.641 551.652 187.493 551.992 187.197 552.224C186.901 552.456 186.509 552.572 186.021 552.572H184.329V553.82H186.021C186.629 553.82 187.157 553.716 187.605 553.508C188.061 553.292 188.413 552.988 188.661 552.596C188.909 552.204 189.033 551.74 189.033 551.204C189.033 550.668 188.909 550.208 188.661 549.824C188.413 549.432 188.061 549.132 187.605 548.924C187.157 548.708 186.629 548.6 186.021 548.6H184.329V549.848ZM191.47 552.8C191.47 552.2 191.602 551.68 191.866 551.24C192.138 550.792 192.49 550.448 192.922 550.208C193.362 549.96 193.838 549.836 194.35 549.836C194.75 549.836 195.11 549.888 195.43 549.992C195.75 550.096 196.038 550.24 196.294 550.424C196.558 550.6 196.786 550.8 196.978 551.024V549.344C196.626 549.056 196.246 548.836 195.838 548.684C195.43 548.532 194.918 548.456 194.302 548.456C193.686 548.456 193.11 548.56 192.574 548.768C192.046 548.976 191.586 549.276 191.194 549.668C190.802 550.06 190.494 550.524 190.27 551.06C190.054 551.588 189.946 552.168 189.946 552.8C189.946 553.432 190.054 554.016 190.27 554.552C190.494 555.08 190.802 555.54 191.194 555.932C191.586 556.324 192.046 556.624 192.574 556.832C193.11 557.04 193.686 557.144 194.302 557.144C194.918 557.144 195.43 557.068 195.838 556.916C196.246 556.764 196.626 556.544 196.978 556.256V554.576C196.786 554.8 196.558 555.004 196.294 555.188C196.038 555.364 195.75 555.504 195.43 555.608C195.11 555.712 194.75 555.764 194.35 555.764C193.838 555.764 193.362 555.644 192.922 555.404C192.49 555.156 192.138 554.808 191.866 554.36C191.602 553.912 191.47 553.392 191.47 552.8Z" fill="#99ACBE"/>
<rect x="80" y="471" width="200" height="50" rx="25" fill="#44A0F8"/>
<path d="M159.289 495.864H167.273V494.12H159.289V495.864ZM166.057 489.8V501H167.945V489.8H166.057ZM158.537 489.8V501H160.425V489.8H158.537ZM169.739 497.32C169.739 498.067 169.91 498.733 170.251 499.32C170.603 499.896 171.078 500.349 171.675 500.68C172.273 501 172.95 501.16 173.707 501.16C174.465 501.16 175.137 501 175.723 500.68C176.321 500.349 176.795 499.896 177.147 499.32C177.499 498.733 177.675 498.067 177.675 497.32C177.675 496.563 177.499 495.896 177.147 495.32C176.795 494.744 176.321 494.296 175.723 493.976C175.137 493.645 174.465 493.48 173.707 493.48C172.95 493.48 172.273 493.645 171.675 493.976C171.078 494.296 170.603 494.744 170.251 495.32C169.91 495.896 169.739 496.563 169.739 497.32ZM171.515 497.32C171.515 496.861 171.611 496.456 171.803 496.104C171.995 495.752 172.257 495.48 172.587 495.288C172.918 495.096 173.291 495 173.707 495C174.113 495 174.481 495.096 174.811 495.288C175.153 495.48 175.419 495.752 175.611 496.104C175.803 496.456 175.899 496.861 175.899 497.32C175.899 497.779 175.803 498.184 175.611 498.536C175.419 498.877 175.153 499.149 174.811 499.352C174.481 499.544 174.113 499.64 173.707 499.64C173.291 499.64 172.918 499.544 172.587 499.352C172.257 499.149 171.995 498.877 171.803 498.536C171.611 498.184 171.515 497.779 171.515 497.32ZM179.651 498.584L178.643 499.592C178.856 499.869 179.118 500.136 179.427 500.392C179.747 500.637 180.115 500.84 180.531 501C180.958 501.149 181.422 501.224 181.923 501.224C182.734 501.224 183.374 501.016 183.843 500.6C184.323 500.173 184.563 499.613 184.563 498.92C184.563 498.472 184.456 498.109 184.243 497.832C184.04 497.555 183.768 497.32 183.427 497.128C183.086 496.936 182.712 496.76 182.307 496.6C182.008 496.483 181.736 496.371 181.491 496.264C181.256 496.157 181.064 496.04 180.915 495.912C180.776 495.773 180.707 495.619 180.707 495.448C180.707 495.245 180.787 495.091 180.947 494.984C181.107 494.877 181.31 494.824 181.555 494.824C181.918 494.824 182.27 494.915 182.611 495.096C182.952 495.277 183.246 495.512 183.491 495.8L184.451 494.776C184.248 494.531 184.003 494.312 183.715 494.12C183.427 493.928 183.102 493.773 182.739 493.656C182.387 493.539 182.008 493.48 181.603 493.48C181.155 493.48 180.734 493.555 180.339 493.704C179.955 493.843 179.646 494.061 179.411 494.36C179.187 494.659 179.075 495.032 179.075 495.48C179.075 495.917 179.176 496.28 179.379 496.568C179.592 496.856 179.859 497.091 180.179 497.272C180.51 497.443 180.84 497.592 181.171 497.72C181.502 497.837 181.79 497.955 182.035 498.072C182.28 498.179 182.472 498.312 182.611 498.472C182.75 498.621 182.819 498.803 182.819 499.016C182.819 499.261 182.728 499.453 182.547 499.592C182.376 499.731 182.136 499.8 181.827 499.8C181.582 499.8 181.336 499.757 181.091 499.672C180.846 499.576 180.6 499.437 180.355 499.256C180.12 499.064 179.886 498.84 179.651 498.584ZM185.072 493.64V495.16H189.248V493.64H185.072ZM186.304 491.08V501H188.016V491.08H186.304ZM195.333 492.424L197.925 491.704V501H199.797V489.624L195.333 490.632V492.424Z" fill="white"/>
<rect x="470" y="428" width="294" height="148" rx="19" fill="white" stroke="#E3EAF2" stroke-width="2"/>
<path d="M616.281 547.6V553.24L610.149 547.18V556H611.541V550.36L617.673 556.42V547.6H616.281ZM621.828 556.12C622.468 556.12 623.016 555.996 623.472 555.748C623.928 555.5 624.3 555.128 624.588 554.632L623.472 554.176C623.296 554.472 623.076 554.692 622.812 554.836C622.548 554.98 622.24 555.052 621.888 555.052C621.552 555.052 621.264 554.98 621.024 554.836C620.792 554.692 620.616 554.484 620.496 554.212C620.376 553.932 620.316 553.592 620.316 553.192C620.324 552.792 620.388 552.456 620.508 552.184C620.628 551.912 620.804 551.704 621.036 551.56C621.268 551.416 621.548 551.344 621.876 551.344C622.148 551.344 622.384 551.404 622.584 551.524C622.792 551.644 622.952 551.812 623.064 552.028C623.184 552.244 623.244 552.5 623.244 552.796C623.244 552.852 623.228 552.924 623.196 553.012C623.172 553.092 623.148 553.156 623.124 553.204L623.52 552.652H619.776V553.54H624.624C624.632 553.508 624.636 553.456 624.636 553.384C624.644 553.312 624.648 553.244 624.648 553.18C624.648 552.588 624.536 552.084 624.312 551.668C624.096 551.244 623.784 550.92 623.376 550.696C622.968 550.472 622.472 550.36 621.888 550.36C621.304 550.36 620.796 550.48 620.364 550.72C619.932 550.952 619.596 551.284 619.356 551.716C619.124 552.148 619.008 552.656 619.008 553.24C619.008 553.816 619.124 554.32 619.356 554.752C619.588 555.184 619.916 555.52 620.34 555.76C620.772 556 621.268 556.12 621.828 556.12ZM625.117 550.48V551.62H628.249V550.48H625.117ZM626.041 548.56V556H627.325V548.56H626.041ZM628.314 550.48L630.894 556.396L632.55 552.664L634.278 556.396L636.858 550.48H635.454L634.158 553.78L632.538 550.06L631.014 553.768L629.718 550.48H628.314ZM637.09 553.24C637.09 553.8 637.218 554.3 637.474 554.74C637.738 555.172 638.094 555.512 638.542 555.76C638.99 556 639.498 556.12 640.066 556.12C640.634 556.12 641.138 556 641.578 555.76C642.026 555.512 642.382 555.172 642.646 554.74C642.91 554.3 643.042 553.8 643.042 553.24C643.042 552.672 642.91 552.172 642.646 551.74C642.382 551.308 642.026 550.972 641.578 550.732C641.138 550.484 640.634 550.36 640.066 550.36C639.498 550.36 638.99 550.484 638.542 550.732C638.094 550.972 637.738 551.308 637.474 551.74C637.218 552.172 637.09 552.672 637.09 553.24ZM638.422 553.24C638.422 552.896 638.494 552.592 638.638 552.328C638.782 552.064 638.978 551.86 639.226 551.716C639.474 551.572 639.754 551.5 640.066 551.5C640.37 551.5 640.646 551.572 640.894 551.716C641.15 551.86 641.35 552.064 641.494 552.328C641.638 552.592 641.71 552.896 641.71 553.24C641.71 553.584 641.638 553.888 641.494 554.152C641.35 554.408 641.15 554.612 640.894 554.764C640.646 554.908 640.37 554.98 640.066 554.98C639.754 554.98 639.474 554.908 639.226 554.764C638.978 554.612 638.782 554.408 638.638 554.152C638.494 553.888 638.422 553.584 638.422 553.24ZM645.555 550.48H644.271V556H645.555V550.48ZM647.199 551.86L647.823 550.768C647.703 550.616 647.555 550.512 647.379 550.456C647.203 550.392 647.015 550.36 646.815 550.36C646.535 550.36 646.263 550.46 645.999 550.66C645.743 550.86 645.531 551.132 645.363 551.476C645.203 551.812 645.123 552.2 645.123 552.64L645.555 552.892C645.555 552.628 645.583 552.4 645.639 552.208C645.703 552.008 645.803 551.852 645.939 551.74C646.075 551.628 646.251 551.572 646.467 551.572C646.627 551.572 646.759 551.596 646.863 551.644C646.967 551.692 647.079 551.764 647.199 551.86ZM648.665 546.64V556H649.937V546.64H648.665ZM651.965 550.48L649.577 552.76L652.217 556H653.789L651.173 552.76L653.549 550.48H651.965ZM662.596 547.6L657.604 557.8H658.912L663.868 547.6H662.596ZM669.131 553.3L668.075 554.032C668.259 554.416 668.507 554.772 668.819 555.1C669.131 555.428 669.495 555.692 669.911 555.892C670.335 556.084 670.795 556.18 671.291 556.18C671.651 556.18 671.995 556.12 672.323 556C672.659 555.888 672.959 555.728 673.223 555.52C673.487 555.304 673.695 555.04 673.847 554.728C673.999 554.416 674.075 554.064 674.075 553.672C674.075 553.304 674.011 552.984 673.883 552.712C673.763 552.44 673.599 552.204 673.391 552.004C673.183 551.796 672.951 551.624 672.695 551.488C672.447 551.352 672.199 551.24 671.951 551.152C671.503 550.992 671.139 550.836 670.859 550.684C670.579 550.532 670.371 550.372 670.235 550.204C670.107 550.028 670.043 549.832 670.043 549.616C670.043 549.376 670.135 549.168 670.319 548.992C670.503 548.808 670.791 548.716 671.183 548.716C671.463 548.716 671.707 548.772 671.915 548.884C672.131 548.988 672.319 549.132 672.479 549.316C672.639 549.492 672.771 549.684 672.875 549.892L674.027 549.244C673.883 548.948 673.683 548.664 673.427 548.392C673.179 548.12 672.871 547.896 672.503 547.72C672.135 547.544 671.703 547.456 671.207 547.456C670.703 547.456 670.251 547.552 669.851 547.744C669.459 547.928 669.147 548.192 668.915 548.536C668.683 548.872 668.567 549.264 668.567 549.712C668.567 550.104 668.643 550.44 668.795 550.72C668.947 550.992 669.139 551.224 669.371 551.416C669.603 551.6 669.847 551.756 670.103 551.884C670.359 552.004 670.591 552.1 670.799 552.172C671.151 552.3 671.459 552.432 671.723 552.568C671.995 552.696 672.207 552.856 672.359 553.048C672.511 553.232 672.587 553.48 672.587 553.792C672.587 554.12 672.467 554.388 672.227 554.596C671.987 554.804 671.675 554.908 671.291 554.908C670.971 554.908 670.683 554.844 670.427 554.716C670.171 554.58 669.935 554.392 669.719 554.152C669.511 553.904 669.315 553.62 669.131 553.3ZM676.752 553.84V550.48H675.42V553.984C675.42 554.64 675.584 555.16 675.912 555.544C676.248 555.928 676.724 556.12 677.34 556.12C677.724 556.12 678.052 556.04 678.324 555.88C678.604 555.712 678.832 555.468 679.008 555.148V556H680.304V550.48H679.008V553.84C679.008 554.088 678.956 554.308 678.852 554.5C678.748 554.684 678.604 554.828 678.42 554.932C678.236 555.028 678.02 555.076 677.772 555.076C677.428 555.076 677.172 554.968 677.004 554.752C676.836 554.536 676.752 554.232 676.752 553.84ZM683.219 546.64H681.911V556H683.219V546.64ZM687.791 553.24C687.791 552.632 687.667 552.116 687.419 551.692C687.171 551.26 686.843 550.932 686.435 550.708C686.027 550.476 685.583 550.36 685.103 550.36C684.647 550.36 684.239 550.476 683.879 550.708C683.527 550.94 683.251 551.272 683.051 551.704C682.851 552.128 682.751 552.64 682.751 553.24C682.751 553.832 682.851 554.344 683.051 554.776C683.251 555.208 683.527 555.54 683.879 555.772C684.239 556.004 684.647 556.12 685.103 556.12C685.583 556.12 686.027 556.008 686.435 555.784C686.843 555.552 687.171 555.22 687.419 554.788C687.667 554.356 687.791 553.84 687.791 553.24ZM686.447 553.24C686.447 553.608 686.371 553.924 686.219 554.188C686.067 554.452 685.863 554.652 685.607 554.788C685.359 554.924 685.083 554.992 684.779 554.992C684.531 554.992 684.287 554.924 684.047 554.788C683.807 554.652 683.607 554.456 683.447 554.2C683.295 553.936 683.219 553.616 683.219 553.24C683.219 552.864 683.295 552.548 683.447 552.292C683.607 552.028 683.807 551.828 684.047 551.692C684.287 551.556 684.531 551.488 684.779 551.488C685.083 551.488 685.359 551.556 685.607 551.692C685.863 551.828 686.067 552.028 686.219 552.292C686.371 552.556 686.447 552.872 686.447 553.24ZM692.577 552.64V556H693.909V552.496C693.909 551.832 693.745 551.312 693.417 550.936C693.089 550.552 692.613 550.36 691.989 550.36C691.605 550.36 691.273 550.44 690.993 550.6C690.721 550.76 690.497 551.004 690.321 551.332V550.48H689.025V556H690.321V552.64C690.321 552.392 690.373 552.176 690.477 551.992C690.581 551.8 690.725 551.656 690.909 551.56C691.093 551.456 691.305 551.404 691.545 551.404C691.897 551.404 692.157 551.508 692.325 551.716C692.493 551.924 692.577 552.232 692.577 552.64ZM697.964 556.12C698.604 556.12 699.152 555.996 699.608 555.748C700.064 555.5 700.436 555.128 700.724 554.632L699.608 554.176C699.432 554.472 699.212 554.692 698.948 554.836C698.684 554.98 698.376 555.052 698.024 555.052C697.688 555.052 697.4 554.98 697.16 554.836C696.928 554.692 696.752 554.484 696.632 554.212C696.512 553.932 696.452 553.592 696.452 553.192C696.46 552.792 696.524 552.456 696.644 552.184C696.764 551.912 696.94 551.704 697.172 551.56C697.404 551.416 697.684 551.344 698.012 551.344C698.284 551.344 698.52 551.404 698.72 551.524C698.928 551.644 699.088 551.812 699.2 552.028C699.32 552.244 699.38 552.5 699.38 552.796C699.38 552.852 699.364 552.924 699.332 553.012C699.308 553.092 699.284 553.156 699.26 553.204L699.656 552.652H695.912V553.54H700.76C700.768 553.508 700.772 553.456 700.772 553.384C700.78 553.312 700.784 553.244 700.784 553.18C700.784 552.588 700.672 552.084 700.448 551.668C700.232 551.244 699.92 550.92 699.512 550.696C699.104 550.472 698.608 550.36 698.024 550.36C697.44 550.36 696.932 550.48 696.5 550.72C696.068 550.952 695.732 551.284 695.492 551.716C695.26 552.148 695.144 552.656 695.144 553.24C695.144 553.816 695.26 554.32 695.492 554.752C695.724 555.184 696.052 555.52 696.476 555.76C696.908 556 697.404 556.12 697.964 556.12ZM701.253 550.48V551.62H704.385V550.48H701.253ZM702.177 548.56V556H703.461V548.56H702.177ZM713.221 547.6L708.229 557.8H709.537L714.493 547.6H713.221ZM722.408 553.504L719.936 547.6H718.304L722.408 556.468L726.512 547.6H724.88L722.408 553.504ZM727.489 547.6V556H728.905V547.6H727.489ZM728.329 548.848H730.021C730.509 548.848 730.901 548.964 731.197 549.196C731.493 549.42 731.641 549.756 731.641 550.204C731.641 550.652 731.493 550.992 731.197 551.224C730.901 551.456 730.509 551.572 730.021 551.572H728.329V552.82H730.021C730.629 552.82 731.157 552.716 731.605 552.508C732.061 552.292 732.413 551.988 732.661 551.596C732.909 551.204 733.033 550.74 733.033 550.204C733.033 549.668 732.909 549.208 732.661 548.824C732.413 548.432 732.061 548.132 731.605 547.924C731.157 547.708 730.629 547.6 730.021 547.6H728.329V548.848ZM735.47 551.8C735.47 551.2 735.602 550.68 735.866 550.24C736.138 549.792 736.49 549.448 736.922 549.208C737.362 548.96 737.838 548.836 738.35 548.836C738.75 548.836 739.11 548.888 739.43 548.992C739.75 549.096 740.038 549.24 740.294 549.424C740.558 549.6 740.786 549.8 740.978 550.024V548.344C740.626 548.056 740.246 547.836 739.838 547.684C739.43 547.532 738.918 547.456 738.302 547.456C737.686 547.456 737.11 547.56 736.574 547.768C736.046 547.976 735.586 548.276 735.194 548.668C734.802 549.06 734.494 549.524 734.27 550.06C734.054 550.588 733.946 551.168 733.946 551.8C733.946 552.432 734.054 553.016 734.27 553.552C734.494 554.08 734.802 554.54 735.194 554.932C735.586 555.324 736.046 555.624 736.574 555.832C737.11 556.04 737.686 556.144 738.302 556.144C738.918 556.144 739.43 556.068 739.838 555.916C740.246 555.764 740.626 555.544 740.978 555.256V553.576C740.786 553.8 740.558 554.004 740.294 554.188C740.038 554.364 739.75 554.504 739.43 554.608C739.11 554.712 738.75 554.764 738.35 554.764C737.838 554.764 737.362 554.644 736.922 554.404C736.49 554.156 736.138 553.808 735.866 553.36C735.602 552.912 735.47 552.392 735.47 551.8Z" fill="#99ACBE"/>
<rect x="526" y="471" width="200" height="50" rx="25" fill="#44A0F8"/>
<path d="M604.25 495.864H612.234V494.12H604.25V495.864ZM611.018 489.8V501H612.906V489.8H611.018ZM603.498 489.8V501H605.386V489.8H603.498ZM614.7 497.32C614.7 498.067 614.871 498.733 615.212 499.32C615.564 499.896 616.039 500.349 616.636 500.68C617.234 501 617.911 501.16 618.668 501.16C619.426 501.16 620.098 501 620.684 500.68C621.282 500.349 621.756 499.896 622.108 499.32C622.46 498.733 622.636 498.067 622.636 497.32C622.636 496.563 622.46 495.896 622.108 495.32C621.756 494.744 621.282 494.296 620.684 493.976C620.098 493.645 619.426 493.48 618.668 493.48C617.911 493.48 617.234 493.645 616.636 493.976C616.039 494.296 615.564 494.744 615.212 495.32C614.871 495.896 614.7 496.563 614.7 497.32ZM616.476 497.32C616.476 496.861 616.572 496.456 616.764 496.104C616.956 495.752 617.218 495.48 617.548 495.288C617.879 495.096 618.252 495 618.668 495C619.074 495 619.442 495.096 619.772 495.288C620.114 495.48 620.38 495.752 620.572 496.104C620.764 496.456 620.86 496.861 620.86 497.32C620.86 497.779 620.764 498.184 620.572 498.536C620.38 498.877 620.114 499.149 619.772 499.352C619.442 499.544 619.074 499.64 618.668 499.64C618.252 499.64 617.879 499.544 617.548 499.352C617.218 499.149 616.956 498.877 616.764 498.536C616.572 498.184 616.476 497.779 616.476 497.32ZM624.612 498.584L623.604 499.592C623.817 499.869 624.079 500.136 624.388 500.392C624.708 500.637 625.076 500.84 625.492 501C625.919 501.149 626.383 501.224 626.884 501.224C627.695 501.224 628.335 501.016 628.804 500.6C629.284 500.173 629.524 499.613 629.524 498.92C629.524 498.472 629.417 498.109 629.204 497.832C629.001 497.555 628.729 497.32 628.388 497.128C628.047 496.936 627.673 496.76 627.268 496.6C626.969 496.483 626.697 496.371 626.452 496.264C626.217 496.157 626.025 496.04 625.876 495.912C625.737 495.773 625.668 495.619 625.668 495.448C625.668 495.245 625.748 495.091 625.908 494.984C626.068 494.877 626.271 494.824 626.516 494.824C626.879 494.824 627.231 494.915 627.572 495.096C627.913 495.277 628.207 495.512 628.452 495.8L629.412 494.776C629.209 494.531 628.964 494.312 628.676 494.12C628.388 493.928 628.063 493.773 627.7 493.656C627.348 493.539 626.969 493.48 626.564 493.48C626.116 493.48 625.695 493.555 625.3 493.704C624.916 493.843 624.607 494.061 624.372 494.36C624.148 494.659 624.036 495.032 624.036 495.48C624.036 495.917 624.137 496.28 624.34 496.568C624.553 496.856 624.82 497.091 625.14 497.272C625.471 497.443 625.801 497.592 626.132 497.72C626.463 497.837 626.751 497.955 626.996 498.072C627.241 498.179 627.433 498.312 627.572 498.472C627.711 498.621 627.78 498.803 627.78 499.016C627.78 499.261 627.689 499.453 627.508 499.592C627.337 499.731 627.097 499.8 626.788 499.8C626.543 499.8 626.297 499.757 626.052 499.672C625.807 499.576 625.561 499.437 625.316 499.256C625.081 499.064 624.847 498.84 624.612 498.584ZM630.033 493.64V495.16H634.209V493.64H630.033ZM631.265 491.08V501H632.977V491.08H631.265ZM639.414 501H647.958V499.24H643.094L646.278 496.12C646.736 495.693 647.104 495.208 647.382 494.664C647.67 494.12 647.814 493.555 647.814 492.968C647.814 492.595 647.734 492.211 647.574 491.816C647.424 491.421 647.19 491.059 646.87 490.728C646.56 490.397 646.166 490.131 645.686 489.928C645.206 489.715 644.64 489.608 643.99 489.608C643.136 489.608 642.411 489.789 641.814 490.152C641.227 490.504 640.779 490.995 640.47 491.624C640.171 492.243 640.022 492.952 640.022 493.752H641.894C641.894 493.261 641.974 492.829 642.134 492.456C642.304 492.083 642.544 491.8 642.854 491.608C643.163 491.405 643.531 491.304 643.958 491.304C644.267 491.304 644.539 491.357 644.774 491.464C645.008 491.56 645.206 491.693 645.366 491.864C645.536 492.035 645.659 492.227 645.734 492.44C645.819 492.643 645.862 492.851 645.862 493.064C645.862 493.363 645.814 493.645 645.718 493.912C645.622 494.179 645.478 494.445 645.286 494.712C645.094 494.979 644.864 495.256 644.598 495.544L639.414 501Z" fill="white"/>
<path d="M792 329V480C792 488.284 785.284 495 777 495H735" stroke="#93A9BF" stroke-width="2" stroke-linecap="round" stroke-linejoin="round" stroke-dasharray="4 4"/>
<path d="M792 122.5V277" stroke="#93A9BF" stroke-width="2" stroke-linecap="round" stroke-linejoin="round" stroke-dasharray="4 4"/>
<path d="M768.265 294.4C768.265 295.189 768.441 295.883 768.793 296.48C769.145 297.077 769.609 297.541 770.185 297.872C770.772 298.192 771.407 298.352 772.089 298.352C772.879 298.352 773.561 298.203 774.137 297.904C774.724 297.595 775.209 297.211 775.593 296.752V299.008C775.135 299.392 774.628 299.685 774.073 299.888C773.529 300.091 772.847 300.192 772.025 300.192C771.204 300.192 770.441 300.053 769.737 299.776C769.033 299.488 768.415 299.088 767.881 298.576C767.359 298.064 766.948 297.456 766.649 296.752C766.361 296.037 766.217 295.253 766.217 294.4C766.217 293.547 766.361 292.768 766.649 292.064C766.948 291.349 767.359 290.736 767.881 290.224C768.415 289.712 769.033 289.317 769.737 289.04C770.441 288.752 771.204 288.608 772.025 288.608C772.847 288.608 773.529 288.709 774.073 288.912C774.628 289.115 775.135 289.408 775.593 289.792V292.048C775.209 291.589 774.724 291.211 774.137 290.912C773.561 290.603 772.879 290.448 772.089 290.448C771.407 290.448 770.772 290.613 770.185 290.944C769.609 291.264 769.145 291.723 768.793 292.32C768.441 292.907 768.265 293.6 768.265 294.4ZM777.216 296.32C777.216 295.563 777.387 294.896 777.728 294.32C778.08 293.744 778.555 293.296 779.152 292.976C779.76 292.645 780.437 292.48 781.184 292.48C781.941 292.48 782.619 292.645 783.216 292.976C783.813 293.296 784.283 293.744 784.624 294.32C784.976 294.896 785.152 295.563 785.152 296.32C785.152 297.067 784.976 297.733 784.624 298.32C784.283 298.896 783.813 299.349 783.216 299.68C782.619 300 781.941 300.16 781.184 300.16C780.437 300.16 779.76 300 779.152 299.68C778.555 299.349 778.08 298.896 777.728 298.32C777.387 297.733 777.216 297.067 777.216 296.32ZM778.992 296.32C778.992 297.003 779.2 297.563 779.616 298C780.043 298.427 780.565 298.64 781.184 298.64C781.813 298.64 782.336 298.427 782.752 298C783.168 297.563 783.376 297.003 783.376 296.32C783.376 295.627 783.168 295.067 782.752 294.64C782.336 294.213 781.813 294 781.184 294C780.565 294 780.043 294.213 779.616 294.64C779.2 295.067 778.992 295.627 778.992 296.32ZM791.528 295.52C791.528 294.421 791.074 293.872 790.168 293.872C789.677 293.872 789.277 294.021 788.968 294.32C788.669 294.619 788.52 295.019 788.52 295.52V300H786.792V292.64H788.52V293.776C788.989 292.912 789.73 292.48 790.744 292.48C791.576 292.48 792.21 292.736 792.648 293.248C793.085 293.749 793.304 294.443 793.304 295.328V300H791.528V295.52ZM794.486 292.64H795.718V290.08H797.43V292.64H798.662V294.16H797.43V300H795.718V294.16H794.486V292.64ZM803.758 294.496C803.598 294.368 803.449 294.272 803.31 294.208C803.171 294.133 802.995 294.096 802.782 294.096C802.355 294.096 802.046 294.256 801.854 294.576C801.662 294.896 801.566 295.323 801.566 295.856V300H799.854V292.64H801.566V293.536C801.779 293.205 802.035 292.949 802.334 292.768C802.633 292.576 802.937 292.48 803.246 292.48C803.513 292.48 803.763 292.523 803.998 292.608C804.233 292.693 804.435 292.832 804.606 293.024L803.758 294.496ZM804.982 296.32C804.982 295.563 805.152 294.896 805.493 294.32C805.846 293.744 806.32 293.296 806.918 292.976C807.526 292.645 808.203 292.48 808.95 292.48C809.707 292.48 810.384 292.645 810.982 292.976C811.579 293.296 812.048 293.744 812.39 294.32C812.742 294.896 812.918 295.563 812.918 296.32C812.918 297.067 812.742 297.733 812.39 298.32C812.048 298.896 811.579 299.349 810.982 299.68C810.384 300 809.707 300.16 808.95 300.16C808.203 300.16 807.526 300 806.918 299.68C806.32 299.349 805.846 298.896 805.493 298.32C805.152 297.733 804.982 297.067 804.982 296.32ZM806.758 296.32C806.758 297.003 806.966 297.563 807.382 298C807.808 298.427 808.331 298.64 808.95 298.64C809.579 298.64 810.102 298.427 810.518 298C810.934 297.563 811.142 297.003 811.142 296.32C811.142 295.627 810.934 295.067 810.518 294.64C810.102 294.213 809.579 294 808.95 294C808.331 294 807.808 294.213 807.382 294.64C806.966 295.067 806.758 295.627 806.758 296.32ZM814.557 287.52H816.285V300H814.557V287.52ZM765.265 312.4C765.265 313.189 765.441 313.883 765.793 314.48C766.145 315.077 766.609 315.541 767.185 315.872C767.772 316.192 768.407 316.352 769.089 316.352C769.879 316.352 770.561 316.203 771.137 315.904C771.724 315.595 772.209 315.211 772.593 314.752V317.008C772.135 317.392 771.628 317.685 771.073 317.888C770.529 318.091 769.847 318.192 769.025 318.192C768.204 318.192 767.441 318.053 766.737 317.776C766.033 317.488 765.415 317.088 764.881 316.576C764.359 316.064 763.948 315.456 763.649 314.752C763.361 314.037 763.217 313.253 763.217 312.4C763.217 311.547 763.361 310.768 763.649 310.064C763.948 309.349 764.359 308.736 764.881 308.224C765.415 307.712 766.033 307.317 766.737 307.04C767.441 306.752 768.204 306.608 769.025 306.608C769.847 306.608 770.529 306.709 771.073 306.912C771.628 307.115 772.135 307.408 772.593 307.792V310.048C772.209 309.589 771.724 309.211 771.137 308.912C770.561 308.603 769.879 308.448 769.089 308.448C768.407 308.448 767.772 308.613 767.185 308.944C766.609 309.264 766.145 309.723 765.793 310.32C765.441 310.907 765.265 311.6 765.265 312.4ZM779.512 313.52C779.512 312.987 779.4 312.581 779.176 312.304C778.963 312.016 778.621 311.872 778.152 311.872C777.661 311.872 777.261 312.027 776.952 312.336C776.653 312.635 776.504 313.029 776.504 313.52V318H774.776V305.52H776.504V311.744C776.728 311.349 777.027 311.035 777.4 310.8C777.773 310.555 778.216 310.432 778.728 310.432C779.549 310.432 780.173 310.672 780.6 311.152C781.037 311.632 781.256 312.341 781.256 313.28V318H779.512V313.52ZM783.992 312.56L783.288 311.344C783.629 311.141 784.061 310.944 784.584 310.752C785.106 310.56 785.709 310.464 786.392 310.464C787.298 310.464 788.04 310.667 788.616 311.072C789.202 311.467 789.496 312.027 789.496 312.752V318H787.8V316.992C787.565 317.387 787.218 317.68 786.76 317.872C786.301 318.064 785.837 318.16 785.368 318.16C784.909 318.16 784.482 318.069 784.088 317.888C783.693 317.707 783.378 317.44 783.144 317.088C782.909 316.736 782.792 316.309 782.792 315.808C782.792 315.093 783.042 314.528 783.544 314.112C784.056 313.685 784.765 313.472 785.672 313.472C786.152 313.472 786.568 313.525 786.92 313.632C787.272 313.739 787.565 313.856 787.8 313.984V313.088C787.8 312.64 787.65 312.325 787.352 312.144C787.064 311.963 786.69 311.872 786.232 311.872C785.709 311.872 785.245 311.957 784.84 312.128C784.434 312.299 784.152 312.443 783.992 312.56ZM784.536 315.712C784.536 316.075 784.664 316.357 784.92 316.56C785.186 316.763 785.517 316.864 785.912 316.864C786.424 316.864 786.866 316.709 787.24 316.4C787.613 316.08 787.8 315.643 787.8 315.088V314.976C787.288 314.731 786.717 314.608 786.088 314.608C785.544 314.608 785.149 314.709 784.904 314.912C784.658 315.104 784.536 315.371 784.536 315.712ZM796.246 313.52C796.246 312.421 795.793 311.872 794.886 311.872C794.396 311.872 793.996 312.021 793.686 312.32C793.388 312.619 793.238 313.019 793.238 313.52V318H791.51V310.64H793.238V311.776C793.708 310.912 794.449 310.48 795.462 310.48C796.294 310.48 796.929 310.736 797.366 311.248C797.804 311.749 798.022 312.443 798.022 313.328V318H796.246V313.52ZM804.965 313.52C804.965 312.421 804.512 311.872 803.605 311.872C803.114 311.872 802.714 312.021 802.405 312.32C802.106 312.619 801.957 313.019 801.957 313.52V318H800.229V310.64H801.957V311.776C802.426 310.912 803.168 310.48 804.181 310.48C805.013 310.48 805.648 310.736 806.085 311.248C806.522 311.749 806.741 312.443 806.741 313.328V318H804.965V313.52ZM812.148 318.16C811.39 318.16 810.729 318 810.164 317.68C809.598 317.36 809.161 316.912 808.852 316.336C808.542 315.76 808.388 315.088 808.388 314.32C808.388 313.541 808.542 312.869 808.852 312.304C809.172 311.728 809.62 311.28 810.196 310.96C810.772 310.64 811.449 310.48 812.228 310.48C813.39 310.48 814.292 310.816 814.932 311.488C815.582 312.149 815.908 313.067 815.908 314.24C815.908 314.336 815.902 314.432 815.892 314.528C815.892 314.613 815.892 314.677 815.892 314.72H810.164C810.228 315.36 810.436 315.856 810.788 316.208C811.15 316.56 811.63 316.736 812.228 316.736C813.166 316.736 813.87 316.347 814.34 315.568L815.844 316.16C815.076 317.493 813.844 318.16 812.148 318.16ZM812.212 311.792C811.092 311.792 810.425 312.368 810.212 313.52H814.02C813.988 312.997 813.806 312.581 813.476 312.272C813.145 311.952 812.724 311.792 812.212 311.792ZM817.557 305.52H819.285V318H817.557V305.52Z" fill="#99ACBE"/>
<path d="M784 127L792 119L800 127" stroke="#93A9BF" stroke-width="2" stroke-linecap="round" stroke-linejoin="round" stroke-dasharray="4 4"/>
<circle cx="279.5" cy="495.5" r="12.5" fill="#44A0F8" stroke="white" stroke-width="2"/>
<circle cx="525.5" cy="495.5" r="12.5" fill="#44A0F8" stroke="white" stroke-width="2"/>
<path d="M386.904 283.8V295H388.824V283.8H386.904ZM390.52 295C391.662 295 392.664 294.771 393.528 294.312C394.392 293.843 395.064 293.192 395.544 292.36C396.035 291.517 396.28 290.531 396.28 289.4C396.28 288.269 396.035 287.288 395.544 286.456C395.064 285.613 394.392 284.963 393.528 284.504C392.664 284.035 391.662 283.8 390.52 283.8H388.072V285.576H390.472C391.027 285.576 391.539 285.656 392.008 285.816C392.478 285.976 392.883 286.216 393.224 286.536C393.576 286.856 393.848 287.256 394.04 287.736C394.243 288.216 394.344 288.771 394.344 289.4C394.344 290.029 394.243 290.584 394.04 291.064C393.848 291.544 393.576 291.944 393.224 292.264C392.883 292.584 392.478 292.824 392.008 292.984C391.539 293.144 391.027 293.224 390.472 293.224H388.072V295H390.52ZM399.067 292.712C399.067 292.477 399.12 292.28 399.227 292.12C399.344 291.96 399.515 291.837 399.739 291.752C399.963 291.656 400.256 291.608 400.619 291.608C401.035 291.608 401.43 291.661 401.803 291.768C402.176 291.875 402.528 292.045 402.859 292.28V291.4C402.763 291.283 402.598 291.155 402.363 291.016C402.128 290.867 401.83 290.739 401.467 290.632C401.115 290.525 400.694 290.472 400.203 290.472C399.286 290.472 398.576 290.685 398.075 291.112C397.574 291.528 397.323 292.093 397.323 292.808C397.323 293.309 397.44 293.736 397.675 294.088C397.91 294.44 398.224 294.707 398.619 294.888C399.014 295.069 399.44 295.16 399.899 295.16C400.326 295.16 400.742 295.085 401.147 294.936C401.563 294.776 401.904 294.541 402.171 294.232C402.448 293.912 402.587 293.517 402.587 293.048L402.331 292.088C402.331 292.451 402.24 292.771 402.059 293.048C401.888 293.315 401.659 293.517 401.371 293.656C401.094 293.795 400.784 293.864 400.443 293.864C400.176 293.864 399.936 293.821 399.723 293.736C399.52 293.651 399.36 293.523 399.243 293.352C399.126 293.171 399.067 292.957 399.067 292.712ZM398.523 289.56C398.63 289.485 398.79 289.395 399.003 289.288C399.227 289.171 399.488 289.075 399.787 289C400.096 288.915 400.422 288.872 400.763 288.872C400.987 288.872 401.195 288.893 401.387 288.936C401.579 288.979 401.744 289.048 401.883 289.144C402.022 289.24 402.128 289.363 402.203 289.512C402.288 289.661 402.331 289.853 402.331 290.088V295H404.027V289.752C404.027 289.261 403.894 288.851 403.627 288.52C403.36 288.179 402.992 287.917 402.523 287.736C402.064 287.555 401.531 287.464 400.923 287.464C400.24 287.464 399.632 287.56 399.099 287.752C398.576 287.944 398.15 288.141 397.819 288.344L398.523 289.56ZM405.018 287.64V289.16H409.194V287.64H405.018ZM406.25 285.08V295H407.962V285.08H406.25ZM411.473 292.712C411.473 292.477 411.527 292.28 411.633 292.12C411.751 291.96 411.921 291.837 412.145 291.752C412.369 291.656 412.663 291.608 413.025 291.608C413.441 291.608 413.836 291.661 414.209 291.768C414.583 291.875 414.935 292.045 415.265 292.28V291.4C415.169 291.283 415.004 291.155 414.769 291.016C414.535 290.867 414.236 290.739 413.873 290.632C413.521 290.525 413.1 290.472 412.609 290.472C411.692 290.472 410.983 290.685 410.481 291.112C409.98 291.528 409.729 292.093 409.729 292.808C409.729 293.309 409.847 293.736 410.081 294.088C410.316 294.44 410.631 294.707 411.025 294.888C411.42 295.069 411.847 295.16 412.305 295.16C412.732 295.16 413.148 295.085 413.553 294.936C413.969 294.776 414.311 294.541 414.577 294.232C414.855 293.912 414.993 293.517 414.993 293.048L414.737 292.088C414.737 292.451 414.647 292.771 414.465 293.048C414.295 293.315 414.065 293.517 413.777 293.656C413.5 293.795 413.191 293.864 412.849 293.864C412.583 293.864 412.343 293.821 412.129 293.736C411.927 293.651 411.767 293.523 411.649 293.352C411.532 293.171 411.473 292.957 411.473 292.712ZM410.929 289.56C411.036 289.485 411.196 289.395 411.409 289.288C411.633 289.171 411.895 289.075 412.193 289C412.503 288.915 412.828 288.872 413.169 288.872C413.393 288.872 413.601 288.893 413.793 288.936C413.985 288.979 414.151 289.048 414.289 289.144C414.428 289.24 414.535 289.363 414.609 289.512C414.695 289.661 414.737 289.853 414.737 290.088V295H416.433V289.752C416.433 289.261 416.3 288.851 416.033 288.52C415.767 288.179 415.399 287.917 414.929 287.736C414.471 287.555 413.937 287.464 413.329 287.464C412.647 287.464 412.039 287.56 411.505 287.752C410.983 287.944 410.556 288.141 410.225 288.344L410.929 289.56ZM375.249 307.4C375.249 306.6 375.425 305.907 375.777 305.32C376.14 304.723 376.609 304.264 377.185 303.944C377.772 303.613 378.407 303.448 379.089 303.448C379.623 303.448 380.103 303.517 380.529 303.656C380.956 303.795 381.34 303.987 381.681 304.232C382.033 304.467 382.337 304.733 382.593 305.032V302.792C382.124 302.408 381.617 302.115 381.073 301.912C380.529 301.709 379.847 301.608 379.025 301.608C378.204 301.608 377.436 301.747 376.721 302.024C376.017 302.301 375.404 302.701 374.881 303.224C374.359 303.747 373.948 304.365 373.649 305.08C373.361 305.784 373.217 306.557 373.217 307.4C373.217 308.243 373.361 309.021 373.649 309.736C373.948 310.44 374.359 311.053 374.881 311.576C375.404 312.099 376.017 312.499 376.721 312.776C377.436 313.053 378.204 313.192 379.025 313.192C379.847 313.192 380.529 313.091 381.073 312.888C381.617 312.685 382.124 312.392 382.593 312.008V309.768C382.337 310.067 382.033 310.339 381.681 310.584C381.34 310.819 380.956 311.005 380.529 311.144C380.103 311.283 379.623 311.352 379.089 311.352C378.407 311.352 377.772 311.192 377.185 310.872C376.609 310.541 376.14 310.077 375.777 309.48C375.425 308.883 375.249 308.189 375.249 307.4ZM386.504 300.52H384.776V313H386.504V300.52ZM389.512 308.52V313H391.256V308.28C391.256 307.651 391.16 307.128 390.968 306.712C390.776 306.285 390.488 305.965 390.104 305.752C389.731 305.539 389.272 305.432 388.728 305.432C388.173 305.432 387.699 305.571 387.304 305.848C386.92 306.125 386.621 306.493 386.408 306.952C386.195 307.411 386.088 307.933 386.088 308.52H386.504C386.504 308.189 386.573 307.901 386.712 307.656C386.851 307.411 387.043 307.219 387.288 307.08C387.533 306.941 387.816 306.872 388.136 306.872C388.616 306.872 388.963 307.011 389.176 307.288C389.4 307.565 389.512 307.976 389.512 308.52ZM394.536 310.712C394.536 310.477 394.589 310.28 394.696 310.12C394.813 309.96 394.984 309.837 395.208 309.752C395.432 309.656 395.725 309.608 396.088 309.608C396.504 309.608 396.898 309.661 397.272 309.768C397.645 309.875 397.997 310.045 398.328 310.28V309.4C398.232 309.283 398.066 309.155 397.832 309.016C397.597 308.867 397.298 308.739 396.936 308.632C396.584 308.525 396.162 308.472 395.672 308.472C394.754 308.472 394.045 308.685 393.544 309.112C393.042 309.528 392.792 310.093 392.792 310.808C392.792 311.309 392.909 311.736 393.144 312.088C393.378 312.44 393.693 312.707 394.088 312.888C394.482 313.069 394.909 313.16 395.368 313.16C395.794 313.16 396.21 313.085 396.616 312.936C397.032 312.776 397.373 312.541 397.64 312.232C397.917 311.912 398.056 311.517 398.056 311.048L397.8 310.088C397.8 310.451 397.709 310.771 397.528 311.048C397.357 311.315 397.128 311.517 396.84 311.656C396.562 311.795 396.253 311.864 395.912 311.864C395.645 311.864 395.405 311.821 395.192 311.736C394.989 311.651 394.829 311.523 394.712 311.352C394.594 311.171 394.536 310.957 394.536 310.712ZM393.992 307.56C394.098 307.485 394.258 307.395 394.472 307.288C394.696 307.171 394.957 307.075 395.256 307C395.565 306.915 395.89 306.872 396.232 306.872C396.456 306.872 396.664 306.893 396.856 306.936C397.048 306.979 397.213 307.048 397.352 307.144C397.49 307.24 397.597 307.363 397.672 307.512C397.757 307.661 397.8 307.853 397.8 308.088V313H399.496V307.752C399.496 307.261 399.362 306.851 399.096 306.52C398.829 306.179 398.461 305.917 397.992 305.736C397.533 305.555 397 305.464 396.392 305.464C395.709 305.464 395.101 305.56 394.568 305.752C394.045 305.944 393.618 306.141 393.288 306.344L393.992 307.56ZM406.246 308.52V313H408.022V308.328C408.022 307.443 407.804 306.749 407.366 306.248C406.929 305.736 406.294 305.48 405.462 305.48C404.95 305.48 404.508 305.587 404.134 305.8C403.772 306.013 403.473 306.339 403.238 306.776V305.64H401.51V313H403.238V308.52C403.238 308.189 403.308 307.901 403.446 307.656C403.585 307.4 403.777 307.208 404.022 307.08C404.268 306.941 404.55 306.872 404.87 306.872C405.34 306.872 405.686 307.011 405.91 307.288C406.134 307.565 406.246 307.976 406.246 308.52ZM414.965 308.52V313H416.741V308.328C416.741 307.443 416.522 306.749 416.085 306.248C415.648 305.736 415.013 305.48 414.181 305.48C413.669 305.48 413.226 305.587 412.853 305.8C412.49 306.013 412.192 306.339 411.957 306.776V305.64H410.229V313H411.957V308.52C411.957 308.189 412.026 307.901 412.165 307.656C412.304 307.4 412.496 307.208 412.741 307.08C412.986 306.941 413.269 306.872 413.589 306.872C414.058 306.872 414.405 307.011 414.629 307.288C414.853 307.565 414.965 307.976 414.965 308.52ZM422.148 313.16C423.001 313.16 423.732 312.995 424.34 312.664C424.948 312.333 425.444 311.837 425.828 311.176L424.34 310.568C424.105 310.963 423.812 311.256 423.46 311.448C423.108 311.64 422.697 311.736 422.228 311.736C421.78 311.736 421.396 311.64 421.076 311.448C420.766 311.256 420.532 310.979 420.372 310.616C420.212 310.243 420.132 309.789 420.132 309.256C420.142 308.723 420.228 308.275 420.388 307.912C420.548 307.549 420.782 307.272 421.092 307.08C421.401 306.888 421.774 306.792 422.212 306.792C422.574 306.792 422.889 306.872 423.156 307.032C423.433 307.192 423.646 307.416 423.796 307.704C423.956 307.992 424.036 308.333 424.036 308.728C424.036 308.803 424.014 308.899 423.972 309.016C423.94 309.123 423.908 309.208 423.876 309.272L424.404 308.536H419.412V309.72H425.876C425.886 309.677 425.892 309.608 425.892 309.512C425.902 309.416 425.908 309.325 425.908 309.24C425.908 308.451 425.758 307.779 425.46 307.224C425.172 306.659 424.756 306.227 424.212 305.928C423.668 305.629 423.006 305.48 422.228 305.48C421.449 305.48 420.772 305.64 420.196 305.96C419.62 306.269 419.172 306.712 418.852 307.288C418.542 307.864 418.388 308.541 418.388 309.32C418.388 310.088 418.542 310.76 418.852 311.336C419.161 311.912 419.598 312.36 420.164 312.68C420.74 313 421.401 313.16 422.148 313.16ZM427.557 300.52V313H429.285V300.52H427.557Z" fill="#4476F8"/>
<path d="M409 326V480C409 488.284 415.716 495 424 495H496" stroke="#4476F8" stroke-width="2" stroke-linecap="round" stroke-linejoin="round"/>
<path d="M398 326V480C398 488.284 391.284 495 383 495H311" stroke="#4476F8" stroke-width="2" stroke-linecap="round" stroke-linejoin="round"/>
<path d="M451 495L496.5 495M496.5 495L488.5 487M496.5 495L488.5 503" stroke="#4476F8" stroke-width="2" stroke-linecap="round" stroke-linejoin="round"/>
<path d="M357 495L311.5 495M311.5 495L319.5 503M311.5 495L319.5 487" stroke="#4476F8" stroke-width="2" stroke-linecap="round" stroke-linejoin="round"/>
<path d="M409 142L409 275.5" stroke="#4476F8" stroke-width="2" stroke-linecap="round" stroke-linejoin="round"/>
<path d="M398 142L398 275.5" stroke="#4476F8" stroke-width="2" stroke-linecap="round" stroke-linejoin="round"/>
</svg>
