<svg width="1170" height="680" viewBox="0 0 1170 680" fill="none" xmlns="http://www.w3.org/2000/svg">
<rect width="1170" height="680" fill="white"/>
<circle cx="53.5" cy="626.5" r="12.5" fill="#BC1DCB" stroke="white" stroke-width="2"/>
<path d="M77.8971 626.4C77.8971 625.632 78.0571 624.949 78.3771 624.352C78.7077 623.744 79.1611 623.269 79.7371 622.928C80.3131 622.587 80.9691 622.416 81.7051 622.416C82.4624 622.416 83.1237 622.587 83.6891 622.928C84.2651 623.269 84.7131 623.744 85.0331 624.352C85.3531 624.949 85.5131 625.632 85.5131 626.4C85.5131 627.168 85.3477 627.856 85.0171 628.464C84.6971 629.061 84.2491 629.531 83.6731 629.872C83.1077 630.213 82.4517 630.384 81.7051 630.384C80.9691 630.384 80.3131 630.213 79.7371 629.872C79.1611 629.531 78.7077 629.061 78.3771 628.464C78.0571 627.856 77.8971 627.168 77.8971 626.4ZM75.8971 626.4C75.8971 627.232 76.0411 628.005 76.3291 628.72C76.6171 629.435 77.0171 630.053 77.5291 630.576C78.0517 631.099 78.6704 631.509 79.3851 631.808C80.0997 632.096 80.8731 632.24 81.7051 632.24C82.5477 632.24 83.3211 632.096 84.0251 631.808C84.7397 631.509 85.3584 631.099 85.8811 630.576C86.4037 630.053 86.8091 629.435 87.0971 628.72C87.3851 628.005 87.5291 627.232 87.5291 626.4C87.5291 625.557 87.3851 624.784 87.0971 624.08C86.8091 623.376 86.3984 622.768 85.8651 622.256C85.3424 621.733 84.7291 621.328 84.0251 621.04C83.3211 620.752 82.5477 620.608 81.7051 620.608C80.8837 620.608 80.1157 620.752 79.4011 621.04C78.6971 621.328 78.0784 621.733 77.5451 622.256C77.0224 622.768 76.6171 623.376 76.3291 624.08C76.0411 624.784 75.8971 625.557 75.8971 626.4ZM90.9012 635.52V624.64H89.1572V635.52H90.9012ZM96.9972 628.32C96.9972 627.499 96.8319 626.8 96.5012 626.224C96.1705 625.648 95.7332 625.211 95.1892 624.912C94.6452 624.603 94.0532 624.448 93.4132 624.448C92.7839 624.448 92.2345 624.608 91.7652 624.928C91.3065 625.237 90.9492 625.68 90.6932 626.256C90.4479 626.832 90.3252 627.52 90.3252 628.32C90.3252 629.109 90.4479 629.797 90.6932 630.384C90.9492 630.96 91.3065 631.408 91.7652 631.728C92.2345 632.037 92.7839 632.192 93.4132 632.192C94.0532 632.192 94.6452 632.043 95.1892 631.744C95.7332 631.435 96.1705 630.992 96.5012 630.416C96.8319 629.829 96.9972 629.131 96.9972 628.32ZM95.2052 628.32C95.2052 628.811 95.1039 629.232 94.9012 629.584C94.6985 629.925 94.4265 630.187 94.0852 630.368C93.7545 630.539 93.3865 630.624 92.9812 630.624C92.6505 630.624 92.3252 630.539 92.0052 630.368C91.6852 630.187 91.4185 629.925 91.2052 629.584C91.0025 629.243 90.9012 628.821 90.9012 628.32C90.9012 627.819 91.0025 627.397 91.2052 627.056C91.4185 626.715 91.6852 626.459 92.0052 626.288C92.3252 626.107 92.6505 626.016 92.9812 626.016C93.3865 626.016 93.7545 626.107 94.0852 626.288C94.4265 626.459 94.6985 626.72 94.9012 627.072C95.1039 627.413 95.2052 627.829 95.2052 628.32ZM101.843 632.16C102.696 632.16 103.427 631.995 104.035 631.664C104.643 631.333 105.139 630.837 105.523 630.176L104.035 629.568C103.8 629.963 103.507 630.256 103.155 630.448C102.803 630.64 102.392 630.736 101.923 630.736C101.475 630.736 101.091 630.64 100.771 630.448C100.462 630.256 100.227 629.979 100.067 629.616C99.9071 629.243 99.8271 628.789 99.8271 628.256C99.8377 627.723 99.9231 627.275 100.083 626.912C100.243 626.549 100.478 626.272 100.787 626.08C101.096 625.888 101.47 625.792 101.907 625.792C102.27 625.792 102.584 625.872 102.851 626.032C103.128 626.192 103.342 626.416 103.491 626.704C103.651 626.992 103.731 627.333 103.731 627.728C103.731 627.803 103.71 627.899 103.667 628.016C103.635 628.123 103.603 628.208 103.571 628.272L104.099 627.536H99.1071V628.72H105.571C105.582 628.677 105.587 628.608 105.587 628.512C105.598 628.416 105.603 628.325 105.603 628.24C105.603 627.451 105.454 626.779 105.155 626.224C104.867 625.659 104.451 625.227 103.907 624.928C103.363 624.629 102.702 624.48 101.923 624.48C101.144 624.48 100.467 624.64 99.8911 624.96C99.3151 625.269 98.8671 625.712 98.5471 626.288C98.2377 626.864 98.0831 627.541 98.0831 628.32C98.0831 629.088 98.2377 629.76 98.5471 630.336C98.8564 630.912 99.2937 631.36 99.8591 631.68C100.435 632 101.096 632.16 101.843 632.16ZM111.988 627.52V632H113.764V627.328C113.764 626.443 113.546 625.749 113.108 625.248C112.671 624.736 112.036 624.48 111.204 624.48C110.692 624.48 110.25 624.587 109.876 624.8C109.514 625.013 109.215 625.339 108.98 625.776V624.64H107.252V632H108.98V627.52C108.98 627.189 109.05 626.901 109.188 626.656C109.327 626.4 109.519 626.208 109.764 626.08C110.01 625.941 110.292 625.872 110.612 625.872C111.082 625.872 111.428 626.011 111.652 626.288C111.876 626.565 111.988 626.976 111.988 627.52ZM120.912 620.8V632H122.8V620.8H120.912ZM122.032 622.464H124.288C124.939 622.464 125.461 622.619 125.856 622.928C126.251 623.227 126.448 623.675 126.448 624.272C126.448 624.869 126.251 625.323 125.856 625.632C125.461 625.941 124.939 626.096 124.288 626.096H122.032V627.76H124.288C125.099 627.76 125.803 627.621 126.4 627.344C127.008 627.056 127.477 626.651 127.808 626.128C128.139 625.605 128.304 624.987 128.304 624.272C128.304 623.557 128.139 622.944 127.808 622.432C127.477 621.909 127.008 621.509 126.4 621.232C125.803 620.944 125.099 620.8 124.288 620.8H122.032V622.464ZM128.974 628.32C128.974 629.067 129.144 629.733 129.486 630.32C129.838 630.896 130.312 631.349 130.91 631.68C131.507 632 132.184 632.16 132.942 632.16C133.699 632.16 134.371 632 134.958 631.68C135.555 631.349 136.03 630.896 136.382 630.32C136.734 629.733 136.91 629.067 136.91 628.32C136.91 627.563 136.734 626.896 136.382 626.32C136.03 625.744 135.555 625.296 134.958 624.976C134.371 624.645 133.699 624.48 132.942 624.48C132.184 624.48 131.507 624.645 130.91 624.976C130.312 625.296 129.838 625.744 129.486 626.32C129.144 626.896 128.974 627.563 128.974 628.32ZM130.75 628.32C130.75 627.861 130.846 627.456 131.038 627.104C131.23 626.752 131.491 626.48 131.822 626.288C132.152 626.096 132.526 626 132.942 626C133.347 626 133.715 626.096 134.046 626.288C134.387 626.48 134.654 626.752 134.846 627.104C135.038 627.456 135.134 627.861 135.134 628.32C135.134 628.779 135.038 629.184 134.846 629.536C134.654 629.877 134.387 630.149 134.046 630.352C133.715 630.544 133.347 630.64 132.942 630.64C132.526 630.64 132.152 630.544 131.822 630.352C131.491 630.149 131.23 629.877 131.038 629.536C130.846 629.184 130.75 628.779 130.75 628.32ZM140.261 624.64H138.549V632H140.261V624.64ZM142.453 626.48L143.285 625.024C143.125 624.821 142.928 624.683 142.693 624.608C142.459 624.523 142.208 624.48 141.941 624.48C141.568 624.48 141.205 624.613 140.853 624.88C140.512 625.147 140.229 625.509 140.005 625.968C139.792 626.416 139.685 626.933 139.685 627.52L140.261 627.856C140.261 627.504 140.299 627.2 140.373 626.944C140.459 626.677 140.592 626.469 140.773 626.32C140.955 626.171 141.189 626.096 141.477 626.096C141.691 626.096 141.867 626.128 142.005 626.192C142.144 626.256 142.293 626.352 142.453 626.48ZM143.447 624.64V626.16H147.623V624.64H143.447ZM144.679 622.08V632H146.391V622.08H144.679Z" fill="#93A9BF"/>
<rect x="432" y="489" width="278" height="148" rx="19" fill="white" stroke="#E3EAF2" stroke-width="2"/>
<path d="M512.281 512.6V518.24L506.149 512.18V521H507.541V515.36L513.673 521.42V512.6H512.281ZM517.828 521.12C518.468 521.12 519.016 520.996 519.472 520.748C519.928 520.5 520.3 520.128 520.588 519.632L519.472 519.176C519.296 519.472 519.076 519.692 518.812 519.836C518.548 519.98 518.24 520.052 517.888 520.052C517.552 520.052 517.264 519.98 517.024 519.836C516.792 519.692 516.616 519.484 516.496 519.212C516.376 518.932 516.316 518.592 516.316 518.192C516.324 517.792 516.388 517.456 516.508 517.184C516.628 516.912 516.804 516.704 517.036 516.56C517.268 516.416 517.548 516.344 517.876 516.344C518.148 516.344 518.384 516.404 518.584 516.524C518.792 516.644 518.952 516.812 519.064 517.028C519.184 517.244 519.244 517.5 519.244 517.796C519.244 517.852 519.228 517.924 519.196 518.012C519.172 518.092 519.148 518.156 519.124 518.204L519.52 517.652H515.776V518.54H520.624C520.632 518.508 520.636 518.456 520.636 518.384C520.644 518.312 520.648 518.244 520.648 518.18C520.648 517.588 520.536 517.084 520.312 516.668C520.096 516.244 519.784 515.92 519.376 515.696C518.968 515.472 518.472 515.36 517.888 515.36C517.304 515.36 516.796 515.48 516.364 515.72C515.932 515.952 515.596 516.284 515.356 516.716C515.124 517.148 515.008 517.656 515.008 518.24C515.008 518.816 515.124 519.32 515.356 519.752C515.588 520.184 515.916 520.52 516.34 520.76C516.772 521 517.268 521.12 517.828 521.12ZM521.117 515.48V516.62H524.249V515.48H521.117ZM522.041 513.56V521H523.325V513.56H522.041ZM524.314 515.48L526.894 521.396L528.55 517.664L530.278 521.396L532.858 515.48H531.454L530.158 518.78L528.538 515.06L527.014 518.768L525.718 515.48H524.314ZM533.09 518.24C533.09 518.8 533.218 519.3 533.474 519.74C533.738 520.172 534.094 520.512 534.542 520.76C534.99 521 535.498 521.12 536.066 521.12C536.634 521.12 537.138 521 537.578 520.76C538.026 520.512 538.382 520.172 538.646 519.74C538.91 519.3 539.042 518.8 539.042 518.24C539.042 517.672 538.91 517.172 538.646 516.74C538.382 516.308 538.026 515.972 537.578 515.732C537.138 515.484 536.634 515.36 536.066 515.36C535.498 515.36 534.99 515.484 534.542 515.732C534.094 515.972 533.738 516.308 533.474 516.74C533.218 517.172 533.09 517.672 533.09 518.24ZM534.422 518.24C534.422 517.896 534.494 517.592 534.638 517.328C534.782 517.064 534.978 516.86 535.226 516.716C535.474 516.572 535.754 516.5 536.066 516.5C536.37 516.5 536.646 516.572 536.894 516.716C537.15 516.86 537.35 517.064 537.494 517.328C537.638 517.592 537.71 517.896 537.71 518.24C537.71 518.584 537.638 518.888 537.494 519.152C537.35 519.408 537.15 519.612 536.894 519.764C536.646 519.908 536.37 519.98 536.066 519.98C535.754 519.98 535.474 519.908 535.226 519.764C534.978 519.612 534.782 519.408 534.638 519.152C534.494 518.888 534.422 518.584 534.422 518.24ZM541.555 515.48H540.271V521H541.555V515.48ZM543.199 516.86L543.823 515.768C543.703 515.616 543.555 515.512 543.379 515.456C543.203 515.392 543.015 515.36 542.815 515.36C542.535 515.36 542.263 515.46 541.999 515.66C541.743 515.86 541.531 516.132 541.363 516.476C541.203 516.812 541.123 517.2 541.123 517.64L541.555 517.892C541.555 517.628 541.583 517.4 541.639 517.208C541.703 517.008 541.803 516.852 541.939 516.74C542.075 516.628 542.251 516.572 542.467 516.572C542.627 516.572 542.759 516.596 542.863 516.644C542.967 516.692 543.079 516.764 543.199 516.86ZM544.665 511.64V521H545.937V511.64H544.665ZM547.965 515.48L545.577 517.76L548.217 521H549.789L547.173 517.76L549.549 515.48H547.965ZM558.596 512.6L553.604 522.8H554.912L559.868 512.6H558.596ZM565.131 518.3L564.075 519.032C564.259 519.416 564.507 519.772 564.819 520.1C565.131 520.428 565.495 520.692 565.911 520.892C566.335 521.084 566.795 521.18 567.291 521.18C567.651 521.18 567.995 521.12 568.323 521C568.659 520.888 568.959 520.728 569.223 520.52C569.487 520.304 569.695 520.04 569.847 519.728C569.999 519.416 570.075 519.064 570.075 518.672C570.075 518.304 570.011 517.984 569.883 517.712C569.763 517.44 569.599 517.204 569.391 517.004C569.183 516.796 568.951 516.624 568.695 516.488C568.447 516.352 568.199 516.24 567.951 516.152C567.503 515.992 567.139 515.836 566.859 515.684C566.579 515.532 566.371 515.372 566.235 515.204C566.107 515.028 566.043 514.832 566.043 514.616C566.043 514.376 566.135 514.168 566.319 513.992C566.503 513.808 566.791 513.716 567.183 513.716C567.463 513.716 567.707 513.772 567.915 513.884C568.131 513.988 568.319 514.132 568.479 514.316C568.639 514.492 568.771 514.684 568.875 514.892L570.027 514.244C569.883 513.948 569.683 513.664 569.427 513.392C569.179 513.12 568.871 512.896 568.503 512.72C568.135 512.544 567.703 512.456 567.207 512.456C566.703 512.456 566.251 512.552 565.851 512.744C565.459 512.928 565.147 513.192 564.915 513.536C564.683 513.872 564.567 514.264 564.567 514.712C564.567 515.104 564.643 515.44 564.795 515.72C564.947 515.992 565.139 516.224 565.371 516.416C565.603 516.6 565.847 516.756 566.103 516.884C566.359 517.004 566.591 517.1 566.799 517.172C567.151 517.3 567.459 517.432 567.723 517.568C567.995 517.696 568.207 517.856 568.359 518.048C568.511 518.232 568.587 518.48 568.587 518.792C568.587 519.12 568.467 519.388 568.227 519.596C567.987 519.804 567.675 519.908 567.291 519.908C566.971 519.908 566.683 519.844 566.427 519.716C566.171 519.58 565.935 519.392 565.719 519.152C565.511 518.904 565.315 518.62 565.131 518.3ZM572.752 518.84V515.48H571.42V518.984C571.42 519.64 571.584 520.16 571.912 520.544C572.248 520.928 572.724 521.12 573.34 521.12C573.724 521.12 574.052 521.04 574.324 520.88C574.604 520.712 574.832 520.468 575.008 520.148V521H576.304V515.48H575.008V518.84C575.008 519.088 574.956 519.308 574.852 519.5C574.748 519.684 574.604 519.828 574.42 519.932C574.236 520.028 574.02 520.076 573.772 520.076C573.428 520.076 573.172 519.968 573.004 519.752C572.836 519.536 572.752 519.232 572.752 518.84ZM579.219 511.64H577.911V521H579.219V511.64ZM583.791 518.24C583.791 517.632 583.667 517.116 583.419 516.692C583.171 516.26 582.843 515.932 582.435 515.708C582.027 515.476 581.583 515.36 581.103 515.36C580.647 515.36 580.239 515.476 579.879 515.708C579.527 515.94 579.251 516.272 579.051 516.704C578.851 517.128 578.751 517.64 578.751 518.24C578.751 518.832 578.851 519.344 579.051 519.776C579.251 520.208 579.527 520.54 579.879 520.772C580.239 521.004 580.647 521.12 581.103 521.12C581.583 521.12 582.027 521.008 582.435 520.784C582.843 520.552 583.171 520.22 583.419 519.788C583.667 519.356 583.791 518.84 583.791 518.24ZM582.447 518.24C582.447 518.608 582.371 518.924 582.219 519.188C582.067 519.452 581.863 519.652 581.607 519.788C581.359 519.924 581.083 519.992 580.779 519.992C580.531 519.992 580.287 519.924 580.047 519.788C579.807 519.652 579.607 519.456 579.447 519.2C579.295 518.936 579.219 518.616 579.219 518.24C579.219 517.864 579.295 517.548 579.447 517.292C579.607 517.028 579.807 516.828 580.047 516.692C580.287 516.556 580.531 516.488 580.779 516.488C581.083 516.488 581.359 516.556 581.607 516.692C581.863 516.828 582.067 517.028 582.219 517.292C582.371 517.556 582.447 517.872 582.447 518.24ZM588.577 517.64V521H589.909V517.496C589.909 516.832 589.745 516.312 589.417 515.936C589.089 515.552 588.613 515.36 587.989 515.36C587.605 515.36 587.273 515.44 586.993 515.6C586.721 515.76 586.497 516.004 586.321 516.332V515.48H585.025V521H586.321V517.64C586.321 517.392 586.373 517.176 586.477 516.992C586.581 516.8 586.725 516.656 586.909 516.56C587.093 516.456 587.305 516.404 587.545 516.404C587.897 516.404 588.157 516.508 588.325 516.716C588.493 516.924 588.577 517.232 588.577 517.64ZM593.964 521.12C594.604 521.12 595.152 520.996 595.608 520.748C596.064 520.5 596.436 520.128 596.724 519.632L595.608 519.176C595.432 519.472 595.212 519.692 594.948 519.836C594.684 519.98 594.376 520.052 594.024 520.052C593.688 520.052 593.4 519.98 593.16 519.836C592.928 519.692 592.752 519.484 592.632 519.212C592.512 518.932 592.452 518.592 592.452 518.192C592.46 517.792 592.524 517.456 592.644 517.184C592.764 516.912 592.94 516.704 593.172 516.56C593.404 516.416 593.684 516.344 594.012 516.344C594.284 516.344 594.52 516.404 594.72 516.524C594.928 516.644 595.088 516.812 595.2 517.028C595.32 517.244 595.38 517.5 595.38 517.796C595.38 517.852 595.364 517.924 595.332 518.012C595.308 518.092 595.284 518.156 595.26 518.204L595.656 517.652H591.912V518.54H596.76C596.768 518.508 596.772 518.456 596.772 518.384C596.78 518.312 596.784 518.244 596.784 518.18C596.784 517.588 596.672 517.084 596.448 516.668C596.232 516.244 595.92 515.92 595.512 515.696C595.104 515.472 594.608 515.36 594.024 515.36C593.44 515.36 592.932 515.48 592.5 515.72C592.068 515.952 591.732 516.284 591.492 516.716C591.26 517.148 591.144 517.656 591.144 518.24C591.144 518.816 591.26 519.32 591.492 519.752C591.724 520.184 592.052 520.52 592.476 520.76C592.908 521 593.404 521.12 593.964 521.12ZM597.253 515.48V516.62H600.385V515.48H597.253ZM598.177 513.56V521H599.461V513.56H598.177ZM609.221 512.6L604.229 522.8H605.537L610.493 512.6H609.221ZM618.408 518.504L615.936 512.6H614.304L618.408 521.468L622.512 512.6H620.88L618.408 518.504ZM623.489 512.6V521H624.905V512.6H623.489ZM624.329 513.848H626.021C626.509 513.848 626.901 513.964 627.197 514.196C627.493 514.42 627.641 514.756 627.641 515.204C627.641 515.652 627.493 515.992 627.197 516.224C626.901 516.456 626.509 516.572 626.021 516.572H624.329V517.82H626.021C626.629 517.82 627.157 517.716 627.605 517.508C628.061 517.292 628.413 516.988 628.661 516.596C628.909 516.204 629.033 515.74 629.033 515.204C629.033 514.668 628.909 514.208 628.661 513.824C628.413 513.432 628.061 513.132 627.605 512.924C627.157 512.708 626.629 512.6 626.021 512.6H624.329V513.848ZM631.47 516.8C631.47 516.2 631.602 515.68 631.866 515.24C632.138 514.792 632.49 514.448 632.922 514.208C633.362 513.96 633.838 513.836 634.35 513.836C634.75 513.836 635.11 513.888 635.43 513.992C635.75 514.096 636.038 514.24 636.294 514.424C636.558 514.6 636.786 514.8 636.978 515.024V513.344C636.626 513.056 636.246 512.836 635.838 512.684C635.43 512.532 634.918 512.456 634.302 512.456C633.686 512.456 633.11 512.56 632.574 512.768C632.046 512.976 631.586 513.276 631.194 513.668C630.802 514.06 630.494 514.524 630.27 515.06C630.054 515.588 629.946 516.168 629.946 516.8C629.946 517.432 630.054 518.016 630.27 518.552C630.494 519.08 630.802 519.54 631.194 519.932C631.586 520.324 632.046 520.624 632.574 520.832C633.11 521.04 633.686 521.144 634.302 521.144C634.918 521.144 635.43 521.068 635.838 520.916C636.246 520.764 636.626 520.544 636.978 520.256V518.576C636.786 518.8 636.558 519.004 636.294 519.188C636.038 519.364 635.75 519.504 635.43 519.608C635.11 519.712 634.75 519.764 634.35 519.764C633.838 519.764 633.362 519.644 632.922 519.404C632.49 519.156 632.138 518.808 631.866 518.36C631.602 517.912 631.47 517.392 631.47 516.8Z" fill="#99ACBE"/>
<rect x="471" y="548" width="200" height="50" rx="25" fill="#44A0F8"/>
<path d="M549.25 573.864H557.234V572.12H549.25V573.864ZM556.018 567.8V579H557.906V567.8H556.018ZM548.498 567.8V579H550.386V567.8H548.498ZM559.7 575.32C559.7 576.067 559.871 576.733 560.212 577.32C560.564 577.896 561.039 578.349 561.636 578.68C562.234 579 562.911 579.16 563.668 579.16C564.426 579.16 565.098 579 565.684 578.68C566.282 578.349 566.756 577.896 567.108 577.32C567.46 576.733 567.636 576.067 567.636 575.32C567.636 574.563 567.46 573.896 567.108 573.32C566.756 572.744 566.282 572.296 565.684 571.976C565.098 571.645 564.426 571.48 563.668 571.48C562.911 571.48 562.234 571.645 561.636 571.976C561.039 572.296 560.564 572.744 560.212 573.32C559.871 573.896 559.7 574.563 559.7 575.32ZM561.476 575.32C561.476 574.861 561.572 574.456 561.764 574.104C561.956 573.752 562.218 573.48 562.548 573.288C562.879 573.096 563.252 573 563.668 573C564.074 573 564.442 573.096 564.772 573.288C565.114 573.48 565.38 573.752 565.572 574.104C565.764 574.456 565.86 574.861 565.86 575.32C565.86 575.779 565.764 576.184 565.572 576.536C565.38 576.877 565.114 577.149 564.772 577.352C564.442 577.544 564.074 577.64 563.668 577.64C563.252 577.64 562.879 577.544 562.548 577.352C562.218 577.149 561.956 576.877 561.764 576.536C561.572 576.184 561.476 575.779 561.476 575.32ZM569.612 576.584L568.604 577.592C568.817 577.869 569.079 578.136 569.388 578.392C569.708 578.637 570.076 578.84 570.492 579C570.919 579.149 571.383 579.224 571.884 579.224C572.695 579.224 573.335 579.016 573.804 578.6C574.284 578.173 574.524 577.613 574.524 576.92C574.524 576.472 574.417 576.109 574.204 575.832C574.001 575.555 573.729 575.32 573.388 575.128C573.047 574.936 572.673 574.76 572.268 574.6C571.969 574.483 571.697 574.371 571.452 574.264C571.217 574.157 571.025 574.04 570.876 573.912C570.737 573.773 570.668 573.619 570.668 573.448C570.668 573.245 570.748 573.091 570.908 572.984C571.068 572.877 571.271 572.824 571.516 572.824C571.879 572.824 572.231 572.915 572.572 573.096C572.913 573.277 573.207 573.512 573.452 573.8L574.412 572.776C574.209 572.531 573.964 572.312 573.676 572.12C573.388 571.928 573.063 571.773 572.7 571.656C572.348 571.539 571.969 571.48 571.564 571.48C571.116 571.48 570.695 571.555 570.3 571.704C569.916 571.843 569.607 572.061 569.372 572.36C569.148 572.659 569.036 573.032 569.036 573.48C569.036 573.917 569.137 574.28 569.34 574.568C569.553 574.856 569.82 575.091 570.14 575.272C570.471 575.443 570.801 575.592 571.132 575.72C571.463 575.837 571.751 575.955 571.996 576.072C572.241 576.179 572.433 576.312 572.572 576.472C572.711 576.621 572.78 576.803 572.78 577.016C572.78 577.261 572.689 577.453 572.508 577.592C572.337 577.731 572.097 577.8 571.788 577.8C571.543 577.8 571.297 577.757 571.052 577.672C570.807 577.576 570.561 577.437 570.316 577.256C570.081 577.064 569.847 576.84 569.612 576.584ZM575.033 571.64V573.16H579.209V571.64H575.033ZM576.265 569.08V579H577.977V569.08H576.265ZM584.414 579H592.958V577.24H588.094L591.278 574.12C591.736 573.693 592.104 573.208 592.382 572.664C592.67 572.12 592.814 571.555 592.814 570.968C592.814 570.595 592.734 570.211 592.574 569.816C592.424 569.421 592.19 569.059 591.87 568.728C591.56 568.397 591.166 568.131 590.686 567.928C590.206 567.715 589.64 567.608 588.99 567.608C588.136 567.608 587.411 567.789 586.814 568.152C586.227 568.504 585.779 568.995 585.47 569.624C585.171 570.243 585.022 570.952 585.022 571.752H586.894C586.894 571.261 586.974 570.829 587.134 570.456C587.304 570.083 587.544 569.8 587.854 569.608C588.163 569.405 588.531 569.304 588.958 569.304C589.267 569.304 589.539 569.357 589.774 569.464C590.008 569.56 590.206 569.693 590.366 569.864C590.536 570.035 590.659 570.227 590.734 570.44C590.819 570.643 590.862 570.851 590.862 571.064C590.862 571.363 590.814 571.645 590.718 571.912C590.622 572.179 590.478 572.445 590.286 572.712C590.094 572.979 589.864 573.256 589.598 573.544L584.414 579Z" fill="white"/>
<rect x="851" y="311" width="278" height="148" rx="19" fill="white" stroke="#E3EAF2" stroke-width="2"/>
<path d="M931.281 334.6V340.24L925.149 334.18V343H926.541V337.36L932.673 343.42V334.6H931.281ZM936.828 343.12C937.468 343.12 938.016 342.996 938.472 342.748C938.928 342.5 939.3 342.128 939.588 341.632L938.472 341.176C938.296 341.472 938.076 341.692 937.812 341.836C937.548 341.98 937.24 342.052 936.888 342.052C936.552 342.052 936.264 341.98 936.024 341.836C935.792 341.692 935.616 341.484 935.496 341.212C935.376 340.932 935.316 340.592 935.316 340.192C935.324 339.792 935.388 339.456 935.508 339.184C935.628 338.912 935.804 338.704 936.036 338.56C936.268 338.416 936.548 338.344 936.876 338.344C937.148 338.344 937.384 338.404 937.584 338.524C937.792 338.644 937.952 338.812 938.064 339.028C938.184 339.244 938.244 339.5 938.244 339.796C938.244 339.852 938.228 339.924 938.196 340.012C938.172 340.092 938.148 340.156 938.124 340.204L938.52 339.652H934.776V340.54H939.624C939.632 340.508 939.636 340.456 939.636 340.384C939.644 340.312 939.648 340.244 939.648 340.18C939.648 339.588 939.536 339.084 939.312 338.668C939.096 338.244 938.784 337.92 938.376 337.696C937.968 337.472 937.472 337.36 936.888 337.36C936.304 337.36 935.796 337.48 935.364 337.72C934.932 337.952 934.596 338.284 934.356 338.716C934.124 339.148 934.008 339.656 934.008 340.24C934.008 340.816 934.124 341.32 934.356 341.752C934.588 342.184 934.916 342.52 935.34 342.76C935.772 343 936.268 343.12 936.828 343.12ZM940.117 337.48V338.62H943.249V337.48H940.117ZM941.041 335.56V343H942.325V335.56H941.041ZM943.314 337.48L945.894 343.396L947.55 339.664L949.278 343.396L951.858 337.48H950.454L949.158 340.78L947.538 337.06L946.014 340.768L944.718 337.48H943.314ZM952.09 340.24C952.09 340.8 952.218 341.3 952.474 341.74C952.738 342.172 953.094 342.512 953.542 342.76C953.99 343 954.498 343.12 955.066 343.12C955.634 343.12 956.138 343 956.578 342.76C957.026 342.512 957.382 342.172 957.646 341.74C957.91 341.3 958.042 340.8 958.042 340.24C958.042 339.672 957.91 339.172 957.646 338.74C957.382 338.308 957.026 337.972 956.578 337.732C956.138 337.484 955.634 337.36 955.066 337.36C954.498 337.36 953.99 337.484 953.542 337.732C953.094 337.972 952.738 338.308 952.474 338.74C952.218 339.172 952.09 339.672 952.09 340.24ZM953.422 340.24C953.422 339.896 953.494 339.592 953.638 339.328C953.782 339.064 953.978 338.86 954.226 338.716C954.474 338.572 954.754 338.5 955.066 338.5C955.37 338.5 955.646 338.572 955.894 338.716C956.15 338.86 956.35 339.064 956.494 339.328C956.638 339.592 956.71 339.896 956.71 340.24C956.71 340.584 956.638 340.888 956.494 341.152C956.35 341.408 956.15 341.612 955.894 341.764C955.646 341.908 955.37 341.98 955.066 341.98C954.754 341.98 954.474 341.908 954.226 341.764C953.978 341.612 953.782 341.408 953.638 341.152C953.494 340.888 953.422 340.584 953.422 340.24ZM960.555 337.48H959.271V343H960.555V337.48ZM962.199 338.86L962.823 337.768C962.703 337.616 962.555 337.512 962.379 337.456C962.203 337.392 962.015 337.36 961.815 337.36C961.535 337.36 961.263 337.46 960.999 337.66C960.743 337.86 960.531 338.132 960.363 338.476C960.203 338.812 960.123 339.2 960.123 339.64L960.555 339.892C960.555 339.628 960.583 339.4 960.639 339.208C960.703 339.008 960.803 338.852 960.939 338.74C961.075 338.628 961.251 338.572 961.467 338.572C961.627 338.572 961.759 338.596 961.863 338.644C961.967 338.692 962.079 338.764 962.199 338.86ZM963.665 333.64V343H964.937V333.64H963.665ZM966.965 337.48L964.577 339.76L967.217 343H968.789L966.173 339.76L968.549 337.48H966.965ZM977.596 334.6L972.604 344.8H973.912L978.868 334.6H977.596ZM984.131 340.3L983.075 341.032C983.259 341.416 983.507 341.772 983.819 342.1C984.131 342.428 984.495 342.692 984.911 342.892C985.335 343.084 985.795 343.18 986.291 343.18C986.651 343.18 986.995 343.12 987.323 343C987.659 342.888 987.959 342.728 988.223 342.52C988.487 342.304 988.695 342.04 988.847 341.728C988.999 341.416 989.075 341.064 989.075 340.672C989.075 340.304 989.011 339.984 988.883 339.712C988.763 339.44 988.599 339.204 988.391 339.004C988.183 338.796 987.951 338.624 987.695 338.488C987.447 338.352 987.199 338.24 986.951 338.152C986.503 337.992 986.139 337.836 985.859 337.684C985.579 337.532 985.371 337.372 985.235 337.204C985.107 337.028 985.043 336.832 985.043 336.616C985.043 336.376 985.135 336.168 985.319 335.992C985.503 335.808 985.791 335.716 986.183 335.716C986.463 335.716 986.707 335.772 986.915 335.884C987.131 335.988 987.319 336.132 987.479 336.316C987.639 336.492 987.771 336.684 987.875 336.892L989.027 336.244C988.883 335.948 988.683 335.664 988.427 335.392C988.179 335.12 987.871 334.896 987.503 334.72C987.135 334.544 986.703 334.456 986.207 334.456C985.703 334.456 985.251 334.552 984.851 334.744C984.459 334.928 984.147 335.192 983.915 335.536C983.683 335.872 983.567 336.264 983.567 336.712C983.567 337.104 983.643 337.44 983.795 337.72C983.947 337.992 984.139 338.224 984.371 338.416C984.603 338.6 984.847 338.756 985.103 338.884C985.359 339.004 985.591 339.1 985.799 339.172C986.151 339.3 986.459 339.432 986.723 339.568C986.995 339.696 987.207 339.856 987.359 340.048C987.511 340.232 987.587 340.48 987.587 340.792C987.587 341.12 987.467 341.388 987.227 341.596C986.987 341.804 986.675 341.908 986.291 341.908C985.971 341.908 985.683 341.844 985.427 341.716C985.171 341.58 984.935 341.392 984.719 341.152C984.511 340.904 984.315 340.62 984.131 340.3ZM991.752 340.84V337.48H990.42V340.984C990.42 341.64 990.584 342.16 990.912 342.544C991.248 342.928 991.724 343.12 992.34 343.12C992.724 343.12 993.052 343.04 993.324 342.88C993.604 342.712 993.832 342.468 994.008 342.148V343H995.304V337.48H994.008V340.84C994.008 341.088 993.956 341.308 993.852 341.5C993.748 341.684 993.604 341.828 993.42 341.932C993.236 342.028 993.02 342.076 992.772 342.076C992.428 342.076 992.172 341.968 992.004 341.752C991.836 341.536 991.752 341.232 991.752 340.84ZM998.219 333.64H996.911V343H998.219V333.64ZM1002.79 340.24C1002.79 339.632 1002.67 339.116 1002.42 338.692C1002.17 338.26 1001.84 337.932 1001.43 337.708C1001.03 337.476 1000.58 337.36 1000.1 337.36C999.647 337.36 999.239 337.476 998.879 337.708C998.527 337.94 998.251 338.272 998.051 338.704C997.851 339.128 997.751 339.64 997.751 340.24C997.751 340.832 997.851 341.344 998.051 341.776C998.251 342.208 998.527 342.54 998.879 342.772C999.239 343.004 999.647 343.12 1000.1 343.12C1000.58 343.12 1001.03 343.008 1001.43 342.784C1001.84 342.552 1002.17 342.22 1002.42 341.788C1002.67 341.356 1002.79 340.84 1002.79 340.24ZM1001.45 340.24C1001.45 340.608 1001.37 340.924 1001.22 341.188C1001.07 341.452 1000.86 341.652 1000.61 341.788C1000.36 341.924 1000.08 341.992 999.779 341.992C999.531 341.992 999.287 341.924 999.047 341.788C998.807 341.652 998.607 341.456 998.447 341.2C998.295 340.936 998.219 340.616 998.219 340.24C998.219 339.864 998.295 339.548 998.447 339.292C998.607 339.028 998.807 338.828 999.047 338.692C999.287 338.556 999.531 338.488 999.779 338.488C1000.08 338.488 1000.36 338.556 1000.61 338.692C1000.86 338.828 1001.07 339.028 1001.22 339.292C1001.37 339.556 1001.45 339.872 1001.45 340.24ZM1007.58 339.64V343H1008.91V339.496C1008.91 338.832 1008.75 338.312 1008.42 337.936C1008.09 337.552 1007.61 337.36 1006.99 337.36C1006.61 337.36 1006.27 337.44 1005.99 337.6C1005.72 337.76 1005.5 338.004 1005.32 338.332V337.48H1004.03V343H1005.32V339.64C1005.32 339.392 1005.37 339.176 1005.48 338.992C1005.58 338.8 1005.73 338.656 1005.91 338.56C1006.09 338.456 1006.31 338.404 1006.55 338.404C1006.9 338.404 1007.16 338.508 1007.33 338.716C1007.49 338.924 1007.58 339.232 1007.58 339.64ZM1012.96 343.12C1013.6 343.12 1014.15 342.996 1014.61 342.748C1015.06 342.5 1015.44 342.128 1015.72 341.632L1014.61 341.176C1014.43 341.472 1014.21 341.692 1013.95 341.836C1013.68 341.98 1013.38 342.052 1013.02 342.052C1012.69 342.052 1012.4 341.98 1012.16 341.836C1011.93 341.692 1011.75 341.484 1011.63 341.212C1011.51 340.932 1011.45 340.592 1011.45 340.192C1011.46 339.792 1011.52 339.456 1011.64 339.184C1011.76 338.912 1011.94 338.704 1012.17 338.56C1012.4 338.416 1012.68 338.344 1013.01 338.344C1013.28 338.344 1013.52 338.404 1013.72 338.524C1013.93 338.644 1014.09 338.812 1014.2 339.028C1014.32 339.244 1014.38 339.5 1014.38 339.796C1014.38 339.852 1014.36 339.924 1014.33 340.012C1014.31 340.092 1014.28 340.156 1014.26 340.204L1014.66 339.652H1010.91V340.54H1015.76C1015.77 340.508 1015.77 340.456 1015.77 340.384C1015.78 340.312 1015.78 340.244 1015.78 340.18C1015.78 339.588 1015.67 339.084 1015.45 338.668C1015.23 338.244 1014.92 337.92 1014.51 337.696C1014.1 337.472 1013.61 337.36 1013.02 337.36C1012.44 337.36 1011.93 337.48 1011.5 337.72C1011.07 337.952 1010.73 338.284 1010.49 338.716C1010.26 339.148 1010.14 339.656 1010.14 340.24C1010.14 340.816 1010.26 341.32 1010.49 341.752C1010.72 342.184 1011.05 342.52 1011.48 342.76C1011.91 343 1012.4 343.12 1012.96 343.12ZM1016.25 337.48V338.62H1019.39V337.48H1016.25ZM1017.18 335.56V343H1018.46V335.56H1017.18ZM1028.22 334.6L1023.23 344.8H1024.54L1029.49 334.6H1028.22ZM1037.41 340.504L1034.94 334.6H1033.3L1037.41 343.468L1041.51 334.6H1039.88L1037.41 340.504ZM1042.49 334.6V343H1043.9V334.6H1042.49ZM1043.33 335.848H1045.02C1045.51 335.848 1045.9 335.964 1046.2 336.196C1046.49 336.42 1046.64 336.756 1046.64 337.204C1046.64 337.652 1046.49 337.992 1046.2 338.224C1045.9 338.456 1045.51 338.572 1045.02 338.572H1043.33V339.82H1045.02C1045.63 339.82 1046.16 339.716 1046.6 339.508C1047.06 339.292 1047.41 338.988 1047.66 338.596C1047.91 338.204 1048.03 337.74 1048.03 337.204C1048.03 336.668 1047.91 336.208 1047.66 335.824C1047.41 335.432 1047.06 335.132 1046.6 334.924C1046.16 334.708 1045.63 334.6 1045.02 334.6H1043.33V335.848ZM1050.47 338.8C1050.47 338.2 1050.6 337.68 1050.87 337.24C1051.14 336.792 1051.49 336.448 1051.92 336.208C1052.36 335.96 1052.84 335.836 1053.35 335.836C1053.75 335.836 1054.11 335.888 1054.43 335.992C1054.75 336.096 1055.04 336.24 1055.29 336.424C1055.56 336.6 1055.79 336.8 1055.98 337.024V335.344C1055.63 335.056 1055.25 334.836 1054.84 334.684C1054.43 334.532 1053.92 334.456 1053.3 334.456C1052.69 334.456 1052.11 334.56 1051.57 334.768C1051.05 334.976 1050.59 335.276 1050.19 335.668C1049.8 336.06 1049.49 336.524 1049.27 337.06C1049.05 337.588 1048.95 338.168 1048.95 338.8C1048.95 339.432 1049.05 340.016 1049.27 340.552C1049.49 341.08 1049.8 341.54 1050.19 341.932C1050.59 342.324 1051.05 342.624 1051.57 342.832C1052.11 343.04 1052.69 343.144 1053.3 343.144C1053.92 343.144 1054.43 343.068 1054.84 342.916C1055.25 342.764 1055.63 342.544 1055.98 342.256V340.576C1055.79 340.8 1055.56 341.004 1055.29 341.188C1055.04 341.364 1054.75 341.504 1054.43 341.608C1054.11 341.712 1053.75 341.764 1053.35 341.764C1052.84 341.764 1052.36 341.644 1051.92 341.404C1051.49 341.156 1051.14 340.808 1050.87 340.36C1050.6 339.912 1050.47 339.392 1050.47 338.8Z" fill="#99ACBE"/>
<rect x="890" y="370" width="200" height="50" rx="25" fill="#44A0F8"/>
<path d="M969.289 395.864H977.273V394.12H969.289V395.864ZM976.057 389.8V401H977.945V389.8H976.057ZM968.537 389.8V401H970.425V389.8H968.537ZM979.739 397.32C979.739 398.067 979.91 398.733 980.251 399.32C980.603 399.896 981.078 400.349 981.675 400.68C982.273 401 982.95 401.16 983.707 401.16C984.465 401.16 985.137 401 985.723 400.68C986.321 400.349 986.795 399.896 987.147 399.32C987.499 398.733 987.675 398.067 987.675 397.32C987.675 396.563 987.499 395.896 987.147 395.32C986.795 394.744 986.321 394.296 985.723 393.976C985.137 393.645 984.465 393.48 983.707 393.48C982.95 393.48 982.273 393.645 981.675 393.976C981.078 394.296 980.603 394.744 980.251 395.32C979.91 395.896 979.739 396.563 979.739 397.32ZM981.515 397.32C981.515 396.861 981.611 396.456 981.803 396.104C981.995 395.752 982.257 395.48 982.587 395.288C982.918 395.096 983.291 395 983.707 395C984.113 395 984.481 395.096 984.811 395.288C985.153 395.48 985.419 395.752 985.611 396.104C985.803 396.456 985.899 396.861 985.899 397.32C985.899 397.779 985.803 398.184 985.611 398.536C985.419 398.877 985.153 399.149 984.811 399.352C984.481 399.544 984.113 399.64 983.707 399.64C983.291 399.64 982.918 399.544 982.587 399.352C982.257 399.149 981.995 398.877 981.803 398.536C981.611 398.184 981.515 397.779 981.515 397.32ZM989.651 398.584L988.643 399.592C988.856 399.869 989.118 400.136 989.427 400.392C989.747 400.637 990.115 400.84 990.531 401C990.958 401.149 991.422 401.224 991.923 401.224C992.734 401.224 993.374 401.016 993.843 400.6C994.323 400.173 994.563 399.613 994.563 398.92C994.563 398.472 994.456 398.109 994.243 397.832C994.04 397.555 993.768 397.32 993.427 397.128C993.086 396.936 992.712 396.76 992.307 396.6C992.008 396.483 991.736 396.371 991.491 396.264C991.256 396.157 991.064 396.04 990.915 395.912C990.776 395.773 990.707 395.619 990.707 395.448C990.707 395.245 990.787 395.091 990.947 394.984C991.107 394.877 991.31 394.824 991.555 394.824C991.918 394.824 992.27 394.915 992.611 395.096C992.952 395.277 993.246 395.512 993.491 395.8L994.451 394.776C994.248 394.531 994.003 394.312 993.715 394.12C993.427 393.928 993.102 393.773 992.739 393.656C992.387 393.539 992.008 393.48 991.603 393.48C991.155 393.48 990.734 393.555 990.339 393.704C989.955 393.843 989.646 394.061 989.411 394.36C989.187 394.659 989.075 395.032 989.075 395.48C989.075 395.917 989.176 396.28 989.379 396.568C989.592 396.856 989.859 397.091 990.179 397.272C990.51 397.443 990.84 397.592 991.171 397.72C991.502 397.837 991.79 397.955 992.035 398.072C992.28 398.179 992.472 398.312 992.611 398.472C992.75 398.621 992.819 398.803 992.819 399.016C992.819 399.261 992.728 399.453 992.547 399.592C992.376 399.731 992.136 399.8 991.827 399.8C991.582 399.8 991.336 399.757 991.091 399.672C990.846 399.576 990.6 399.437 990.355 399.256C990.12 399.064 989.886 398.84 989.651 398.584ZM995.072 393.64V395.16H999.248V393.64H995.072ZM996.304 391.08V401H998.016V391.08H996.304ZM1005.33 392.424L1007.92 391.704V401H1009.8V389.624L1005.33 390.632V392.424Z" fill="white"/>
<path d="M837.125 97.125C852.658 97.125 865.25 90.829 865.25 83.0625C865.25 75.296 852.658 69 837.125 69C821.592 69 809 75.296 809 83.0625C809 90.829 821.592 97.125 837.125 97.125Z" stroke="#93A9BF" stroke-width="4" stroke-miterlimit="10" stroke-linecap="round" stroke-linejoin="round"/>
<path d="M809 83.0625V105.562C809 113.437 821.656 119.625 837.125 119.625C852.594 119.625 865.25 113.437 865.25 105.562V83.0625" stroke="#93A9BF" stroke-width="4" stroke-miterlimit="10" stroke-linecap="round" stroke-linejoin="round"/>
<path d="M809 105.562V128.062C809 135.937 821.656 142.125 837.125 142.125C852.594 142.125 865.25 135.937 865.25 128.062V105.562" stroke="#93A9BF" stroke-width="4" stroke-miterlimit="10" stroke-linecap="round" stroke-linejoin="round"/>
<circle cx="808.5" cy="105.5" r="12.5" fill="#BC1DCB" stroke="white" stroke-width="2"/>
<path fill-rule="evenodd" clip-rule="evenodd" d="M645.588 107.199L644.997 104.193C638.227 69.8021 608.062 44 571.843 44C543.09 44 518.103 60.3335 505.653 84.2659L504.663 86.1703L502.528 86.3975C472.983 89.5424 450 114.613 450 145C450 177.551 476.424 204 508.921 204H645.251C671.981 204 693.685 182.276 693.685 155.5C693.685 129.918 673.85 109.158 648.645 107.41L645.588 107.199ZM571.843 40C610.015 40 641.79 67.195 648.921 103.42C676.187 105.31 697.685 127.78 697.685 155.5C697.685 184.48 674.195 208 645.251 208H508.921C474.21 208 446 179.755 446 145C446 112.555 470.539 85.78 502.105 82.42C515.213 57.22 541.536 40 571.843 40Z" fill="#254BE9"/>
<path d="M502.629 84.0451C452.607 90.3372 446.944 133.438 447.258 144.764C450.027 193.339 488.262 206.532 507.034 207.056H641.685C651.438 207.056 693.91 202.023 696.427 156.405C694.854 111.416 656.786 105.753 647.663 104.495C642.944 74.2923 615.258 42.8316 574.36 41.2586C533.461 39.6855 512.697 67.3709 502.629 84.0451Z" fill="#254BE9"/>
<circle cx="571.5" cy="207.5" r="12.5" fill="#BC1DCB" stroke="white" stroke-width="2"/>
<path d="M677 105L789 105M789 105L781 97M789 105L781 113" stroke="#4476F8" stroke-width="2" stroke-linecap="round" stroke-linejoin="round"/>
<path d="M571 393L571 228M571 228L563 236M571 228L579 236" stroke="#4476F8" stroke-width="2" stroke-linecap="round" stroke-linejoin="round"/>
<path d="M556.904 399.8V411H558.824V399.8H556.904ZM560.52 411C561.662 411 562.664 410.771 563.528 410.312C564.392 409.843 565.064 409.192 565.544 408.36C566.035 407.517 566.28 406.531 566.28 405.4C566.28 404.269 566.035 403.288 565.544 402.456C565.064 401.613 564.392 400.963 563.528 400.504C562.664 400.035 561.662 399.8 560.52 399.8H558.072V401.576H560.472C561.027 401.576 561.539 401.656 562.008 401.816C562.478 401.976 562.883 402.216 563.224 402.536C563.576 402.856 563.848 403.256 564.04 403.736C564.243 404.216 564.344 404.771 564.344 405.4C564.344 406.029 564.243 406.584 564.04 407.064C563.848 407.544 563.576 407.944 563.224 408.264C562.883 408.584 562.478 408.824 562.008 408.984C561.539 409.144 561.027 409.224 560.472 409.224H558.072V411H560.52ZM569.067 408.712C569.067 408.477 569.12 408.28 569.227 408.12C569.344 407.96 569.515 407.837 569.739 407.752C569.963 407.656 570.256 407.608 570.619 407.608C571.035 407.608 571.43 407.661 571.803 407.768C572.176 407.875 572.528 408.045 572.859 408.28V407.4C572.763 407.283 572.598 407.155 572.363 407.016C572.128 406.867 571.83 406.739 571.467 406.632C571.115 406.525 570.694 406.472 570.203 406.472C569.286 406.472 568.576 406.685 568.075 407.112C567.574 407.528 567.323 408.093 567.323 408.808C567.323 409.309 567.44 409.736 567.675 410.088C567.91 410.44 568.224 410.707 568.619 410.888C569.014 411.069 569.44 411.16 569.899 411.16C570.326 411.16 570.742 411.085 571.147 410.936C571.563 410.776 571.904 410.541 572.171 410.232C572.448 409.912 572.587 409.517 572.587 409.048L572.331 408.088C572.331 408.451 572.24 408.771 572.059 409.048C571.888 409.315 571.659 409.517 571.371 409.656C571.094 409.795 570.784 409.864 570.443 409.864C570.176 409.864 569.936 409.821 569.723 409.736C569.52 409.651 569.36 409.523 569.243 409.352C569.126 409.171 569.067 408.957 569.067 408.712ZM568.523 405.56C568.63 405.485 568.79 405.395 569.003 405.288C569.227 405.171 569.488 405.075 569.787 405C570.096 404.915 570.422 404.872 570.763 404.872C570.987 404.872 571.195 404.893 571.387 404.936C571.579 404.979 571.744 405.048 571.883 405.144C572.022 405.24 572.128 405.363 572.203 405.512C572.288 405.661 572.331 405.853 572.331 406.088V411H574.027V405.752C574.027 405.261 573.894 404.851 573.627 404.52C573.36 404.179 572.992 403.917 572.523 403.736C572.064 403.555 571.531 403.464 570.923 403.464C570.24 403.464 569.632 403.56 569.099 403.752C568.576 403.944 568.15 404.141 567.819 404.344L568.523 405.56ZM575.018 403.64V405.16H579.194V403.64H575.018ZM576.25 401.08V411H577.962V401.08H576.25ZM581.473 408.712C581.473 408.477 581.527 408.28 581.633 408.12C581.751 407.96 581.921 407.837 582.145 407.752C582.369 407.656 582.663 407.608 583.025 407.608C583.441 407.608 583.836 407.661 584.209 407.768C584.583 407.875 584.935 408.045 585.265 408.28V407.4C585.169 407.283 585.004 407.155 584.769 407.016C584.535 406.867 584.236 406.739 583.873 406.632C583.521 406.525 583.1 406.472 582.609 406.472C581.692 406.472 580.983 406.685 580.481 407.112C579.98 407.528 579.729 408.093 579.729 408.808C579.729 409.309 579.847 409.736 580.081 410.088C580.316 410.44 580.631 410.707 581.025 410.888C581.42 411.069 581.847 411.16 582.305 411.16C582.732 411.16 583.148 411.085 583.553 410.936C583.969 410.776 584.311 410.541 584.577 410.232C584.855 409.912 584.993 409.517 584.993 409.048L584.737 408.088C584.737 408.451 584.647 408.771 584.465 409.048C584.295 409.315 584.065 409.517 583.777 409.656C583.5 409.795 583.191 409.864 582.849 409.864C582.583 409.864 582.343 409.821 582.129 409.736C581.927 409.651 581.767 409.523 581.649 409.352C581.532 409.171 581.473 408.957 581.473 408.712ZM580.929 405.56C581.036 405.485 581.196 405.395 581.409 405.288C581.633 405.171 581.895 405.075 582.193 405C582.503 404.915 582.828 404.872 583.169 404.872C583.393 404.872 583.601 404.893 583.793 404.936C583.985 404.979 584.151 405.048 584.289 405.144C584.428 405.24 584.535 405.363 584.609 405.512C584.695 405.661 584.737 405.853 584.737 406.088V411H586.433V405.752C586.433 405.261 586.3 404.851 586.033 404.52C585.767 404.179 585.399 403.917 584.929 403.736C584.471 403.555 583.937 403.464 583.329 403.464C582.647 403.464 582.039 403.56 581.505 403.752C580.983 403.944 580.556 404.141 580.225 404.344L580.929 405.56ZM545.249 423.4C545.249 422.6 545.425 421.907 545.777 421.32C546.14 420.723 546.609 420.264 547.185 419.944C547.772 419.613 548.407 419.448 549.089 419.448C549.623 419.448 550.103 419.517 550.529 419.656C550.956 419.795 551.34 419.987 551.681 420.232C552.033 420.467 552.337 420.733 552.593 421.032V418.792C552.124 418.408 551.617 418.115 551.073 417.912C550.529 417.709 549.847 417.608 549.025 417.608C548.204 417.608 547.436 417.747 546.721 418.024C546.017 418.301 545.404 418.701 544.881 419.224C544.359 419.747 543.948 420.365 543.649 421.08C543.361 421.784 543.217 422.557 543.217 423.4C543.217 424.243 543.361 425.021 543.649 425.736C543.948 426.44 544.359 427.053 544.881 427.576C545.404 428.099 546.017 428.499 546.721 428.776C547.436 429.053 548.204 429.192 549.025 429.192C549.847 429.192 550.529 429.091 551.073 428.888C551.617 428.685 552.124 428.392 552.593 428.008V425.768C552.337 426.067 552.033 426.339 551.681 426.584C551.34 426.819 550.956 427.005 550.529 427.144C550.103 427.283 549.623 427.352 549.089 427.352C548.407 427.352 547.772 427.192 547.185 426.872C546.609 426.541 546.14 426.077 545.777 425.48C545.425 424.883 545.249 424.189 545.249 423.4ZM556.504 416.52H554.776V429H556.504V416.52ZM559.512 424.52V429H561.256V424.28C561.256 423.651 561.16 423.128 560.968 422.712C560.776 422.285 560.488 421.965 560.104 421.752C559.731 421.539 559.272 421.432 558.728 421.432C558.173 421.432 557.699 421.571 557.304 421.848C556.92 422.125 556.621 422.493 556.408 422.952C556.195 423.411 556.088 423.933 556.088 424.52H556.504C556.504 424.189 556.573 423.901 556.712 423.656C556.851 423.411 557.043 423.219 557.288 423.08C557.533 422.941 557.816 422.872 558.136 422.872C558.616 422.872 558.963 423.011 559.176 423.288C559.4 423.565 559.512 423.976 559.512 424.52ZM564.536 426.712C564.536 426.477 564.589 426.28 564.696 426.12C564.813 425.96 564.984 425.837 565.208 425.752C565.432 425.656 565.725 425.608 566.088 425.608C566.504 425.608 566.898 425.661 567.272 425.768C567.645 425.875 567.997 426.045 568.328 426.28V425.4C568.232 425.283 568.066 425.155 567.832 425.016C567.597 424.867 567.298 424.739 566.936 424.632C566.584 424.525 566.162 424.472 565.672 424.472C564.754 424.472 564.045 424.685 563.544 425.112C563.042 425.528 562.792 426.093 562.792 426.808C562.792 427.309 562.909 427.736 563.144 428.088C563.378 428.44 563.693 428.707 564.088 428.888C564.482 429.069 564.909 429.16 565.368 429.16C565.794 429.16 566.21 429.085 566.616 428.936C567.032 428.776 567.373 428.541 567.64 428.232C567.917 427.912 568.056 427.517 568.056 427.048L567.8 426.088C567.8 426.451 567.709 426.771 567.528 427.048C567.357 427.315 567.128 427.517 566.84 427.656C566.562 427.795 566.253 427.864 565.912 427.864C565.645 427.864 565.405 427.821 565.192 427.736C564.989 427.651 564.829 427.523 564.712 427.352C564.594 427.171 564.536 426.957 564.536 426.712ZM563.992 423.56C564.098 423.485 564.258 423.395 564.472 423.288C564.696 423.171 564.957 423.075 565.256 423C565.565 422.915 565.89 422.872 566.232 422.872C566.456 422.872 566.664 422.893 566.856 422.936C567.048 422.979 567.213 423.048 567.352 423.144C567.49 423.24 567.597 423.363 567.672 423.512C567.757 423.661 567.8 423.853 567.8 424.088V429H569.496V423.752C569.496 423.261 569.362 422.851 569.096 422.52C568.829 422.179 568.461 421.917 567.992 421.736C567.533 421.555 567 421.464 566.392 421.464C565.709 421.464 565.101 421.56 564.568 421.752C564.045 421.944 563.618 422.141 563.288 422.344L563.992 423.56ZM576.246 424.52V429H578.022V424.328C578.022 423.443 577.804 422.749 577.366 422.248C576.929 421.736 576.294 421.48 575.462 421.48C574.95 421.48 574.508 421.587 574.134 421.8C573.772 422.013 573.473 422.339 573.238 422.776V421.64H571.51V429H573.238V424.52C573.238 424.189 573.308 423.901 573.446 423.656C573.585 423.4 573.777 423.208 574.022 423.08C574.268 422.941 574.55 422.872 574.87 422.872C575.34 422.872 575.686 423.011 575.91 423.288C576.134 423.565 576.246 423.976 576.246 424.52ZM584.965 424.52V429H586.741V424.328C586.741 423.443 586.522 422.749 586.085 422.248C585.648 421.736 585.013 421.48 584.181 421.48C583.669 421.48 583.226 421.587 582.853 421.8C582.49 422.013 582.192 422.339 581.957 422.776V421.64H580.229V429H581.957V424.52C581.957 424.189 582.026 423.901 582.165 423.656C582.304 423.4 582.496 423.208 582.741 423.08C582.986 422.941 583.269 422.872 583.589 422.872C584.058 422.872 584.405 423.011 584.629 423.288C584.853 423.565 584.965 423.976 584.965 424.52ZM592.148 429.16C593.001 429.16 593.732 428.995 594.34 428.664C594.948 428.333 595.444 427.837 595.828 427.176L594.34 426.568C594.105 426.963 593.812 427.256 593.46 427.448C593.108 427.64 592.697 427.736 592.228 427.736C591.78 427.736 591.396 427.64 591.076 427.448C590.766 427.256 590.532 426.979 590.372 426.616C590.212 426.243 590.132 425.789 590.132 425.256C590.142 424.723 590.228 424.275 590.388 423.912C590.548 423.549 590.782 423.272 591.092 423.08C591.401 422.888 591.774 422.792 592.212 422.792C592.574 422.792 592.889 422.872 593.156 423.032C593.433 423.192 593.646 423.416 593.796 423.704C593.956 423.992 594.036 424.333 594.036 424.728C594.036 424.803 594.014 424.899 593.972 425.016C593.94 425.123 593.908 425.208 593.876 425.272L594.404 424.536H589.412V425.72H595.876C595.886 425.677 595.892 425.608 595.892 425.512C595.902 425.416 595.908 425.325 595.908 425.24C595.908 424.451 595.758 423.779 595.46 423.224C595.172 422.659 594.756 422.227 594.212 421.928C593.668 421.629 593.006 421.48 592.228 421.48C591.449 421.48 590.772 421.64 590.196 421.96C589.62 422.269 589.172 422.712 588.852 423.288C588.542 423.864 588.388 424.541 588.388 425.32C588.388 426.088 588.542 426.76 588.852 427.336C589.161 427.912 589.598 428.36 590.164 428.68C590.74 429 591.401 429.16 592.148 429.16ZM597.557 416.52V429H599.285V416.52H597.557Z" fill="#4476F8"/>
<path d="M325.904 370.8V382H327.824V370.8H325.904ZM329.52 382C330.662 382 331.664 381.771 332.528 381.312C333.392 380.843 334.064 380.192 334.544 379.36C335.035 378.517 335.28 377.531 335.28 376.4C335.28 375.269 335.035 374.288 334.544 373.456C334.064 372.613 333.392 371.963 332.528 371.504C331.664 371.035 330.662 370.8 329.52 370.8H327.072V372.576H329.472C330.027 372.576 330.539 372.656 331.008 372.816C331.478 372.976 331.883 373.216 332.224 373.536C332.576 373.856 332.848 374.256 333.04 374.736C333.243 375.216 333.344 375.771 333.344 376.4C333.344 377.029 333.243 377.584 333.04 378.064C332.848 378.544 332.576 378.944 332.224 379.264C331.883 379.584 331.478 379.824 331.008 379.984C330.539 380.144 330.027 380.224 329.472 380.224H327.072V382H329.52ZM338.067 379.712C338.067 379.477 338.12 379.28 338.227 379.12C338.344 378.96 338.515 378.837 338.739 378.752C338.963 378.656 339.256 378.608 339.619 378.608C340.035 378.608 340.43 378.661 340.803 378.768C341.176 378.875 341.528 379.045 341.859 379.28V378.4C341.763 378.283 341.598 378.155 341.363 378.016C341.128 377.867 340.83 377.739 340.467 377.632C340.115 377.525 339.694 377.472 339.203 377.472C338.286 377.472 337.576 377.685 337.075 378.112C336.574 378.528 336.323 379.093 336.323 379.808C336.323 380.309 336.44 380.736 336.675 381.088C336.91 381.44 337.224 381.707 337.619 381.888C338.014 382.069 338.44 382.16 338.899 382.16C339.326 382.16 339.742 382.085 340.147 381.936C340.563 381.776 340.904 381.541 341.171 381.232C341.448 380.912 341.587 380.517 341.587 380.048L341.331 379.088C341.331 379.451 341.24 379.771 341.059 380.048C340.888 380.315 340.659 380.517 340.371 380.656C340.094 380.795 339.784 380.864 339.443 380.864C339.176 380.864 338.936 380.821 338.723 380.736C338.52 380.651 338.36 380.523 338.243 380.352C338.126 380.171 338.067 379.957 338.067 379.712ZM337.523 376.56C337.63 376.485 337.79 376.395 338.003 376.288C338.227 376.171 338.488 376.075 338.787 376C339.096 375.915 339.422 375.872 339.763 375.872C339.987 375.872 340.195 375.893 340.387 375.936C340.579 375.979 340.744 376.048 340.883 376.144C341.022 376.24 341.128 376.363 341.203 376.512C341.288 376.661 341.331 376.853 341.331 377.088V382H343.027V376.752C343.027 376.261 342.894 375.851 342.627 375.52C342.36 375.179 341.992 374.917 341.523 374.736C341.064 374.555 340.531 374.464 339.923 374.464C339.24 374.464 338.632 374.56 338.099 374.752C337.576 374.944 337.15 375.141 336.819 375.344L337.523 376.56ZM344.018 374.64V376.16H348.194V374.64H344.018ZM345.25 372.08V382H346.962V372.08H345.25ZM350.473 379.712C350.473 379.477 350.527 379.28 350.633 379.12C350.751 378.96 350.921 378.837 351.145 378.752C351.369 378.656 351.663 378.608 352.025 378.608C352.441 378.608 352.836 378.661 353.209 378.768C353.583 378.875 353.935 379.045 354.265 379.28V378.4C354.169 378.283 354.004 378.155 353.769 378.016C353.535 377.867 353.236 377.739 352.873 377.632C352.521 377.525 352.1 377.472 351.609 377.472C350.692 377.472 349.983 377.685 349.481 378.112C348.98 378.528 348.729 379.093 348.729 379.808C348.729 380.309 348.847 380.736 349.081 381.088C349.316 381.44 349.631 381.707 350.025 381.888C350.42 382.069 350.847 382.16 351.305 382.16C351.732 382.16 352.148 382.085 352.553 381.936C352.969 381.776 353.311 381.541 353.577 381.232C353.855 380.912 353.993 380.517 353.993 380.048L353.737 379.088C353.737 379.451 353.647 379.771 353.465 380.048C353.295 380.315 353.065 380.517 352.777 380.656C352.5 380.795 352.191 380.864 351.849 380.864C351.583 380.864 351.343 380.821 351.129 380.736C350.927 380.651 350.767 380.523 350.649 380.352C350.532 380.171 350.473 379.957 350.473 379.712ZM349.929 376.56C350.036 376.485 350.196 376.395 350.409 376.288C350.633 376.171 350.895 376.075 351.193 376C351.503 375.915 351.828 375.872 352.169 375.872C352.393 375.872 352.601 375.893 352.793 375.936C352.985 375.979 353.151 376.048 353.289 376.144C353.428 376.24 353.535 376.363 353.609 376.512C353.695 376.661 353.737 376.853 353.737 377.088V382H355.433V376.752C355.433 376.261 355.3 375.851 355.033 375.52C354.767 375.179 354.399 374.917 353.929 374.736C353.471 374.555 352.937 374.464 352.329 374.464C351.647 374.464 351.039 374.56 350.505 374.752C349.983 374.944 349.556 375.141 349.225 375.344L349.929 376.56ZM314.249 394.4C314.249 393.6 314.425 392.907 314.777 392.32C315.14 391.723 315.609 391.264 316.185 390.944C316.772 390.613 317.407 390.448 318.089 390.448C318.623 390.448 319.103 390.517 319.529 390.656C319.956 390.795 320.34 390.987 320.681 391.232C321.033 391.467 321.337 391.733 321.593 392.032V389.792C321.124 389.408 320.617 389.115 320.073 388.912C319.529 388.709 318.847 388.608 318.025 388.608C317.204 388.608 316.436 388.747 315.721 389.024C315.017 389.301 314.404 389.701 313.881 390.224C313.359 390.747 312.948 391.365 312.649 392.08C312.361 392.784 312.217 393.557 312.217 394.4C312.217 395.243 312.361 396.021 312.649 396.736C312.948 397.44 313.359 398.053 313.881 398.576C314.404 399.099 315.017 399.499 315.721 399.776C316.436 400.053 317.204 400.192 318.025 400.192C318.847 400.192 319.529 400.091 320.073 399.888C320.617 399.685 321.124 399.392 321.593 399.008V396.768C321.337 397.067 321.033 397.339 320.681 397.584C320.34 397.819 319.956 398.005 319.529 398.144C319.103 398.283 318.623 398.352 318.089 398.352C317.407 398.352 316.772 398.192 316.185 397.872C315.609 397.541 315.14 397.077 314.777 396.48C314.425 395.883 314.249 395.189 314.249 394.4ZM325.504 387.52H323.776V400H325.504V387.52ZM328.512 395.52V400H330.256V395.28C330.256 394.651 330.16 394.128 329.968 393.712C329.776 393.285 329.488 392.965 329.104 392.752C328.731 392.539 328.272 392.432 327.728 392.432C327.173 392.432 326.699 392.571 326.304 392.848C325.92 393.125 325.621 393.493 325.408 393.952C325.195 394.411 325.088 394.933 325.088 395.52H325.504C325.504 395.189 325.573 394.901 325.712 394.656C325.851 394.411 326.043 394.219 326.288 394.08C326.533 393.941 326.816 393.872 327.136 393.872C327.616 393.872 327.963 394.011 328.176 394.288C328.4 394.565 328.512 394.976 328.512 395.52ZM333.536 397.712C333.536 397.477 333.589 397.28 333.696 397.12C333.813 396.96 333.984 396.837 334.208 396.752C334.432 396.656 334.725 396.608 335.088 396.608C335.504 396.608 335.898 396.661 336.272 396.768C336.645 396.875 336.997 397.045 337.328 397.28V396.4C337.232 396.283 337.066 396.155 336.832 396.016C336.597 395.867 336.298 395.739 335.936 395.632C335.584 395.525 335.162 395.472 334.672 395.472C333.754 395.472 333.045 395.685 332.544 396.112C332.042 396.528 331.792 397.093 331.792 397.808C331.792 398.309 331.909 398.736 332.144 399.088C332.378 399.44 332.693 399.707 333.088 399.888C333.482 400.069 333.909 400.16 334.368 400.16C334.794 400.16 335.21 400.085 335.616 399.936C336.032 399.776 336.373 399.541 336.64 399.232C336.917 398.912 337.056 398.517 337.056 398.048L336.8 397.088C336.8 397.451 336.709 397.771 336.528 398.048C336.357 398.315 336.128 398.517 335.84 398.656C335.562 398.795 335.253 398.864 334.912 398.864C334.645 398.864 334.405 398.821 334.192 398.736C333.989 398.651 333.829 398.523 333.712 398.352C333.594 398.171 333.536 397.957 333.536 397.712ZM332.992 394.56C333.098 394.485 333.258 394.395 333.472 394.288C333.696 394.171 333.957 394.075 334.256 394C334.565 393.915 334.89 393.872 335.232 393.872C335.456 393.872 335.664 393.893 335.856 393.936C336.048 393.979 336.213 394.048 336.352 394.144C336.49 394.24 336.597 394.363 336.672 394.512C336.757 394.661 336.8 394.853 336.8 395.088V400H338.496V394.752C338.496 394.261 338.362 393.851 338.096 393.52C337.829 393.179 337.461 392.917 336.992 392.736C336.533 392.555 336 392.464 335.392 392.464C334.709 392.464 334.101 392.56 333.568 392.752C333.045 392.944 332.618 393.141 332.288 393.344L332.992 394.56ZM345.246 395.52V400H347.022V395.328C347.022 394.443 346.804 393.749 346.366 393.248C345.929 392.736 345.294 392.48 344.462 392.48C343.95 392.48 343.508 392.587 343.134 392.8C342.772 393.013 342.473 393.339 342.238 393.776V392.64H340.51V400H342.238V395.52C342.238 395.189 342.308 394.901 342.446 394.656C342.585 394.4 342.777 394.208 343.022 394.08C343.268 393.941 343.55 393.872 343.87 393.872C344.34 393.872 344.686 394.011 344.91 394.288C345.134 394.565 345.246 394.976 345.246 395.52ZM353.965 395.52V400H355.741V395.328C355.741 394.443 355.522 393.749 355.085 393.248C354.648 392.736 354.013 392.48 353.181 392.48C352.669 392.48 352.226 392.587 351.853 392.8C351.49 393.013 351.192 393.339 350.957 393.776V392.64H349.229V400H350.957V395.52C350.957 395.189 351.026 394.901 351.165 394.656C351.304 394.4 351.496 394.208 351.741 394.08C351.986 393.941 352.269 393.872 352.589 393.872C353.058 393.872 353.405 394.011 353.629 394.288C353.853 394.565 353.965 394.976 353.965 395.52ZM361.148 400.16C362.001 400.16 362.732 399.995 363.34 399.664C363.948 399.333 364.444 398.837 364.828 398.176L363.34 397.568C363.105 397.963 362.812 398.256 362.46 398.448C362.108 398.64 361.697 398.736 361.228 398.736C360.78 398.736 360.396 398.64 360.076 398.448C359.766 398.256 359.532 397.979 359.372 397.616C359.212 397.243 359.132 396.789 359.132 396.256C359.142 395.723 359.228 395.275 359.388 394.912C359.548 394.549 359.782 394.272 360.092 394.08C360.401 393.888 360.774 393.792 361.212 393.792C361.574 393.792 361.889 393.872 362.156 394.032C362.433 394.192 362.646 394.416 362.796 394.704C362.956 394.992 363.036 395.333 363.036 395.728C363.036 395.803 363.014 395.899 362.972 396.016C362.94 396.123 362.908 396.208 362.876 396.272L363.404 395.536H358.412V396.72H364.876C364.886 396.677 364.892 396.608 364.892 396.512C364.902 396.416 364.908 396.325 364.908 396.24C364.908 395.451 364.758 394.779 364.46 394.224C364.172 393.659 363.756 393.227 363.212 392.928C362.668 392.629 362.006 392.48 361.228 392.48C360.449 392.48 359.772 392.64 359.196 392.96C358.62 393.269 358.172 393.712 357.852 394.288C357.542 394.864 357.388 395.541 357.388 396.32C357.388 397.088 357.542 397.76 357.852 398.336C358.161 398.912 358.598 399.36 359.164 399.68C359.74 400 360.401 400.16 361.148 400.16ZM366.557 387.52V400H368.285V387.52H366.557Z" fill="#4476F8"/>
<path d="M702.904 370.8V382H704.824V370.8H702.904ZM706.52 382C707.662 382 708.664 381.771 709.528 381.312C710.392 380.843 711.064 380.192 711.544 379.36C712.035 378.517 712.28 377.531 712.28 376.4C712.28 375.269 712.035 374.288 711.544 373.456C711.064 372.613 710.392 371.963 709.528 371.504C708.664 371.035 707.662 370.8 706.52 370.8H704.072V372.576H706.472C707.027 372.576 707.539 372.656 708.008 372.816C708.478 372.976 708.883 373.216 709.224 373.536C709.576 373.856 709.848 374.256 710.04 374.736C710.243 375.216 710.344 375.771 710.344 376.4C710.344 377.029 710.243 377.584 710.04 378.064C709.848 378.544 709.576 378.944 709.224 379.264C708.883 379.584 708.478 379.824 708.008 379.984C707.539 380.144 707.027 380.224 706.472 380.224H704.072V382H706.52ZM715.067 379.712C715.067 379.477 715.12 379.28 715.227 379.12C715.344 378.96 715.515 378.837 715.739 378.752C715.963 378.656 716.256 378.608 716.619 378.608C717.035 378.608 717.43 378.661 717.803 378.768C718.176 378.875 718.528 379.045 718.859 379.28V378.4C718.763 378.283 718.598 378.155 718.363 378.016C718.128 377.867 717.83 377.739 717.467 377.632C717.115 377.525 716.694 377.472 716.203 377.472C715.286 377.472 714.576 377.685 714.075 378.112C713.574 378.528 713.323 379.093 713.323 379.808C713.323 380.309 713.44 380.736 713.675 381.088C713.91 381.44 714.224 381.707 714.619 381.888C715.014 382.069 715.44 382.16 715.899 382.16C716.326 382.16 716.742 382.085 717.147 381.936C717.563 381.776 717.904 381.541 718.171 381.232C718.448 380.912 718.587 380.517 718.587 380.048L718.331 379.088C718.331 379.451 718.24 379.771 718.059 380.048C717.888 380.315 717.659 380.517 717.371 380.656C717.094 380.795 716.784 380.864 716.443 380.864C716.176 380.864 715.936 380.821 715.723 380.736C715.52 380.651 715.36 380.523 715.243 380.352C715.126 380.171 715.067 379.957 715.067 379.712ZM714.523 376.56C714.63 376.485 714.79 376.395 715.003 376.288C715.227 376.171 715.488 376.075 715.787 376C716.096 375.915 716.422 375.872 716.763 375.872C716.987 375.872 717.195 375.893 717.387 375.936C717.579 375.979 717.744 376.048 717.883 376.144C718.022 376.24 718.128 376.363 718.203 376.512C718.288 376.661 718.331 376.853 718.331 377.088V382H720.027V376.752C720.027 376.261 719.894 375.851 719.627 375.52C719.36 375.179 718.992 374.917 718.523 374.736C718.064 374.555 717.531 374.464 716.923 374.464C716.24 374.464 715.632 374.56 715.099 374.752C714.576 374.944 714.15 375.141 713.819 375.344L714.523 376.56ZM721.018 374.64V376.16H725.194V374.64H721.018ZM722.25 372.08V382H723.962V372.08H722.25ZM727.473 379.712C727.473 379.477 727.527 379.28 727.633 379.12C727.751 378.96 727.921 378.837 728.145 378.752C728.369 378.656 728.663 378.608 729.025 378.608C729.441 378.608 729.836 378.661 730.209 378.768C730.583 378.875 730.935 379.045 731.265 379.28V378.4C731.169 378.283 731.004 378.155 730.769 378.016C730.535 377.867 730.236 377.739 729.873 377.632C729.521 377.525 729.1 377.472 728.609 377.472C727.692 377.472 726.983 377.685 726.481 378.112C725.98 378.528 725.729 379.093 725.729 379.808C725.729 380.309 725.847 380.736 726.081 381.088C726.316 381.44 726.631 381.707 727.025 381.888C727.42 382.069 727.847 382.16 728.305 382.16C728.732 382.16 729.148 382.085 729.553 381.936C729.969 381.776 730.311 381.541 730.577 381.232C730.855 380.912 730.993 380.517 730.993 380.048L730.737 379.088C730.737 379.451 730.647 379.771 730.465 380.048C730.295 380.315 730.065 380.517 729.777 380.656C729.5 380.795 729.191 380.864 728.849 380.864C728.583 380.864 728.343 380.821 728.129 380.736C727.927 380.651 727.767 380.523 727.649 380.352C727.532 380.171 727.473 379.957 727.473 379.712ZM726.929 376.56C727.036 376.485 727.196 376.395 727.409 376.288C727.633 376.171 727.895 376.075 728.193 376C728.503 375.915 728.828 375.872 729.169 375.872C729.393 375.872 729.601 375.893 729.793 375.936C729.985 375.979 730.151 376.048 730.289 376.144C730.428 376.24 730.535 376.363 730.609 376.512C730.695 376.661 730.737 376.853 730.737 377.088V382H732.433V376.752C732.433 376.261 732.3 375.851 732.033 375.52C731.767 375.179 731.399 374.917 730.929 374.736C730.471 374.555 729.937 374.464 729.329 374.464C728.647 374.464 728.039 374.56 727.505 374.752C726.983 374.944 726.556 375.141 726.225 375.344L726.929 376.56ZM691.249 394.4C691.249 393.6 691.425 392.907 691.777 392.32C692.14 391.723 692.609 391.264 693.185 390.944C693.772 390.613 694.407 390.448 695.089 390.448C695.623 390.448 696.103 390.517 696.529 390.656C696.956 390.795 697.34 390.987 697.681 391.232C698.033 391.467 698.337 391.733 698.593 392.032V389.792C698.124 389.408 697.617 389.115 697.073 388.912C696.529 388.709 695.847 388.608 695.025 388.608C694.204 388.608 693.436 388.747 692.721 389.024C692.017 389.301 691.404 389.701 690.881 390.224C690.359 390.747 689.948 391.365 689.649 392.08C689.361 392.784 689.217 393.557 689.217 394.4C689.217 395.243 689.361 396.021 689.649 396.736C689.948 397.44 690.359 398.053 690.881 398.576C691.404 399.099 692.017 399.499 692.721 399.776C693.436 400.053 694.204 400.192 695.025 400.192C695.847 400.192 696.529 400.091 697.073 399.888C697.617 399.685 698.124 399.392 698.593 399.008V396.768C698.337 397.067 698.033 397.339 697.681 397.584C697.34 397.819 696.956 398.005 696.529 398.144C696.103 398.283 695.623 398.352 695.089 398.352C694.407 398.352 693.772 398.192 693.185 397.872C692.609 397.541 692.14 397.077 691.777 396.48C691.425 395.883 691.249 395.189 691.249 394.4ZM702.504 387.52H700.776V400H702.504V387.52ZM705.512 395.52V400H707.256V395.28C707.256 394.651 707.16 394.128 706.968 393.712C706.776 393.285 706.488 392.965 706.104 392.752C705.731 392.539 705.272 392.432 704.728 392.432C704.173 392.432 703.699 392.571 703.304 392.848C702.92 393.125 702.621 393.493 702.408 393.952C702.195 394.411 702.088 394.933 702.088 395.52H702.504C702.504 395.189 702.573 394.901 702.712 394.656C702.851 394.411 703.043 394.219 703.288 394.08C703.533 393.941 703.816 393.872 704.136 393.872C704.616 393.872 704.963 394.011 705.176 394.288C705.4 394.565 705.512 394.976 705.512 395.52ZM710.536 397.712C710.536 397.477 710.589 397.28 710.696 397.12C710.813 396.96 710.984 396.837 711.208 396.752C711.432 396.656 711.725 396.608 712.088 396.608C712.504 396.608 712.898 396.661 713.272 396.768C713.645 396.875 713.997 397.045 714.328 397.28V396.4C714.232 396.283 714.066 396.155 713.832 396.016C713.597 395.867 713.298 395.739 712.936 395.632C712.584 395.525 712.162 395.472 711.672 395.472C710.754 395.472 710.045 395.685 709.544 396.112C709.042 396.528 708.792 397.093 708.792 397.808C708.792 398.309 708.909 398.736 709.144 399.088C709.378 399.44 709.693 399.707 710.088 399.888C710.482 400.069 710.909 400.16 711.368 400.16C711.794 400.16 712.21 400.085 712.616 399.936C713.032 399.776 713.373 399.541 713.64 399.232C713.917 398.912 714.056 398.517 714.056 398.048L713.8 397.088C713.8 397.451 713.709 397.771 713.528 398.048C713.357 398.315 713.128 398.517 712.84 398.656C712.562 398.795 712.253 398.864 711.912 398.864C711.645 398.864 711.405 398.821 711.192 398.736C710.989 398.651 710.829 398.523 710.712 398.352C710.594 398.171 710.536 397.957 710.536 397.712ZM709.992 394.56C710.098 394.485 710.258 394.395 710.472 394.288C710.696 394.171 710.957 394.075 711.256 394C711.565 393.915 711.89 393.872 712.232 393.872C712.456 393.872 712.664 393.893 712.856 393.936C713.048 393.979 713.213 394.048 713.352 394.144C713.49 394.24 713.597 394.363 713.672 394.512C713.757 394.661 713.8 394.853 713.8 395.088V400H715.496V394.752C715.496 394.261 715.362 393.851 715.096 393.52C714.829 393.179 714.461 392.917 713.992 392.736C713.533 392.555 713 392.464 712.392 392.464C711.709 392.464 711.101 392.56 710.568 392.752C710.045 392.944 709.618 393.141 709.288 393.344L709.992 394.56ZM722.246 395.52V400H724.022V395.328C724.022 394.443 723.804 393.749 723.366 393.248C722.929 392.736 722.294 392.48 721.462 392.48C720.95 392.48 720.508 392.587 720.134 392.8C719.772 393.013 719.473 393.339 719.238 393.776V392.64H717.51V400H719.238V395.52C719.238 395.189 719.308 394.901 719.446 394.656C719.585 394.4 719.777 394.208 720.022 394.08C720.268 393.941 720.55 393.872 720.87 393.872C721.34 393.872 721.686 394.011 721.91 394.288C722.134 394.565 722.246 394.976 722.246 395.52ZM730.965 395.52V400H732.741V395.328C732.741 394.443 732.522 393.749 732.085 393.248C731.648 392.736 731.013 392.48 730.181 392.48C729.669 392.48 729.226 392.587 728.853 392.8C728.49 393.013 728.192 393.339 727.957 393.776V392.64H726.229V400H727.957V395.52C727.957 395.189 728.026 394.901 728.165 394.656C728.304 394.4 728.496 394.208 728.741 394.08C728.986 393.941 729.269 393.872 729.589 393.872C730.058 393.872 730.405 394.011 730.629 394.288C730.853 394.565 730.965 394.976 730.965 395.52ZM738.148 400.16C739.001 400.16 739.732 399.995 740.34 399.664C740.948 399.333 741.444 398.837 741.828 398.176L740.34 397.568C740.105 397.963 739.812 398.256 739.46 398.448C739.108 398.64 738.697 398.736 738.228 398.736C737.78 398.736 737.396 398.64 737.076 398.448C736.766 398.256 736.532 397.979 736.372 397.616C736.212 397.243 736.132 396.789 736.132 396.256C736.142 395.723 736.228 395.275 736.388 394.912C736.548 394.549 736.782 394.272 737.092 394.08C737.401 393.888 737.774 393.792 738.212 393.792C738.574 393.792 738.889 393.872 739.156 394.032C739.433 394.192 739.646 394.416 739.796 394.704C739.956 394.992 740.036 395.333 740.036 395.728C740.036 395.803 740.014 395.899 739.972 396.016C739.94 396.123 739.908 396.208 739.876 396.272L740.404 395.536H735.412V396.72H741.876C741.886 396.677 741.892 396.608 741.892 396.512C741.902 396.416 741.908 396.325 741.908 396.24C741.908 395.451 741.758 394.779 741.46 394.224C741.172 393.659 740.756 393.227 740.212 392.928C739.668 392.629 739.006 392.48 738.228 392.48C737.449 392.48 736.772 392.64 736.196 392.96C735.62 393.269 735.172 393.712 734.852 394.288C734.542 394.864 734.388 395.541 734.388 396.32C734.388 397.088 734.542 397.76 734.852 398.336C735.161 398.912 735.598 399.36 736.164 399.68C736.74 400 737.401 400.16 738.148 400.16ZM743.557 387.52V400H745.285V387.52H743.557Z" fill="#4476F8"/>
<path d="M826.209 153.8V165H828.113V153.8H826.209ZM836.007 152.52V165H837.751V152.52H836.007ZM829.911 161.32C829.911 162.12 830.077 162.808 830.407 163.384C830.738 163.96 831.175 164.403 831.719 164.712C832.274 165.011 832.866 165.16 833.495 165.16C834.114 165.16 834.653 165.005 835.111 164.696C835.581 164.387 835.949 163.944 836.215 163.368C836.493 162.792 836.631 162.109 836.631 161.32C836.631 160.52 836.493 159.837 836.215 159.272C835.949 158.696 835.581 158.253 835.111 157.944C834.653 157.635 834.114 157.48 833.495 157.48C832.866 157.48 832.274 157.635 831.719 157.944C831.175 158.243 830.738 158.68 830.407 159.256C830.077 159.821 829.911 160.509 829.911 161.32ZM831.703 161.32C831.703 160.829 831.805 160.408 832.007 160.056C832.21 159.704 832.477 159.437 832.807 159.256C833.149 159.075 833.517 158.984 833.911 158.984C834.242 158.984 834.567 159.075 834.887 159.256C835.218 159.437 835.485 159.704 835.687 160.056C835.901 160.397 836.007 160.819 836.007 161.32C836.007 161.821 835.901 162.248 835.687 162.6C835.485 162.941 835.218 163.203 834.887 163.384C834.567 163.565 834.242 163.656 833.911 163.656C833.517 163.656 833.149 163.565 832.807 163.384C832.477 163.203 832.21 162.936 832.007 162.584C831.805 162.232 831.703 161.811 831.703 161.32ZM840.037 153.8V165H841.925V153.8H840.037ZM841.157 155.464H843.413C844.064 155.464 844.586 155.619 844.981 155.928C845.376 156.227 845.573 156.675 845.573 157.272C845.573 157.869 845.376 158.323 844.981 158.632C844.586 158.941 844.064 159.096 843.413 159.096H841.157V160.76H843.413C844.224 160.76 844.928 160.621 845.525 160.344C846.133 160.056 846.602 159.651 846.933 159.128C847.264 158.605 847.429 157.987 847.429 157.272C847.429 156.557 847.264 155.944 846.933 155.432C846.602 154.909 846.133 154.509 845.525 154.232C844.928 153.944 844.224 153.8 843.413 153.8H841.157V155.464Z" fill="#93A9BF"/>
<path d="M83 425C105.091 425 123 407.091 123 385C123 362.909 105.091 345 83 345C60.9086 345 43 362.909 43 385C43 407.091 60.9086 425 83 425Z" stroke="#93A9BF" stroke-width="4" stroke-miterlimit="10" stroke-linecap="round" stroke-linejoin="round"/>
<path d="M82.9999 390.714C90.8897 390.714 97.2857 384.319 97.2857 376.429C97.2857 368.539 90.8897 362.143 82.9999 362.143C75.1102 362.143 68.7142 368.539 68.7142 376.429C68.7142 384.319 75.1102 390.714 82.9999 390.714Z" stroke="#93A9BF" stroke-width="4" stroke-miterlimit="10" stroke-linecap="round" stroke-linejoin="round"/>
<path d="M52.7142 411C57.8571 399.286 69.2857 391 82.9999 391C96.7142 391 108.429 399.286 113.286 411" stroke="#93A9BF" stroke-width="4" stroke-miterlimit="10" stroke-linecap="round" stroke-linejoin="round"/>
<path d="M63.7618 436.8V444.32C63.7618 444.939 63.8578 445.493 64.0498 445.984C64.2418 446.464 64.5191 446.875 64.8818 447.216C65.2551 447.557 65.6924 447.819 66.1938 448C66.6951 448.181 67.2444 448.272 67.8418 448.272C68.4391 448.272 68.9884 448.181 69.4898 448C69.9911 447.819 70.4231 447.557 70.7858 447.216C71.1484 446.875 71.4258 446.464 71.6178 445.984C71.8204 445.493 71.9218 444.939 71.9218 444.32V436.8H70.0338V444.24C70.0338 444.933 69.8471 445.493 69.4738 445.92C69.1004 446.336 68.5564 446.544 67.8418 446.544C67.1164 446.544 66.5671 446.336 66.1938 445.92C65.8311 445.493 65.6498 444.933 65.6498 444.24V436.8H63.7618ZM74.5338 445.584L73.5258 446.592C73.7391 446.869 74.0004 447.136 74.3098 447.392C74.6298 447.637 74.9978 447.84 75.4138 448C75.8404 448.149 76.3044 448.224 76.8058 448.224C77.6164 448.224 78.2564 448.016 78.7258 447.6C79.2058 447.173 79.4458 446.613 79.4458 445.92C79.4458 445.472 79.3391 445.109 79.1258 444.832C78.9231 444.555 78.6511 444.32 78.3098 444.128C77.9684 443.936 77.5951 443.76 77.1898 443.6C76.8911 443.483 76.6191 443.371 76.3738 443.264C76.1391 443.157 75.9471 443.04 75.7978 442.912C75.6591 442.773 75.5898 442.619 75.5898 442.448C75.5898 442.245 75.6698 442.091 75.8298 441.984C75.9898 441.877 76.1924 441.824 76.4378 441.824C76.8004 441.824 77.1524 441.915 77.4938 442.096C77.8351 442.277 78.1284 442.512 78.3738 442.8L79.3338 441.776C79.1311 441.531 78.8858 441.312 78.5978 441.12C78.3098 440.928 77.9844 440.773 77.6218 440.656C77.2698 440.539 76.8911 440.48 76.4858 440.48C76.0378 440.48 75.6164 440.555 75.2218 440.704C74.8378 440.843 74.5284 441.061 74.2938 441.36C74.0698 441.659 73.9578 442.032 73.9578 442.48C73.9578 442.917 74.0591 443.28 74.2618 443.568C74.4751 443.856 74.7418 444.091 75.0618 444.272C75.3924 444.443 75.7231 444.592 76.0538 444.72C76.3844 444.837 76.6724 444.955 76.9178 445.072C77.1631 445.179 77.3551 445.312 77.4938 445.472C77.6324 445.621 77.7018 445.803 77.7018 446.016C77.7018 446.261 77.6111 446.453 77.4298 446.592C77.2591 446.731 77.0191 446.8 76.7098 446.8C76.4644 446.8 76.2191 446.757 75.9738 446.672C75.7284 446.576 75.4831 446.437 75.2378 446.256C75.0031 446.064 74.7684 445.84 74.5338 445.584ZM84.179 448.16C85.0323 448.16 85.763 447.995 86.371 447.664C86.979 447.333 87.475 446.837 87.859 446.176L86.371 445.568C86.1363 445.963 85.843 446.256 85.491 446.448C85.139 446.64 84.7283 446.736 84.259 446.736C83.811 446.736 83.427 446.64 83.107 446.448C82.7977 446.256 82.563 445.979 82.403 445.616C82.243 445.243 82.163 444.789 82.163 444.256C82.1737 443.723 82.259 443.275 82.419 442.912C82.579 442.549 82.8137 442.272 83.123 442.08C83.4323 441.888 83.8057 441.792 84.243 441.792C84.6057 441.792 84.9203 441.872 85.187 442.032C85.4643 442.192 85.6777 442.416 85.827 442.704C85.987 442.992 86.067 443.333 86.067 443.728C86.067 443.803 86.0457 443.899 86.003 444.016C85.971 444.123 85.939 444.208 85.907 444.272L86.435 443.536H81.443V444.72H87.907C87.9177 444.677 87.923 444.608 87.923 444.512C87.9337 444.416 87.939 444.325 87.939 444.24C87.939 443.451 87.7897 442.779 87.491 442.224C87.203 441.659 86.787 441.227 86.243 440.928C85.699 440.629 85.0377 440.48 84.259 440.48C83.4803 440.48 82.803 440.64 82.227 440.96C81.651 441.269 81.203 441.712 80.883 442.288C80.5737 442.864 80.419 443.541 80.419 444.32C80.419 445.088 80.5737 445.76 80.883 446.336C81.1923 446.912 81.6297 447.36 82.195 447.68C82.771 448 83.4323 448.16 84.179 448.16ZM91.3004 440.64H89.5884V448H91.3004V440.64ZM93.4924 442.48L94.3244 441.024C94.1644 440.821 93.967 440.683 93.7324 440.608C93.4977 440.523 93.247 440.48 92.9804 440.48C92.607 440.48 92.2444 440.613 91.8924 440.88C91.551 441.147 91.2684 441.509 91.0444 441.968C90.831 442.416 90.7244 442.933 90.7244 443.52L91.3004 443.856C91.3004 443.504 91.3377 443.2 91.4124 442.944C91.4977 442.677 91.631 442.469 91.8124 442.32C91.9937 442.171 92.2284 442.096 92.5164 442.096C92.7297 442.096 92.9057 442.128 93.0444 442.192C93.183 442.256 93.3324 442.352 93.4924 442.48Z" fill="#93A9BF"/>
<path d="M547 246L547 228.5M547 228.5L539 236.5M547 228.5L555 236.5" stroke="#4476F8" stroke-width="2" stroke-linecap="round" stroke-linejoin="round"/>
<path d="M547 241V370C547 378.284 540.284 385 532 385H378" stroke="#4476F8" stroke-width="2" stroke-linecap="round" stroke-linejoin="round"/>
<path d="M303.5 385H131" stroke="#4476F8" stroke-width="2" stroke-linecap="round" stroke-linejoin="round"/>
<path d="M843.5 385H753.5" stroke="#4476F8" stroke-width="2" stroke-linecap="round" stroke-linejoin="round"/>
<path d="M595 246L595 228.5M595 228.5L603 236.5M595 228.5L587 236.5" stroke="#4476F8" stroke-width="2" stroke-linecap="round" stroke-linejoin="round"/>
<path d="M595 240V370C595 378.284 601.716 385 610 385H681.5" stroke="#4476F8" stroke-width="2" stroke-linecap="round" stroke-linejoin="round"/>
<path d="M571 435L571 482" stroke="#4476F8" stroke-width="2" stroke-linecap="round" stroke-linejoin="round"/>
<path d="M546.242 137.84L542.122 128H539.402L546.242 142.78L553.082 128H550.362L546.242 137.84ZM556.929 142.2C557.995 142.2 558.909 141.993 559.669 141.58C560.429 141.167 561.049 140.547 561.529 139.72L559.669 138.96C559.375 139.453 559.009 139.82 558.569 140.06C558.129 140.3 557.615 140.42 557.029 140.42C556.469 140.42 555.989 140.3 555.589 140.06C555.202 139.82 554.909 139.473 554.709 139.02C554.509 138.553 554.409 137.987 554.409 137.32C554.422 136.653 554.529 136.093 554.729 135.64C554.929 135.187 555.222 134.84 555.609 134.6C555.995 134.36 556.462 134.24 557.009 134.24C557.462 134.24 557.855 134.34 558.189 134.54C558.535 134.74 558.802 135.02 558.989 135.38C559.189 135.74 559.289 136.167 559.289 136.66C559.289 136.753 559.262 136.873 559.209 137.02C559.169 137.153 559.129 137.26 559.089 137.34L559.749 136.42H553.509V137.9H561.589C561.602 137.847 561.609 137.76 561.609 137.64C561.622 137.52 561.629 137.407 561.629 137.3C561.629 136.313 561.442 135.473 561.069 134.78C560.709 134.073 560.189 133.533 559.509 133.16C558.829 132.787 558.002 132.6 557.029 132.6C556.055 132.6 555.209 132.8 554.489 133.2C553.769 133.587 553.209 134.14 552.809 134.86C552.422 135.58 552.229 136.427 552.229 137.4C552.229 138.36 552.422 139.2 552.809 139.92C553.195 140.64 553.742 141.2 554.449 141.6C555.169 142 555.995 142.2 556.929 142.2ZM569.611 136.4V142H571.831V136.16C571.831 135.053 571.557 134.187 571.011 133.56C570.464 132.92 569.671 132.6 568.631 132.6C567.991 132.6 567.437 132.733 566.971 133C566.517 133.267 566.144 133.673 565.851 134.22V132.8H563.691V142H565.851V136.4C565.851 135.987 565.937 135.627 566.111 135.32C566.284 135 566.524 134.76 566.831 134.6C567.137 134.427 567.491 134.34 567.891 134.34C568.477 134.34 568.911 134.513 569.191 134.86C569.471 135.207 569.611 135.72 569.611 136.4ZM581.509 126.4V142H583.689V126.4H581.509ZM573.889 137.4C573.889 138.4 574.096 139.26 574.509 139.98C574.922 140.7 575.469 141.253 576.149 141.64C576.842 142.013 577.582 142.2 578.369 142.2C579.142 142.2 579.816 142.007 580.389 141.62C580.976 141.233 581.436 140.68 581.769 139.96C582.116 139.24 582.289 138.387 582.289 137.4C582.289 136.4 582.116 135.547 581.769 134.84C581.436 134.12 580.976 133.567 580.389 133.18C579.816 132.793 579.142 132.6 578.369 132.6C577.582 132.6 576.842 132.793 576.149 133.18C575.469 133.553 574.922 134.1 574.509 134.82C574.096 135.527 573.889 136.387 573.889 137.4ZM576.129 137.4C576.129 136.787 576.256 136.26 576.509 135.82C576.762 135.38 577.096 135.047 577.509 134.82C577.936 134.593 578.396 134.48 578.889 134.48C579.302 134.48 579.709 134.593 580.109 134.82C580.522 135.047 580.856 135.38 581.109 135.82C581.376 136.247 581.509 136.773 581.509 137.4C581.509 138.027 581.376 138.56 581.109 139C580.856 139.427 580.522 139.753 580.109 139.98C579.709 140.207 579.302 140.32 578.889 140.32C578.396 140.32 577.936 140.207 577.509 139.98C577.096 139.753 576.762 139.42 576.509 138.98C576.256 138.54 576.129 138.013 576.129 137.4ZM585.666 137.4C585.666 138.333 585.88 139.167 586.306 139.9C586.746 140.62 587.34 141.187 588.086 141.6C588.833 142 589.68 142.2 590.626 142.2C591.573 142.2 592.413 142 593.146 141.6C593.893 141.187 594.486 140.62 594.926 139.9C595.366 139.167 595.586 138.333 595.586 137.4C595.586 136.453 595.366 135.62 594.926 134.9C594.486 134.18 593.893 133.62 593.146 133.22C592.413 132.807 591.573 132.6 590.626 132.6C589.68 132.6 588.833 132.807 588.086 133.22C587.34 133.62 586.746 134.18 586.306 134.9C585.88 135.62 585.666 136.453 585.666 137.4ZM587.886 137.4C587.886 136.827 588.006 136.32 588.246 135.88C588.486 135.44 588.813 135.1 589.226 134.86C589.64 134.62 590.106 134.5 590.626 134.5C591.133 134.5 591.593 134.62 592.006 134.86C592.433 135.1 592.766 135.44 593.006 135.88C593.246 136.32 593.366 136.827 593.366 137.4C593.366 137.973 593.246 138.48 593.006 138.92C592.766 139.347 592.433 139.687 592.006 139.94C591.593 140.18 591.133 140.3 590.626 140.3C590.106 140.3 589.64 140.18 589.226 139.94C588.813 139.687 588.486 139.347 588.246 138.92C588.006 138.48 587.886 137.973 587.886 137.4ZM599.776 132.8H597.636V142H599.776V132.8ZM602.516 135.1L603.556 133.28C603.356 133.027 603.109 132.853 602.816 132.76C602.523 132.653 602.209 132.6 601.876 132.6C601.409 132.6 600.956 132.767 600.516 133.1C600.089 133.433 599.736 133.887 599.456 134.46C599.189 135.02 599.056 135.667 599.056 136.4L599.776 136.82C599.776 136.38 599.823 136 599.916 135.68C600.023 135.347 600.189 135.087 600.416 134.9C600.643 134.713 600.936 134.62 601.296 134.62C601.563 134.62 601.783 134.66 601.956 134.74C602.129 134.82 602.316 134.94 602.516 135.1Z" fill="white"/>
</svg>
